<?xml version="1.0" encoding="utf-8"?>
<!-- Generator: Adobe Illustrator 17.1.0, SVG Export Plug-In . SVG Version: 6.00 Build 0)  -->
<!DOCTYPE svg PUBLIC "-//W3C//DTD SVG 1.1//EN" "http://www.w3.org/Graphics/SVG/1.1/DTD/svg11.dtd">
<svg version="1.1" id="Layer_1" xmlns="http://www.w3.org/2000/svg" xmlns:xlink="http://www.w3.org/1999/xlink" x="0px" y="0px"
	 viewBox="197.9 0 560 560" enable-background="new 197.9 0 560 560" xml:space="preserve">
<path id="XMLID_2016_" fill="#EFF0F0" d="M247.2,308.3c0-5.7,104.1-10.4,232.5-10.4s232.5,4.7,232.5,10.4"/>
<rect id="XMLID_1_" x="198.7" opacity="1.000000e-02" fill="#FFFFFF" enable-background="new    " width="560" height="560"/>
<rect id="XMLID_1828_" x="536.9" y="226.6" fill="#C4C4C4" width="79.5" height="75.2"/>
<rect id="XMLID_1823_" x="609.7" y="220.8" fill="#D9D9DB" width="65.2" height="81.4"/>
<path id="XMLID_1822_" fill="#C4C4C4" d="M676,218.3c1.2,0,2.1,0.8,2.1,1.8v1.3c0,1-1,1.8-2.1,1.8h-72.1v-4.8L676,218.3L676,218.3z"
	/>
<g id="XMLID_771_">
	<rect id="XMLID_1827_" x="475.6" y="220.8" fill="#D9D9DB" width="65.2" height="81"/>
	<rect id="XMLID_1826_" x="513.4" y="230.7" fill="#C4C4C4" width="18.5" height="18.5"/>
	<path id="XMLID_1825_" fill="#C4C4C4" d="M474.6,218.3c-1.2,0-2.1,0.8-2.1,1.8v1.3c0,1,1,1.8,2.1,1.8h72.1v-4.8L474.6,218.3
		L474.6,218.3z"/>
	<rect id="XMLID_1824_" x="484.5" y="230.7" fill="#C4C4C4" width="18.5" height="18.5"/>
	<rect id="XMLID_1812_" x="513.4" y="257.8" fill="#C4C4C4" width="18.5" height="18.5"/>
	<rect id="XMLID_1811_" x="484.5" y="257.8" fill="#C4C4C4" width="18.5" height="18.5"/>
</g>
<g id="XMLID_773_">
	<rect id="XMLID_779_" x="401.9" y="239.1" fill="#D9D9DB" width="50.5" height="62.6"/>
	<rect id="XMLID_778_" x="431.2" y="246.8" fill="#C4C4C4" width="14.3" height="14.3"/>
	<path id="XMLID_777_" fill="#C4C4C4" d="M401.2,237.2c-0.9,0-1.7,0.6-1.7,1.4v1c0,0.8,0.8,1.4,1.7,1.4H457v-3.7H401.2z"/>
	<rect id="XMLID_776_" x="408.8" y="246.8" fill="#C4C4C4" width="14.3" height="14.3"/>
	<rect id="XMLID_775_" x="431.2" y="267.8" fill="#C4C4C4" width="14.3" height="14.3"/>
	<rect id="XMLID_774_" x="408.8" y="267.8" fill="#C4C4C4" width="14.3" height="14.3"/>
</g>
<g>
	<polygon id="XMLID_1821_" fill="#E8E8E8" points="535.4,171.3 535.4,196.5 535.4,302.7 615.4,302.7 615.4,196.5 615.4,171.3 	"/>
	<g id="XMLID_1818_">
		<rect id="XMLID_1820_" x="547.3" y="253.8" fill="#D9D9DB" width="25.4" height="44.7"/>
		<rect id="XMLID_1819_" x="578.1" y="253.8" fill="#D9D9DB" width="25.2" height="44.7"/>
	</g>
	<path id="XMLID_1817_" fill="#C4C4C4" d="M625.1,169.1c0,1.3-1.1,2.3-2.3,2.3h-94.6c-1.3,0-2.3-1.1-2.3-2.3v-1.7
		c0-1.3,1.1-2.3,2.3-2.3h94.6c1.3,0,2.3,1.1,2.3,2.3V169.1L625.1,169.1z"/>
	<path id="XMLID_1813_" fill="#C4C4C4" d="M606.9,253c0,0.5-0.4,0.9-0.9,0.9h-61.6c-0.5,0-0.9-0.4-0.9-0.9v-3.2
		c0-0.5,0.4-0.9,0.9-0.9H606c0.5,0,0.9,0.4,0.9,0.9V253z"/>
	<rect id="XMLID_1810_" x="577.7" y="198.1" fill="#CCCCCC" width="17.1" height="17.1"/>
	<rect id="XMLID_1809_" x="554.9" y="198.1" fill="#CCCCCC" width="17.1" height="17.1"/>
	<rect id="XMLID_1808_" x="577.7" y="221.9" fill="#CCCCCC" width="17.1" height="17.1"/>
	<rect id="XMLID_1807_" x="554.9" y="221.9" fill="#CCCCCC" width="17.1" height="17.1"/>
	<g id="XMLID_1803_">
		<path id="XMLID_1805_" fill="#848484" d="M577.3,188.7c0,0.6-0.5,1-1,1h-1.7c-0.6,0-1-0.5-1-1v-11.2c0-0.6,0.5-1,1-1h1.7
			c0.6,0,1,0.5,1,1V188.7z"/>
		<path id="XMLID_1804_" fill="#848484" d="M582.1,184c0,0.6-0.5,1-1,1h-11.2c-0.6,0-1-0.5-1-1v-1.7c0-0.6,0.5-1,1-1h11.2
			c0.6,0,1,0.5,1,1V184z"/>
	</g>
</g>
<g id="XMLID_1785_">
	<g id="XMLID_1789_">
		<polygon id="XMLID_1791_" fill="#9B9B9B" points="674.4,294.5 674.2,304 676,304.8 676,294.5 		"/>
		<polygon id="XMLID_1790_" fill="#9B9B9B" points="677.6,294.5 676,294.5 676,304.8 677.8,304 		"/>
	</g>
	<g id="XMLID_1786_">
		<path id="XMLID_1788_" fill="#D9D9DB" d="M675.7,274.9c0,0,16.7,18.1,0.4,22.8L675.7,274.9z"/>
		<path id="XMLID_1787_" fill="#C4C4C4" d="M675.7,274.9c0,0-16,18.7,0.4,22.8L675.7,274.9z"/>
	</g>
</g>
<g id="XMLID_1778_">
	<g id="XMLID_1782_">
		<polygon id="XMLID_1784_" fill="#9B9B9B" points="541,294.5 540.6,304 542.4,304.8 542.4,294.5 		"/>
		<polygon id="XMLID_1783_" fill="#9B9B9B" points="544,294.5 542.4,294.5 542.4,304.8 544.4,304 		"/>
	</g>
	<g id="XMLID_1779_">
		<path id="XMLID_1781_" fill="#D9D9DB" d="M542.2,274.9c0,0,16.7,18.1,0.4,22.8L542.2,274.9z"/>
		<path id="XMLID_1780_" fill="#C4C4C4" d="M542.2,274.9c0,0-16,18.7,0.4,22.8L542.2,274.9z"/>
	</g>
</g>
<g id="XMLID_1771_">
	<g id="XMLID_1775_">
		<polygon id="XMLID_1777_" fill="#9B9B9B" points="608,294.5 607.8,304 609.6,304.8 609.6,294.5 		"/>
		<polygon id="XMLID_1776_" fill="#9B9B9B" points="611.2,294.5 609.6,294.5 609.6,304.8 611.4,304 		"/>
	</g>
	<g id="XMLID_1772_">
		<path id="XMLID_1774_" fill="#EFF0F0" d="M609.3,274.9c0,0,16.7,18.1,0.4,22.8L609.3,274.9z"/>
		<path id="XMLID_1773_" fill="#C4C4C4" d="M609.3,274.9c0,0-16,18.7,0.4,22.8L609.3,274.9z"/>
	</g>
</g>
<g id="XMLID_1751_">
	<rect id="XMLID_1761_" x="647.5" y="230.7" fill="#C4C4C4" width="18.5" height="18.5"/>
	<rect id="XMLID_1758_" x="618.6" y="230.7" fill="#C4C4C4" width="18.5" height="18.5"/>
	<rect id="XMLID_1755_" x="647.5" y="257.7" fill="#C4C4C4" width="18.5" height="18.5"/>
	<rect id="XMLID_1752_" x="618.6" y="257.7" fill="#C4C4C4" width="18.5" height="18.5"/>
</g>
<g id="XMLID_7_">
	<path id="XMLID_9_" fill="#EFEFEF" d="M321.7,238.8c7.8-3.8,12.3-8.8,14.9-13.3c6.5-11,6.2-25.2-0.7-36.2
		c-8.4-13.3-30.2-17.2-44.7-14.4c-20.9,4-29.9,25.4-22.9,44.5c3.4,9.5,10.2,17.3,17.6,20.4C291.6,242.2,305.7,246.5,321.7,238.8z"/>
	<path id="XMLID_8_" fill="#D9D9DB" d="M431.4,293.8c-7.9-11.8-22.9-8.9-22.9-8.9s2.9-10.7-7.5-21.4c-10.5-10.7-25.2-2.6-25.2-2.6
		s-4.9-15.5-25.2-14.8c-13.5,0.5-19.5,9.1-22.2,15.9c-2.5-1.1-5.6-2-9.5-2.7c-1.9-0.3-3.7-0.4-5.3-0.4c-0.1-1.8-0.3-3.5-0.3-4.8
		c-0.1-3.8,0-7.6-0.2-11.3c-0.2-3.4-0.1-6.2-0.5-9.4c-0.6-5.2-0.6-6.7,2.8-9.9c4-3.7,6.9-3.4,11.9-4.8c-3-1.6-6.9-1-10.5,0.5
		c-2.9,1.3-5.6,3.6-7.4,5.5c0.7-6.8-6-22-14-24.8c1,1.2,4.7,4.9,8.3,12.5c2.2,4.7,2.7,10.4,2.8,15.6c0,1.8,0.7,8.4-0.9,9.7
		c-0.9,0.7-3.5,1.2-14.2-3.7c4.5,6.6,14,7.4,15.5,16.5c0.5,3,0.6,6.4,0.4,9.5c-10.9,3.5-14.6,14.5-14.6,14.5
		c-14.4-5.5-19.3,6.3-19.3,6.3c-9.2-0.3-16.6,11.7-16,22.6h177.1C434.2,299.9,433.3,296.6,431.4,293.8z"/>
</g>
<g id="XMLID_3_" opacity="0.75">
	<path id="XMLID_4_" fill="#EFEFEF" d="M357.2,297.6c-4.5-6.8-13.2-5.1-13.2-5.1s1.7-6.1-4.3-12.3c-6-6.1-14.5-1.5-14.5-1.5
		s-2.8-8.9-14.5-8.5c-7.7,0.3-11.2,5.2-12.7,9.1c-1.4-0.6-3.2-1.2-5.4-1.5c-11.5-1.9-15,8.7-15,8.7c-8.3-3.2-11.1,3.6-11.1,3.6
		c-5.3-0.2-9.5,6.7-9.2,13h101.6C358.8,301.1,358.3,299.2,357.2,297.6z"/>
</g>
<g id="XMLID_1728_">
	<g id="XMLID_1732_">
		<polygon id="XMLID_1734_" fill="#9B9B9B" points="641.2,294.5 640.9,304 642.8,304.8 642.8,294.5 		"/>
		<polygon id="XMLID_1733_" fill="#9B9B9B" points="644.3,294.5 642.8,294.5 642.8,304.8 644.6,304 		"/>
	</g>
	<g id="XMLID_1729_">
		<path id="XMLID_1731_" fill="#EFF0F0" d="M642.5,274.9c0,0,16.7,18.1,0.4,22.8L642.5,274.9z"/>
		<path id="XMLID_1730_" fill="#C4C4C4" d="M642.5,274.9c0,0-16,18.7,0.4,22.8L642.5,274.9z"/>
	</g>
</g>
<g id="XMLID_1764_">
	<g id="XMLID_1768_">
		<polygon id="XMLID_1770_" fill="#9B9B9B" points="506.9,294.5 506.6,304 508.5,304.8 508.5,294.5 		"/>
		<polygon id="XMLID_1769_" fill="#9B9B9B" points="510,294.5 508.5,294.5 508.5,304.8 510.3,304 		"/>
	</g>
	<g id="XMLID_1765_">
		<path id="XMLID_1767_" fill="#D9D9DB" d="M508.2,274.9c0,0,16.7,18.1,0.4,22.8L508.2,274.9z"/>
		<path id="XMLID_1766_" fill="#C4C4C4" d="M508.2,274.9c0,0-16,18.7,0.4,22.8L508.2,274.9z"/>
	</g>
</g>
<g id="XMLID_746_">
	<g id="XMLID_750_">
		<polygon id="XMLID_752_" fill="#9B9B9B" points="462.2,294.5 461.9,304 463.8,304.8 463.8,294.5 		"/>
		<polygon id="XMLID_751_" fill="#9B9B9B" points="465.3,294.5 463.8,294.5 463.8,304.8 465.6,304 		"/>
	</g>
	<g id="XMLID_747_">
		<path id="XMLID_749_" fill="#D9D9DB" d="M463.5,274.9c0,0,16.7,18.1,0.4,22.8L463.5,274.9z"/>
		<path id="XMLID_748_" fill="#C4C4C4" d="M463.5,274.9c0,0-16,18.7,0.4,22.8L463.5,274.9z"/>
	</g>
</g>
<g id="patient">
	<ellipse id="XMLID_1725_" fill="#EBEBEE" cx="479.6" cy="495.9" rx="115.4" ry="10.5"/>
	<g id="XMLID_1006_">
		<g id="XMLID_1017_">
			<g id="XMLID_1031_">
				<g id="XMLID_1033_">
					<path id="XMLID_1724_" fill="#EAB69B" d="M408.4,301.2c0,0,3.7,10.6,6.6,11.6c2.9,1,10,1.4,10.7,0.8c0.7-0.6,0.3-1.1,0-2.4
						c-0.3-1.4-6.1-8-6.1-8l-10.3-3.5L408.4,301.2z"/>
					<path id="XMLID_1723_" fill="#EAB69B" d="M535.7,301.2c0,0-3.7,10.6-6.6,11.6c-2.9,1-10,1.4-10.7,0.8s-0.3-1.1,0-2.4
						c0.3-1.4,6.1-8,6.1-8l10.3-3.5L535.7,301.2z"/>
					<path id="XMLID_1722_" fill="#FFCEB3" d="M438.7,267.7c-1,0.3-3.3,1.8-3.3,1.8s-4,34.3,0,64.2c4,29.8,3.3,34.5,3.3,34.5
						s4.9,11.9,9.3,11.6c4.6-0.3,11.8-21.8,11.8-21.8s5.5-33,5.1-34.2c-0.5-1.3,5.5-30.2,5.8-33.2c0.3-3-3.9-8.1-3.9-8.1
						L438.7,267.7z"/>
					<path id="XMLID_1721_" fill="#FFCEB3" d="M509.2,267.7c1,0.3,2.6,1.4,2.6,1.4s4.8,34.8,0.8,64.7c-4,29.8-3.3,34.5-3.3,34.5
						s-4.9,11.9-9.3,11.6S488.2,358,488.2,358s-5.5-33-5.1-34.2c0.5-1.3-5.5-30.2-5.8-33.2c-0.3-3,3.9-8.1,3.9-8.1L509.2,267.7z"/>
					<path id="XMLID_1720_" fill="#2A2A28" d="M452.7,102.8l1-4.6l-0.5-6.1c0,0-1.5-7.5-1.5-10h0.5l-0.5-5.2h1l1-5.3
						c0,0,1.3,1,1.8,0c0.5-1,0.9-3.2,1.7-4.3c0.9-1,7.3-7.8,7.3-7.8v1.7c0,0,3.1-1.9,4.4-1.7c1.3,0.2,4.6-2,4.6-2V59
						c0,0,9.6,2.7,11.7,4c2,1.4,4.4,3.9,6.1,4.3c1.8,0.3,3.2,0.5,3.2,0.5l-1.8,2.2l3.5,6.9l-1.7,1c0,0,0.4,3.3,0.7,4
						s-0.3,11.2-2,17.6c-1.8,6.5-5.1,8.4-5.1,8.4L452.7,102.8z"/>
					<path id="XMLID_1719_" fill="#FFCEB3" d="M460.3,120v12.2c0,0-19.1,8.5-28.4,11.4c-9.3,2.9-11.6,12.5-12.2,16.5
						c-0.7,4,1.1,8.9,0,11.2s-6.5,24.1-5.5,31.7c0.9,7.6-3.1,18.6-3.1,18.6s-2.4,12.5-2.4,31s1.3,37.2,0.8,39.2
						c-0.5,1.9-1.2,9.2-0.4,10.1s11.4,2.1,11.5,1.8c0.1-0.3-1-6.1,0.5-7.7c1.5-1.6,2.2-1.7,2.9-0.5c0.7,1.3,1.3,5.9,2.8,6.3
						c1.6,0.4,1.3-0.9,1.1-2c-0.2-1.2-0.6-4.7-0.7-5.9s-0.9-3.9-2.3-5.4c-1.5-1.6-5.3-8.6-4.6-13.2c0.8-4.6,5.2-29.5,5.8-34.9
						c0.7-5.4,1.3-13.2,3.5-19.1c2.2-5.9,6.1-23.2,6.1-23.2s7.6,24.9,6,30.7c-1.6,5.8-3.3,18.3-4,24.3c-0.7,6-0.7,8.3-0.7,8.3
						s22.9,8.4,23.5,10c0.5,1.7,50.8-7.4,50.8-7.4s-4.9-29.5-7-38.5c0,0,4.7-20.2,7-27.6c0,0,7.7,29.7,8.3,32.7
						c0.6,3,3.8,22.9,5,29.5s3.5,19.2,2,22.5c0,0-2.9,2.3-5.3,5.1c-2.3,2.7-3.1,12.8-3.1,12.8s1.7,0.3,2.3-0.2s2.8-6.5,3.7-6.6
						s0.9-0.1,0.9-0.1s1.8,2.5,1.4,4c-0.5,1.5-2.3,6.3-2.3,6.3s9.6,3.1,10.4,2.5c0.8-0.6,2.5-2.3,2.7-7.4c0.1-5.1,0.5-14.8,0.5-15.2
						s0-9.8,0-9.8s1.9-34.6,0-43.4s-3.5-14-3.6-17.4c-0.2-3.4-1.4-23.3-3.3-29.8c-2-6.5-3.3-11.8-3.3-13c0-1.4,0-12.7-3-18.4
						c-3-5.7-7.7-6.3-10-7.6c-2.3-1.2-27.1-12.7-27.1-12.7l-1-14.1L460.3,120z"/>
					<path id="XMLID_1718_" fill="#EAB69B" d="M460.3,123.6c0,0,9.4,10.4,13.8,9.6s12-11.5,12-11.5l-0.2-2.5l-25.6,1.5V123.6z"/>
					<path id="XMLID_1717_" fill="#FFCEB3" d="M458.1,82.4c0,0-2.3,2-2.3,3.3c0,1.4,0,13.3,0,13.3s-3.1-2.4-3.9,0.8
						c-0.8,3.2,1.9,8.8,3.1,9.8c1.2,1.1,2.3,1.6,2.3,1.6s0.9,5.9,1.6,7s9,10.4,14.6,9.6c5.5-0.8,14.5-11,14.9-11.6
						c0.4-0.6,1-5.5,1-5.5s3.3-2.4,4.5-5.5c1.1-3.1,1.7-5.6,0.7-6.3c-1-0.7-3.2,0-3.3,1.5s-1,2-1,2s0-7.4-0.3-8.1
						c-0.3-0.7-0.7-0.5-0.9-1.4c-0.2-0.9,0-6.3,0-6.3s-3.7-3.8-3.2-4.7c0.5-0.9,1.3-2,0.6-2c-0.7,0-18.4-1.7-20.3-3.1
						c-1.9-1.5-2.4-2.3-2.8-2.2s0.6,3.2-1.5,3.2s-4.4,0.5-4.3,0.9C457.5,79.1,458.1,82.4,458.1,82.4z"/>
					<g id="XMLID_1714_">
						<path id="XMLID_1716_" fill="#2A2A28" d="M460.1,93.7c0.3-0.1,9.5-2,9.8-2.1c0.3,0,0.4-2.4,0.4-2.4s-9.7,2.4-9.9,2.6
							C460.2,92,460.1,93.7,460.1,93.7z"/>
						<path id="XMLID_1715_" fill="#2A2A28" d="M486.3,93.9c-0.3-0.1-9.4-2.4-9.7-2.4s-0.3-2.4-0.3-2.4s9.6,2.7,9.8,2.9
							C486.3,92.2,486.3,93.9,486.3,93.9z"/>
					</g>
					<path id="XMLID_1713_" fill="#EAB69B" d="M435.5,198v-9.7c0,0,3,7.4,8.8,8.5s22.7-4.4,22.7-4.4s-0.9,2.3-5.2,5.1
						c-4.4,2.7-15.8,1.9-18.4,4c-2.7,2.1-4.7,7.5-4.7,7.5L435.5,198z"/>
					<path id="XMLID_1712_" fill="#EAB69B" d="M511.2,198v-9.7c0,0-3,7.4-8.8,8.5c-5.7,1.1-22.7-4.4-22.7-4.4s0.9,2.3,5.2,5.1
						c4.4,2.7,15.8,1.9,18.4,4c2.7,2.1,4.7,7.5,4.7,7.5L511.2,198z"/>
					<path id="XMLID_1711_" fill="#EAB69B" d="M431,211.8c0,0-2.4,9.7-5.5,10.1c-3.1,0.4-11-5.1-11-5.1s7.7,9.3,8.3,15.9
						c0.6,6.5-1.2,33.5-1.2,33.5l4.5-28c0,0,1.2-10.9,2.8-15.9C430.5,217.5,431,211.8,431,211.8z"/>
					<path id="XMLID_1690_" fill="#EAB69B" d="M514.7,212.1c0,0,2.7,9.6,5.8,10c3.1,0.4,10.8-5.3,10.8-5.3s-7.4,9.6-7.8,16.1
						c-0.4,6.5,2.1,33.5,2.1,33.5l-5.3-27.8c0,0-1.5-10.9-3.3-15.8S514.7,212.1,514.7,212.1z"/>
					<path id="XMLID_1689_" fill="#AAAAAA" d="M436.8,260.4c0,0-1.5,8.6-1.5,9.2s19.9,3.5,25.5,11.6c5.5,8.1,7.2,12.9,10,13.2
						s6.5-0.2,7.2-1.4c0.7-1.2,6.1-14.4,16-17.9c9.9-3.5,17.9-4.6,17.9-4.6l-1.7-10.2c0,0-19.8,6.7-38.9,6
						C452.5,265.6,436.8,260.4,436.8,260.4z"/>
					<g id="XMLID_1681_">
						<path id="XMLID_1688_" fill="#FFCEB3" d="M438.8,366.7c0,0-4.9,17-1.3,43.1c3.6,26.2,9.8,58.7,9.8,58.7s-1.4,6.6-1.4,10.8
							c0,4.2-1.2,7.7-1.2,7.7s-5.1,6.9-4.9,8.6c0.2,1.7,0.2,1.7,0.2,1.7h26c0,0,0-2.3,0-3.2s-1.8-7.4-2.5-10.2
							c-0.7-2.8-1.8-13.7-4.4-16.6c0,0,3.3-54.3,1.6-73.6c-1.7-19.2-0.6-37.7-0.6-37.7s-9-0.9-10.6,3.1
							C448,363.1,438.8,366.7,438.8,366.7z"/>
						<path id="XMLID_1687_" fill="#EAB69B" d="M436.2,397.1c0,0,3.1-9.1,9.8-8.9c6.7,0.2,13.9,21.9,15.3,27
							c1.3,5.2-0.3-19-0.7-23.2c-0.3-4.3-0.8-33.9-0.8-33.9l-21.1,8.8C438.8,366.7,435.8,374.1,436.2,397.1z"/>
						<path id="XMLID_1682_" fill="#EAB69B" d="M446.6,472.9c0,0,9,3.9,14.1-2.6l2.3,10.8c0,0-9.7-3.3-17.1-1L446.6,472.9z"/>
					</g>
					<g id="XMLID_1036_">
						<path id="XMLID_1680_" fill="#FFCEB3" d="M509,366.7c0,0,4.9,17,1.3,43.1c-3.6,26.2-9.8,58.7-9.8,58.7s1.4,6.6,1.4,10.8
							c0,4.2,1.2,7.7,1.2,7.7s5.1,6.9,4.9,8.6s-0.2,1.7-0.2,1.7h-26c0,0,0-2.3,0-3.2s1.8-7.4,2.5-10.2c0.7-2.8,1.8-13.7,4.4-16.6
							c0,0-3.3-54.3-1.6-73.6c1.8-19.2,0.6-37.7,0.6-37.7s9-0.9,10.6,3.1C499.7,363.1,509,366.7,509,366.7z"/>
						<path id="XMLID_1679_" fill="#EAB69B" d="M511.6,397.1c0,0-3.1-9.1-9.8-8.9c-6.7,0.2-13.9,21.9-15.3,27
							c-1.3,5.2,0.3-19,0.7-23.2c0.3-4.3,0.8-33.9,0.8-33.9l21.1,8.8C509,366.7,512,374.1,511.6,397.1z"/>
						<path id="XMLID_1662_" fill="#EAB69B" d="M501.2,472.9c0,0-9,3.9-14.1-2.6l-2.3,10.8c0,0,9.7-3.3,17.1-1L501.2,472.9z"/>
					</g>
					<polygon id="XMLID_1035_" fill="#EAB69B" points="435.5,189.1 435.5,168.9 439.9,194.6 					"/>
					<polygon id="XMLID_1034_" fill="#EAB69B" points="511.2,188.3 511.2,168.9 508.3,192.9 					"/>
				</g>
				<path id="XMLID_1032_" fill="#AAAAAA" d="M435.4,269.5l-5.6,65.9H466l4.9-41.2l7.2-1.4l3.7,40.8l35.6-0.8l-5.5-64
					c0,0-47.2-0.4-52.2,0C454.5,269.3,435.4,269.5,435.4,269.5z"/>
			</g>
			<circle id="XMLID_1030_" fill="#F94B58" cx="445.5" cy="149.2" r="1.7"/>
			<circle id="XMLID_1029_" fill="#F94B58" cx="508.3" cy="152.4" r="1.7"/>
			<circle id="XMLID_1028_" fill="#F94B58" cx="429.7" cy="181.7" r="1.7"/>
			<circle id="XMLID_264_" fill="#F94B58" cx="424.9" cy="220.7" r="2.3"/>
			<circle id="XMLID_268_" fill="#F94B58" cx="420.3" cy="199" r="2.3"/>
			<circle id="XMLID_265_" fill="#F94B58" cx="483.1" cy="127.9" r="2.3"/>
			<circle id="XMLID_266_" fill="#F94B58" cx="485.5" cy="106.6" r="1.4"/>
			<circle id="XMLID_262_" fill="#F94B58" cx="412.3" cy="271.7" r="2.3"/>
			<circle id="XMLID_263_" fill="#F94B58" cx="420.3" cy="248.1" r="2.3"/>
			<circle id="XMLID_269_" fill="#F94B58" cx="416" cy="299.7" r="2.3"/>
			<circle id="XMLID_270_" fill="#F94B58" cx="451.1" cy="467.1" r="2.3"/>
			<circle id="XMLID_271_" fill="#F94B58" cx="499.5" cy="455.7" r="2.3"/>
			<circle id="XMLID_1026_" fill="#F94B58" cx="488.5" cy="241.3" r="1.7"/>
			<circle id="XMLID_1025_" fill="#F94B58" cx="451.1" cy="348.6" r="1.7"/>
			<circle id="XMLID_1024_" fill="#F94B58" cx="526.3" cy="209.5" r="1.9"/>
			<circle id="XMLID_258_" fill="#F94B58" cx="535.1" cy="232.8" r="1.9"/>
			<circle id="XMLID_259_" fill="#F94B58" cx="535.7" cy="261.2" r="1.9"/>
			<circle id="XMLID_261_" fill="#F94B58" cx="533.2" cy="276.3" r="1.9"/>
			<circle id="XMLID_260_" fill="#F94B58" cx="526.9" cy="249.3" r="1.9"/>
			<circle id="XMLID_1022_" fill="#F94B58" cx="479.8" cy="164.1" r="1.7"/>
			<circle id="XMLID_1021_" fill="#F94B58" cx="473.2" cy="200.2" r="1.7"/>
			<circle id="XMLID_1020_" fill="#F94B58" cx="453.8" cy="222.3" r="1.7"/>
			<circle id="XMLID_1019_" fill="#F94B58" cx="493.3" cy="341.7" r="1.7"/>
			<circle id="XMLID_1018_" fill="#F94B58" cx="451.1" cy="408.5" r="1.7"/>
		</g>
		<g id="XMLID_1013_">
			<path id="XMLID_1016_" fill="#FFFFFF" d="M460.3,97.2c0,0,0,2.4,3.8,2.3c3.8-0.1,3.6-2.7,3.6-2.7s-1.8-0.5-2.4-0.6
				S460.1,96.4,460.3,97.2z"/>
			<ellipse id="XMLID_1015_" fill="#2A2A28" cx="463.8" cy="97.7" rx="1.8" ry="1.8"/>
			<path id="XMLID_1014_" fill="#2A2A28" d="M462.9,97.2c-0.1,0-2-0.1-2.6,0c-0.6,0.1,0.1-0.9,0.4-1s4.2-1.1,5.7-0.5
				c1.5,0.6,1.8,1.1,1.6,1.4C467.7,97.3,463.9,96.8,462.9,97.2z"/>
		</g>
		<g id="XMLID_1009_">
			<path id="XMLID_1012_" fill="#FFFFFF" d="M486.5,97.2c0,0,0,2.4-3.8,2.3s-3.6-2.7-3.6-2.7s1.8-0.5,2.4-0.6
				C482.2,96.2,486.7,96.4,486.5,97.2z"/>
			<ellipse id="XMLID_1011_" fill="#2A2A28" cx="483.1" cy="97.7" rx="1.8" ry="1.8"/>
			<path id="XMLID_1010_" fill="#2A2A28" d="M483.9,97.2c0.1,0,2-0.1,2.6,0c0.6,0.1-0.1-0.9-0.4-1c-0.3-0.1-4.2-1.1-5.7-0.5
				c-1.5,0.6-1.8,1.1-1.6,1.4C479.1,97.3,482.9,96.8,483.9,97.2z"/>
		</g>
		<path id="XMLID_1008_" fill="#EAB69B" d="M468.3,109.4c0,0,1.1-0.6,1.8,0c0.8,0.6,1.5,1.4,3.6,1.1c2.1-0.3,2.3-1.4,2.8-1.4
			c0.6,0,0.9,0.3,0.8,0.7c-0.1,0.4-1,0.5-1.5,1c-0.6,0.5-1.4,1.1-3.1,1.1c-1.8,0-2.3-1.1-2.9-1.4
			C469.5,110.2,468.7,110.7,468.3,109.4z"/>
		<path id="XMLID_1007_" fill="#FFFFFF" d="M469.5,118c0,0,3.4-0.3,5.3,0h1c0,0-0.6-1.4-3-1.5C470.4,116.5,469.5,118,469.5,118z"/>
	</g>
</g>
<g id="XMLID_754_">
	<g id="XMLID_772_">
		<polygon id="XMLID_791_" fill="#9B9B9B" points="397.9,293.4 397.7,302.9 399.5,303.7 399.5,293.4 		"/>
		<polygon id="XMLID_790_" fill="#9B9B9B" points="401.1,293.4 399.5,293.4 399.5,303.7 401.3,302.9 		"/>
	</g>
	<g id="XMLID_755_">
		<path id="XMLID_757_" fill="#EFF0F0" d="M399.2,273.9c0,0,16.7,18.1,0.4,22.8L399.2,273.9z"/>
		<path id="XMLID_756_" fill="#C4C4C4" d="M399.2,273.9c0,0-16,18.7,0.4,22.8L399.2,273.9z"/>
	</g>
</g>
<g id="clothing">
	<path id="XMLID_163_" fill="#518951" d="M440.8,146.4l-7.7-4.5c0,0-6.5,2.6-9.8,6.5c-3.4,3.9-14.5,37.9-14.5,39.9s26.5,12,26.5,12
		s5.6-12.9,5.4-14.3C440.6,184.5,440.8,146.4,440.8,146.4z"/>
	<path id="XMLID_162_" fill="#518951" d="M511,197.8c0,0,23.3-3.3,24.3-6.3c1-3-4-27.4-10.2-39c-2.9-5.4-8-8.5-11.7-8.7
		c-11.3-0.4-16.5,1.8-16.5,1.8s-4.8,19.4-2.9,21.3c1.8,1.8,18,21.5,18,21.5L511,197.8z"/>
	<path id="XMLID_165_" fill="#576057" d="M431.9,280.3l-2.1,77.7c0,0-1.8,101.1,15.4,99c4.2-0.6,15.3,1.8,17.7-5.9
		c7.7-23.9,7.9-85.6,7.9-85.6l2.3-47l4.4,36.4c0,0-2.7,69.5,7.1,90.8c4.9,10.6,16.1,6.1,20.4,5.7c12.8-1.1,13-88.9,13-88.9
		s-0.1-80.4-3.8-82.2c-3.7-1.8-32.4-13.2-37.4-12.2C471.5,269.2,431.9,280.3,431.9,280.3z"/>
	<path id="XMLID_157_" fill="#89CC94" d="M460.3,131.8c0,0,0.2,9.4,14.3,9.1c14.1-0.3,12.9-9.5,12.9-9.5s25.3,9.2,26.2,12.3
		c2.2,8.7,2.2,20.3,0.6,39.6c-1.2,13.6-3.1,11.3-0.4,39c-1.5,19.4,5.1,54,1.7,60.7c-3.3,6.7-78.1,8.7-82.2,0
		c-4.2-8.7,1.7-51.2,1.4-59.1c-0.4-13.4-7.3-75-1.4-82.1C436.9,137.3,460.3,131.8,460.3,131.8z"/>
	<path fill="#5C895C" d="M513.3,192.9c0,0-5.2,0.4-12.3,1.7c-4,0.7-12.2-1.3-14.4-2.6c-2.5-1.6,5.6,4.9,12.7,5.2s13.7-1.2,13.7-1.2
		L513.3,192.9z"/>
	<path fill="#5C895C" d="M512,194.9c0,0-2.9,1.2-6.9,3.1c-2.2,1.2-7.5,1.2-9,0.7c-1.8-0.7,4.3,2.3,8.6,1.4c4.3-1,7.9-3,7.9-3
		L512,194.9z"/>
	<path opacity="0.75" fill="#5C895C" enable-background="new    " d="M432.5,195.6c0,0,3.1,0.4,7.5,1.5c2.4,0.6,7.6-0.6,8.9-1.5
		c1.6-1.1-3.7,4.3-8,3.3c-7.8-1.7-8.4-1.1-8.4-1.1L432.5,195.6z"/>
	<path fill="#5C895C" d="M442.5,287.9c0,0,2.3-11.2,4.5-26.5c1.2-8.8-3-59.5-0.2-39.4c0.9,6.1,4.1,20.4,4.6,35.8
		c0.5,15.5-1.9,29.7-1.9,29.7L442.5,287.9z"/>
	<path id="XMLID_257_" fill="#938D83" d="M461.6,469.4c0.1,1.7,3.6,12.8,3.6,12.8s4.1,9.1,3.6,15.6c-0.3,4.3,0.2,4.3-1.9,7.9
		c-1.2,1.9-30.4,1.6-32.1,0.1c-1.7-1.5-1.5-8.8,0.3-14.1c2-6,3-9.2,5.3-13c2.3-3.7,6.2-9.2,6.2-9.2s-0.8,1.3,4.1,1.1c0,0,0,0,1,0
		C452.9,470.4,459.5,470.7,461.6,469.4"/>
	<path id="XMLID_256_" fill="#938D83" d="M486.9,467.8c-0.1,1.7-3.6,12.8-3.6,12.8s-4.1,9.1-3.6,15.6c0.3,4.3-0.2,4.3,1.9,7.9
		c1.2,1.9,30.4,1.6,32.1,0.1c1.7-1.6,1.5-8.8-0.3-14.1c-2-6-3-9.2-5.3-13c-2.3-3.7-6.2-9.2-6.2-9.2s0.8,1.3-4.1,1.1c0,0,0,0-1,0
		C495.7,468.9,489,469.2,486.9,467.8"/>
</g>
<g>
	<path fill="#515151" d="M399.7,73.5c1.2,0.4,2,1.1,2.6,2c0.6,1.1,0.7,2.1,0.4,3.3c-0.3,1.2-1.1,2-2,2.6l-1.2,0.6
		c4.4,9.3,10.6,12.2,18.7,8.8c0.2-0.1,0.4-0.1,0.7,0c0.2,0.1,0.4,0.2,0.5,0.5c0.1,0.2,0.1,0.4,0,0.7c-0.1,0.2-0.2,0.4-0.5,0.5
		c-8.9,3.9-15.8,0.8-20.8-9.6l-1.7,1c4.5,7.7,5.5,14.2,3,19.6c-0.1,0.2-0.3,0.4-0.5,0.5s-0.4,0.1-0.7,0c-0.2-0.1-0.4-0.3-0.4-0.5
		c-0.1-0.2-0.1-0.4,0-0.7c2.2-5.1,1.2-11.1-2.9-18.2l-0.4,0.2c-0.6,0.3-1.1,0.5-1.7,0.5c3.8,10.3,1.8,17.7-6.1,22.2
		c-0.2,0.1-0.4,0.1-0.7,0.1c-0.2-0.1-0.4-0.2-0.5-0.4c-0.1-0.2-0.2-0.4-0.1-0.7c0.1-0.2,0.2-0.4,0.4-0.5c7.2-4.3,8.9-11.3,5.1-21
		c-0.5-0.2-1-0.5-1.4-0.8c-0.3,0.9-0.9,1.5-1.7,1.8l-20.1,9.6c-0.8,0.4-1.7,0.4-2.5,0.1s-1.5-0.9-1.8-1.7c-0.4-0.8-0.4-1.7-0.1-2.5
		s0.9-1.5,1.7-1.8l20.1-9.6c0.8-0.4,1.7-0.4,2.5-0.1c0.2,0.1,0.4,0.2,0.6,0.3c0-0.2,0.1-0.4,0.1-0.5c0.1-0.4,0.3-0.8,0.5-1.1
		l-19.3,5.1c-1.1,0.2-2,0-2.9-0.6c-0.9-0.6-1.5-1.4-1.7-2.4c-0.2-1.1,0-2,0.6-2.9c0.6-0.9,1.4-1.5,2.4-1.7l5.4-0.4h-1.3
		c-1-0.1-1.8-0.5-2.5-1.3c-0.7-0.8-1-1.7-0.9-2.6s0.5-1.8,1.3-2.5c0.8-0.7,1.7-1,2.6-0.9l24.8,4.8l0.3,0.1
		C398.2,73.3,398.9,73.3,399.7,73.5z M404.6,73.5c0.9-0.6,1.8-0.8,2.8-0.6c1,0.2,1.8,0.7,2.4,1.6s0.8,1.8,0.6,2.8c0,0.1,0,0.1,0,0.2
		l11.4,6.5c0.2,0.1,0.3,0.3,0.4,0.5c0.1,0.2,0,0.4-0.1,0.7c-0.1,0.2-0.3,0.3-0.5,0.4c-0.2,0.1-0.4,0-0.7-0.1L409.6,79
		c-0.2,0.3-0.5,0.5-0.8,0.7c-0.6,0.4-1.2,0.6-1.8,0.7c-0.3,0-0.7,0-1-0.1c-1-0.2-1.8-0.7-2.4-1.6c-0.6-0.9-0.8-1.8-0.6-2.8
		c0.1-0.4,0.2-0.7,0.3-1C403.6,74.4,404,73.9,404.6,73.5z"/>
	<polygon opacity="0.45" fill="#E8E8E8" enable-background="new    " points="397.5,72.8 387.5,79 361.5,87.9 369.4,65.3 	"/>
</g>
<g>
	<path fill="#515151" d="M403,439.4c0.7,0.2,1.3,0.7,1.7,1.3c0.4,0.7,0.4,1.4,0.2,2c-0.2,0.7-0.7,1.3-1.3,1.7l-0.7,0.4
		c2.7,5.8,6.6,7.6,11.6,5.5c0.1-0.1,0.3-0.1,0.4,0c0.1,0.1,0.2,0.1,0.3,0.3c0.1,0.1,0.1,0.3,0,0.4s-0.1,0.2-0.3,0.3
		c-5.5,2.4-9.8,0.5-12.9-5.9l-1.1,0.6c2.8,4.8,3.4,8.8,1.8,12.2c-0.1,0.1-0.2,0.2-0.3,0.3c-0.1,0.1-0.3,0.1-0.4,0s-0.2-0.2-0.3-0.3
		c-0.1-0.1-0.1-0.3,0-0.4c1.4-3.1,0.8-6.9-1.8-11.3l-0.2,0.1c-0.4,0.2-0.7,0.3-1.1,0.3c2.3,6.4,1.1,11-3.8,13.8
		c-0.1,0.1-0.3,0.1-0.4,0.1s-0.2-0.1-0.3-0.2c-0.1-0.1-0.1-0.3-0.1-0.4s0.1-0.2,0.2-0.3c4.5-2.6,5.5-7,3.1-13
		c-0.3-0.1-0.6-0.3-0.9-0.5c-0.2,0.5-0.6,0.9-1.1,1.2l-12.5,6c-0.5,0.2-1.1,0.3-1.6,0.1c-0.5-0.2-0.9-0.6-1.2-1.1
		c-0.2-0.5-0.3-1.1-0.1-1.6c0.2-0.5,0.6-0.9,1.1-1.2l12.5-6c0.5-0.2,1.1-0.3,1.6-0.1c0.1,0,0.2,0.1,0.4,0.2c0-0.1,0-0.2,0.1-0.3
		c0.1-0.3,0.2-0.5,0.3-0.7l-12.1,3.2c-0.7,0.1-1.3,0-1.8-0.4s-0.9-0.9-1-1.6s0-1.3,0.4-1.8c0.4-0.6,0.9-0.9,1.6-1.1l3.4-0.2h-0.8
		c-0.6,0-1.2-0.3-1.6-0.8c-0.4-0.5-0.6-1-0.6-1.7c0-0.6,0.3-1.2,0.8-1.6s1-0.6,1.7-0.6l15.4,3h0.2
		C402.1,439.3,402.5,439.3,403,439.4z M406.1,439.4c0.5-0.4,1.1-0.5,1.8-0.4c0.6,0.1,1.2,0.5,1.5,1c0.4,0.5,0.5,1.1,0.4,1.8v0.1
		l7,4.1c0.1,0.1,0.2,0.2,0.2,0.3c0,0.1,0,0.3,0,0.4c-0.1,0.1-0.2,0.2-0.3,0.2s-0.3,0-0.4,0l-7-4c-0.1,0.2-0.3,0.3-0.5,0.4
		c-0.4,0.2-0.7,0.4-1.1,0.4c-0.2,0-0.4,0-0.7,0c-0.6-0.1-1.2-0.5-1.5-1c-0.4-0.5-0.5-1.1-0.4-1.8c0-0.2,0.1-0.4,0.2-0.6
		C405.4,440,405.7,439.7,406.1,439.4z"/>
	<polygon opacity="0.45" fill="#E8E8E8" enable-background="new    " points="401.6,439.1 395.5,442.8 379.3,448.4 384.2,434.4 	"/>
</g>
<g>
	<path fill="#515151" d="M547.6,47l0.3-0.1l16.3-9.1c0.7-0.3,1.4-0.3,2,0.1c0.7,0.3,1.2,0.8,1.5,1.5c0.3,0.7,0.3,1.4-0.1,2
		s-0.8,1.2-1.5,1.5l-0.8,0.3l3.9-1c0.8-0.1,1.5,0.1,2.1,0.6c0.6,0.5,1,1.1,1,1.9c0.1,0.8-0.1,1.5-0.6,2.1c-0.5,0.6-1.1,1-1.9,1
		l-14.8,0.9c0.2,0.2,0.4,0.5,0.6,0.7c0,0.1,0.1,0.3,0.2,0.3c0-0.1,0.2-0.2,0.3-0.3c0.5-0.5,1.1-0.6,1.8-0.5l16.4,2
		c0.7,0.1,1.2,0.4,1.6,0.9c0.5,0.5,0.6,1.1,0.5,1.8c-0.1,0.7-0.4,1.2-0.9,1.6c-0.5,0.5-1.1,0.6-1.8,0.5l-16.4-1.9
		c-0.7,0-1.2-0.4-1.6-0.9c-0.2,0.3-0.5,0.6-0.8,0.9c-0.4,7.7,2.5,12.3,8.5,13.6c0.1,0,0.3,0.1,0.4,0.2c0.1,0.2,0.1,0.3,0.1,0.5
		c0,0.1-0.1,0.3-0.2,0.4c-0.2,0.1-0.3,0.1-0.5,0.1c-6.6-1.3-9.7-6-9.5-14.2c-0.4,0.1-0.8,0-1.3,0l-0.3-0.1c-1.3,6-0.6,10.5,2.1,13.4
		c0.2,0.1,0.1,0.3,0.2,0.4c0,0.2-0.1,0.3-0.2,0.4c-0.1,0.2-0.3,0.1-0.4,0.2c-0.2,0-0.3-0.1-0.4-0.2c-3-3.2-3.9-8.1-2.5-14.5
		l-1.4-0.2c-1,8.4-5.1,12.3-12.3,11.6c-0.2,0-0.3-0.1-0.4-0.2s-0.1-0.3-0.1-0.5c0-0.2,0.1-0.3,0.2-0.4c0.2-0.1,0.3-0.1,0.5-0.1
		c6.4,0.6,10.1-3,11-10.6l-0.9-0.2c-0.9-0.1-1.5-0.6-2.1-1.3c-0.5-0.7-0.7-1.5-0.5-2.4c0.1-0.9,0.6-1.5,1.3-2.1
		C546.7,47.2,547.1,47,547.6,47z M544,49.3c0.2,0.1,0.3,0.4,0.5,0.6c0.4,0.7,0.5,1.4,0.2,2.1c-0.2,0.7-0.6,1.2-1.3,1.6
		c-0.3,0.1-0.4,0.2-0.7,0.3c-0.5,0.1-0.9,0.1-1.4,0c-0.3-0.1-0.5-0.2-0.7-0.3l-6.4,7.2c-0.1,0.2-0.2,0.2-0.4,0.2
		c-0.2,0-0.3-0.1-0.5-0.1c-0.2-0.1-0.2-0.2-0.2-0.4c0-0.2,0.1-0.3,0.1-0.5l6.5-7.2c0,0,0-0.1-0.1-0.2c-0.4-0.7-0.5-1.4-0.3-2.1
		c0.2-0.7,0.6-1.2,1.3-1.6c0.7-0.4,1.4-0.5,2.1-0.3C543.2,48.7,543.6,48.9,544,49.3z"/>
	<polygon opacity="0.45" fill="#E8E8E8" enable-background="new    " points="547.5,46.5 556,48.5 576.3,48.6 565.6,34.6 	"/>
</g>
</svg>
