<svg xmlns="http://www.w3.org/2000/svg" xmlns:xlink="http://www.w3.org/1999/xlink" width="21" height="18" viewBox="0 0 21 18">
    <defs>
        <path id="a" d="M12.96 16.93l7.808-7.807c.31-.31.31-.796 0-1.084L12.96.232c-.31-.31-.797-.31-1.084 0l-.84.84c-.31.31-.31.797 0 1.084l5.02 5.02H.774A.784.784 0 0 0 0 7.952v1.172c0 .42.354.774.774.774h15.393l-5.13 5.131c-.31.31-.31.797 0 1.084l.84.84c.31.288.796.288 1.084-.022z"/>
    </defs>
    <use fill="#22334F" fill-rule="nonzero" transform="matrix(-1 0 0 1 21 0)" xlink:href="#a"/>
</svg>
