<?xml version="1.0" encoding="UTF-8"?>
<svg enable-background="new 0 0 64 64" version="1.1" viewBox="0 0 64 64" xml:space="preserve" xmlns="http://www.w3.org/2000/svg">
<style type="text/css">
	.st0{opacity:1.000000e-02;fill:none;stroke:#FFFFFF;stroke-width:0.111;stroke-miterlimit:10;}
	.st1{fill:#EBEBEE;}
	.st2{fill:#D9D9DB;}
	.st3{fill:#EAEAEA;}
	.st4{fill-rule:evenodd;clip-rule:evenodd;fill:#EFF0F0;}
	.st5{fill-rule:evenodd;clip-rule:evenodd;fill:#EAEAEA;}
	.st6{fill-rule:evenodd;clip-rule:evenodd;fill:#D9D9DB;}
	.st7{fill:#CC4444;}
	.st8{fill:#EAB498;}
	.st9{fill:#FFCEB3;}
	.st10{fill:#EF6262;}
	.st11{fill:#EEEBF2;}
	.st12{fill:#B23636;}
	.st13{fill:#EAB69B;}
	.st14{fill:#2A2A28;}
	.st15{fill:#FFFFFF;}
	.st16{fill:#B2B2B0;}
	.st17{opacity:0.3;clip-path:url(#XMLID_88_);fill:#C5C5C5;}
	.st18{fill:#00C2AE;}
	.st19{opacity:1.000000e-02;fill:none;stroke:#FFFFFF;stroke-width:0.1107;stroke-miterlimit:10;}
	.st20{fill:#BDBDC1;}
	.st21{fill:#D1CE57;}
	.st22{fill:#B1B1B2;}
	.st23{fill:#D18F42;}
	.st24{opacity:0.44;fill:#EDB264;}
	.st25{fill:#B77430;}
	.st26{fill:#EDB264;}
	.st27{opacity:0.55;fill:#CC8E44;}
	.st28{fill:#CC8E44;}
	.st29{fill:#A06127;}
	.st30{fill:#EFF0F0;}
	.st31{fill:#C4C4C4;}
	.st32{fill:#9B9B9B;}
	.st33{fill:#AAAAAA;}
	.st34{fill:#F94B58;}
	.st35{opacity:1.000000e-02;fill:none;stroke:#FFFFFF;stroke-width:0.1111;stroke-miterlimit:10;}
	.st36{fill:#F2F2F2;}
	.st37{fill:#9C9EA0;}
	.st38{fill:#E6E6E6;}
	.st39{fill:#2E325B;}
	.st40{fill:#303030;}
	.st41{fill:#7CCE9D;}
	.st42{fill:#FC6565;}
	.st43{fill:#ADADB2;}
	.st44{fill:#8F8F93;}
	.st45{fill:#343535;}
	.st46{fill:#1B1C1C;}
	.st47{fill:#6F7070;}
	.st48{fill:#ADADAD;}
	.st49{fill:#5B5B5B;}
	.st50{fill:#676868;}
	.st51{fill:#818484;}
	.st52{fill:#595B5B;}
	.st53{fill:#C4C6C6;}
	.st54{fill:#838484;}
	.st55{fill:#191919;}
	.st56{opacity:0.2;fill:#FFFFFF;}
	.st57{fill:#DD62EF;}
	.st58{fill:#E37DF4;}
	.st59{fill:#EA97FC;}
	.st60{fill:#35383D;}
	.st61{opacity:0.3;}
	.st62{opacity:0.5;fill:#FFFFFF;}
	.st63{fill:#020103;}
	.st64{fill:#060506;}
	.st65{fill:#232325;}
	.st66{fill:#040305;}
	.st67{fill:#424141;}
	.st68{fill:#0D0D0F;}
	.st69{fill:#CC3E45;}
	.st70{fill:#505050;}
	.st71{fill:#646464;}
	.st72{fill:#333333;}
	.st73{fill:#2B2B2D;}
	.st74{fill:#5F5F5F;}
	.st75{fill:#4A4A4B;}
	.st76{fill:#777676;}
	.st77{fill:#E8EBEC;}
	.st78{fill:#B0B4B4;}
	.st79{fill:#752289;}
	.st80{fill:#8F31A3;}
</style>
		<ellipse class="st1" cx="38" cy="29.6" rx="16.9" ry=".5"/>
			<rect class="st36" x="43.3" y="28.6" width="8.5" height=".9"/>
			<rect class="st37" x="43.5" y="28.6" width="1.4" height=".9"/>
			<rect class="st37" x="46.3" y="28.6" width="1.4" height=".9"/>
			<rect class="st37" x="49.4" y="28.6" width="1.4" height=".9"/>
			<rect class="st36" x="23.1" y="28.6" width="8.5" height=".9"/>
			<rect class="st37" x="23.3" y="28.6" width="1.4" height=".9"/>
			<rect class="st37" x="26.2" y="28.6" width="1.4" height=".9"/>
			<rect class="st37" x="29.2" y="28.6" width="1.4" height=".9"/>
			<rect class="st36" x="26.9" y="28.6" width="8.5" height=".9"/>
			<rect class="st37" x="27.1" y="28.6" width="1.4" height=".9"/>
			<rect class="st37" x="29.9" y="28.6" width="1.4" height=".9"/>
			<rect class="st37" x="33" y="28.6" width="1.4" height=".9"/>
				<rect class="st31" x="44.5" y="28.3" width=".6" height=".2"/>
				<rect class="st31" x="44.3" y="28.4" width=".9" height=".2"/>
				<rect class="st31" x="44.6" y="16.7" width=".4" height="11.6"/>
				<rect class="st31" x="44.5" y="17.1" width=".6" height="4"/>
				<rect class="st38" x="43.4" y="17.4" width="1.1" height=".3"/>
				<rect class="st38" x="43.4" y="20.5" width="1.1" height=".3"/>
					<rect class="st38" x="42.6" y="16.7" width="1.3" height="4.7"/>
					<rect class="st31" x="42.5" y="16.8" width="1.5" height="4.5"/>
								<path class="st39" d="m42.5 18c0 0.5 0.4 0.7 0.8 0.7 0.5 0 0.8-0.3 0.8-0.7 0-0.5-0.4-0.8-0.8-0.8-0.5 0-0.8 0.3-0.8 0.8z"/>
								<path class="st40" d="m43.3 17.6c-0.3 0-0.7 0.1-0.8 0.3 0-0.4 0.4-0.8 0.8-0.8s0.8 0.3 0.8 0.8c-0.2-0.2-0.5-0.3-0.8-0.3z"/>
								<circle class="st40" cx="43.3" cy="18" r=".7"/>
								<path class="st39" d="m42.5 20.1c0 0.5 0.4 0.7 0.8 0.7 0.5 0 0.8-0.3 0.8-0.7s-0.4-0.8-0.8-0.8c-0.5-0.1-0.8 0.3-0.8 0.8z"/>
								<path class="st40" d="m43.3 19.7c-0.3 0-0.7 0.1-0.8 0.3 0-0.4 0.4-0.8 0.8-0.8s0.8 0.3 0.8 0.8c-0.2-0.2-0.5-0.3-0.8-0.3z"/>
								<circle class="st40" cx="43.3" cy="20.1" r=".7"/>
								<circle class="st41" cx="43.3" cy="19.5" r=".1"/>
								<path class="st41" d="m43.6 20.1l-0.2-0.3h-0.1l-0.3 0.3 0.1-0.2v0.2l-0.1 0.3v0.2l0.2-0.2v-0.2l0.1 0.2v0.3h0.1v-0.3l-0.1-0.2v-0.2l0.3 0.1c-0.1 0-0.1 0 0 0z"/>
						<circle class="st42" cx="43.3" cy="17.4" r=".1"/>
						<path class="st42" d="m43 18.1l0.1-0.4-0.1 0.4h0.4v-0.4 0.4h0.1v-0.4h-0.5v0.4z"/>
						<path class="st42" d="m43.3 18.5c0 0.1-0.1 0.1 0 0h-0.1v-0.5h0.1v0.5z"/>
						<path class="st42" d="m43.4 18.5v0h-0.1v-0.5h0.1v0.5z"/>
					<rect class="st38" x="45" y="17.4" width="1.1" height=".3"/>
					<rect class="st38" x="45" y="20.5" width="1.1" height=".3"/>
						<polygon class="st37" points="46.4 18.2 46.9 18.2 47.3 17.2 46.4 17.2"/>
						<rect class="st38" x="46.3" y="17.2" width=".2" height="1"/>
						<polygon class="st37" points="46.4 19.5 46.9 19.5 47.3 18.6 46.4 18.6"/>
						<rect class="st38" x="46.3" y="18.5" width=".2" height="1"/>
						<polygon class="st37" points="46.4 20.9 46.9 20.9 47.3 19.9 46.4 19.9"/>
						<rect class="st38" x="46.3" y="19.9" width=".2" height="1"/>
						<rect class="st38" x="45.5" y="16.7" width=".7" height="4.7"/>
						<rect class="st31" x="45.5" y="16.8" width=".8" height="4.5"/>
			<ellipse class="st1" cx="32.2" cy="49.4" rx="23.1" ry="1"/>
						<path class="st43" d="m45 28.3c-0.1-0.3-0.6-0.2-0.6-0.2l0.2 1.9-0.2 1.9s0.5 0.1 0.6-0.2 0.1-1.4 0.1-1.7c0.1-0.3 0-1.4-0.1-1.7z"/>
						<path class="st44" d="m44.4 28.1c-2.2 0.4-2.3 1.9-2.3 1.9s0.1 1.5 2.3 1.9c0 0 0.2-0.6 0.2-1.9s-0.2-1.9-0.2-1.9z"/>
					<path class="st2" d="m45.1 28.5c0.1 0.4 0.1 1.2 0.1 1.5 0 0.2 0 1.1-0.1 1.5 0.4-0.1 0.6-0.7 0.6-1.5 0-0.7-0.3-1.4-0.6-1.5z"/>
					<path class="st45" d="m35.9 35.4c-0.9 0-3.4 0.3-4.2 0.6l-8.7 2.5-0.4 6.5 12.4 1.7h0.2 0.1 0.7c3.2 0 5.7-2.6 5.7-5.7-0.1-3.1-2.7-5.6-5.8-5.6z"/>
							<path class="st46" d="m13.5 40.7s0.4-1.5 1.9-2c1.5-0.6 3.5 0.3 5 0.7s6.6 1.5 6.6 1.5l-0.3 1.7-9.2-2-2.3 0.4-1.7-0.3z"/>
							<polygon class="st46" points="18.6 42.5 22.9 42.8 26 42.4 26.7 42.6 22.9 43.4 18.5 43.1"/>
									<path class="st47" d="m26 45.4c1 0.1 2.1 0.3 3.1 0.4 1.6 0.2 3.2 0.4 4.8 0.4s3.4-0.3 4.7-1.4c1.4-1.2 1.7-3.4 1-5.1l-0.6-0.9c-0.3-0.4-0.9 0.2-0.6 0.6 1.1 1.3 1 3.4-0.2 4.7-1.1 1.2-3 1.4-4.6 1.4s-3.1-0.3-4.7-0.4c-1-0.1-2-0.2-3-0.4-0.4-0.1-0.4 0.7 0.1 0.7z"/>
									<path class="st47" d="m16.3 43.8l-5.7-0.3c-0.5 0-0.5 0.8 0 0.8l5.7 0.3c0.6 0 0.6-0.8 0-0.8z"/>
								<path class="st48" d="m26.2 45.1c0 0.5-0.6 0.9-1.2 0.8l-8.1-0.8c-0.6-0.1-1-0.5-1-1v-0.2c0-0.5 0.6-0.9 1.2-0.8l8.1 0.8c0.6 0.1 1 0.5 1 1v0.2z"/>
								<path class="st47" d="m33.4 37.4c0.7 0 1.5 0.2 2.1 0.6 0.9 0.6 1.3 1.8 1.4 2.8 0.1 1.3-0.8 2.3-1.7 3.2-0.3 0.4-0.7 0.7-1.1 1l-0.3 0.3s-0.2 0.1 0 0c-0.4 0.3 0 1 0.4 0.7 0.7-0.5 1.3-1 1.9-1.6 1-1.1 1.8-2.2 1.7-3.7-0.1-1.2-0.6-2.5-1.6-3.2-0.7-0.5-1.7-0.9-2.7-0.9-0.6 0-0.6 0.8-0.1 0.8z"/>
									<path class="st49" d="m26.3 38.7c-0.2-0.5 0.1-1.2 0.6-1.4l1.7-0.8c0.5-0.2 0.9 0.1 0.9 0.6v2.4c0 0.6-0.5 1-1 1h-0.7c-0.6 0-1.2-0.4-1.3-1l-0.2-0.8z"/>
									<path class="st50" d="m26.5 38.6c-0.2-0.5 0.1-1 0.6-1.2l1.5-0.7c0.5-0.2 0.8 0 0.8 0.5v2.1c0 0.5-0.4 0.9-0.9 0.9h-0.6c-0.5 0-1-0.4-1.2-0.9l-0.2-0.7z"/>
										<circle class="st51" cx="27.2" cy="38.2" r=".3"/>
											<path class="st52" d="m27.2 38.6c-0.2 0-0.4-0.2-0.4-0.4s0.2-0.4 0.4-0.4 0.4 0.2 0.4 0.4-0.2 0.4-0.4 0.4zm0-0.6c-0.1 0-0.3 0.1-0.3 0.3 0 0.1 0.1 0.3 0.3 0.3 0.1 0 0.3-0.1 0.3-0.3-0.1-0.2-0.2-0.3-0.3-0.3z"/>
										<circle class="st51" cx="28.9" cy="37.4" r=".3"/>
											<path class="st52" d="m28.9 37.7c-0.2 0-0.4-0.2-0.4-0.4s0.2-0.4 0.4-0.4 0.4 0.2 0.4 0.4c-0.1 0.3-0.2 0.4-0.4 0.4zm0-0.6c-0.1 0-0.3 0.1-0.3 0.3 0 0.1 0.1 0.3 0.3 0.3 0.1 0 0.3-0.1 0.3-0.3-0.1-0.2-0.2-0.3-0.3-0.3z"/>
										<circle class="st51" cx="28.7" cy="39.6" r=".3"/>
											<path class="st52" d="m28.7 40c-0.2 0-0.4-0.2-0.4-0.4s0.2-0.4 0.4-0.4 0.4 0.2 0.4 0.4-0.2 0.4-0.4 0.4zm0-0.6c-0.1 0-0.3 0.1-0.3 0.3 0 0.1 0.1 0.3 0.3 0.3 0.1 0 0.3-0.1 0.3-0.3s-0.1-0.3-0.3-0.3z"/>
								<path class="st47" d="m28.5 39.7c0.1 0.7 0.3 1.4 0.5 2s0.3 1.1 0.9 1.5 1.3 0.6 2 0.8c1.3 0.3 2.6 0.4 3.9 0.5 0.3 0 0.3-0.4 0-0.4-1.2-0.1-2.5-0.2-3.7-0.5-0.7-0.2-1.4-0.4-1.9-0.8s-0.6-0.9-0.8-1.5-0.3-1.2-0.4-1.9c-0.1 0-0.5 0.1-0.5 0.3z"/>
								<path class="st49" d="m36 38.7c-0.6-0.1-1.6-0.1-1.6-0.1s-1 0.1-1.6 0.1c-0.6 0.1-1.3 0.7-1.6 1.2 0 0 0.9 3.7 3.2 3.7s3.2-3.7 3.2-3.7c-0.4-0.6-1-1.1-1.6-1.2z"/>
											<path class="st53" d="m33 36.1c0 0.1-0.1 0.2-0.2 0.2l-2.4 0.3c-0.1 0-0.2-0.1-0.2-0.2s0.1-0.2 0.2-0.2l2.4-0.3c0.1 0 0.2 0.1 0.2 0.2z"/>
											<path class="st53" d="m32.9 36.5c0 0.1-0.1 0.2-0.2 0.2l-2 0.3c-0.1 0-0.2-0.1-0.2-0.2s0.1-0.2 0.2-0.2l2.1-0.3s0.1 0.1 0.1 0.2z"/>
											<path class="st53" d="m33 36.9c0 0.1-0.1 0.2-0.2 0.2l-2.1 0.3c-0.1 0-0.2-0.1-0.2-0.2s0.1-0.2 0.2-0.2l2.1-0.3c0.1 0 0.2 0.1 0.2 0.2z"/>
											<path class="st53" d="m32.9 37.3c0 0.1-0.1 0.2-0.1 0.2l-1.8 0.3c-0.1 0-0.2-0.1-0.2-0.2s0.1-0.2 0.1-0.2l1.8-0.3c0.1 0 0.2 0.1 0.2 0.2z"/>
											<path class="st53" d="m33 37.7c0 0.1-0.1 0.2-0.1 0.2l-1.9 0.2c-0.1 0-0.2-0.1-0.2-0.2s0.1-0.2 0.1-0.2l1.8-0.3c0.2 0.1 0.2 0.2 0.3 0.3z"/>
											<path class="st53" d="m32.8 38.1c0 0.1 0 0.2-0.1 0.2l-1.5 0.2c-0.1 0-0.2-0.1-0.2-0.2s0-0.2 0.1-0.2l1.5-0.2c0.1 0 0.2 0.1 0.2 0.2z"/>
											<path class="st53" d="m32.9 38.5c0 0.1 0 0.2-0.1 0.2l-1.5 0.2c-0.1 0-0.2-0.1-0.2-0.2s0-0.2 0.1-0.2l1.5-0.2c0.1 0 0.2 0.1 0.2 0.2z"/>
											<path class="st53" d="m32.8 38.9c0 0.1 0 0.2-0.1 0.2l-1.2 0.2c-0.1 0-0.1-0.1-0.1-0.2s0-0.2 0.1-0.2l1.2-0.2s0 0.1 0.1 0.2z"/>
											<path class="st53" d="m32.8 39.3c0 0.1 0 0.2-0.1 0.2l-1.2 0.2c-0.1 0-0.1-0.1-0.1-0.2s0-0.2 0.1-0.2l1.2-0.2c0.1 0 0.1 0.1 0.1 0.2z"/>
												<path class="st54" d="m30.5 36.7c-0.1 0-0.2-0.1-0.2-0.2s0.1-0.2 0.2-0.3l2.4-0.3c0.1 0 0.2 0.1 0.3 0.2 0 0.1-0.1 0.2-0.2 0.3l-2.5 0.3zm2.3-0.8l-2.4 0.3c-0.1 0-0.1 0.1-0.1 0.2s0.1 0.1 0.2 0.1l2.4-0.3c0.1 0 0.1-0.1 0.1-0.2 0 0-0.1-0.1-0.2-0.1z"/>
												<path class="st54" d="m30.7 37c-0.1 0-0.2-0.1-0.2-0.2v-0.2c0-0.1 0.1-0.1 0.2-0.1l2.1-0.3c0.1 0 0.2 0.1 0.3 0.2 0 0.1-0.1 0.2-0.2 0.3l-2.2 0.3zm2-0.7l-2.1 0.3s-0.1 0-0.1 0.1v0.1c0 0.1 0.1 0.1 0.2 0.1l2.1-0.3c0.1 0 0.1-0.1 0.1-0.2 0 0-0.1-0.1-0.2-0.1z"/>
												<path class="st54" d="m30.7 37.4c-0.1 0-0.2-0.1-0.2-0.2s0.1-0.2 0.2-0.3l2.1-0.3c0.1 0 0.2 0.1 0.3 0.2v0.2c0 0.1-0.1 0.1-0.2 0.1l-2.2 0.3zm2.1-0.7l-2.1 0.3c-0.1 0-0.1 0.1-0.1 0.2s0.1 0.1 0.2 0.1l2.1-0.3s0.1 0 0.1-0.1v-0.1c-0.1 0-0.1-0.1-0.2-0.1z"/>
												<path class="st54" d="m30.9 37.8c-0.1 0-0.2-0.1-0.2-0.2v-0.2c0-0.1 0.1-0.1 0.1-0.1l1.8-0.3c0.1 0 0.2 0.1 0.2 0.2s-0.1 0.2-0.2 0.3l-1.7 0.3zm1.8-0.7l-1.9 0.3s-0.1 0-0.1 0.1v0.1c0 0.1 0.1 0.1 0.2 0.1l1.8-0.3c0.1 0 0.1-0.1 0.1-0.2 0.1 0 0-0.1-0.1-0.1z"/>
												<path class="st54" d="m30.9 38.2c-0.1 0-0.2-0.1-0.2-0.2s0.1-0.2 0.2-0.3l1.8-0.3c0.1 0 0.2 0.1 0.2 0.2s-0.1 0.2-0.2 0.3l-1.8 0.3c0.1 0 0 0 0 0zm1.9-0.7l-1.9 0.3c-0.1 0-0.1 0.1-0.1 0.2s0.1 0.1 0.2 0.1l1.8-0.3c0.1 0 0.1-0.1 0.1-0.2l-0.1-0.1z"/>
												<path class="st54" d="m31.2 38.6c-0.1 0-0.2-0.1-0.2-0.2v-0.2c0-0.1 0.1-0.1 0.1-0.1l1.5-0.2c0.1 0 0.2 0.1 0.2 0.2v0.2c0 0.1-0.1 0.1-0.1 0.1l-1.5 0.2zm1.5-0.7l-1.6 0.2s-0.1 0-0.1 0.1v0.1c0 0.1 0.1 0.1 0.1 0.1l1.5-0.2s0.1 0 0.1-0.1v-0.1c0.1 0 0-0.1 0-0.1z"/>
												<path class="st54" d="m31.2 38.9c-0.1 0-0.2-0.1-0.2-0.2s0.1-0.2 0.2-0.3l1.5-0.2c0.1 0 0.2 0.1 0.2 0.2v0.2c0 0.1-0.1 0.1-0.1 0.1l-1.6 0.2zm1.5-0.6l-1.6 0.2c-0.1 0-0.1 0.1-0.1 0.2s0.1 0.1 0.1 0.1l1.5-0.2s0.1 0 0.1-0.1v-0.1c0.1 0 0.1-0.1 0-0.1z"/>
												<path class="st54" d="m31.4 39.3c-0.1 0-0.2-0.1-0.2-0.2v-0.2s0.1 0 0.1-0.1l1.2-0.2c0.1 0 0.2 0.1 0.2 0.2s0 0.2-0.1 0.3l-1.2 0.2zm1.2-0.6l-1.3 0.2v0.1c0 0.1 0.1 0.1 0.1 0.1l1.2-0.2s0.1-0.1 0.1-0.2c0 0.1 0 0-0.1 0z"/>
												<path class="st54" d="m31.5 39.7c-0.1 0-0.2-0.1-0.2-0.2v-0.2s0.1 0 0.1-0.1l1.2-0.2c0.1 0 0.2 0.1 0.2 0.2s0 0.2-0.1 0.3l-1.2 0.2zm1.2-0.6l-1.3 0.2v0.1c0 0.1 0.1 0.1 0.1 0.1l1.2-0.2s0.1-0.1 0.1-0.2c0 0.1-0.1 0-0.1 0z"/>
											<path class="st53" d="m35.2 35.8c0 0.1 0.1 0.2 0.2 0.2l2.4 0.3c0.1 0 0.2-0.1 0.2-0.2s-0.1-0.2-0.2-0.2l-2.4-0.3c0 0.1-0.1 0.1-0.2 0.2z"/>
											<path class="st53" d="m35.3 36.3c0 0.1 0.1 0.2 0.2 0.2l2.1 0.3c0.1 0 0.2-0.1 0.2-0.2s-0.1-0.2-0.2-0.2l-2.1-0.3s-0.1 0-0.2 0.2z"/>
											<path class="st53" d="m35.3 36.6c0 0.1 0.1 0.2 0.2 0.2l2.1 0.3c0.1 0 0.2-0.1 0.2-0.2s-0.1-0.2-0.2-0.2l-2.1-0.3c-0.1 0.1-0.2 0.1-0.2 0.2z"/>
											<path class="st53" d="m35.4 37.1c0 0.1 0.1 0.2 0.1 0.2l1.8 0.3c0.1 0 0.2-0.1 0.2-0.2s-0.1-0.2-0.1-0.2l-1.8-0.3c-0.1 0-0.2 0-0.2 0.2z"/>
											<path class="st53" d="m35.3 37.4c0 0.1 0.1 0.2 0.1 0.2l1.8 0.3c0.1 0 0.2-0.1 0.2-0.2s-0.1-0.2-0.1-0.2l-1.8-0.3c-0.1 0.1-0.2 0.1-0.2 0.2z"/>
											<path class="st53" d="m35.4 37.9c0 0.1 0 0.2 0.1 0.2l1.5 0.2c0.1 0 0.2-0.1 0.2-0.2s0-0.2-0.1-0.2l-1.5-0.2c-0.1 0-0.2 0.1-0.2 0.2z"/>
											<path class="st53" d="m35.4 38.3c0 0.1 0 0.2 0.1 0.2l1.5 0.2c0.1 0 0.2-0.1 0.2-0.2s0-0.2-0.1-0.2l-1.5-0.2c-0.1 0-0.2 0-0.2 0.2z"/>
											<path class="st53" d="m35.5 38.7c0 0.1 0 0.2 0.1 0.2l1.2 0.2c0.1 0 0.1-0.1 0.1-0.2s0-0.2-0.1-0.2l-1.2-0.2s-0.1 0.1-0.1 0.2z"/>
											<path class="st53" d="m35.4 39c0 0.1 0 0.2 0.1 0.2l1.2 0.2c0.1 0 0.1-0.1 0.1-0.2s0-0.2-0.1-0.2l-1.2-0.2c0 0.1-0.1 0.1-0.1 0.2z"/>
												<path class="st54" d="m37.8 36.4l-2.4-0.3c-0.1 0-0.2-0.1-0.2-0.3 0-0.1 0.1-0.2 0.3-0.2l2.4 0.3c0.1 0 0.2 0.1 0.2 0.3-0.1 0.1-0.2 0.2-0.3 0.2zm-2.5-0.6c0 0.1 0 0.2 0.1 0.2l2.4 0.3c0.1 0 0.2 0 0.2-0.1s0-0.2-0.1-0.2l-2.4-0.3c-0.1 0-0.2 0.1-0.2 0.1z"/>
												<path class="st54" d="m37.6 36.8l-2.1-0.3c-0.1 0-0.2-0.1-0.2-0.3 0-0.1 0.1-0.2 0.3-0.2l2.1 0.3c0.1 0 0.1 0 0.2 0.1 0 0.1 0.1 0.1 0 0.2s-0.2 0.2-0.3 0.2zm-2.2-0.5c0 0.1 0 0.2 0.1 0.2l2.1 0.3c0.1 0 0.2 0 0.2-0.1v-0.1s-0.1-0.1-0.1-0.1l-2.1-0.3c-0.1-0.1-0.2 0-0.2 0.1z"/>
												<path class="st54" d="m37.5 37.2l-2.1-0.3c-0.1 0-0.1 0-0.2-0.1 0-0.1-0.1-0.1 0-0.2 0-0.1 0.1-0.2 0.3-0.2l2.1 0.3c0.1 0 0.2 0.1 0.2 0.3 0 0.1-0.1 0.2-0.3 0.2zm-2.2-0.5v0.1l0.1 0.1 2.1 0.3c0.1 0 0.2 0 0.2-0.1s0-0.2-0.1-0.2l-2.1-0.3c-0.1-0.1-0.2 0-0.2 0.1z"/>
												<path class="st54" d="m37.3 37.6l-1.8-0.3c-0.1 0-0.2-0.1-0.2-0.3 0-0.1 0.1-0.2 0.2-0.2l1.8 0.3c0.1 0 0.1 0 0.1 0.1v0.2c0.2 0.1 0.1 0.2-0.1 0.2 0.1 0 0.1 0 0 0zm-1.9-0.5c0 0.1 0 0.2 0.1 0.2l1.8 0.3c0.1 0 0.1-0.1 0.2-0.1v-0.1l-0.1-0.1-1.8-0.3c-0.1-0.1-0.2 0-0.2 0.1z"/>
												<path class="st54" d="m37.3 38l-1.8-0.3c-0.1 0-0.2-0.1-0.2-0.3 0-0.1 0.1-0.2 0.2-0.2l1.8 0.3c0.1 0 0.2 0.1 0.2 0.3 0 0.1-0.1 0.2-0.2 0.2zm-2-0.5c0 0.1 0 0.2 0.1 0.2l1.8 0.3c0.1 0 0.1-0.1 0.2-0.1 0-0.1 0-0.2-0.1-0.2l-1.8-0.3c-0.1-0.1-0.2 0-0.2 0.1z"/>
												<path class="st54" d="m37.1 38.3l-1.5-0.2c-0.1 0-0.1 0-0.1-0.1v-0.2c0-0.1 0.1-0.2 0.2-0.2l1.5 0.2c0.1 0 0.1 0 0.1 0.1v0.2c0 0.1-0.1 0.2-0.2 0.2zm-1.6-0.4v0.1l0.1 0.1 1.5 0.2c0.1 0 0.1-0.1 0.1-0.1v-0.1l-0.1-0.1-1.5-0.2c-0.1-0.1-0.1 0-0.1 0.1z"/>
												<path class="st54" d="m37 38.7l-1.5-0.2c-0.1 0-0.1 0-0.1-0.1v-0.2c0-0.1 0.1-0.2 0.2-0.2l1.5 0.2c0.1 0 0.2 0.1 0.2 0.3-0.1 0.1-0.2 0.2-0.3 0.2zm-1.6-0.4v0.1l0.1 0.1 1.5 0.2c0.1 0 0.1-0.1 0.1-0.1 0-0.1 0-0.2-0.1-0.2l-1.5-0.2c0-0.1-0.1 0-0.1 0.1z"/>
												<path class="st54" d="m36.8 39.1l-1.2-0.2c-0.1 0-0.1-0.1-0.1-0.3 0-0.1 0.1-0.2 0.2-0.2l1.2 0.2s0.1 0 0.1 0.1c0 0 0.1 0.1 0 0.2 0 0.1-0.1 0.2-0.2 0.2zm-1.3-0.4c0 0.1 0 0.2 0.1 0.2l1.2 0.2 0.1-0.1v-0.1l-1.3-0.2c0-0.2-0.1-0.1-0.1 0z"/>
												<path class="st54" d="m36.8 39.5l-1.2-0.2c-0.1 0-0.1-0.1-0.1-0.3 0-0.1 0.1-0.2 0.2-0.2l1.2 0.2s0.1 0 0.1 0.1c0 0 0.1 0.1 0 0.2s-0.1 0.2-0.2 0.2zm-1.3-0.4c0 0.1 0 0.2 0.1 0.2l1.2 0.2 0.1-0.1v-0.1l-1.3-0.2c-0.1-0.2-0.1-0.1-0.1 0z"/>
									<path class="st50" d="m35.6 39.2c-0.4-0.1-1.3-0.1-1.3-0.1s-0.8 0-1.3 0.1-1 0.5-1.3 0.9c0 0 0.7 2.9 2.5 2.9s2.5-2.9 2.5-2.9c-0.1-0.4-0.6-0.9-1.1-0.9z"/>
									<rect class="st54" x="33" y="40" width="2.9" height=".9"/>
									<path class="st49" d="m28 41.9c-0.3 0.1-0.6 0.4-0.6 0.7v1.2c0 0.3 0.3 0.7 0.6 0.7l3.6 0.5c0.3 0 0.7-0.2 0.8-0.5l0.3-1c0.1-0.3 0-0.8-0.3-1.1l-0.6-0.6c-0.2-0.3-0.7-0.4-1-0.4l-2.8 0.5z"/>
									<path class="st50" d="m28.3 42.1c-0.3 0-0.5 0.3-0.5 0.6v1.1c0 0.3 0.2 0.6 0.5 0.6l3 0.4c0.3 0 0.6-0.2 0.7-0.4l0.3-0.9c0.1-0.3 0-0.7-0.2-0.9l-0.5-0.5c-0.2-0.2-0.6-0.4-0.9-0.3l-2.4 0.3z"/>
										<circle class="st51" cx="28.5" cy="43.7" r=".3"/>
											<path class="st52" d="m28.5 44c-0.2 0-0.4-0.2-0.4-0.4s0.2-0.4 0.4-0.4 0.4 0.2 0.4 0.4c-0.1 0.3-0.2 0.4-0.4 0.4zm0-0.6c-0.1 0-0.3 0.1-0.3 0.3 0 0.1 0.1 0.3 0.3 0.3 0.1 0 0.3-0.1 0.3-0.3-0.1-0.2-0.2-0.3-0.3-0.3z"/>
										<circle class="st51" cx="30.9" cy="42.3" r=".3"/>
											<path class="st52" d="m30.9 42.7c-0.2 0-0.4-0.2-0.4-0.4s0.2-0.4 0.4-0.4 0.4 0.2 0.4 0.4-0.2 0.4-0.4 0.4zm0-0.6c-0.1 0-0.3 0.1-0.3 0.3 0 0.1 0.1 0.3 0.3 0.3 0.1 0 0.3-0.1 0.3-0.3s-0.2-0.3-0.3-0.3z"/>
										<circle class="st51" cx="31.3" cy="44.2" r=".3"/>
											<path class="st52" d="m31.3 44.6c-0.2 0-0.4-0.2-0.4-0.4s0.2-0.4 0.4-0.4 0.4 0.2 0.4 0.4-0.2 0.4-0.4 0.4zm0-0.7c-0.1 0-0.3 0.1-0.3 0.3 0 0.1 0.1 0.3 0.3 0.3 0.1 0 0.3-0.1 0.3-0.3s-0.2-0.3-0.3-0.3z"/>
									<circle class="st49" cx="27.2" cy="41.9" r="1.3"/>
									<circle class="st50" cx="27.2" cy="41.9" r="1"/>
									<circle class="st51" cx="27.2" cy="41.9" r=".5"/>
										<path class="st52" d="m27.2 42.4c-0.3 0-0.6-0.3-0.6-0.6s0.3-0.6 0.6-0.6 0.6 0.3 0.6 0.6c-0.1 0.4-0.3 0.6-0.6 0.6zm0-0.9c-0.2 0-0.4 0.2-0.4 0.4s0.2 0.4 0.4 0.4 0.4-0.2 0.4-0.4c0-0.3-0.2-0.4-0.4-0.4z"/>
						<polygon class="st40" points="38 30.9 41 29.9 42.8 33.4 38.6 35"/>
								<circle class="st43" cx="40.8" cy="30.9" r=".3"/>
									<path class="st44" d="m40.8 31.3c-0.2 0-0.4-0.2-0.4-0.4s0.2-0.4 0.4-0.4 0.4 0.2 0.4 0.4c-0.1 0.2-0.2 0.4-0.4 0.4zm0-0.7c-0.1 0-0.3 0.1-0.3 0.3 0 0.1 0.1 0.3 0.3 0.3 0.1 0 0.3-0.1 0.3-0.3-0.1-0.2-0.2-0.3-0.3-0.3z"/>
								<circle class="st43" cx="41.7" cy="32.8" r=".3"/>
									<path class="st44" d="m41.7 33.2c-0.2 0-0.4-0.2-0.4-0.4s0.2-0.4 0.4-0.4 0.4 0.2 0.4 0.4c-0.1 0.2-0.2 0.4-0.4 0.4zm0-0.6c-0.1 0-0.3 0.1-0.3 0.3 0 0.1 0.1 0.3 0.3 0.3 0.1 0 0.3-0.1 0.3-0.3-0.1-0.2-0.2-0.3-0.3-0.3z"/>
									<rect class="st2" transform="matrix(.9006 -.4347 .4347 .9006 -13.13 13.934)" x="23.4" y="33.9" width="1.1" height="3.5"/>
								<polygon class="st2" points="22.4 37.6 27.7 35.2 27.8 36.4 23.1 38.5"/>
								<polygon class="st55" points="27.6 35.9 27.7 34.8 28.7 34.7 28.9 36 28.2 36.5 27.8 36.4"/>
								<path class="st45" d="m17.2 34.8s-0.5-3.2 0-3.6 2 0.2 3.2 0.3 1.9-0.5 2.8 0c0.9 0.4 3.1 0.7 4.3 0.6 1.2-0.2 1.9 0 1.8 0.6-0.1 0.9-0.9 2.1-0.9 2.1h-11.2z"/>
								<path class="st56" d="m27.5 32c-1.2 0.2-3.4-0.2-4.3-0.6s-1.7 0.2-2.8 0c-1.2-0.1-2.7-0.7-3.2-0.3-0.1 0.1-0.2 0.3-0.2 0.5 0.2-0.2 0.5-0.3 1-0.2 1.2 0.3 2.4 0.5 3.1 0.4s1.9 0 2.6 0.3 2.3 0.4 3.2 0.2c0.8-0.1 2 0 2.5 0.4v-0.2c0-0.5-0.7-0.7-1.9-0.5z"/>
							<path class="st57" d="m28.9 36s-0.6-1.5 0.4-2.7c1.1-1.2 3.8-1.9 5.8-2.2s4.4-0.4 4.7 1.1c0.2 1.5-0.9 3.1-2.1 3.4-1.2 0.2-8.2 0.8-8.8 0.4z"/>
							<path class="st58" d="m29.6 35.7s-0.6-1.3 0.4-2.4c0.9-1.1 3.4-1.7 5.1-1.9 1.7-0.3 3.9-0.4 4.1 0.9s-0.8 2.7-1.8 2.9c-1.1 0.3-7.3 0.8-7.8 0.5z"/>
							<path class="st59" d="m30.3 35.4s-0.5-1.1 0.3-2 2.8-1.4 4.3-1.6c1.4-0.2 3.3-0.3 3.5 0.8s-0.6 2.3-1.5 2.5c-0.9 0.1-6.1 0.5-6.6 0.3z"/>
						<path class="st57" d="m41.4 45.2c-0.3-0.8-0.4-1.8-0.4-2.7 0-3.8 3.1-6.9 6.9-6.9 1.7 0 3.2 0.6 4.4 1.6l1-0.2c-1.4-1.4-3.3-2.2-5.4-2.2-4.2 0-7.7 3.5-7.7 7.7 0 1.3 0.2 2.6 0.7 3.7l0.5-1z"/>
												<rect class="st49" transform="matrix(.2092 -.9779 .9779 .2092 -1.6551 76.678)" x="44.6" y="39.3" width="3.9" height=".1"/>
												<rect class="st49" transform="matrix(.9778 -.2095 .2095 .9778 -7.1569 11.172)" x="49.1" y="37.4" width=".1" height="3.9"/>
												<rect class="st49" transform="matrix(.2084 -.9781 .9781 .2084 -5.9152 84.347)" x="47.2" y="45.8" width="3.9" height=".1"/>
											<polygon class="st49" points="47 47.8 46.1 43.9 46.2 43.9 47 47.7"/>
											<polygon class="st49" points="49.2 40.9 49.2 40.9 53 41.7 53 41.8"/>
												<rect class="st49" transform="matrix(.9778 -.2095 .2095 .9778 -8.0584 11.678)" x="49.1" y="43.8" width="3.9" height=".1"/>
												<rect class="st49" transform="matrix(.2102 -.9777 .9777 .2102 -7.6482 78.291)" x="44.6" y="41.9" width=".1" height="3.9"/>
												<rect class="st49" transform="matrix(.9778 -.2095 .2095 .9778 -7.6641 10.267)" x="42.7" y="41.3" width="3.9" height=".1"/>
											<polygon class="st49" points="47.6 40.5 47.6 40.4 50.9 38.3 50.9 38.4"/>
												<rect class="st49" transform="matrix(.5433 -.8396 .8396 .5433 -11.284 61.691)" x="49.1" y="41.2" width="3.9" height=".1"/>
												<rect class="st49" transform="matrix(.8395 -.5433 .5433 .8395 -17.418 32.603)" x="44.5" y="45.7" width="3.9" height=".1"/>
												<rect class="st49" transform="matrix(.5433 -.8396 .8396 .5433 -16.516 57.587)" x="42.7" y="43.9" width="3.9" height=".1"/>
												<rect class="st49" transform="matrix(.8398 -.5429 .5429 .8398 -15.694 34.765)" x="51" y="42" width=".1" height="3.9"/>
											<polygon class="st49" points="47.6 44.7 50.9 46.8 50.9 46.9 47.6 44.8"/>
											<polygon class="st49" points="43.6 39.6 43.6 39.5 45.8 42.8 45.7 42.9"/>
												<rect class="st49" transform="matrix(.5433 -.8396 .8396 .5433 -11.848 57.023)" x="46.4" y="37.4" width=".1" height="3.9"/>
													<rect class="st49" transform="matrix(.5651 -.8251 .8251 .5651 -11.437 56.538)" x="45.9" y="39.1" width="3.9" height=".1"/>
													<rect class="st49" transform="matrix(.178 -.984 .984 .178 1.8763 82.432)" x="48.3" y="40.1" width="3.9" height=".1"/>
													<rect class="st49" transform="matrix(.5664 -.8241 .8241 .5664 -17.235 59.387)" x="45.9" y="46" width="3.9" height=".1"/>
													<rect class="st49" transform="matrix(.178 -.984 .984 .178 -7.0205 81.788)" x="43.5" y="45.1" width="3.9" height=".1"/>
													<rect class="st49" transform="matrix(.5649 -.8252 .8252 .5649 -12.843 60.916)" x="51.3" y="40.7" width=".1" height="3.9"/>
													<rect class="st49" transform="matrix(.1781 -.984 .984 .1781 -2.8952 86.557)" x="50.3" y="43" width=".1" height="3.9"/>
													<rect class="st49" transform="matrix(.5649 -.8251 .8251 .5649 -15.802 55.138)" x="44.3" y="40.6" width=".1" height="3.9"/>
													<rect class="st49" transform="matrix(.178 -.984 .984 .178 -2.2503 77.662)" x="45.3" y="38.2" width=".1" height="3.9"/>
													<rect class="st49" transform="matrix(.9826 -.1855 .1855 .9826 -6.5772 10.038)" x="48.4" y="40.1" width="3.9" height=".1"/>
													<rect class="st49" transform="matrix(.8217 -.5699 .5699 .8217 -15.087 36.845)" x="49.4" y="42.5" width="3.9" height=".1"/>
													<rect class="st49" transform="matrix(.983 -.1836 .1836 .983 -7.4954 9.0963)" x="43.4" y="45" width="3.9" height=".1"/>
													<rect class="st49" transform="matrix(.8217 -.5699 .5699 .8217 -16.396 32.901)" x="42.4" y="42.6" width="3.9" height=".1"/>
													<rect class="st49" transform="matrix(.9828 -.1846 .1846 .9828 -7.457 10.057)" x="50.3" y="43.1" width=".1" height="3.9"/>
													<rect class="st49" transform="matrix(.8217 -.5699 .5699 .8217 -17.713 35.525)" x="47.9" y="44.1" width=".1" height="3.9"/>
													<rect class="st49" transform="matrix(.983 -.1838 .1838 .983 -6.596 9.0315)" x="45.4" y="38.1" width=".1" height="3.9"/>
													<rect class="st49" transform="matrix(.8217 -.5699 .5699 .8217 -13.77 34.219)" x="47.8" y="37.1" width=".1" height="3.9"/>
								<path class="st60" d="m47.9 35.5c-3.9 0-7.1 3.2-7.1 7.1s3.2 7.1 7.1 7.1 7.1-3.2 7.1-7.1c-0.1-3.9-3.2-7.1-7.1-7.1zm0 12.3c-2.9 0-5.2-2.3-5.2-5.2s2.3-5.2 5.2-5.2 5.2 2.3 5.2 5.2-2.3 5.2-5.2 5.2z"/>
								<circle class="st40" cx="47.9" cy="42.6" r="2.2"/>
							<path class="st56" d="m46.4 36.2c-3.5 0.8-5.8 4.3-5 7.8s4.3 5.8 7.8 5 5.8-4.3 5-7.8c-0.8-3.6-4.3-5.8-7.8-5zm2.6 11.7c-3 0.6-5.9-1.2-6.5-4.2s1.2-5.9 4.2-6.5 5.9 1.2 6.5 4.2-1.3 5.9-4.2 6.5z"/>
							<g class="st61">
								<path class="st62" d="m48.7 36.9c2.2 0.2 4.8 2.5 4.9 4.9 0 0.3 0.5 0.3 0.5 0-0.1-2.7-2.8-5.1-5.4-5.4-0.3 0-0.2 0.4 0 0.5z"/>
							</g>
							<g class="st61">
								<path class="st62" d="m47 48.4c-2.2-0.2-4.8-2.5-4.9-4.9 0-0.3-0.5-0.3-0.5 0 0.1 2.7 2.8 5.1 5.4 5.4 0.3 0 0.3-0.5 0-0.5z"/>
							</g>
						<path class="st43" d="m42 29.7l-0.4-0.3c0.4-0.5 0.7-1 0.7-1.2-0.1-0.1-0.6-0.1-0.8 0v-0.5c0.1 0 0.9-0.2 1.2 0.2 0.2 0.3 0 0.9-0.7 1.8z"/>
					<polygon class="st2" points="48.7 42.8 47.8 43.3 40.2 28.5 41.1 28"/>
						<path class="st44" d="m41.6 28.1c0 0.4-0.4 0.8-0.8 0.8h-0.2c-0.4 0-0.8-0.4-0.8-0.8s0.4-0.8 0.8-0.8h0.2c0.4-0.1 0.8 0.3 0.8 0.8z"/>
							<path class="st2" d="m40.5 28.2c0 0.2-0.1 0.3-0.3 0.3h-2.2c-0.2 0-0.3-0.1-0.3-0.3v-0.3c0-0.2 0.1-0.3 0.3-0.3h2.1c0.2 0 0.3 0.1 0.3 0.3v0.3z"/>
							<ellipse class="st44" cx="38" cy="28" rx=".5" ry=".5"/>
						<path class="st57" d="m23 45.2c0.3-0.8 0.4-1.8 0.4-2.7 0-3.8-3.1-6.9-6.9-6.9-1.7 0-3.2 0.6-4.4 1.6l-1-0.2c1.4-1.4 3.3-2.2 5.4-2.2 4.2 0 7.7 3.5 7.7 7.7 0 1.3-0.2 2.6-0.7 3.7l-0.5-1z"/>
												<rect class="st49" transform="matrix(.9779 -.2092 .2092 .9779 -7.8378 4.6098)" x="17.8" y="37.4" width=".1" height="3.9"/>
												<rect class="st49" transform="matrix(.2095 -.9778 .9778 .2095 -26.387 46.084)" x="13.3" y="39.3" width="3.9" height=".1"/>
												<rect class="st49" transform="matrix(.978 -.2085 .2085 .978 -9.2201 4.1999)" x="15.3" y="43.9" width=".1" height="3.9"/>
												<rect class="st49" transform="matrix(.2095 -.9778 .9778 .2095 -30.68 53.705)" x="15.9" y="45.8" width="3.9" height=".1"/>
											<polygon class="st49" points="15.3 40.9 15.3 40.9 11.4 41.7 11.4 41.8"/>
												<rect class="st49" transform="matrix(.2095 -.9778 .9778 .2095 -32.344 47.75)" x="13.3" y="41.9" width=".1" height="3.9"/>
												<rect class="st49" transform="matrix(.978 -.2086 .2086 .978 -8.7151 5.0994)" x="17.9" y="43.8" width="3.9" height=".1"/>
												<rect class="st49" transform="matrix(.2095 -.9778 .9778 .2095 -24.722 52.041)" x="19.8" y="39.3" width=".1" height="3.9"/>
												<rect class="st49" transform="matrix(.5439 -.8392 .8392 .5439 -26.124 30.738)" x="15.2" y="37.4" width=".1" height="3.9"/>
												<rect class="st49" transform="matrix(.8396 -.5432 .5432 .8396 -20.241 13.891)" x="13.4" y="39.2" width=".1" height="3.9"/>
												<rect class="st49" transform="matrix(.5438 -.8392 .8392 .5438 -30.228 35.968)" x="17.9" y="43.8" width=".1" height="3.9"/>
												<rect class="st49" transform="matrix(.8396 -.5433 .5433 .8396 -20.714 17.804)" x="19.7" y="42" width=".1" height="3.9"/>
												<rect class="st49" transform="matrix(.5433 -.8396 .8396 .5433 -30.798 31.333)" x="11.4" y="43.9" width="3.9" height=".1"/>
												<rect class="st49" transform="matrix(.8396 -.5433 .5433 .8396 -22.435 15.612)" x="13.2" y="45.7" width="3.9" height=".1"/>
												<rect class="st49" transform="matrix(.5438 -.8392 .8392 .5438 -25.563 35.406)" x="17.8" y="41.2" width="3.9" height=".1"/>
												<rect class="st49" transform="matrix(.8396 -.5433 .5433 .8396 -18.522 16.084)" x="16" y="39.4" width="3.9" height=".1"/>
													<rect class="st49" transform="matrix(.8251 -.565 .565 .8251 -19.207 16.195)" x="16.5" y="37.1" width=".1" height="3.9"/>
													<rect class="st49" transform="matrix(.984 -.178 .178 .984 -6.9111 3.164)" x="14.1" y="38.1" width=".1" height="3.9"/>
													<rect class="st49" transform="matrix(.8244 -.5661 .5661 .8244 -23.159 17.508)" x="16.6" y="44.1" width=".1" height="3.9"/>
													<rect class="st49" transform="matrix(.984 -.178 .178 .984 -7.7246 4.1044)" x="19" y="43.1" width=".1" height="3.9"/>
													<rect class="st49" transform="matrix(.8248 -.5654 .5654 .8248 -21.809 14.884)" x="11.1" y="42.6" width="3.9" height=".1"/>
													<rect class="st49" transform="matrix(.984 -.1781 .1781 .984 -7.7892 3.2281)" x="12.1" y="45" width="3.9" height=".1"/>
													<rect class="st49" transform="matrix(.8251 -.5649 .5649 .8251 -20.53 18.779)" x="18.1" y="42.5" width="3.9" height=".1"/>
													<rect class="st49" transform="matrix(.984 -.178 .178 .984 -6.8477 4.041)" x="17.1" y="40.1" width="3.9" height=".1"/>
													<rect class="st49" transform="matrix(.1847 -.9828 .9828 .1847 -27.975 46.607)" x="14.1" y="38.2" width=".1" height="3.9"/>
													<rect class="st49" transform="matrix(.5699 -.8217 .8217 .5699 -29.31 29.068)" x="13.1" y="40.6" width=".1" height="3.9"/>
													<rect class="st49" transform="matrix(.1829 -.9831 .9831 .1829 -28.674 55.55)" x="19" y="43.1" width=".1" height="3.9"/>
													<rect class="st49" transform="matrix(.5699 -.8217 .8217 .5699 -26.418 34.837)" x="20" y="40.7" width=".1" height="3.9"/>
													<rect class="st49" transform="matrix(.1847 -.9828 .9828 .1847 -32.762 50.674)" x="12.2" y="45" width="3.9" height=".1"/>
													<rect class="st49" transform="matrix(.5699 -.8217 .8217 .5699 -30.748 33.401)" x="14.6" y="46" width="3.9" height=".1"/>
													<rect class="st49" transform="matrix(.1838 -.983 .983 .1838 -23.896 51.434)" x="17.1" y="40.1" width="3.9" height=".1"/>
													<rect class="st49" transform="matrix(.5699 -.8217 .8217 .5699 -24.98 30.506)" x="14.7" y="39.1" width="3.9" height=".1"/>
								<path class="st60" d="m9.5 42.6c0 3.9 3.2 7.1 7.1 7.1s7.1-3.2 7.1-7.1-3.2-7.1-7.1-7.1-7.1 3.2-7.1 7.1zm1.9 0c0-2.9 2.3-5.2 5.2-5.2s5.2 2.3 5.2 5.2-2.3 5.2-5.2 5.2-5.2-2.3-5.2-5.2z"/>
								<circle class="st40" cx="16.6" cy="42.6" r="2.2"/>
							<path class="st56" d="m15.1 36.2c-3.5 0.8-5.8 4.3-5 7.8s4.3 5.8 7.8 5 5.8-4.3 5-7.8c-0.8-3.6-4.3-5.8-7.8-5zm2.6 11.7c-3 0.6-5.9-1.2-6.5-4.2s1.2-5.9 4.2-6.5 5.9 1.2 6.5 4.2-1.3 5.9-4.2 6.5z"/>
							<g class="st61">
								<path class="st62" d="m17.4 36.9c2.2 0.2 4.8 2.5 4.9 4.9 0 0.3 0.5 0.3 0.5 0-0.1-2.7-2.8-5.1-5.4-5.4-0.3 0-0.3 0.4 0 0.5z"/>
							</g>
							<g class="st61">
								<path class="st62" d="m15.7 48.4c-2.2-0.2-4.8-2.5-4.9-4.9 0-0.3-0.5-0.3-0.5 0 0.1 2.7 2.8 5.1 5.4 5.4 0.3 0 0.3-0.5 0-0.5z"/>
							</g>
		<ellipse class="st1" cx="21.4" cy="56.2" rx="12.7" ry="1.2"/>
						<path class="st63" d="m29.1 26.7c0.6 0.2 1.1 0.5 1.6 0.7 0.1 0 0.2 0.2 0.2 0.2v0.1l-0.1 0.1c-0.3 0.4-0.5 0.7-0.8 1.1-0.1 0-0.1 0-0.2-0.1-0.3-0.1-0.6-0.2-0.8-0.3 0 0-0.1 0-0.1-0.1-0.1 0-0.1 0-0.2-0.1-0.1 0-0.1-0.1-0.2-0.1v-0.1h0.2v-0.2h-0.2v-0.1c0.1-0.1 0-0.3 0-0.4 0.1 0 0.2-0.1 0.3-0.1 0-0.2 0-0.2-0.2-0.2h-0.1v-0.1c0-0.2 0-0.4-0.2-0.6 0.1-0.1 0.2 0 0.3 0.1h0.1s0 0.1-0.1 0.1c0.2 0.1 0.3 0.1 0.5 0.1-0.1-0.1-0.1-0.1 0 0-0.1-0.1-0.1-0.1 0 0z"/>
						<path class="st64" d="m30.8 28.1c-0.1 0.3-0.3 0.7-0.4 1-0.1 0-0.2-0.1-0.3-0.1v-0.1c0.3-0.3 0.5-0.6 0.7-0.8-0.1-0.1 0-0.1 0-0.1 0.1 0 0 0.1 0 0.1z"/>
						<path class="st63" d="m27.4 26.4c0.3-0.1 0.5-0.1 0.8-0.2 0 0.1 0.1 0.1 0.1 0.1h0.1c-0.1 0-0.1 0.1-0.2 0.1h-0.1l-0.1 0.1-0.1 0.1h-0.1c0-0.1-0.1-0.1-0.2-0.2-0.1 0-0.2 0-0.2 0.1l-0.1-0.1c0.1 0.1 0.1 0.1 0.1 0z"/>
						<path class="st64" d="m27.4 26.4s0 0.1 0.1 0.1l0.1 0.1v0.2c-0.2 0 0 0.2-0.1 0.3-0.1 0-0.1-0.1-0.2-0.1 0-0.2 0.1-0.3 0.1-0.5v-0.1z"/>
						<path class="st65" d="m30.9 28c-0.1 0-0.1 0 0 0-0.3 0.3-0.5 0.6-0.7 0.9v0.1s-0.1 0-0.1-0.1c0.3-0.4 0.5-0.7 0.8-1.1l0.1-0.1c-0.1 0.1-0.1 0.2-0.1 0.3v0z"/>
						<path class="st63" d="m28.2 26.3c-0.3 0-0.5 0.1-0.8 0.1 0.1-0.2 0.3-0.3 0.6-0.2 0.1 0 0.1 0 0.2 0.1z"/>
						<path class="st63" d="m28.3 26.5c0.1 0 0.1-0.1 0.2-0.1 0.2 0.1 0.3 0.1 0.5 0.2-0.1 0-0.1 0.1-0.2 0.1 0 0 0-0.1 0.1-0.1h-0.1c0-0.1-0.1-0.2-0.3-0.1h-0.2z"/>
						<path class="st63" d="m28.4 26.4c-0.1 0-0.1 0.1-0.1-0.1l0.1 0.1z"/>
						<path class="st64" d="m30.9 28v0 0z"/>
						<path class="st63" d="m29.1 26.7c-0.1-0.1-0.1-0.1 0 0-0.1-0.1-0.1-0.1 0 0z"/>
						<path class="st63" d="m28.3 26.3c-0.1 0-0.1 0 0 0-0.1 0-0.1 0 0 0z"/>
						<path class="st63" d="m29.1 26.7z"/>
						<path class="st66" d="m28.5 32.3c-0.2-0.2-0.4-0.4-0.6-0.7-0.3-0.5-0.5-1-0.6-1.6 0.3 0.1 0.5 0.2 0.8 0.3 0.1 0 0.2 0.1 0.2 0.2s0.1 0.2 0.3 0.2c0-0.1 0-0.1 0.1-0.2 0 0.1 0 0.2 0.2 0.2h0.2 0.1v0.1h-0.2c-0.2 0-0.4 0.1-0.6 0.1-0.1 0-0.1 0.1-0.1 0.1 0 0.1 0 0.1 0.1 0.1s0.3 0 0.4-0.1c0.1 0 0.2 0 0.2 0.1 0 0 0 0.1-0.1 0.1-0.2 0.1-0.3 0.1-0.2 0.4 0 0 0 0.1-0.1 0.1v-0.3c0-0.1-0.1-0.1-0.1-0.1-0.1 0-0.2 0-0.2 0.1-0.1 0.3 0.1 0.6 0.4 0.7v0.1c-0.1-0.1-0.2 0-0.2 0.1z"/>
						<path class="st66" d="m30.2 31.1c0.1 0.2 0.1 0.3 0.2 0.5 0 0.2 0.1 0.5 0 0.7-0.2 0.3-0.4 0.5-0.7 0.6 0-0.1-0.1-0.2-0.1-0.3 0.1 0 0.2-0.1 0.2-0.1 0.3-0.2 0.4-0.5 0.2-0.8-0.1-0.3-0.4-0.4-0.8-0.3 0.2-0.1 0.2-0.2 0.1-0.3 0-0.1-0.1-0.1-0.1-0.2h0.2c0.2 0 0.5 0.1 0.8 0.2z"/>
						<path class="st67" d="m28.2 30.5c0-0.1-0.1-0.2-0.2-0.2-0.3-0.1-0.5-0.2-0.8-0.3 0-0.2-0.1-0.5-0.1-0.7v-0.1-0.3c0.1 0 0.2 0.1 0.3 0.1 0.2 0.1 0.4 0.1 0.6 0.2-0.1 0.2 0 0.2 0.2 0.3-0.2 0.1-0.2 0.2-0.1 0.5h0.2c-0.1 0.1-0.1 0.1 0 0.1 0 0.1-0.1 0.2-0.1 0.4v0z"/>
						<path class="st63" d="m27.3 27.1c0.1 0 0.1 0.1 0.2 0.1 0-0.1-0.1-0.2 0.1-0.3 0 0.1 0.1 0.3 0.1 0.4v0.1 0.2s0.1 0.1 0.2 0c0.2 0 0.3 0 0.5-0.1 0 0 0 0.1 0.1 0.1v0.1c-0.2 0-0.4 0.1-0.6 0.1v0.2l-0.1 0.1c-0.1 0-0.2-0.1-0.4-0.1v-0.1c0-0.2-0.1-0.4-0.1-0.6v-0.2z"/>
						<path class="st67" d="m27.3 28c0.1 0 0.2 0.1 0.4 0.1h0.1s0.1 0 0.1 0.1c-0.1 0.2-0.1 0.4 0 0.6-0.3-0.1-0.5-0.2-0.8-0.3v-0.6c0.1 0 0.2 0.1 0.2 0.1z"/>
						<path class="st64" d="m27.1 28.5c0.3 0.1 0.5 0.2 0.8 0.3 0.1 0.1 0.3 0.1 0.5 0.2h-0.2c-0.1 0-0.2 0.1-0.2 0.2-0.2-0.1-0.4-0.1-0.6-0.2-0.1 0-0.2-0.1-0.3-0.1v-0.4z"/>
						<path class="st68" d="m28.5 32.3c0-0.2 0.1-0.2 0.3-0.3 0.1 0.1 0.1 0.2 0.2 0.2l0.1 0.1c-0.1 0-0.1 0.1-0.2 0.1v0.1c-0.1 0-0.3-0.1-0.4-0.2z"/>
						<path class="st64" d="m27.3 28h-0.2c0-0.2 0.1-0.5 0.1-0.7 0 0.2 0.1 0.4 0.1 0.6 0.1 0 0 0 0 0.1z"/>
						<path class="st66" d="m29.3 32.7h-0.2v-0.2c0.1 0 0.1 0 0.2-0.1h0.1c0 0.1 0.1 0.2 0.1 0.3h-0.1c0 0.1-0.1 0.1-0.1 0z"/>
						<path class="st65" d="m29.2 32.5c-0.1 0-0.1 0-0.2 0.1v0.2l-0.1-0.1v-0.1c0.1-0.1 0.2-0.1 0.3-0.1z"/>
						<path class="st69" d="m27.7 32.3c0 0.1-0.1 0.1-0.1 0.2 0-0.1 0-0.2 0.1-0.2z"/>
						<path class="st69" d="m27.7 32.1v0z"/>
						<path class="st69" d="m27.5 32.4v0 0z"/>
						<path class="st69" d="m27.7 32.1c0.1 0 0.1 0 0 0 0.1-0.1 0.1-0.1 0 0 0.1 0 0.1 0 0 0z"/>
						<path class="st69" d="m27.1 29.3z"/>
						<path class="st69" d="m27.1 29.3z"/>
						<path class="st69" d="m27.4 32.6v0c0-0.1 0.1-0.1 0 0 0.1-0.1 0-0.1 0 0z"/>
						<path class="st69" d="m27.7 32.3v0 0z"/>
						<path class="st67" d="m30.2 31.1c-0.3-0.1-0.6-0.2-0.9-0.3h-0.2-0.1v-0.1c0.1-0.1 0.2-0.2 0.1-0.4 0-0.2-0.1-0.3-0.1-0.4h0.1v-0.2h0.1c0.1 0 0.1 0 0.2 0.1 0.3 0.1 0.5 0.2 0.8 0.2-0.1 0.3-0.1 0.7 0 1.1z"/>
						<path class="st67" d="m30.1 28.9v0c0.2 0.1 0.3 0.1 0.4 0.2-0.1 0.2-0.1 0.3-0.2 0.5-0.3-0.1-0.7-0.2-1-0.4-0.1 0-0.2 0-0.2-0.1 0.1 0 0.1 0 0.2-0.1 0-0.2-0.1-0.2-0.3-0.2-0.1-0.1-0.1-0.2 0-0.3 0.3 0.1 0.6 0.2 0.8 0.3 0.1 0.1 0.2 0.1 0.3 0.1z"/>
						<path class="st66" d="m29.2 29.3c0.3 0.1 0.7 0.2 1 0.4 0 0.1-0.1 0.2-0.1 0.4-0.3-0.1-0.5-0.2-0.8-0.2-0.1 0-0.1 0-0.2-0.1v-0.1h0.1 0.1v-0.1c0-0.2 0-0.3-0.1-0.3z"/>
						<path class="st70" d="m29 28.6c-0.1 0.1-0.1 0.2 0 0.3h-0.2c-0.1 0-0.1 0.1-0.2 0.1h-0.4 0.2c-0.2-0.1-0.3-0.1-0.5-0.2 0-0.2-0.1-0.4 0-0.6v0.2c0 0.1 0 0.4 0.1 0.5h0.5c0.1 0 0.3 0 0.2-0.2 0.1-0.1 0.2-0.1 0.3-0.1-0.1 0 0 0 0 0z"/>
						<path class="st63" d="m28.3 26.5h0.1c0.2 0.2 0.2 0.4 0.2 0.6v0.1h-0.1c-0.2-0.1-0.3-0.2-0.2-0.5 0 0.1 0.1 0.1 0.1 0.2v0.1l0.1-0.1c0-0.2 0-0.2-0.2-0.4-0.1 0.1-0.1 0-0.1 0h0.1z"/>
						<path class="st65" d="m28 28.2c-0.1 0-0.1 0 0 0h-0.1c0.2 0 0.4-0.1 0.7-0.1h0.1 0.2v0.2-0.2c-0.2 0-0.4 0.1-0.6 0.1h-0.3z"/>
						<path class="st67" d="m28.5 28.4c0.1 0 0.1 0.1 0.2 0.1-0.2 0-0.4 0.1-0.5 0.1 0-0.2 0-0.2 0.2-0.2h0.1z"/>
						<path class="st71" d="m28.2 28.6c0.2 0 0.4-0.1 0.5-0.1s0.1 0 0.2 0.1h-0.1-0.6c0 0.1-0.1 0 0 0-0.1 0-0.1 0 0 0z"/>
						<path class="st63" d="m28.5 27.2s0.1 0 0 0h0.1 0.1v0.1c-0.3 0.1-0.7 0.1-1 0.2h0.1 0.3c0.2-0.2 0.3-0.2 0.4-0.3z"/>
						<path class="st63" d="m28.7 27.5c0 0.1 0.1 0.3 0 0.4-0.1-0.2-0.1-0.3 0-0.4z"/>
						<path class="st63" d="m28.7 27.5c0-0.1 0.1-0.1 0.2-0.1 0 0-0.1 0.1-0.2 0.1z"/>
						<path class="st63" d="m29 27.4s-0.1 0 0 0c-0.1-0.1 0-0.2-0.2-0.1v-0.1c0.2 0 0.2 0 0.2 0.2z"/>
						<path class="st67" d="m28.7 28.2c0.1 0 0.1 0.1 0 0-0.1 0.1-0.1 0.1-0.2 0.1h-0.2c0.2 0 0.3 0 0.4-0.1z"/>
						<path class="st64" d="m28.4 28.3h0.2v0.1c-0.1 0-0.2 0-0.2-0.1v0z"/>
						<path class="st64" d="m28.6 28h-0.1 0.1v0z"/>
						<path class="st63" d="m28.7 27.2c-0.1 0-0.1 0 0 0-0.1 0-0.1 0 0 0-0.1 0-0.1 0 0 0z"/>
						<path class="st63" d="m28.6 27.9s0.1 0 0 0c0.1 0 0 0 0 0z"/>
						<path class="st63" d="m28.5 27.2c-0.1 0-0.3 0-0.4 0.1 0.1-0.2 0.1-0.3 0.1-0.5 0 0.1 0 0.2-0.1 0.3 0 0.1-0.1 0.2-0.1 0.2-0.1 0-0.2 0-0.2-0.1-0.1-0.1-0.1-0.2-0.1-0.4 0 0 0-0.1 0.1-0.1 0 0 0 0.1 0.1 0.1v0.2l0.1 0.1s0.1 0 0.1-0.1v-0.4l0.1-0.1v0.1c0.3 0.1 0.3 0.1 0.3 0.4 0 0 0 0.1-0.1 0.1v-0.1c0-0.1 0-0.1-0.1-0.2 0 0.2 0 0.4 0.2 0.4z"/>
						<path class="st63" d="m28.1 26.6v0.4l-0.1 0.1-0.1-0.1v-0.2s0-0.1-0.1-0.1l-0.1 0.1c0 0.1 0 0.3 0.1 0.4 0 0.1 0.2 0.1 0.2 0.1 0.1 0 0.1-0.1 0.1-0.2s0-0.2 0.1-0.3c0.1 0.2 0 0.4-0.1 0.5h-0.3l-0.1-0.1c0-0.1-0.1-0.3-0.1-0.4v-0.2c0-0.1 0.1-0.1 0.2-0.1s0.2 0 0.2 0.2v0.2h0.1c-0.1 0-0.1-0.1 0-0.3-0.1 0.1-0.1 0 0 0z"/>
						<path class="st63" d="m28 26.7v0.3h-0.1c0-0.1 0-0.2 0.1-0.3-0.1 0-0.1 0 0 0z"/>
						<path class="st72" d="m28.2 30.4v-0.2c0.1-0.2 0.4-0.3 0.6-0.2 0.1 0 0.2 0.1 0.2 0.2 0.1 0.2 0 0.3-0.1 0.5-0.1 0-0.1 0-0.2 0.1-0.2 0.1-0.1-0.1-0.2-0.2v-0.4c-0.2 0-0.2 0.1-0.2 0.3 0-0.1 0-0.1-0.1-0.1zm0.6 0.1c0.2 0 0.3-0.1 0.2-0.3 0 0-0.1-0.1-0.2-0.1v0.1c-0.1 0.1-0.1 0.2 0 0.3z"/>
						<path class="st71" d="m28.9 30.6c0.1-0.1 0.2-0.3 0.1-0.5 0-0.1-0.1-0.2-0.2-0.2-0.2-0.1-0.5 0-0.6 0.2-0.1 0-0.1-0.1 0-0.1h0.1c0.1 0 0.2 0 0.3-0.1l0.1-0.1s0-0.1-0.1-0.1c-0.1-0.1-0.3 0.1-0.4 0.2h-0.1c0-0.1 0.1-0.2 0.1-0.2 0.2 0 0.4-0.2 0.5 0.1v-0.2h0.1v0.1 0.2h-0.1c0.1 0.1 0.1 0.2 0.2 0.4s0 0.3-0.1 0.4c0.2 0 0.2 0 0.1-0.1 0.1 0 0 0 0 0z"/>
						<path class="st73" d="m29.2 30.7c0 0.1 0.1 0.1 0.1 0.2 0.1 0.1 0.1 0.2-0.1 0.3l-0.2 0.2c-0.1 0.1-0.2 0.1-0.2 0.2 0-0.2 0-0.3 0.2-0.4 0 0 0-0.1 0.1-0.1h0.1v-0.1c-0.1-0.1-0.1-0.2-0.3-0.2v-0.1h0.3c-0.1 0-0.1 0 0 0z"/>
						<path class="st73" d="m28.7 32c-0.3-0.1-0.5-0.4-0.4-0.7 0 0 0.1-0.1 0.2-0.1l0.1 0.1v0.3l-0.1-0.1v-0.2s0-0.1-0.1-0.1h-0.1c0.1 0.4 0.2 0.7 0.4 0.8 0.1-0.1 0.1-0.1 0 0 0.1 0 0.1 0 0 0z"/>
						<path class="st72" d="m29.1 31.1c-0.1-0.1-0.2-0.1-0.3-0.1s-0.3 0-0.4 0.1c-0.1 0-0.1-0.1-0.1-0.1 0-0.1 0-0.1 0.1-0.1 0.2 0 0.4-0.1 0.6-0.1v0.1c-0.1 0-0.3 0-0.4 0.1-0.1 0-0.1 0.1-0.1 0.1 0 0.1 0.1 0.1 0.2 0.1s0.2 0 0.4-0.1c-0.1-0.2 0-0.1 0 0z"/>
						<path class="st74" d="m28.7 32c0.1 0 0.1 0 0 0 0.3-0.1 0.3-0.3 0.3-0.5 0.1 0 0.1 0.1 0.1 0.1-0.2 0.1-0.1 0.2-0.1 0.4v0.1s-0.1 0-0.3-0.1c0.1 0.1 0.1 0.1 0 0 0.1 0 0 0 0 0z"/>
						<path class="st75" d="m28.7 31.7c0-0.1 0-0.1 0.1-0.1 0.1-0.1 0.2-0.1 0.2-0.2v0.2c0 0.1 0 0.2-0.2 0.3-0.1-0.1-0.1-0.1-0.1-0.2z"/>
						<path class="st71" d="m28.4 30.4c0-0.1 0-0.2 0.2-0.3v0.4c-0.1 0-0.1 0-0.2-0.1z"/>
						<path class="st72" d="m28.5 30.5c0.1 0.1 0 0.2 0 0.3-0.1 0-0.2-0.1-0.3-0.2l0.2 0.2c0.1-0.2 0.1-0.3 0.1-0.3z"/>
						<path class="st67" d="m28.9 30.6s0.1 0 0 0-0.1 0-0.2 0.1c0.1 0 0.2-0.1 0.2-0.1z"/>
						<path class="st74" d="m29.2 32.5l-0.2-0.2c0.1-0.1 0.2-0.1 0.2 0.1 0 0 0.1 0 0.2 0.1v-0.2c0.1 0 0.3 0 0.4-0.1l-0.2-0.2c0-0.3-0.1-0.4-0.4-0.4 0-0.1-0.1-0.1-0.1-0.2v-0.1c0.3-0.1 0.6 0 0.8 0.3 0.1 0.3 0 0.6-0.2 0.8-0.1 0-0.2 0.1-0.2 0.1h-0.1-0.2z"/>
						<path class="st75" d="m29.2 31.2v0c0 0.1 0.1 0.2 0.1 0.3h-0.1c0-0.1-0.1-0.2-0.2-0.2 0.1 0 0.1 0 0.2-0.1z"/>
						<path class="st65" d="m29.4 32.5h0.1c0 0.1 0.1 0.2 0.1 0.3h-0.1c0-0.1-0.1-0.2-0.1-0.3z"/>
						<path class="st68" d="m28.2 29h0.4c0.1 0 0.1 0.1 0.2 0.1-0.1 0-0.2 0-0.3 0.1-0.1 0-0.1 0.1-0.2 0.1s-0.2 0-0.2-0.1c-0.1-0.1 0-0.2 0.1-0.2z"/>
						<path class="st74" d="m28.3 29.9s0.1 0 0 0c0.1 0 0.1 0 0 0v0.1h-0.2c-0.1-0.2-0.1-0.4 0.1-0.5 0.1 0 0.1 0 0.2-0.1h0.1 0.2c-0.1 0-0.2 0.1-0.3 0.1-0.2 0-0.3 0.1-0.3 0.3 0.1 0.1 0.1 0.2 0.2 0.1z"/>
						<path class="st70" d="m28.4 29.5c-0.1 0-0.1 0-0.2 0.1-0.2-0.1-0.2-0.2-0.2-0.4 0.1 0 0.2 0 0.2 0.1 0.1 0 0.2 0.1 0.2 0.2v0 0z"/>
						<path class="st64" d="m28.5 30.5v0.2l-0.2-0.2v-0.1l0.2 0.1c-0.1-0.1-0.1-0.1 0 0z"/>
						<path class="st63" d="m28.6 27.9c-0.3 0.1-0.5 0.2-0.7 0.2v-0.2c0.2 0 0.3 0 0.4-0.1l0.1-0.1s0.1 0 0.1-0.1v-0.2c-0.2 0-0.3 0-0.5 0.1-0.2 0-0.2 0-0.2-0.2 0.3-0.1 0.7-0.1 1-0.2 0.1 0 0.1 0.1 0.1 0.2-0.1 0-0.2 0-0.3 0.1v0.5z"/>
						<path class="st63" d="m27.8 27.4c0 0.2 0.1 0.2 0.2 0.2 0.2 0 0.3-0.1 0.5-0.1v0.2s-0.1 0-0.1 0.1v-0.1s0-0.1-0.1-0.1c-0.2 0-0.3 0.1-0.5 0.1h-0.2c0.1-0.2 0.1-0.3 0.2-0.3-0.1 0 0 0 0 0z"/>
						<path class="st63" d="m28.4 27.7l-0.1 0.1c-0.1 0-0.3 0-0.4 0.1v0.2-0.1-0.2c0.1 0 0.3 0 0.5-0.1z"/>
						<path class="st64" d="m27.8 28v0.1s-0.1 0 0-0.1c-0.1 0.1 0 0 0 0z"/>
						<path class="st63" d="m27.7 27.2l0.1 0.1h-0.1v-0.1z"/>
						<path class="st63" d="m28.4 27.5v0 0z"/>
						<path class="st75" d="m29.4 32.2v0.2c-0.1 0-0.2 0-0.2-0.1-0.1-0.1-0.1-0.1-0.2-0.1s-0.2-0.1-0.2-0.2h0.3v-0.1c0.1 0.2 0.2 0.2 0.3 0.3z"/>
						<path class="st65" d="m29.5 32.8s-0.1 0 0 0c-0.1 0 0 0 0 0z"/>
						<path class="st73" d="m29.1 29.7v0c0-0.1 0.1-0.1 0 0h0.1-0.1z"/>
						<path class="st66" d="m29.2 30.7c-0.1 0-0.1 0 0 0-0.1 0-0.1 0 0 0z"/>
						<path class="st73" d="m29.2 29.3c0 0.1 0.1 0.2 0.1 0.2v0.1h-0.1c0-0.2-0.2-0.2-0.3-0.2v-0.3h0.1c0.1 0.2 0.1 0.2 0.2 0.2z"/>
						<path class="st71" d="m29.1 29.2h-0.1v-0.1c-0.1 0 0 0 0.1 0.1 0-0.1 0-0.1 0.1-0.1l-0.1-0.1c0.2 0 0.2 0 0.3 0.2-0.2-0.1-0.3-0.1-0.3 0z"/>
						<path class="st64" d="m28.9 29.1c0 0.1 0.1 0.2 0.1 0.3 0.1 0 0.3 0 0.3 0.2h-0.1-0.1-0.1c-0.1 0-0.1-0.1-0.2-0.1 0-0.1 0-0.2-0.1-0.3 0.1-0.1 0.2-0.1 0.2-0.1z"/>
						<path class="st72" d="m28.1 28.6h0.2c0.2 0 0.4-0.1 0.6-0.1 0.1 0.2-0.2 0.2-0.2 0.2h-0.5c-0.1 0-0.2-0.3-0.1-0.5v-0.2h0.1v0.1s0.1 0 0.1 0.1c-0.3 0.2-0.3 0.3-0.2 0.4z"/>
						<path class="st72" d="m28.9 29.1h-0.1c-0.1 0-0.1-0.1-0.2-0.1 0.1 0 0.1-0.1 0.2-0.1h0.2l0.1 0.1-0.1 0.1h-0.1z"/>
						<path class="st66" d="m28.2 28.3s-0.1 0 0 0l-0.1-0.1c0.2 0 0.4-0.1 0.6-0.1v0.2c-0.1 0-0.3 0.1-0.4 0.1 0-0.1-0.1-0.1-0.1-0.1z"/>
						<path class="st72" d="m27.8 28.1c0.1 0 0.1 0 0 0 0.3-0.1 0.5-0.1 0.8-0.2l-0.1 0.1c-0.2 0-0.4 0.1-0.7 0.1z"/>
						<path class="st74" d="m28.2 28.3h0.2c-0.2 0-0.2 0-0.2 0.2h-0.1c-0.1 0-0.1-0.1 0.1-0.2z"/>
						<path class="st57" d="m32.2 33c0.4-1 0.5-2 0.1-3.1-0.3-0.7-0.7-1.3-1.4-1.8-0.1 0.3-0.3 0.7-0.4 1-0.1 0.2-0.1 0.3-0.2 0.5 0 0.1-0.1 0.2-0.1 0.4 0 0.4 0 0.7 0.1 1.1 0.1 0.2 0.1 0.3 0.2 0.5 0 0.2 0.1 0.5 0 0.7-0.2 0.3-0.4 0.5-0.7 0.6h-0.1-0.1c-0.1 0-0.1-0.1-0.2-0.1h-0.2l-0.1-0.1c-0.2-0.1-0.3-0.2-0.5-0.3-0.2-0.2-0.4-0.4-0.6-0.7-0.3-0.5-0.5-1-0.6-1.6 0-0.2-0.1-0.5-0.1-0.7v-0.1-0.3-0.4-0.6c0-0.2 0.1-0.5 0.1-0.7v-0.1c0-0.2 0.1-0.3 0.1-0.5-0.2 0-0.5-0.1-0.7-0.1h-0.2c-0.3 0.1-0.6 0.2-1 0.3l-0.1 0.1c0 0.3-0.1 0.7-0.1 1l0.2 0.2-0.2-0.2v0.1c0.1 0 0.1 0 0.2 0.1-0.1 0-0.1 0-0.2-0.1 0 1 0 1.9 0.1 2.8 0.1 0.6 0.2 1.2 0.4 1.8 0.1 0.5 0.3 1 0.5 1.4v0.1c0.1 0.1 0.2 0.3 0.3 0.3 0.3 0.2 0.7 0.3 1 0.4 0.5 0.2 1 0.2 1.5 0.1s1-0.2 1.4-0.4c0.2-0.2 0.5-0.3 0.7-0.5l0.1-0.1c0.3-0.3 0.5-0.7 0.8-1.1-0.1 0.2-0.1 0.2 0 0.1-0.1 0-0.1 0 0 0zm-6.7-4.8c0.1 0 0.1 0 0 0 0.1 0 0.1 0 0 0zm0.5 0.2l0.1 0.1c-0.1 0-0.1 0-0.1-0.1zm0.5 0.4l0.1 0.1s-0.1 0-0.1-0.1zm0.6 4.2s0.1 0 0 0c0.1 0 0 0 0 0zm0.6-0.7c0 0.1-0.1 0.1-0.1 0.2 0 0 0 0.1-0.1 0.1v0.1-0.1s0-0.1 0.1-0.1c0-0.1 0-0.2 0.1-0.2v0 0zm0-0.2v0c0.1 0 0.1 0 0 0 0.1-0.1 0.1-0.1 0 0 0.1 0 0.1 0 0 0zm1 1.2c0.1 0 0.1 0 0.2 0.1h0.1-0.1c-0.1 0-0.2 0-0.2-0.1zm0.5 0.8h-0.2-0.1c0-0.1-0.1-0.2-0.1-0.4 0 0.1 0.1 0.2 0.1 0.4h0.1c0.1-0.1 0.1-0.1 0.2 0-0.1-0.1-0.1-0.1-0.2-0.1 0.1 0 0.1 0.1 0.2 0.1zm0.2-0.6v0 0zm0.4 0.2zm0.3 0.5zm0-0.2c-0.1 0-0.3 0-0.4 0.1 0.1-0.1 0.2-0.1 0.4-0.1 0.1 0 0.1 0.1 0.1 0.1 0-0.1-0.1-0.1-0.1-0.1z"/>
						<path class="st74" d="m28.8 30.5v-0.2-0.1c0.1 0 0.1 0 0.2 0.1 0 0 0 0.2-0.2 0.2z"/>
						<path class="st72" d="m28.8 29.1c0 0.1 0 0.2 0.1 0.3h-0.1 0.1c0.1 0 0.1 0.1 0.2 0.1v0.2c-0.1-0.3-0.3-0.2-0.5-0.1 0 0-0.1 0.1-0.1 0.2-0.1 0.1-0.1 0-0.1-0.1s0.1-0.2 0.3-0.3c0.1 0 0.2-0.1 0.3-0.1-0.3 0.1-0.3 0-0.2-0.2-0.2 0.1-0.3 0.1-0.5 0.2 0.1 0 0.1-0.1 0.2-0.1 0-0.1 0.1-0.1 0.3-0.1z"/>
						<path class="st67" d="m28.4 30v0c0-0.2 0.2-0.3 0.3-0.3l0.1 0.1s0 0.1-0.1 0.1-0.2 0-0.3 0.1z"/>
						<path class="st64" d="m29.1 31.1c0-0.1-0.1-0.2-0.2-0.1-0.1 0-0.2 0-0.4 0.1-0.1 0-0.2 0.1-0.2-0.1l0.1-0.1c0.1 0 0.3 0 0.4-0.1 0.2 0 0.2 0.1 0.3 0.2v0.1c0.1 0 0 0 0 0z"/>
						<path class="st64" d="m28.7 31.7c0 0.1 0 0.1 0.1 0.2-0.2 0-0.4-0.3-0.3-0.5h0.1l0.1 0.1v0.2c-0.1 0 0 0 0 0z"/>
						<path class="st76" d="m28.7 31.9c0.1 0 0.1 0 0 0 0.2 0 0.2-0.2 0.2-0.3v-0.2c0.1 0 0.2 0.1 0.2 0.2l-0.1-0.1c0 0.2 0.1 0.4-0.3 0.4 0.1 0 0.1 0 0 0z"/>
						<path class="st77" d="m29.1 32c-0.1-0.2-0.1-0.3 0-0.4l0.1 0.1 0.1-0.1v-0.1c0.3 0 0.4 0.1 0.4 0.4-0.1 0-0.2-0.1-0.3-0.1h-0.1c-0.1 0.2-0.1 0.2-0.2 0.2z"/>
						<path class="st78" d="m29.3 31.5v0.1s0 0.1-0.1 0.1l-0.1-0.1c0.1 0 0.2-0.1 0.2-0.1z"/>
						<path class="st77" d="m29.2 31.6z"/>
						<path class="st76" d="m29.7 32c0.1 0 0.1 0.1 0.2 0.2-0.2 0-0.3 0-0.4 0.1v-0.1c0-0.1 0.1-0.2 0.2-0.2z"/>
						<path class="st66" d="m28.3 29.3c0.1 0 0.2-0.1 0.4-0.1v0.3h-0.2l-0.2-0.2z"/>
						<path class="st67" d="m28.4 29.4z"/>
						<path class="st78" d="m29.7 32c-0.1 0.1-0.2 0.1-0.3 0.2-0.1 0-0.2-0.1-0.3-0.1 0 0 0.1 0 0.1-0.1 0 0 0.1-0.1 0.1 0 0.1-0.1 0.3 0 0.4 0z"/>
						<path class="st68" d="m28.8 29.5z"/>
				<path class="st66" d="m29.8 30.9l-2.1-0.7 0.2 0.9 0.5 1.2s0.7 0.7 1.2 0.5c0.5-0.1 0.6-1 0.6-1l-0.4-0.9z"/>
						<ellipse class="st74" transform="matrix(.9883 -.1523 .1523 .9883 -4.5025 4.8391)" cx="29.3" cy="31.8" rx=".7" ry=".7"/>
						<ellipse class="st77" transform="matrix(.9883 -.1523 .1523 .9883 -4.503 4.839)" cx="29.3" cy="31.8" rx=".3" ry=".3"/>
					<path class="st66" d="m30.8 28.1l-0.4 1s-0.3 0.7-0.3 1.4 0.1 0.9 0.1 0.9-1.6-0.5-1.7-0.5-1.2-0.8-1.2-0.8-0.2-1.3-0.1-2.4c0.2-1.1 1-0.2 1.5-0.3s2 0 2 0 0.5 0.1 0.1 0.7z"/>
						<polygon class="st67" points="30.5 29.1 27.2 27.7 27.1 28.3 30.2 29.6"/>
						<polygon class="st67" points="30.2 30.1 27.1 28.7 27.2 29.5 30.2 31"/>
			<path class="st14" d="m33.3 30.2h-1.3c0 0.1 0.1 0.1 0.1 0.2 0.3 0.4 0 0.1 0 0.1s0.2 0.3 0 0.4-0.3 0.5-0.4 0.7-0.2 0.5-0.2 0.6-0.8 0.9-0.9 1c0 0.1-0.1 0.3 0 0.3s0.8-0.6 1-0.7 0.4-0.3 0.4-0.3-0.3 1-0.6 1.3c-0.4 0.3-1.2 0.6-1.1 0.8 0.1 0.1 1.2-0.4 1.2-0.4 0.1 0 1.1-0.8 1.3-1.1s0.6-2.3 0.4-2.7c0.2 0 0.2-0.1 0.1-0.2z"/>
			<path class="st14" d="m16.7 30.6l-0.5 10.8s0.2 0.5 1.5 0.6 2.4-0.2 2.4-0.2l0.8-7.2 0.8 0.2 1.7 7.8s0.7-0.2 1.8-0.5 1.9-1.1 1.9-1.1l-1.2-10.8-9.2 0.4z"/>
			<path class="st79" d="m26.9 20.7s-1 2.9-1.3 2.4c-0.3-0.4-0.5-1.5-0.5-1.5s1-3.7 1.2-3.5c0.3 0.1 0.6 2.6 0.6 2.6z"/>
			<path class="st9" d="m29 24.5h2.3c-0.1-0.5-0.2-0.9-0.4-1.2-0.3-0.5-0.1-0.2-0.5-1.3s-0.9-1.8-1.1-2.2-0.3-1.7-1.2-2.9-2.8-0.8-2.8-0.8-0.1 1.9-0.1 2.1 1.4 3 1.7 3.3c0.3 0.4 1.6 1.8 1.7 2s0.3 0.5 0.4 1z"/>
			<path class="st79" d="m28.7 23.5c0.1 0.2 0.4 0.9 0.6 1.6 0.1 0.7 1.1 1.7 1.5 2.8 0 0.1 1.1 2.5 1.1 2.5l1.5-0.3c-0.1-0.5-0.9-2.7-1-3.2-0.2-1.7-1.1-3.1-1.4-3.7-0.3-0.5-0.1-0.2-0.5-1.3s-0.9-1.8-1.1-2.2-0.3-1.7-1.2-2.9-2.3-1-2.3-1-0.7 2.1-0.7 2.3 1.4 3 1.7 3.3c0.3 0.6 1.7 2 1.8 2.1z"/>
			<path class="st9" d="m18 16.3s-1.5 0.5-2.1 1.5c-0.6 1.1-0.6 2.2-0.3 2.9 0.2 0.7 0.2 3 0 3.4s-0.5 0.7-0.9 3.1c-0.2 1.5-0.4 2.8-0.5 3.7h1.1c0.3-0.6 1.1-2.3 1.4-3 0.4-0.9 0.9-2.7 0.9-2.9s0.4-7.9 0.4-7.9v-0.8z"/>
			<path class="st14" d="m16.1 32.1c-0.3-0.3-0.5-1.1-0.5-1.1s0.3-0.5 0.7-1.1h-1.7c-0.2 1-0.3 1.7-0.3 1.7s-0.5 1.4-0.3 1.6 0.5 1.3 0.6 1.5 1 0.8 1.2 0.8 0-0.5-0.2-0.6-0.3-0.1-0.3-0.4c-0.1-0.2-0.1-1.5 0.2-1.4s0.3 1.1 0.6 1.2 0.3-0.1 0.3-0.4c-0.2-0.1-0.1-1.4-0.3-1.8z"/>
			<path class="st57" d="m19.6 15.4l-1.6 0.9-0.7 5.6s-0.2 4.8-0.3 6.4c-0.1 1.7-0.5 2.1-0.3 2.4s3.5 0.6 5.6 0.4 3.3-0.9 3.3-0.9-0.3-4.2-0.2-5.2 0.4-2.5 0.4-2.6 0.1-6.2 0-6.4-2.6-1-2.6-1l-3.6 0.4z"/>
			<path class="st9" d="m16.7 41.6s0.2 1.5 0.2 3c-0.1 1.6 0.3 3.9 0.2 5.2s-0.4 3-0.4 3h2.1s0.1-2.8 0.7-4.4 0.3-2.7 0.2-3.8 0.4-3.2 0.4-3.2l-3.4 0.2z"/>
			<path class="st9" d="m23.5 42s0.2 1.1 0.1 2.3-0.1 2.1 0.4 3.4 1 2.7 1.1 3.8 0 1.3 0 1.3h1.8v-5.9c0-2.1-0.5-2.9-0.6-4.2s0.5-1.5 0-1.5c-0.4 0-2.8 0.8-2.8 0.8z"/>
			<path class="st80" d="m25.4 53.6c-0.1 0.1-0.2 0.5-0.2 0.5s-0.2 0.7-0.2 1.2c0.1 0.5 0.2 0.8 0.2 0.8h3.8s-0.1-0.3-0.4-0.7c-0.4-0.4-1.1-1.4-1.1-1.4s-0.1-0.3-0.4-0.6c-0.3-0.2-1-0.5-1.1-0.5-0.1 0.2-0.6 0.7-0.6 0.7z"/>
			<path class="st13" d="m16.8 42.1l2.1 0.6s0.2 1.6 0.6 2.9-0.2 3.6-0.2 3.6 0.8-1.7 0.5-3.5c-0.3-1.9 0.2-3.8 0.2-3.8l-3.4-0.2 0.2 0.4z"/>
			<path class="st13" d="m23.5 42s0.2 1.7 0.1 2c0 0.3-0.3 2.2 0.2 3.2 0 0 0.2-2.4 0.3-3.3 0.1-1 0.6-1.3 1.3-1.7s0.9-0.4 0.9-0.4 0-0.3 0-0.5l-2.8 0.7z"/>
				<path class="st9" d="m24 10.1s0.4-0.2 0.6 0.2-0.4 1.4-0.7 1.5c-0.3 0-0.6 0-0.4-0.4 0.1-0.4 0.5-1.3 0.5-1.3z"/>
				<path class="st14" d="m19.2 10.1s-0.2-1.3-0.1-1.8 0.5-1.2 0.5-1.2 0.2 0.1 0.5 0c0.2-0.1-0.1-0.5-0.1-0.5s2.5-0.1 3.4 0.4c0.9 0.4 1 1.2 1 1.8s-0.4 2-0.4 2l-1 0.2s-3.6 0-3.7-0.1-0.1-0.8-0.1-0.8z"/>
				<path class="st9" d="m23.9 10.7s0-0.1-0.2-0.2c-0.1-0.2 0-1.8 0-1.8s0.1-0.1-0.4-0.3-2 0.1-2 0.1 0-0.2-0.1-0.3-1.5 0.4-1.5 0.4v1.2c0 0.7-0.2 0.9-0.2 0.9s-0.1-0.7-0.4-0.7c-0.2 0-0.3 0.5-0.1 1s0.6 0.7 0.6 0.7 0 0.9 0.1 1.1 0.5 0.7 0.5 0.7 0.1 0.6 0 1.2c-0.1 0.5-0.3 0.9-0.3 0.9 0.9 0.4 2.9 0.1 3.4 0v-1-1.1s0.4-0.4 0.5-0.6c0.1-0.3 0.1-2.2 0.1-2.2z"/>
				<path class="st14" d="m20.1 9.7h1s0-0.1-0.1-0.2-0.6-0.1-0.7 0-0.3 0.2-0.2 0.2z"/>
				<path class="st14" d="m23.2 9.7h-1s0-0.1 0.1-0.2 0.6-0.1 0.7 0c0.1 0 0.2 0.2 0.2 0.2z"/>
					<path class="st15" d="m20.2 10.2s0 0.3 0.4 0.3 0.4-0.3 0.4-0.3-0.2-0.1-0.3-0.1-0.5 0-0.5 0.1z"/>
					<ellipse class="st14" cx="20.6" cy="10.3" rx=".2" ry=".2"/>
					<path class="st14" d="m20.5 10.2h-0.3s0-0.1 0-0.1 0.5-0.1 0.6-0.1c0.2 0.1 0.2 0.1 0.2 0.2h-0.5z"/>
					<path class="st15" d="m23.2 10.2s0 0.3-0.4 0.3-0.4-0.3-0.4-0.3 0.2-0.1 0.3-0.1 0.5 0 0.5 0.1z"/>
					<ellipse class="st14" cx="22.8" cy="10.3" rx=".2" ry=".2"/>
					<path class="st14" d="m22.9 10.2h0.3c0.1 0 0-0.1 0-0.1s-0.5-0.1-0.6-0.1c-0.2 0.1-0.2 0.1-0.2 0.2h0.5z"/>
				<path class="st13" d="m21.1 11.7s0.1-0.1 0.2 0 0.2 0.1 0.4 0.1 0.3-0.1 0.3-0.1 0.1 0 0.1 0.1c0 0-0.1 0.1-0.2 0.1 0 0.1-0.1 0.1-0.3 0.1s-0.3-0.1-0.3-0.2c0 0-0.1 0.1-0.2-0.1z"/>
				<path class="st15" d="m20.9 12.4s0.8 0.1 1.3 0h0.2s-0.1 0.3-0.7 0.3-0.8-0.3-0.8-0.3z"/>
				<path class="st13" d="m20.2 13.3l0.6 0.6s1.3 0.1 1.6 0 0.8-0.5 0.8-0.5v1.1 1l-0.6 0.1s0.3-0.3 0.3-0.4-2-0.8-2.7-1.6v-0.3z"/>
				<path class="st9" d="m19.9 15.4s-0.7 1.5 0.9 2.2 2.8-1.4 2.5-2.2c-0.2-0.8-3.4 0-3.4 0z"/>
			<path class="st11" d="m16.7 52.8l-0.2 1.3s-0.2 0.6 0.3 0.6c0.6 0 1.8 0.1 1.8 0.1l0.2-0.5-0.1-1.5h-2z"/>
			<path class="st11" d="m25.4 52.7l-0.4 0.1 0.2 1.4 0.6 0.3s-0.2-0.8 0-0.9c0.2-0.2 1.2-0.1 1.2-0.1l-0.2-0.7-1.4-0.1z"/>
			<path class="st80" d="m16.9 54.3c0-0.1-0.1-0.6-0.3-0.6-0.2-0.1-0.2 0.1-0.7 0.5s-3 0.8-3 1.4 0 0.6 0 0.6h6.3l-0.3-1.8s-0.4 0.3-0.8 0.1-1.2-0.2-1.2-0.2z"/>
			<path class="st79" d="m16 31.2l-2.1-0.3s0.6-5.7 1.2-6.3 0.5-2.1 0.5-2.1-0.1-1.6-0.3-3.3 2.8-2.8 2.8-2.8l0.6 1 0.3 8-1.3 1.5-1.7 4.3z"/>
			<path class="st80" d="m19.9 15.4l-1 16.5-2.2-0.5 0.5-4.9 0.6-10.1c-0.1 0 1.5-1.1 2.1-1z"/>
			<polygon class="st80" points="23.3 15.1 22.8 31.5 25.9 30.8 25.9 15.9"/>
			<path class="st79" d="m19.9 15.4l-0.9 2.3 0.5 0.8-0.7 2.5s0.6 1.9 0.6 1.8c0.1-0.1 0.5-7.4 0.5-7.4z"/>
			<polygon class="st79" points="23.3 15.6 23 23 23.9 20.9 23.7 18.6 24 17.9"/>
			<path class="st14" d="m16.2 41.4s-0.1 12 0 12.2c0.1 0.1 0.5 1.1 1.2 0.9s1.9-0.1 1.9-0.2 0.6-5.3 0.8-6.4 0-7.6 0-7.6l-3.9 1.1z"/>
			<path class="st14" d="m23.4 41.6s0.2 6 0.2 6.6 1.3 6.5 1.5 6.3c0.2-0.1 0.7 0 0.7 0l1.7-0.5-0.4-13.2-3.7 0.8z"/>
	<rect class="st35" width="64" height="64"/>
</svg>
