<svg xmlns="http://www.w3.org/2000/svg" xmlns:xlink="http://www.w3.org/1999/xlink" width="16" height="17" viewBox="0 0 16 17">
    <defs>
        <path id="a" d="M.309.12a.3.3 0 0 0-.22.09.328.328 0 0 0 0 .45L6.57 7.456.09 14.252a.328.328 0 0 0 0 .45c.119.126.31.126.429 0L7 7.907l6.481 6.797c.12.125.31.125.43 0a.328.328 0 0 0 0-.45L7.43 7.455 13.91.66a.328.328 0 0 0 0-.45.293.293 0 0 0-.429 0L7 7.005.519.209a.28.28 0 0 0-.21-.09z"/>
    </defs>
    <g fill="none" fill-rule="nonzero" transform="translate(1 1)">
        <use fill="#000" fill-rule="evenodd" xlink:href="#a"/>
        <path stroke="#5F5A5A" d="M7 6.281l6.12-6.417a.793.793 0 0 1 1.152 0 .828.828 0 0 1 0 1.14L8.12 7.457l6.152 6.451a.828.828 0 0 1 0 1.14.793.793 0 0 1-1.153 0L7 8.632.88 15.048a.793.793 0 0 1-1.152 0 .828.828 0 0 1 0-1.14L5.88 7.455-.272 1.005a.828.828 0 0 1 0-1.14.798.798 0 0 1 1.153 0L7 6.28z"/>
    </g>
</svg>
