<?xml version="1.0" encoding="UTF-8"?>
<svg enable-background="new 0 0 64 64" version="1.1" viewBox="0 0 64 64" xml:space="preserve" xmlns="http://www.w3.org/2000/svg">
<style type="text/css">
	.st0{opacity:1.000000e-02;fill:none;stroke:#FFFFFF;stroke-width:0.111;stroke-miterlimit:10;}
	.st1{fill:#EBEBEE;}
	.st2{fill:#D9D9DB;}
	.st3{fill:#EAEAEA;}
	.st4{fill-rule:evenodd;clip-rule:evenodd;fill:#EFF0F0;}
	.st5{fill-rule:evenodd;clip-rule:evenodd;fill:#EAEAEA;}
	.st6{fill-rule:evenodd;clip-rule:evenodd;fill:#D9D9DB;}
	.st7{fill:#CC4444;}
	.st8{fill:#EAB498;}
	.st9{fill:#FFCEB3;}
	.st10{fill:#EF6262;}
	.st11{fill:#EEEBF2;}
	.st12{fill:#B23636;}
	.st13{fill:#EAB69B;}
	.st14{fill:#2A2A28;}
	.st15{fill:#FFFFFF;}
	.st16{fill:#B2B2B0;}
	.st17{opacity:0.3;clip-path:url(#XMLID_88_);fill:#C5C5C5;}
	.st18{fill:#00C2AE;}
	.st19{opacity:1.000000e-02;fill:none;stroke:#FFFFFF;stroke-width:0.1107;stroke-miterlimit:10;}
	.st20{fill:#BDBDC1;}
	.st21{fill:#D1CE57;}
	.st22{fill:#B1B1B2;}
	.st23{fill:#D18F42;}
	.st24{opacity:0.44;fill:#EDB264;}
	.st25{fill:#B77430;}
	.st26{fill:#EDB264;}
	.st27{opacity:0.55;fill:#CC8E44;}
	.st28{fill:#CC8E44;}
	.st29{fill:#A06127;}
	.st30{fill:#EFF0F0;}
	.st31{fill:#C4C4C4;}
	.st32{fill:#9B9B9B;}
	.st33{fill:#AAAAAA;}
	.st34{fill:#F94B58;}
	.st35{opacity:1.000000e-02;fill:none;stroke:#FFFFFF;stroke-width:0.1111;stroke-miterlimit:10;}
	.st36{fill:#F2F2F2;}
	.st37{fill:#9C9EA0;}
	.st38{fill:#E6E6E6;}
	.st39{fill:#2E325B;}
	.st40{fill:#303030;}
	.st41{fill:#7CCE9D;}
	.st42{fill:#FC6565;}
	.st43{fill:#ADADB2;}
	.st44{fill:#8F8F93;}
	.st45{fill:#343535;}
	.st46{fill:#1B1C1C;}
	.st47{fill:#6F7070;}
	.st48{fill:#ADADAD;}
	.st49{fill:#5B5B5B;}
	.st50{fill:#676868;}
	.st51{fill:#818484;}
	.st52{fill:#595B5B;}
	.st53{fill:#C4C6C6;}
	.st54{fill:#838484;}
	.st55{fill:#191919;}
	.st56{opacity:0.2;fill:#FFFFFF;}
	.st57{fill:#DD62EF;}
	.st58{fill:#E37DF4;}
	.st59{fill:#EA97FC;}
	.st60{fill:#35383D;}
	.st61{opacity:0.3;}
	.st62{opacity:0.5;fill:#FFFFFF;}
	.st63{fill:#020103;}
	.st64{fill:#060506;}
	.st65{fill:#232325;}
	.st66{fill:#040305;}
	.st67{fill:#424141;}
	.st68{fill:#0D0D0F;}
	.st69{fill:#CC3E45;}
	.st70{fill:#505050;}
	.st71{fill:#646464;}
	.st72{fill:#333333;}
	.st73{fill:#2B2B2D;}
	.st74{fill:#5F5F5F;}
	.st75{fill:#4A4A4B;}
	.st76{fill:#777676;}
	.st77{fill:#E8EBEC;}
	.st78{fill:#B0B4B4;}
	.st79{fill:#752289;}
	.st80{fill:#8F31A3;}
	.st81{opacity:0.35;}
	.st82{fill:#5A5A5A;}
	.st83{fill:#8E8E8E;}
	.st84{fill:#888888;}
	.st85{fill:#D6D6D6;}
	.st86{fill:#A3A3A3;}
	.st87{fill:#7B7B7B;}
	.st88{fill:#919191;}
	.st89{fill:#818181;}
	.st90{fill:#BCBCBC;}
	.st91{fill:#6A6A6A;}
	.st92{fill:#7C7C7C;}
	.st93{fill:#898989;}
	.st94{fill:#B8B8B8;}
	.st95{fill:#494949;}
	.st96{fill:#808080;}
	.st97{fill:#4B4B4B;}
	.st98{fill:#7D7D7D;}
	.st99{fill:#525252;}
	.st100{fill:#D7D7D7;}
	.st101{fill:#565656;}
	.st102{fill:#585858;}
	.st103{fill:#575757;}
	.st104{fill:#D4D4D4;}
	.st105{fill:#484848;}
	.st106{fill:#A4A4A4;}
	.st107{fill:#373737;}
	.st108{fill:#595959;}
	.st109{fill:#EFEFEF;}
	.st110{fill:#6B6B6B;}
	.st111{fill:#404040;}
	.st112{fill:#BDBDBD;}
	.st113{fill:#9C9C9C;}
	.st114{fill:#929292;}
	.st115{fill:#DDDDDD;}
	.st116{fill:#CACACA;}
	.st117{fill:#CBCBCB;}
	.st118{fill:#BBBBBB;}
	.st119{fill:#7E7E7E;}
	.st120{fill:#656565;}
	.st121{fill:#666666;}
	.st122{fill:#F0F0F0;}
	.st123{fill:#4A4A4A;}
	.st124{fill:#1F1F1F;}
	.st125{fill:#343434;}
	.st126{fill:#E9E9E9;}
	.st127{fill:#FAFAFA;}
	.st128{fill:#FCFCFC;}
	.st129{fill:#F5F5F5;}
	.st130{fill:#ECECEC;}
	.st131{fill:#C7C7C7;}
	.st132{fill:#D3D3D3;}
	.st133{fill:#D5D5D5;}
	.st134{fill:#EEEEEE;}
	.st135{fill:#363636;}
	.st136{fill:#BABABA;}
	.st137{fill:#D1D1D1;}
	.st138{fill:#6C6C6C;}
	.st139{fill:#686868;}
	.st140{fill:#616161;}
	.st141{fill:#626262;}
	.st142{fill:#2F2F2F;}
	.st143{fill:#848484;}
	.st144{fill:#636363;}
	.st145{fill:#FBFBFB;}
	.st146{fill:#E7E7E7;}
	.st147{fill:#F9F9F9;}
	.st148{fill:#8F8F8F;}
	.st149{fill:#949494;}
	.st150{fill:#959595;}
	.st151{fill:#969696;}
	.st152{fill:#E4E4E4;}
	.st153{fill:#E8E8E8;}
	.st154{fill:#FDFDFD;}
	.st155{fill:#E5E5E5;}
	.st156{fill:#F3F3F3;}
	.st157{fill:#F6F6F6;}
	.st158{fill:#F4F4F4;}
	.st159{fill:#FEFEFE;}
	.st160{fill:#CDCDCD;}
	.st161{fill:#D8D8D8;}
	.st162{fill:#E3E3E3;}
	.st163{fill:#939393;}
	.st164{fill:#979797;}
	.st165{fill:#828282;}
	.st166{fill:#4C4C4C;}
	.st167{fill:#777777;}
	.st168{fill:#B6B6B6;}
	.st169{fill:#B7B7B7;}
	.st170{fill:#B2B2B2;}
	.st171{fill:#B1B1B1;}
	.st172{fill:#8D8D8D;}
	.st173{fill:#9A9A9A;}
	.st174{opacity:0.35;fill:#FFFFFF;}
	.st175{fill:#A9A9AA;}
	.st176{fill:#263238;}
	.st177{fill:#E0E0E0;}
	.st178{fill:#FAFBFB;}
	.st179{opacity:0.76;fill:#F6F6F6;}
	.st180{fill:#F78494;}
	.st181{fill:#CE5B6F;}
	.st182{fill:#0F0F0F;}
	.st183{opacity:0.75;fill:#E0697E;}
	.st184{fill:#F2BCA0;}
	.st185{opacity:0.75;fill:#A83F56;}
	.st186{fill:#F44D4D;}
</style>
	<rect class="st0" width="63.8" height="63.8"/>
	<ellipse class="st1" cx="32.3" cy="37" rx="25.9" ry=".4"/>
	<g class="st81">
		<path class="st82" d="m28.3 10.4v3.1c0 1.2 0 2.3 0.1 3.5 0 0.8 0.1 1.6 0.1 2.4 0 0.7 0.1 1.3 0.2 2 0.1 0.6 0.1 1.1 0.2 1.7 0.1 0.9 0.2 1.7 0.2 2.6v0.1c0.1 0 0.1 0.1 0.2 0.1-0.4-0.1-0.8-0.1-1.2-0.1h-0.9c-0.4 0-0.8 0-1.3 0.1 0.1 0 0.1-0.1 0.2-0.1 0-0.3 0.1-0.6 0.1-0.9l0.3-3c0.1-0.6 0.1-1.2 0.2-1.9 0-0.4 0.1-0.7 0.1-1.1 0-0.5 0.1-1 0.1-1.6 0.1-2.2 0.1-4.4 0.1-6.7v-0.4h0.4c0.1 0.2 0.5 0.2 0.9 0.2z"/>
		<path class="st83" d="m53.5 34.2v0.1 1.7c0 0.1 0.1 0.1 0.1 0.1 0.2 0.1 0.3 0.2 0.5 0.3 0.1 0 0.1 0.1 0.2 0.2-0.1 0-0.1 0.1-0.1 0.1h-0.3-7.1-2.6v-0.2c0-0.2-0.1-0.3-0.2-0.4l-1.2-0.6h-0.1l-1.8-0.6h-0.2c-0.1 0-0.1 0-0.2 0.1-0.6 0.3-1.2 0.5-1.8 0.8-0.1 0-0.2 0-0.4-0.1-0.2-0.2-0.5-0.3-0.7-0.5-0.2-0.1-0.4-0.2-0.5 0-0.2 0.2-0.5 0.3-0.7 0.5-0.1 0-0.2 0.1-0.4 0.1-0.4 0.1-0.8 0.3-1.2 0.4-0.4-0.1-0.9-0.2-1.3-0.4l1.2-0.3c0.3-0.1 0.5-0.1 0.8-0.2s0.6-0.2 0.8-0.3h0.1c0.1 0 0.1 0 0.2-0.1 0.1 0 0.2 0 0.4-0.1 0.1 0 0.2 0 0.2-0.1 0.1 0 0.1-0.1 0.1-0.1 0-0.1 0-0.1 0.1-0.2v0.3c0.2 0 0.2 0 0.2-0.3l0.1 0.1 0.1-0.1c0 0.1 0 0.1 0.1 0.1h0.2c0.1 0 0.1-0.1 0.1-0.1 0.1 0 0.1 0.1 0.2 0.1s0.2 0 0.3-0.1h0.3c0.4 0 0.7-0.1 1.1-0.1 0.1 0 0.1 0 0.2-0.1 0.1 0 0.2 0 0.3-0.1v-0.2c0 0.1 0 0.2 0.1 0.2 0 0.1 0.1 0.1 0.1 0.1h0.3c0.1-0.1 0-0.2 0-0.3 0 0.1 0.1 0.2 0.1 0.3 0.3 0.1 0.5 0.1 0.7 0 0.2 0.1 0.2 0.1 0.3 0 0.1 0 0.1 0 0.2 0.1s0.2 0.1 0.3 0h0.1c0.2 0 0.3-0.1 0.3-0.3v-1.6c0.1 0.1 0.1 0.2 0.1 0.3v1.1 0.2c0 0.1 0.1 0.2 0.2 0.2 0.3 0 0.3 0 0.3-0.3v-0.9c0.1 0.1 0.1 0.2 0.1 0.3v0.7c0 0.1 0.1 0.2 0.2 0.2 0.1 0.1 0.2 0 0.4 0h0.2c0.1 0 0.2 0.1 0.4 0 0.1 0 0.2 0.1 0.4 0h0.2c0.1 0.1 0.2 0 0.4 0 0.1 0.1 0.2 0.1 0.3 0.1h0.9 0.7 0.5c0.3 0.1 0.6 0.1 1 0.2 0.1 0.1 0.1 0.1 0.2 0 0 0 0.1 0 0.1-0.1 0.1 0.3 0.1 0.3 0.4 0.4 0.1 0 0.2 0.1 0.3 0.2 0.3 0.2 0.7 0.4 1 0.6 0.3 0.1 0.6 0.3 0.9 0.4 0.5 0.2 0.9 0.1 1.4 0.2 0.1 0 0.1 0 0.1-0.1v-0.1-1.5c-0.4-0.2-0.4-0.2-0.3-0.3-0.1 0-0.1 0 0 0-0.1 0 0 0 0 0z"/>
		<path class="st84" d="m33.6 30.6c0.6-1.2 1.2-2.4 1.9-3.6h0.2c0.1 0.1 0.3 0.2 0.4 0.2 0.1 0.1 0.2 0.1 0.3 0.2l0.1-0.1c0.1-0.1 0.2-0.3 0.3-0.4 0-0.1 0.1-0.1 0.1-0.1 0.2 0.1 0.4 0.3 0.6 0.5 0.1-0.3 0-0.7 0.1-1 0.1 0 0.1 0.1 0.2 0.1 0.3 0.2 0.5 0.5 0.8 0.7 0.1 0.1 0.2 0.2 0.2 0.3 0.7 1 1.3 2 2 2.9 0.1 0.2 0.3 0.3 0.5 0.2h0.4 0.2-1.4c-0.1 0.1-0.1 0.2-0.1 0.3v0.6 0.1-0.1-0.4c0-0.3 0-0.3-0.3-0.3h-1.6c-0.3 0-0.3 0-0.3 0.3v0.5c0 0.1-0.1 0.2-0.2 0.2h-0.7c-0.1 0-0.2-0.1-0.2-0.2v-1.6c-0.1 0-0.1-0.1-0.2-0.1h-1-0.1c-0.1 0-0.1 0.1-0.1 0.1v0.2 1 0.4c0 0.2-0.1 0.2-0.2 0.3h-0.5c-0.2 0-0.3 0-0.3 0.3v0.2 0.8c-0.3-0.2-0.6-0.3-0.9-0.4-0.1 0-0.1 0-0.2-0.1 0.2 0 0.2-0.1 0.2-0.2v-0.3c-0.1-0.3 0-0.5 0-0.8v-0.4c-0.2-0.1-0.2-0.2-0.2-0.3z"/>
		<path class="st85" d="m16.2 28.3s0-0.1 0.1-0.1c0.2-0.5 0.5-0.8 0.9-1.1 0.3-0.2 0.6-0.5 0.9-0.7l0.1-0.1c0.1 0 0.1 0.1 0.2 0.1h1c0.1 0 0.1 0 0.2-0.1 0.1 0 0.1 0.1 0.2 0.1 0.3 0.3 0.7 0.6 1 0.9 0.4 0.3 0.6 0.8 0.7 1.3 0 0.1 0 0.3 0.1 0.4 0 0.1 0 0.1-0.1 0.2v0.2c-0.1 0.2-0.1 0.3-0.2 0.5s-0.2 0.2-0.4 0.2h-0.2-3.6-0.2c-0.2 0-0.3-0.1-0.3-0.2-0.1-0.1-0.1-0.3-0.1-0.4s0-0.2-0.1-0.2c-0.2-0.4-0.2-0.7-0.2-1z"/>
		<path class="st86" d="m47.7 34.2h-0.5-0.7v-1.4-0.3-2.4-0.3-1.9l0.3 0.3c0.1 0.1 0.1 0.2 0.3 0.2 0.2-0.2 0.3-0.4 0.4-0.6s0.3-0.4 0.4-0.6c0.1 0 0.1 0.1 0.2 0.1 0.5 0.5 1 0.9 1.5 1.4 0.2 0.2 0.4 0.3 0.5 0.5 0.1 0.1 0.2 0.1 0.3 0.1-0.2 0.1-0.3 0.1-0.5 0.2-0.1-0.1-0.2-0.1-0.2-0.2l-0.6-0.6c-0.2-0.2-0.4-0.5-0.7-0.7h-0.1-0.1l-0.4 0.4s-0.1 0.1-0.1 0.2c-0.1 0.1-0.2 0.1-0.1 0.2l0.1 0.1c0.5 0.4 1 0.9 1.5 1.3 0 0.1-0.1 0.2-0.1 0.3-0.2 0.3-0.3 0.7-0.2 1.1v1.1c0 0.1 0 0.2 0.1 0.3-0.2 0.2-0.4 0.3-0.6 0.5s-0.4 0.3-0.6 0.5l-0.1 0.1v0.1z"/>
		<path class="st82" d="m29.2 26.5c0 0.1-0.1 0.1 0 0.2 0.1 0.4 0.2 0.9 0.2 1.3v0.1c0.2 0.9 0.4 1.7 0.6 2.6 0 0.1 0.1 0.3 0.1 0.4s0.1 0.2 0.2 0.2h0.4c0.1 0 0.2 0 0.3 0.1h-0.8-0.7-0.7v-0.2c-0.2-0.9-0.3-1.9-0.5-2.8 0-0.1 0-0.3-0.1-0.4 0-0.1-0.1-0.2-0.3-0.2h-0.2-0.5-0.1c-0.3 0-0.4 0-0.4 0.3-0.1 0.3-0.1 0.6-0.2 0.9 0 0.1-0.1 0.2-0.1 0.3l-0.1-0.1c-0.1-0.1-0.2-0.2-0.2-0.3l-0.1-0.1c0 0.2 0 0.3-0.2 0.4l-0.1 0.1c0 0.1-0.1 0.1-0.1 0.2v0.4c0 0.1-0.1 0.2-0.1 0.3h0.1v0.3c0 0.5 0 0.9-0.1 1.4v-0.5c0-0.2-0.1-0.2-0.2-0.3h-0.2-0.6v-0.1c0.4-1.5 0.8-3 1-4.5 0-0.1 0-0.2 0.1-0.2h2.8c0.5 0.3 0.6 0.2 0.8 0.2z"/>
		<path class="st86" d="m25.9 26.6c0 0.1 0 0.1-0.1 0.2-0.2 1.5-0.6 3-1 4.5v0.1h-0.3-0.3-0.1c0-0.1 0.1-0.1 0.1-0.2s0-0.2-0.1-0.2h-0.2c-0.1 0-0.1 0.1-0.1 0.2v0.1c0.1 0.1 0.1 0.3 0.1 0.4h-1.3v-0.5c0-0.1 0-0.2-0.1-0.3s-0.1-0.1-0.1-0.2c0.2-0.3 0.2-0.7-0.1-1l-0.3-0.3-0.2-0.2c0.4-0.6 0.7-1.2 1.1-1.7l0.3-0.6 0.1-0.1c0.1 0.1 0.2 0.3 0.3 0.4s0.2 0.3 0.3 0.4 0.2 0.3 0.3 0.4c0.1 0 0.1-0.1 0.2-0.1 0.3-0.4 0.5-0.8 0.8-1.2 0.1-0.1 0.1-0.2 0.2-0.3h0.2c0.2 0.1 0.3 0.1 0.3 0.2z"/>
		<path class="st87" d="m31.4 35.9h-0.8c0-0.1 0-0.2-0.1-0.2 0.1-0.1 0.1-0.2 0.1-0.3v-0.5c0.1-0.4 0.2-0.8 0.4-1.1 0.1-0.1 0.1-0.1 0.1-0.2 0.1 0 0.1 0 0.2-0.1 0.3-0.3 0.6-0.5 1-0.6 0.3-0.1 0.7-0.1 1-0.1 0.1 0 0.1 0 0.2 0.1 0.3 0.1 0.6 0.2 0.9 0.4v1.9c0 0.1 0 0.3 0.1 0.4l-1.2 0.3c-0.1 0-0.2-0.1-0.3-0.1-0.2-0.1-0.3-0.1-0.5-0.2h-0.2c-0.1 0-0.2 0.1-0.3 0.1-0.2 0-0.4 0.1-0.6 0.2z"/>
		<path class="st88" d="m46.7 21.3v3.1h-0.2-3.4v-2.8c0-0.1 0-0.3-0.1-0.4h1.6 0.4 0.5c0.3 0.1 0.7 0.1 1.2 0.1zm-0.8 1.5c0-0.3-0.1-0.6-0.3-0.8-0.3-0.3-1-0.3-1.3-0.1l-0.1 0.1c-0.4 0.3-0.5 0.7-0.4 1.3 0 0.1 0.1 0.2 0.2 0.4 0.3 0.4 0.7 0.4 1.2 0.3 0.5-0.3 0.7-0.7 0.7-1.2z"/>
		<path class="st89" d="m46.5 28v1.9h-0.1l-0.2-0.2v-1.7c0.1-0.1 0.1-0.2 0-0.2 0 0 0-0.1-0.1-0.1 0 0 0-0.1 0.1-0.1h0.1c0.1 0 0.1-0.1 0.1-0.1 0-0.1-0.1-0.1-0.1-0.1h-0.3-2.1-0.5-0.2c-0.1 0-0.1 0.2 0 0.2h0.2v0.1c-0.1 0.1-0.1 0.2-0.1 0.4v1.8c-0.1 0-0.1 0.1-0.2 0.1l-0.1 0.1v-2.6-2.3-0.4h0.4 2.4 0.6v0.3 2.3c0.1 0.1 0.1 0.3 0.1 0.6zm-1.1-2.1v0.7 0.2l0.1 0.1s0.1 0 0.1-0.1v-0.2-1.5-0.2l-0.1-0.1s-0.1 0-0.1 0.1v0.2 0.8zm-1.6 0v0.6 0.2c0 0.1 0 0.2 0.1 0.2s0.1-0.1 0.1-0.2v-0.1-1.4-0.1c0-0.1 0-0.2-0.1-0.2s-0.1 0.1-0.1 0.2v0.2 0.6zm1 0v-0.9c0-0.1-0.1-0.1-0.1-0.1l-0.1 0.1v0.2 1.4 0.2c0 0.1 0.1 0.1 0.1 0.1l0.1-0.1v-0.2-0.7zm1.5 0v-0.8c0-0.1 0-0.2-0.1-0.2s-0.1 0.1-0.1 0.2v1.4 0.3c0 0.1 0 0.1 0.1 0.1 0 0 0.1 0 0.1-0.2v-0.8zm-1.9 0v-0.8-0.2 0.2 1 0.6c0 0.1 0 0.1 0.1 0.1 0 0 0.1 0 0.1-0.2-0.2-0.1-0.2-0.4-0.2-0.7zm0.8 0v-0.7-0.2h-0.1s-0.1 0-0.1 0.1v0.3 1.1 0.4c0 0.1 0 0.1 0.1 0.1 0 0 0.1 0 0.1-0.1v-1zm-1.6 0v-0.7-0.2c0-0.1 0-0.1-0.1-0.1l-0.1 0.1v0.2 1.1 0.4c0 0.1 0 0.1 0.1 0.1 0 0 0.1 0 0.1-0.2v-0.7zm2.2-1v0.2 1.6 0.1s0 0.1 0.1 0.1h0.1v-0.2-1.5-0.2c-0.1 0-0.1-0.1-0.2-0.1z"/>
		<path class="st88" d="m33.4 32.7c-0.3 0-0.7 0-1 0.1 0-0.1 0.1-0.2 0.1-0.3 0-0.3 0-0.6 0.1-0.9 0-0.6 0.1-1.2 0.1-1.7v-0.1c0-0.6 0-1.1 0.1-1.7 0-0.8 0.1-1.6 0.1-2.4v-0.3h0.3 0.5c-0.1 0-0.2 0.1-0.3 0.1v0.2 0.7 0.2c0 0.6 0 1.2 0.1 1.7 0 0.5 0.1 1.1 0.1 1.6v0.4c0 0.1 0 0.2 0.1 0.3 0 0.1-0.1 0.2 0 0.3v0.4 0.8 0.3c0 0.2-0.1 0.2-0.3 0.3z"/>
		<path class="st90" d="m22.1 29.3c0 0.1 0.1 0.2 0.2 0.2l0.3 0.3c0.3 0.3 0.3 0.6 0.1 1h-1.7c0-0.3-0.1-0.4-0.4-0.4h-3.8c0 0.1 0 0.1-0.1 0.2 0 0.1-0.1 0.1-0.2 0.2h-0.2-0.9c-0.1 0-0.2 0-0.3 0.1-0.2-0.2-0.1-0.5-0.1-0.8 0-0.1 0.1-0.2 0.2-0.3 0.2-0.2 0.4-0.4 0.6-0.5 0 0 0.1 0 0.1-0.1 0.2 0 0.2 0.2 0.4 0.2v-0.1c0 0.1 0 0.2 0.1 0.2 0 0.1 0.1 0.3 0.1 0.4 0.1 0.1 0.2 0.2 0.3 0.2h0.2 3.6 0.2c0.2 0 0.3-0.1 0.4-0.2 0.1-0.2 0.1-0.3 0.2-0.5 0.1 0 0.2-0.1 0.2-0.2 0.1 0 0.1 0 0.2-0.1 0 0 0.1 0.1 0.3 0.2z"/>
		<path class="st91" d="m43 19.7c0.2-0.4 0.4-0.9 0.5-1.3 0-0.1 0.1-0.2 0.2-0.3h0.4 1.6c0.1 0 0.3 0 0.4 0.1l0.6 1.5v0.1h-1.7c-0.7-0.1-1.3-0.1-2-0.1z"/>
		<path class="st92" d="m33.7 25.3h-0.5-0.3c-0.1-0.1-0.2-0.1-0.2-0.1h-0.3c-0.1-0.1-0.1-0.1-0.1-0.2s0.1-0.1 0.2-0.1h0.2c0.1 0 0.2 0 0.2-0.1s-0.1-0.1-0.1-0.1h-0.1c-0.4-0.2-0.6-0.5-0.6-0.9s0.2-0.8 0.5-1c0.1 0 0.1-0.1 0.2-0.1s0.2 0 0.3-0.1h0.4c0.1 0 0.1 0.1 0.2 0.1 0.4 0.2 0.6 0.6 0.6 1.1s-0.3 0.8-0.7 1c-0.1 0-0.1 0.1-0.2 0.1v0.1 0.1h0.2c0.1 0 0.2 0 0.2 0.1 0 0 0 0.1-0.1 0.1z"/>
		<path class="st86" d="m32.4 32.8c-0.4 0.1-0.7 0.3-1 0.6 0 0-0.1 0.1-0.2 0.1-0.1-0.3-0.3-0.5-0.4-0.8 0.1 0 0.2-0.1 0.2-0.1 0.1-0.4 0.1-0.8 0-1.2-0.1-0.1-0.2-0.1-0.3-0.1h-0.4c-0.1 0-0.2-0.1-0.2-0.2s-0.1-0.3-0.1-0.4c-0.2-0.9-0.4-1.7-0.6-2.6v-0.1c0 0.1 0.1 0.1 0.1 0.2 0.9 1.4 1.8 2.9 2.7 4.3 0 0.2 0.1 0.2 0.2 0.3z"/>
		<path class="st91" d="m43.6 16.7c0.1-0.1 0.1-0.2 0.2-0.3 0.4-0.8 0.8-1.6 1-2.4v-0.2c0-0.1 0-0.1-0.1-0.2h0.2v0.3c0.2 0.8 0.5 1.6 0.9 2.3 0.1 0.1 0.2 0.3 0.3 0.4v0.1c-0.1-0.1-0.3-0.1-0.4-0.1-0.6 0.1-1.4 0.1-2.1 0.1z"/>
		<path class="st90" d="m41.2 36.8c-0.2-0.6-0.3-1.2-0.5-1.7 0-0.1-0.1-0.2-0.1-0.2h0.2c0.6 0.2 1.2 0.4 1.7 0.6h0.1v0.2c0.1 0.1 0.2 0.3 0.2 0.4l0.3 0.6c-0.5 0-1 0-1.5 0.1h-0.4z"/>
		<path class="st93" d="m16.2 29.2v0.1c-0.2 0-0.2-0.2-0.4-0.2 0 0-0.1 0-0.1 0.1-0.2 0.2-0.4 0.4-0.6 0.5-0.1 0.1-0.2 0.2-0.2 0.3-0.1 0.3-0.1 0.5 0.1 0.8 0 0.1-0.1 0.1-0.1 0.2-0.1 0.1-0.1 0.2-0.1 0.3 0.1 0.2 0.1 0.3 0.1 0.5h-1.3c0-0.2 0-0.3 0.1-0.4v-0.2c0.5-0.7 1.1-1.4 1.6-2.1 0.3-0.4 0.2-0.3 0.6-0.4 0.1 0 0.1-0.1 0.2-0.1 0 0 0.1 0 0.1-0.1h0.1c-0.1 0.1-0.1 0.4-0.1 0.7z"/>
		<path class="st94" d="m54 28c0.2 0.2 0.5 0.5 0.6 0.7 0 0.1-0.1 0.1-0.1 0.2-0.3 0.3-0.6 0.5-0.9 0.8-0.2 0.2-0.4 0.3-0.6 0.5l-0.1 0.1c-0.1 0-0.1 0.1-0.2 0.1-0.2 0.1-0.3 0.3-0.5 0.4-0.1 0-0.1 0.1-0.2 0.1h-0.2l-0.1-0.1-0.1-0.1c0-0.1-0.1-0.1-0.1-0.2l0.1-0.1c0.6-0.7 1.3-1.4 1.9-2.1 0.2 0 0.4-0.2 0.5-0.3z"/>
		<path class="st94" d="m53.2 34.2v0c-0.4-0.5-0.8-0.9-1.1-1.3l-0.6-0.6c0-0.1 0-0.1 0.1-0.2l0.1-0.1 0.1-0.1c0.1 0 0.1-0.1 0.2-0.1l0.2 0.2s0 0.1 0.1 0.1c0.7 0.7 1.4 1.4 2.2 2 0.1 0.1 0.1 0.1 0.2 0.1l-0.6 0.6s-0.1 0-0.1 0.1c-0.4-0.2-0.6-0.5-0.8-0.7z"/>
		<path class="st86" d="m43.2 32.9v0.9c0 0.2-0.1 0.3-0.3 0.3-0.1 0-0.2-0.1-0.2-0.2v-0.2-1.1c0-0.1 0-0.2-0.1-0.3h-0.6v-0.4c0.1 0 0.1-0.1 0.2-0.2 0.2-0.4 0.4-0.8 0.7-1.2l0.3-0.6v0.1 2.4 0.5 0z"/>
		<path class="st95" d="m25.9 26.6l-0.1-0.1v-0.5c0.4-0.1 0.8-0.1 1.3-0.1h0.9c0.4 0 0.8 0 1.2 0.1 0.1 0.2 0.1 0.4 0 0.6-0.2 0-0.3 0.1-0.5 0.1-0.9-0.1-1.9-0.1-2.8-0.1z"/>
		<path class="st91" d="m51.6 30.6c0 0.1 0.1 0.1 0.1 0.2-0.1 0-0.2 0.1-0.3 0.2s-0.1 0.2-0.3 0.2c-0.1 0-0.2-0.1-0.2-0.2-0.1-0.1-0.2-0.1-0.3-0.2 0-0.1 0.1-0.1 0.2-0.2-0.2-0.2-0.3-0.4-0.5-0.5-0.1-0.2-0.3-0.3-0.4-0.5 0.2-0.1 0.3-0.1 0.5-0.2 0.4-0.1 0.8-0.1 1.2 0 0.2 0 0.3 0.1 0.5 0.2 0.1 0 0.2 0.1 0.2 0.1l-0.7 0.7c-0.1 0.1-0.1 0.2 0 0.2z"/>
		<path class="st96" d="m42.9 21c0.1 0 0.1-0.1 0.2-0.1v-0.9c-0.1 0-0.1-0.1-0.2-0.1 0.3 0.1 0.7 0.1 1 0.1h2.6v0.9c0.1 0 0.2 0.1 0.2 0.1h-3.8zm2.2-0.5v0.3l0.1 0.1s0.1 0 0.1-0.1c0.1-0.2 0.1-0.4 0-0.6l-0.1-0.1s-0.1 0-0.1 0.1v0.3zm-0.4 0v-0.3l-0.1-0.1h-0.1v0.6l0.1 0.1h0.1c-0.1-0.1-0.1-0.2 0-0.3zm-0.6 0v0.3l0.1 0.1h0.1v-0.6s0-0.1-0.1-0.1c0 0-0.1 0-0.1 0.1v0.2zm-0.5 0v-0.3h-0.1s-0.1 0-0.1 0.1v0.6h0.1s0.1 0 0.1-0.1v-0.3zm2.8 0v-0.3l-0.1-0.1h-0.1v0.6l0.1 0.1h0.1v-0.3zm-2.4 0v-0.3h-0.1-0.1v0.6c0.1-0.1 0.1-0.2 0.2-0.3zm2 0v-0.3s0-0.1-0.1-0.1c0 0-0.1 0-0.1 0.1v0.5c0.2 0 0.2-0.1 0.2-0.2zm-0.4-0.4c0 0.1-0.1 0.1 0 0-0.1 0.3-0.1 0.4-0.1 0.6h0.1s0.1 0 0.1-0.1 0-0.3-0.1-0.5zm-0.7 0c-0.1 0.2-0.1 0.4 0 0.6 0 0 0 0.1 0.1 0.1 0 0 0.1 0 0.1-0.1v-0.5c-0.1 0-0.2 0-0.2-0.1z"/>
		<path class="st85" d="m11.6 31c0-0.1 0-0.2 0.1-0.3v-0.6-0.8c0-0.1-0.1-0.2-0.1-0.3 0.2-0.2 0.2-0.4 0.1-0.6 0-0.1 0-0.2 0.1-0.3 0.1-0.2 0.2-0.3 0.2-0.5 0.1 0 0.1 0 0.1 0.1 0 0.2 0 0.3 0.2 0.4 0 0 0.1 0.1 0.1 0.2s0.1 0.2 0 0.3c-0.1 0.2 0 0.4 0.1 0.6-0.2 0.3-0.1 0.6-0.1 0.9v0.8c0 0.1 0 0.2 0.1 0.3-0.4-0.2-0.7-0.2-0.9-0.2zm0.5-2.5c-0.1 0.1-0.1 0.2 0 0.2h0.1s0-0.1-0.1-0.2c0.1 0 0 0 0 0zm-0.3 0c-0.1 0.1-0.1 0.1-0.1 0.2h0.1c0.1 0 0.1 0 0-0.2 0.1 0.1 0.1 0 0 0 0.1 0 0 0 0 0z"/>
		<path class="st89" d="m46.2 16.8v0c0.1 0 0.1 0.1 0 0.1-0.1 0.1-0.2 0.2-0.2 0.3v0.9c-0.1-0.1-0.2-0.1-0.3-0.1h-1.6-0.4v-1h0.4 1.5 0.3c0.2-0.1 0.2-0.1 0.3-0.2zm-0.7 0.7v-0.3h-0.1-0.1v0.6h0.1 0.1v-0.3zm-0.5-0.1v0.3l0.1 0.1h0.1v-0.6s0-0.1-0.1-0.1c0 0-0.1 0-0.1 0.1v0.2zm-0.2 0v-0.3h-0.1s-0.1 0-0.1 0.1v0.6h0.1s0.1 0 0.1-0.1v-0.3zm-0.5 0v0.3l0.1 0.1h0.1v-0.6l-0.1-0.1h-0.1v0.3zm1.6 0v-0.3h-0.1c-0.1 0.2 0 0.4 0 0.6h0.1s0.1 0 0.1-0.1c-0.1 0-0.1-0.1-0.1-0.2zm-1.8 0v-0.2c-0.1 0.2-0.1 0.4 0 0.6h0.1s0.1 0 0.1-0.1c-0.2-0.1-0.2-0.2-0.2-0.3z"/>
		<path class="st82" d="m28 8.6c0.2 0.2 0.2 0.4 0.2 0.7v0.6h-1.4v-0.5c0-0.3 0-0.5 0.2-0.8 0.3 0.1 0.6 0.1 1 0z"/>
		<path class="st97" d="m52.1 32c-0.1 0-0.1-0.1-0.2-0.2-0.1 0-0.1 0.1-0.2 0.1-0.1-0.2-0.2-0.3-0.4-0.5 0.1-0.2 0.2-0.3 0.3-0.3h1.5v0.5 1 0.1c0-0.1-0.1-0.1-0.2-0.1s-0.1-0.1-0.1-0.2c0.1 0 0.1 0 0.2-0.1h-0.2c-0.1 0-0.2 0-0.3-0.1 0 0-0.1-0.1 0-0.1s0.2-0.1 0.3-0.1h0.3-0.7c-0.1-0.1-0.2 0-0.3 0z"/>
		<path class="st93" d="m12.5 33.9c-0.1-0.1 0-0.2 0-0.2v-0.4c0-0.1 0.1-0.2 0-0.3 0-0.1-0.1-0.2-0.1-0.3v-0.1c0.3-0.4 0.6-0.8 0.9-1.1 0.1 0.1 0 0.2 0 0.3v1.8c-0.3-0.1-0.4 0-0.5 0.2 0 0.1-0.1 0.1-0.1 0.2 0-0.1-0.1-0.1-0.2-0.1z"/>
		<path class="st98" d="m32.8 21.5c0-1 0.1-1.9 0.1-2.9 0-0.7 0.1-1.3 0.1-2 0-0.1 0.1-0.2 0.1-0.3 0 0.5 0 1.1 0.1 1.6 0 0.7 0.1 1.4 0.1 2.1v1.2c0 0.3-0.1 0.3-0.3 0.3h-0.2z"/>
		<path class="st99" d="m40.6 30.5h1.4v0.7 0.6 0.5h-0.3c-0.1-0.1-0.2-0.1-0.4 0h-0.2s0-0.1-0.1-0.1c0.1-0.1 0.1-0.2 0-0.3 0-0.1-0.1-0.1-0.1-0.1 0.2-0.1 0.2-0.1 0.1-0.3h-0.3c0 0.1-0.1 0.1-0.1 0.2h-0.1s-0.1 0-0.1-0.1v-0.2c0.2-0.4 0.2-0.6 0.2-0.9zm0.8 0.7h0.2c0.1 0 0.2 0 0.2-0.2 0-0.1 0-0.2-0.2-0.2h-0.2v0.4zm0.3 0.2h-0.3v0.2c0 0.1 0 0.1 0.1 0.1 0.2 0 0.2 0 0.2-0.2v-0.1zm-0.5-0.5h-0.3v0.3c0.3 0 0.3 0 0.3-0.3zm0.5 1.2v-0.2-0.1c-0.1 0-0.2-0.1-0.3 0v0.2h0.2c0 0.1 0 0.1 0.1 0.1z"/>
		<path class="st100" d="m12.5 32.5c-0.1 0-0.1 0.1 0 0-0.1 0.2-0.2 0.3-0.4 0.3h-0.1c-0.1 0-0.3 0-0.4 0.1 0.1-0.3 0.1-0.5 0.1-0.8v-0.8-0.2h0.8v0.1 1c-0.1 0.1-0.1 0.2 0 0.3z"/>
		<path class="st101" d="m46.6 24.6h-0.6-2.4-0.4-0.3c-0.1-0.2-0.1-0.2 0.1-0.3h3.4 0.2c0.2 0.1 0.2 0.1 0.1 0.3h-0.1z"/>
		<path class="st102" d="m46.6 20h-2.6c-0.3 0-0.7 0-1-0.1v-0.2h1.9 1.7v0.1c0.1 0.1 0.1 0.1 0 0.2z"/>
		<path class="st103" d="m42.9 21h3.9c0.1 0.2 0.1 0.2-0.2 0.3h-1.3-0.5-0.4-1.6c0.1-0.2 0.1-0.3 0.1-0.3z"/>
		<path class="st101" d="m43.2 30.1v-0.1-0.1l0.1-0.1h0.4 2.8 0.1v0.3h-3c-0.2 0.1-0.3 0-0.4 0z"/>
		<path class="st104" d="m11.5 32.9c0.1 0 0.3 0 0.4-0.1h0.1c0.2 0 0.3 0 0.4-0.2 0 0.1 0 0.2 0.1 0.3v0.3 0.4 0.2l-0.1-0.1c-0.2-0.3-0.3-0.3-0.6-0.1h-0.1c-0.1 0-0.2-0.1-0.2-0.1 0.1-0.2 0.1-0.4 0-0.6-0.1 0-0.1 0 0 0z"/>
		<path class="st105" d="m26.8 9.9h1.4s0.1 0 0.1 0.1c0.1 0.1 0.1 0.2 0 0.3l-0.1 0.1h-1.1-0.4c-0.1-0.1-0.1-0.1-0.1-0.2 0-0.2 0.1-0.3 0.2-0.3z"/>
		<path class="st106" d="m53.2 36v-1.7c0.1 0.1 0.2 0.3 0.2 0.4 0.2 0.3 0.3 0.6 0.5 0.9 0 0.1 0.1 0.2 0.1 0.3h-0.2c-0.2 0.1-0.4 0.1-0.6 0.1z"/>
		<path class="st88" d="m32.8 21.5h0.1c0.2 0 0.3 0 0.3-0.3 0.1 0.4 0.1 0.9 0.1 1.3h-0.4c-0.1 0-0.2 0-0.3 0.1v-0.7c0.1-0.1 0.1-0.3 0.2-0.4z"/>
		<path class="st101" d="m28 8.6c-0.3 0.1-0.6 0.1-0.9 0-0.1-0.2-0.1-0.2 0.1-0.3 0.1 0 0.2 0 0.3-0.1v-0.3-1.4-0.2h0.1 0.1v0.2 1.4 0.3h0.2c0.1 0.2 0.1 0.2 0.1 0.4z"/>
		<path class="st107" d="m52.1 32c0.1 0 0.1-0.1 0.2-0.1h0.7c-0.1 0.1-0.2 0-0.3 0s-0.2 0-0.3 0.1v0.1c0.1 0 0.2 0.1 0.3 0.1h0.2c-0.1 0-0.1 0-0.2 0.1 0 0.1 0.1 0.1 0.1 0.2 0.1 0 0.1 0.1 0.2 0.1 0 0.1 0.1 0.2 0.2 0.3 0.4 0.3 0.7 0.7 1.1 1l0.2 0.2-0.1 0.1c-0.1 0-0.1-0.1-0.2-0.1-0.6-0.7-1.3-1.3-2.1-2.1 0.1 0.1 0.1 0 0 0z"/>
		<path class="st108" d="m46.2 16.8c0 0.1-0.1 0.1-0.2 0.1h-0.3-1.5-0.4c0-0.1-0.1-0.1-0.2-0.1v-0.2h2.1c0.2 0.1 0.3 0.1 0.5 0.2z"/>
		<path class="st109" d="m13.4 33.5v-1.8-0.3-0.2c0-0.2 0.1-0.3 0.2-0.2h0.1c0 0.1 0.1 0.2 0 0.2-0.1 0.1-0.1 0.3-0.1 0.4v1.9c-0.1 0.2-0.2 0.1-0.2 0z"/>
		<path class="st110" d="m53.2 31.1h-1.5c0-0.1 0.1-0.1 0.1-0.2l0.1 0.1h0.2c0.1 0 0.1-0.1 0.2-0.1 0.2-0.1 0.3-0.3 0.5-0.4 0.1 0 0.1-0.1 0.2-0.1 0 0.2 0.1 0.4 0.2 0.7z"/>
		<path class="st90" d="m19.5 26.3c-0.1 0-0.1 0-0.2 0.1h-1c-0.1 0-0.1 0-0.2-0.1l0.4-0.4 0.2-0.2h0.2c0.1 0 0.1 0.1 0.2 0.1 0.1 0.2 0.2 0.3 0.4 0.5z"/>
		<path class="st111" d="m51.6 30.6c-0.1-0.1 0-0.1 0-0.2l0.7-0.7c0.5-0.6 1-1.1 1.5-1.7l0.1 0.1-0.3 0.3c-0.6 0.7-1.3 1.4-1.9 2.1 0 0.1-0.1 0.1-0.1 0.1z"/>
		<path class="st70" d="m45 13.6h-0.2c-0.1 0-0.2-0.1-0.2-0.2s0-0.2 0.1-0.3 0.2 0 0.3 0c0.1 0.1 0.1 0.2 0.1 0.3s-0.1 0.2-0.1 0.2z"/>
		<path class="st112" d="m12.4 31.1h-0.8v-0.1h0.8v0.1z"/>
		<path class="st113" d="m33.1 16.3c0 0.1-0.1 0.2-0.1 0.3 0-0.3 0-0.7 0.1-1v0.7z"/>
		<path class="st114" d="m21.5 29.1c0 0.1-0.1 0.2-0.2 0.2v-0.2c0-0.1 0-0.1 0.1-0.2 0 0.1 0.1 0.2 0.1 0.2z"/>
		<path class="st88" d="m32.4 25.3h0.3c0.1 0 0.2 0 0.2 0.1h-0.3c-0.1 0-0.1-0.1-0.2-0.1z"/>
		<path class="st83" d="m42 32.3v-0.5s0 0.1 0.1 0.1c0 0.1 0 0.3-0.1 0.4z"/>
		<path class="st89" d="m43.6 16.9c0.1 0 0.1 0 0.2 0.1-0.1-0.1-0.2-0.1-0.2-0.1z"/>
		<path class="st89" d="m43.6 16.7v0.2c-0.1-0.1-0.1-0.1 0-0.2z"/>
		<path class="st115" d="m32.9 37.2h0.1-0.1z"/>
		<path class="st85" d="m16.2 28.3s-0.1 0-0.1 0.1c0-0.1 0-0.1 0.1-0.1z"/>
		<path class="st85" d="m17.2 34.5c-0.1 0-0.1 0.1-0.2 0-0.1 0-0.2-0.1-0.2-0.2s0-0.2-0.1-0.2l-0.1-0.1v-2.5c0-0.4 0-0.4 0.4-0.4h3.4 0.2c0.1 0 0.2 0.1 0.2 0.2v0.5 3.6 0.3c0 0.1 0 0.2-0.1 0.2s-0.1-0.1-0.1-0.1c0-0.1-0.1-0.2-0.1-0.3s-0.1-0.1-0.1-0.2-0.1-0.2-0.2-0.2c-0.2 0-0.2-0.1-0.3-0.2 0-0.1 0-0.2-0.1-0.4 0-0.1-0.1-0.1-0.2-0.2h-0.1-1.7c-0.1 0-0.2 0-0.3 0.1-0.1-0.1-0.2-0.1-0.3 0.1zm1.6-0.5c0.3 0 0.6 0 0.9-0.1 0.1 0 0.2-0.1 0.2-0.2 0-0.2 0-0.3-0.1-0.5-0.2-0.4-0.5-0.6-0.9-0.7h-0.3c-0.3 0.1-0.5 0.3-0.7 0.5s-0.2 0.4-0.3 0.7c0 0.2 0.1 0.2 0.2 0.2h0.4c0.3 0.1 0.4 0.1 0.6 0.1z"/>
		<path class="st116" d="m20.8 35.7c0.1 0 0.1-0.1 0.1-0.2v-0.3-3.6c0.1 0 0.2-0.1 0.3-0.2 0 0.2 0.1 0.2 0.3 0.2 0.1 0 0.2-0.1 0.2-0.2 0-0.2 0-0.3-0.1-0.5h0.3c-0.1 0.2-0.1 0.3 0 0.5 0 0.1 0.1 0.1 0.2 0.2 0.1 0 0.2 0 0.3-0.1h0.2v0.1 1.6 0.7 1.6c0 0.1 0 0.2 0.1 0.3h-1.6c-0.3 0.1-0.3 0-0.3-0.1zm0.7-2h0.5c0.2 0 0.2-0.1 0.2-0.2v-0.8c0-0.1 0-0.2-0.1-0.3s-0.2-0.1-0.2-0.2h-0.2c-0.3 0.1-0.4 0.3-0.4 0.6v0.7c-0.1 0.1 0 0.2 0.2 0.2zm0.5 2.1c0.2 0 0.2-0.1 0.2-0.2v-0.6c0-0.3-0.1-0.4-0.3-0.6-0.1-0.1-0.2-0.1-0.4 0s-0.3 0.3-0.3 0.5v0.5 0.2c0 0.1 0.1 0.1 0.2 0.2h0.1 0.5z"/>
		<path class="st117" d="m13.7 33.5l-0.1 0.1v-1.9h1.3v2.3c-0.1-0.1-0.1-0.2-0.2-0.2l-0.1-0.1c0.2 0 0.2-0.1 0.2-0.2v-0.7c0-0.3-0.2-0.4-0.4-0.5h-0.2c-0.2 0.1-0.4 0.2-0.4 0.5-0.1 0.1-0.1 0.4-0.1 0.7z"/>
		<path class="st118" d="m17.6 34.3c0.1-0.1 0.2-0.1 0.3-0.1h1.7 0.1c0.1 0 0.1 0.1 0.2 0.2 0 0.1 0 0.2 0.1 0.4h-0.2c-0.1 0-0.2 0.1-0.3 0-0.1 0-0.2 0-0.2 0.1-0.2 0.1-0.3 0.1-0.5 0.2 0-0.1 0-0.1-0.1-0.2 0-0.1 0-0.2-0.1-0.3s-0.2-0.1-0.3-0.1v-0.1c-0.2-0.2-0.2-0.3-0.5-0.1-0.1 0.1-0.2 0-0.2 0z"/>
			<path class="st119" d="m11.2 33.1c0.1-0.2 0.2-0.2 0.4-0.2 0.1 0 0.1 0.1 0.2 0.1h0.1c0.3-0.2 0.4-0.1 0.6 0.2l0.1 0.1h0.1c-0.2 0.1 0 0.2 0 0.4h0.2c0.2 0 0.2 0.1 0.2 0.3v0.2c0 0.1 0 0.1 0.1 0.1v-0.1c0-0.2 0.1-0.3 0.3-0.3 0.1 0 0.2-0.1 0.3-0.2 0.1-0.2 0.2-0.2 0.4-0.1h0.1s0.1 0 0.1-0.1c0.1-0.1 0.2 0 0.3 0l0.1 0.1v-0.2 0.2c0 0.1 0 0.1 0.2 0.1 0.2 0.2 0.2 0.2 0.2 0.5 0.1 0 0.2-0.1 0.3-0.1s0.2-0.1 0.3-0.2 0.2-0.2 0.3-0.1c0.2 0.1 0.4-0.1 0.7-0.1v-0.2c0 0.1 0 0.2 0.1 0.2 0 0.1 0.1 0.1 0.2 0.2h0.2c0 0.1 0.1 0.2 0.1 0.3 0.1 0.1 0.2 0.2 0.3 0.1 0.2-0.1 0.3 0 0.4 0.1 0.2 0.1 0.3 0.2 0.3 0.4 0.1 0 0.1 0.1 0.2 0.1s0.1 0 0.1-0.1v-0.3c0.2 0 0.3 0 0.4-0.2 0-0.1 0.1-0.1 0.2-0.1h0.3 0.2l0.3 0.3c0.1 0 0.1 0.1 0.2 0.2 0 0.1 0 0.2 0.1 0.2 0.1 0.1 0.1 0.2 0.1 0.3s0.1 0.1 0.1 0.1c0 0.1 0.1 0.2 0.1 0.2 0.1 0 0.1 0.1 0.2 0.1s0.1 0.1 0.2 0.1c0.1 0.2 0.3 0.2 0.5 0.2s0.4 0 0.5 0.1c0.1 0 0.3 0.1 0.4 0h0.1c0.2 0.1 0.4 0.1 0.5 0s0.2 0 0.3 0c0.1 0.1 0.3 0.2 0.4 0.3s0.1 0 0.1 0.1-0.1 0.1-0.2 0.1h-0.3c-1.7-0.1-3.5 0-5.2-0.1-0.7 0-1.3 0-2-0.1-0.4 0-0.9 0-1.3-0.1h-0.4-0.3c-0.4-0.1-0.8-0.1-1.2 0h-0.2c-1.2 0-2.4-0.1-3.6-0.1-0.1 0-0.2 0-0.3-0.1h1.2c0.1 0 0.1 0 0.2-0.1-0.1-0.1-0.1-0.2-0.2-0.4-0.1-0.1-0.1-0.2 0-0.3 0-0.1 0.1-0.2 0-0.2-0.1-0.2 0-0.3 0.1-0.4l0.1-0.1c-0.1-0.3 0.1-0.4 0.3-0.6 0-0.3 0.1-0.4 0.3-0.5 0.1 0 0.2-0.2 0.2-0.3 0.1-0.1 0-0.2-0.1-0.3 0.4 0.4 0.3 0.4 0.2 0.3z"/>
			<path class="st120" d="m9.3 36.3c-0.1 0-0.2-0.1-0.2-0.2-0.1-0.2 0-0.3 0.1-0.4s0.1-0.1 0.1-0.3c-0.4-0.3-0.4-0.3-0.2-0.7-0.1-0.1-0.2-0.2-0.2-0.4s0.1-0.3 0.3-0.4v-0.2c0-0.3 0.1-0.4 0.4-0.5h0.1c0.2-0.5 0.4-0.5 0.8-0.3 0.1 0 0.1-0.1 0.2-0.1 0.2-0.1 0.4 0 0.5 0.1 0 0.1 0.1 0.1 0.1 0.2h0.1 0.2c0.1 0 0.2 0.2 0.1 0.3 0 0.1-0.1 0.3-0.2 0.3-0.4 0.1-0.5 0.3-0.5 0.5-0.2 0.1-0.3 0.3-0.3 0.6l-0.1 0.1c-0.2 0.1-0.2 0.2-0.1 0.4v0.2c-0.1 0.1 0 0.2 0 0.3 0.1 0.1 0.1 0.2 0.2 0.4-0.1 0.1-0.1 0.1-0.2 0.1h-1.2z"/>
			<path class="st120" d="m8.2 36.8c-0.1 0-0.2-0.1-0.2-0.2-0.1-0.2 0-0.3 0.1-0.4s0.1-0.1 0.1-0.3c-0.4-0.3-0.4-0.3-0.2-0.7-0.1-0.1-0.2-0.2-0.2-0.4s0.1-0.3 0.3-0.4v-0.2c0-0.3 0.1-0.4 0.4-0.5h0.1c0.2-0.5 0.4-0.5 0.8-0.3 0.1 0 0.1-0.1 0.2-0.1 0.2-0.1 0.4 0 0.5 0.1 0 0.1 0.1 0.1 0.1 0.2h0.1 0.2c0.1 0 0.2 0.2 0.1 0.3 0 0.1-0.1 0.3-0.2 0.3-0.3 0.1-0.4 0.2-0.3 0.5-0.2 0.1-0.3 0.3-0.3 0.6l-0.1 0.1c-0.2 0.1-0.2 0.2-0.1 0.4v0.2c-0.1 0.1 0 0.2 0 0.3 0.1 0.1 0.1 0.2 0.2 0.4-0.1 0.1-0.1 0.1-0.2 0.1h-1.4z"/>
			<path class="st121" d="m13.6 33c0.1 0 0.1 0.1 0.2 0.1l0.1-0.1h0.1c0.2 0 0.4 0.1 0.4 0.4h0.3c0.1 0 0.2 0.1 0.2 0.2v0.2l-0.1-0.1c-0.1-0.1-0.2-0.1-0.3 0 0 0-0.1 0-0.1 0.1h-0.1c-0.2-0.1-0.3-0.1-0.4 0.1-0.1 0.1-0.1 0.2-0.3 0.2s-0.2 0.1-0.3 0.3v0.1c-0.1 0-0.1 0-0.1-0.1v-0.2c0-0.2-0.1-0.2-0.2-0.3h-0.2c-0.1-0.1-0.2-0.2 0-0.4h0.2c0-0.1 0.1-0.1 0.1-0.2 0.1-0.4 0.2-0.4 0.5-0.3z"/>
			<path class="st121" d="m16.9 33.5l0.1 0.1v0.2c-0.2 0-0.4 0.1-0.7 0.1-0.1 0-0.3 0-0.3 0.1-0.1 0.1-0.2 0.2-0.3 0.2s-0.2 0.1-0.3 0.1c-0.1-0.3-0.1-0.3-0.2-0.5v-0.1c0.1-0.1 0.2-0.1 0.3-0.2s0.1-0.2 0.2-0.2h0.1c0.1 0 0.2 0.1 0.3 0.1s0.2-0.1 0.3-0.1h0.1c0.1 0.1 0.2 0.2 0.4 0.2z"/>
			<path class="st121" d="m17.7 33.9c0.1 0.1 0.1 0.1 0.2 0.1 0.3-0.1 0.3-0.1 0.5 0.2v0.1c0.1 0 0.2 0 0.3 0.1s0.1 0.2 0.1 0.3 0 0.1 0.1 0.2v0.3c0 0.1-0.1 0.1-0.1 0.1-0.1 0-0.1 0-0.2-0.1 0-0.2-0.1-0.3-0.3-0.4-0.1-0.1-0.2-0.2-0.4-0.1-0.1 0-0.2 0-0.3-0.1s-0.1-0.2-0.1-0.3c-0.1-0.4 0.1-0.4 0.2-0.4z"/>
		<path class="st122" d="m15 34.2v0.1c-0.1 0-0.1 0-0.2-0.1v-0.2-2.3c0-0.2 0-0.3-0.1-0.5 0-0.1 0-0.2 0.1-0.3h0.1c0.2 0 0.3 0.1 0.2 0.3s-0.1 0.3-0.1 0.5v2.5z"/>
		<path class="st102" d="m42 32.3h0.6v1.6c0 0.2 0 0.2-0.3 0.3h-0.1c-0.1-0.1-0.2-0.1-0.3 0h-0.2-0.3c-0.3 0.1-0.4 0.1-0.7 0 0-0.1-0.1-0.2-0.1-0.3-0.1 0-0.2 0-0.3 0.1v0.2c-0.1 0-0.1 0-0.1-0.1s0-0.2-0.1-0.2h-0.3c-0.1 0.1-0.1 0.2 0 0.3 0 0.1-0.1 0.1-0.2 0.1-0.4 0-0.7 0.1-1.1 0.1h-0.3-0.2c-0.1 0-0.1 0-0.1 0.1-0.1 0-0.1-0.1-0.2-0.1h-0.3l-0.1 0.1-0.1-0.1h-0.3c0 0.1-0.1 0.1-0.1 0.2s-0.1 0.1-0.1 0.1c0-0.1 0-0.2-0.1-0.3h-0.2-0.1c-0.1 0.1 0 0.2 0.1 0.3-0.1 0.1-0.2 0.1-0.4 0.1v-2-0.2s0-0.1-0.1-0.1c0 0 0-0.1 0.1-0.1v-0.2c0-0.1 0-0.1-0.1-0.1v-0.1c0-0.1 0.1-0.2 0.1-0.2 0.1 0 0.1-0.1 0.2-0.1 0.2 0.1 0.2 0.1 0.3-0.1 0 0.1 0.1 0.2 0.2 0.2h0.7c0.1 0 0.2-0.1 0.2-0.2v-0.5c0-0.3 0-0.3 0.3-0.3h1.6c0.3 0 0.3 0 0.3 0.3v0.4 0.1-0.1-0.6c0-0.1 0-0.2 0.1-0.3v0.8 0.2s0 0.1 0.1 0.1h0.1c0-0.1 0.1-0.1 0.1-0.2v0.3c0.1 0 0.1 0.1 0.2 0.1l0.1 0.1c0.1 0.1 0.1 0.2 0 0.3 0-0.1 0.1-0.2 0-0.3v0.3s0 0.1 0.1 0.1h0.2c0.1 0.1 0.2 0.1 0.4 0 0.6-0.1 0.7-0.1 0.8-0.1zm-1.3 0.5c0.1-0.1 0.1-0.2 0-0.3h-0.3v0.2 0.1h0.3zm-1.9-1.4h0.3v-0.3h-0.3v0.3zm1.9 1.9c0.1-0.1 0.1-0.2 0-0.3h-0.3v0.2 0.1h0.3zm-3.7 0.7h-0.2c-0.1 0-0.2 0-0.2 0.2 0 0.1 0 0.2 0.2 0.2h0.2v-0.4zm4.5-1.3c0 0.1-0.1 0.2 0 0.3h0.1c0.1 0 0.2 0 0.2-0.2v-0.2c-0.1 0.1-0.2 0.1-0.3 0.1zm-4.5 0.6v-0.2-0.1c-0.1-0.1-0.3 0-0.3 0.2v0.1h0.3zm3.4 0.1v0.2c0 0.1 0.1 0.1 0.1 0.1 0.1 0 0.1 0 0.2-0.1s0-0.3-0.2-0.3c0 0.1 0 0.1-0.1 0.1zm-1.3-0.9c-0.1-0.1-0.2-0.1-0.2 0 0 0-0.1 0-0.1 0.1-0.1 0.2 0 0.3 0.2 0.3h0.1c0.1-0.2 0-0.3 0-0.4zm-2.1 1.3c0-0.1 0.1-0.2 0-0.3h-0.2c-0.1 0.1-0.1 0.2 0 0.3h0.2zm0.9-0.5c0.1-0.1 0.1-0.2 0-0.3s-0.2-0.1-0.3 0v0.3h0.3zm0.2 0h0.2 0.1c0.1-0.1 0-0.3-0.2-0.3h-0.1v0.2 0.1zm0.3 0.5v-0.2s0-0.1-0.1-0.1c-0.1-0.1-0.3 0-0.3 0.2v0.1h0.4zm3.1 0.1h0.3v-0.1c0-0.1 0-0.2-0.2-0.2-0.1 0-0.1 0-0.1 0.1v0.2zm-2.6-2.4c0 0.3 0 0.3 0.2 0.3h0.1v-0.3h-0.3zm1.8 0.8v-0.2c0-0.1 0-0.2-0.2-0.2-0.1 0-0.2 0-0.2 0.2 0 0.1 0 0.2 0.2 0.2h0.2zm-1.6-0.3h-0.3c0 0.3 0 0.3 0.3 0.2v-0.2zm0.5-0.9h-0.3c0 0.1-0.1 0.2 0 0.3h0.3v-0.3zm2.7 1.6c-0.1 0-0.2-0.1-0.3 0v0.1 0.1c0.1 0 0.2 0.1 0.3 0v-0.2zm-4.4 0.8c-0.1 0-0.2-0.1-0.3 0s0 0.2 0 0.3h0.3c0.1-0.1 0.1-0.2 0-0.3zm4.1 0.1v0.2 0.1h0.3c0-0.3 0-0.3-0.3-0.3zm-4.6 0.2v-0.2-0.1h-0.2c-0.1 0-0.1 0.1-0.1 0.1 0 0.1 0 0.2 0.2 0.2h0.1zm0-0.7c-0.1-0.1-0.2-0.1-0.2 0-0.1 0.1-0.1 0.1 0 0.2v0.1h0.2 0.1c-0.1-0.2-0.1-0.3-0.1-0.3zm2.7-2h-0.3c0 0.1-0.1 0.2 0 0.3h0.3v-0.3zm-0.2 1.7h0.2c0.1 0 0.1 0 0.1-0.1v-0.2h-0.2l-0.1 0.1v0.2zm0 0.2v0.2 0.1h0.2c0.1 0 0.1-0.1 0.1-0.1 0-0.1 0-0.2-0.2-0.2 0-0.1 0 0-0.1 0zm-0.8 0.2v-0.3h-0.1c-0.1 0-0.2 0-0.2 0.2 0 0.1 0 0.1 0.2 0.1h0.1zm3.2 0h-0.2c-0.1 0-0.1 0-0.1 0.1s0 0.2 0.1 0.2h0.2v-0.3zm-2.1 0.4c0-0.1 0-0.2-0.2-0.2-0.1 0-0.2 0-0.2 0.2 0 0.1 0 0.2 0.2 0.2 0.2-0.1 0.2-0.1 0.2-0.2zm-1.3 0.1c0.1 0 0.2 0.1 0.3 0v-0.1c0-0.1 0-0.1-0.1-0.1s-0.2 0-0.2 0.2c-0.1-0.1-0.1-0.1 0 0zm-2.2-0.8h0.3v-0.2s0-0.1-0.1-0.1c-0.2 0-0.3 0-0.2 0.2v0.1zm1.4 0h0.2 0.1s0.1-0.2 0-0.2l-0.1-0.1c-0.1 0-0.2 0-0.2 0.2v0.1zm-0.7 1.4c0-0.3 0-0.4-0.3-0.3v0.1c0 0.2 0.1 0.2 0.3 0.2zm0.2 0h0.3v-0.2c-0.1-0.1-0.2-0.1-0.3 0v0.2zm2.5-2c0.1 0 0.2 0 0.2-0.1s0-0.2-0.2-0.2c-0.1 0-0.2 0-0.2 0.1 0 0.2 0.1 0.2 0.2 0.2zm-0.5-0.7c-0.1-0.1-0.2-0.1-0.3 0-0.1 0.3-0.1 0.3 0.2 0.3 0.1-0.2 0.1-0.3 0.1-0.3zm-2.9 0.5c-0.1 0.1-0.1 0.2 0 0.3s0.2 0.1 0.2 0c0.1-0.1 0.1-0.2 0-0.3h-0.2zm1.4 0v0.2s0 0.1 0.1 0.1c0.2 0.1 0.3 0 0.3-0.2 0-0.1 0-0.1-0.1-0.1h-0.3zm3.4 1.2c0 0.1 0 0.2 0.1 0.2s0.2 0 0.2-0.2c0-0.1 0-0.2-0.1-0.2-0.1 0.1-0.2 0.1-0.2 0.2zm-4.2-1.2c-0.1 0-0.1 0.1-0.1 0.2s0.1 0.2 0.2 0.1c0.1 0 0.1-0.1 0.1-0.2s-0.1-0.1-0.2-0.1zm0.3 0.1c0 0.1 0 0.2 0.1 0.2s0.2 0 0.2-0.2c0-0.1 0-0.2-0.1-0.2-0.1 0.1-0.2 0.1-0.2 0.2zm0.3 0.5c0-0.1-0.1-0.2-0.2-0.2s-0.1 0-0.1 0.2c0 0.1 0 0.2 0.2 0.2 0.1 0 0.1-0.1 0.1-0.2zm-0.4 0c0-0.1 0-0.2-0.1-0.2s-0.2 0-0.2 0.1 0 0.2 0.1 0.2c0.1 0.1 0.2 0 0.2-0.1zm2.1-0.5v0c0-0.1-0.1-0.2-0.1-0.2-0.1 0-0.1 0-0.1 0.1v0.1c0 0.1 0 0.1 0.1 0.1 0 0 0.1 0 0.1-0.1zm0 0.4c0-0.1-0.1-0.2-0.1-0.2-0.1 0-0.1 0-0.1 0.1v0.1c0 0.1 0.1 0.1 0.1 0.1 0 0.1 0.1 0 0.1-0.1zm0 1c0-0.1 0-0.2-0.1-0.2s-0.1 0-0.1 0.2v0.1c0 0.1 0 0.1 0.1 0.1 0-0.1 0.1-0.1 0.1-0.2zm-0.9-2.5h-0.2-0.1v0.2h0.2c0.1 0 0.1 0 0.1-0.1v-0.1zm-0.4 2.8c-0.1 0-0.2 0-0.2 0.2 0 0.1 0 0.2 0.2 0.2 0.1 0 0.2 0 0.2-0.2 0-0.1-0.1-0.2-0.2-0.2zm1.3-0.8c0-0.1 0-0.1-0.1-0.1s-0.1 0.1-0.1 0.2 0 0.1 0.1 0.1c0.1-0.1 0.1-0.1 0.1-0.2zm-1.1-1.4s0.1 0 0 0c0.1 0 0.2-0.1 0.2-0.1s0-0.1-0.1-0.1h-0.2v0.1s0 0.1 0.1 0.1c-0.1 0 0 0 0 0zm2.7 1.7c0-0.1 0-0.2-0.1-0.1-0.1 0-0.1 0.1-0.1 0.1 0 0.1 0 0.1 0.1 0.1s0.1 0 0.1-0.1zm-0.1-0.4c0.1-0.1 0.1-0.1 0-0.3-0.1 0.1-0.1 0.1 0 0.3zm0-0.4c0.1-0.2 0.1-0.2 0-0.3-0.1 0.1-0.1 0.2 0 0.3v0zm-1-1c-0.2-0.1-0.2-0.1-0.3 0h0.3zm-1.4 1v0.1-0.1zm0-0.5s-0.1 0.1 0 0.1v-0.1zm0 1v0c0-0.1-0.1-0.1 0 0-0.1 0-0.1 0 0 0-0.1 0 0 0 0 0zm0 0.5v-0.1c-0.1 0.1-0.1 0.1 0 0.1z"/>
		<path class="st123" d="m51.7 32l-0.1 0.1s0 0.1-0.1 0.2v0.5c0 0.1 0.1 0.2 0.2 0.2s0.3 0 0.4-0.1c0.4 0.4 0.7 0.8 1.1 1.2v0.1h-3.6-0.3s-0.1 0-0.1-0.1v-0.1c0.1-0.1 0.2-0.2 0.2-0.3s0.1-0.1 0.2-0.1h0.2v0.3c0 0.1 0 0.1 0.1 0.2 0.1 0 0.3 0.1 0.4-0.1v-0.6c0-0.1 0-0.1-0.1-0.1h-0.3c0-0.1 0.1-0.2 0.2-0.3 0.1 0 0.1-0.1 0.2-0.2 0-0.1 0.1-0.1 0.1-0.1 0.1-0.1 0.2-0.2 0.3-0.4 0-0.1 0-0.1-0.1-0.1v-0.2c0.1 0 0.1-0.1 0.2-0.1l0.1-0.1c0.2-0.1 0.3-0.1 0.5 0 0.1 0.1 0.2 0.2 0.3 0.2z"/>
		<path class="st123" d="m53.1 34.3v1.5 0.1c0 0.1-0.1 0.1-0.1 0.1-0.5-0.1-0.9-0.1-1.4-0.2 0.1-0.2 0.1-0.5 0-0.7 0-0.1-0.1-0.1-0.1-0.1h-0.7c-0.1 0-0.1 0.1-0.1 0.2v0.3c-0.3-0.2-0.7-0.4-1-0.6-0.1-0.1-0.2-0.1-0.3-0.2-0.3-0.1-0.3-0.1-0.4-0.4 0.1-0.1 0.3-0.1 0.4-0.1 1.2 0.1 2.5 0.1 3.7 0.1z"/>
		<path class="st49" d="m34.6 35.4c-0.1-0.1-0.1-0.2-0.1-0.4v-1.9-0.8-0.2c0-0.2 0.1-0.3 0.3-0.3h0.5c0.2 0 0.2-0.1 0.2-0.3v-0.4-1-0.2c0-0.1 0.1-0.1 0.1-0.1h0.1 1c0.1 0 0.1 0 0.2 0.1h-0.8-0.4c-0.1 0-0.2 0.1-0.2 0.2v0.1 1.4 0.1l0.1 0.1h0.1l0.1-0.1v0.2c0.2 0 0.2 0.1 0.4 0.1v0.1h-0.1v0.2c0 0.1 0 0.1 0.1 0.1 0.1 0.1 0.2 0.3 0 0.5v-0.2c0-0.1 0-0.1-0.1-0.2-0.1 0-0.1 0-0.1 0.1v0.2 1.7 0.1c0 0.1 0.1 0.2 0.2 0.2-0.3 0.1-0.6 0.2-0.8 0.3-0.3 0.2-0.6 0.2-0.8 0.3zm0.7-2.2v0.2c0 0.1 0.1 0.1 0.2 0.1s0.2 0 0.2-0.2v-0.2c-0.2 0.1-0.2 0.1-0.4 0.1zm0.1-0.5c0 0.1-0.1 0.2 0 0.3s0.2 0.1 0.3 0c0-0.1 0.1-0.2 0-0.3h-0.3zm0-0.2h0.1c0.2 0 0.2-0.1 0.2-0.2s0-0.1-0.1-0.1c-0.2 0-0.2 0-0.2 0.2-0.1 0.1-0.1 0.1 0 0.1zm0 1.2c0 0.1-0.1 0.2 0 0.3 0.1 0 0.2 0.1 0.3 0v-0.2c-0.1-0.2-0.2-0.2-0.3-0.1zm-0.5-0.2h0.2 0.1v-0.2c0-0.1-0.1-0.1-0.2 0-0.1 0-0.1 0-0.1 0.1v0.1zm0-1v0c0.3 0.1 0.3 0 0.3-0.2v-0.1c-0.1-0.1-0.2 0-0.2 0.1-0.1 0.1-0.1 0.2-0.1 0.2zm0.5 2.1c0 0.1-0.1 0.2 0 0.3h0.2c0.1-0.3 0.1-0.3-0.2-0.3zm-0.5-1c0 0.1-0.1 0.2 0 0.3 0.3 0 0.3 0 0.3-0.2v-0.1h-0.3zm0-0.9v0.2c0 0.1 0 0.1 0.1 0.1s0.2 0 0.2-0.1v-0.2h-0.3zm0.7 1.4h-0.3v0.3c0.4 0 0.4 0 0.3-0.3zm-0.4 0.2c0-0.1 0-0.2-0.1-0.2s-0.2 0-0.2 0.1 0 0.2 0.1 0.2 0.2 0 0.2-0.1zm0 0.4c0-0.1 0-0.2-0.2-0.2-0.1 0-0.1 0-0.1 0.2 0 0.1 0 0.2 0.2 0.2 0 0 0.1-0.1 0.1-0.2z"/>
		<path class="st99" d="m36.2 32.1v-0.1-0.3h-0.2c0 0.1-0.1 0.1-0.1 0.1s-0.1 0.1-0.1 0l-0.1-0.1v-0.1-1.4-0.1c0-0.1 0.1-0.2 0.2-0.2h0.4 0.8v1.6c-0.1 0.2-0.1 0.2-0.3 0.1h-0.3c-0.1 0.1 0 0.2 0 0.3v0.1c0 0.1 0 0.2 0.1 0.3 0 0 0 0.1-0.1 0.1 0 0.1 0 0.2 0.1 0.3v2c-0.1 0-0.1 0-0.2 0.1h-0.1c-0.1 0-0.2-0.1-0.2-0.2v-0.1-1.7h0.2c0.1-0.2 0.1-0.3 0-0.5-0.1 0.1-0.1-0.1-0.1-0.2zm0.1-1.1c0.1 0.1 0.2 0.1 0.3 0v-0.2c0-0.1 0-0.2-0.2-0.2-0.1 0-0.2 0-0.2 0.1 0.1 0.2 0.1 0.2 0.1 0.3zm0.3 0.2c-0.1 0-0.2-0.1-0.3 0v0.2 0.1h0.3c0.1-0.1 0.1-0.2 0-0.3zm-0.3-0.6h0.3v-0.1c0-0.2 0-0.2-0.2-0.2h-0.1v0.3zm-0.1 0.4v-0.2c0-0.1 0-0.1-0.1-0.1h-0.2v0.2 0.1h0.1 0.2zm-0.3 0.2v0.3 0.1h0.2v-0.2-0.1c-0.1-0.1-0.1-0.1-0.2-0.1zm0-0.7c0.1 0.1 0.2 0.1 0.3 0v-0.2c-0.1-0.1-0.2-0.1-0.3 0v0.2z"/>
		<path class="st96" d="m43.2 32.9v0c1.1-0.1 2.2-0.1 3.3-0.1v1.4h-0.9c-0.1 0-0.2 0-0.3-0.1 0.2 0 0.2-0.1 0.2-0.2v-0.7-0.1h-0.1-0.1v0.2 0.9c-0.1 0-0.2 0.1-0.4 0 0.1 0 0.2-0.1 0.2-0.2v-0.7-0.1l-0.1-0.1h-0.1v0.2 0.8h-0.2v-0.7-0.2-0.1s0-0.1-0.1-0.1l-0.1 0.1v0.8c0 0.1 0.1 0.2 0.2 0.2-0.1 0.1-0.2 0-0.4 0v-0.7-0.2-0.1s0-0.1-0.1-0.1l-0.1 0.1v0.8c0 0.1 0.1 0.2 0.2 0.2-0.1 0.1-0.2 0-0.4 0v-0.9-0.2h-0.1-0.1v0.2 0.9c-0.1 0-0.2 0.1-0.4 0 0.1 0 0.2-0.1 0.2-0.2v-0.7-0.1l-0.1-0.1h-0.1v0.2 0.8c-0.1 0-0.2-0.1-0.2-0.2v-0.7c0.2 0 0.2-0.1 0.1-0.2zm2.8 0.6s-0.1 0 0 0v-0.3-0.2s0-0.1-0.1-0.1c0 0-0.1 0-0.1 0.1v0.1 0.6 0.1s0 0.1 0.1 0.1c0 0 0.1 0 0.1-0.1-0.1 0-0.1-0.1 0-0.3zm0.1 0v0.3 0.1s0 0.1 0.1 0.1c0 0 0.1 0 0.1-0.1v-0.1-0.6-0.1s0-0.1-0.1-0.1-0.1 0-0.1 0.1v0.1 0.3z"/>
		<path class="st94" d="m50.7 32v0.2l-0.3 0.3c-0.6 0.6-1.2 1.3-1.8 1.9-0.3-0.1-0.6-0.1-1-0.2v-0.2l0.1-0.1c0.2-0.2 0.4-0.3 0.6-0.5s0.4-0.3 0.6-0.5l0.1-0.1c0.4-0.4 0.8-0.7 1.3-1.1 0.1 0.1 0.2 0.1 0.2 0.2 0.1 0.1 0.1 0.1 0.2 0.1z"/>
		<path class="st124" d="m50.7 35.5v-0.3c0-0.1 0.1-0.2 0.1-0.2h0.7c0.1 0 0.1 0.1 0.1 0.1 0 0.3 0.1 0.5 0 0.7-0.3 0-0.6-0.2-0.9-0.3z"/>
		<path class="st125" d="m48.7 34.4c0.6-0.6 1.2-1.3 1.8-1.9l0.3-0.3 0.1 0.1c-0.1 0.1-0.2 0.2-0.3 0.4l-0.1 0.1c0 0.1-0.1 0.1-0.2 0.2s-0.2 0.1-0.2 0.3l-0.1 0.1c-0.1 0.1-0.1 0.1 0 0.2v0.1h-0.2c-0.1 0-0.2 0.1-0.2 0.1-0.1 0.1-0.1 0.2-0.2 0.3v0.1l0.1 0.1h0.3 3.6v0.1h-3.8c-0.1 0-0.3 0-0.4 0.1 0 0-0.1 0-0.1 0.1-0.3-0.1-0.4-0.1-0.4-0.2z"/>
		<path class="st121" d="m43.8 34.1v-0.9-0.2h0.1 0.1v0.2 0.9h-0.2z"/>
		<path class="st126" d="m36.7 34.8c-0.1-0.1-0.1-0.2-0.1-0.3h0.1 0.2c0.1 0.1 0.1 0.2 0.1 0.3-0.1-0.1-0.2-0.1-0.3 0z"/>
		<path class="st127" d="m40.4 34.2v-0.2c0.1-0.1 0.2-0.1 0.3-0.1v0.3h-0.3z"/>
		<path class="st128" d="m39.9 33.9h0.3v0.2c-0.1 0.1-0.2 0.1-0.3 0.1v-0.3z"/>
		<path class="st129" d="m37.2 34.4h0.3c0 0.2 0 0.2-0.2 0.2s-0.1-0.1-0.1-0.2z"/>
		<path class="st130" d="m37.6 34.4h0.3c0 0.1 0 0.1-0.1 0.1h-0.2v-0.1z"/>
		<path class="st112" d="m42 34.1c0.1-0.1 0.2-0.1 0.3 0-0.1 0.1-0.2 0.1-0.3 0z"/>
		<path class="st131" d="m41.5 34.1c0.1-0.1 0.2 0 0.3 0-0.1 0.1-0.1 0.1-0.3 0z"/>
		<path class="st132" d="m38.1 34.5c0-0.1 0-0.1 0.1-0.1h0.2c-0.1 0.1-0.2 0.1-0.3 0.1z"/>
		<path class="st102" d="m36.2 34.9c0.1 0 0.1 0 0.2-0.1-0.1 0.1-0.1 0.1-0.2 0.1z"/>
		<path class="st90" d="m21.3 29.2v0.2-0.2z"/>
		<path class="st86" d="m30.6 35.6c0 0.1 0 0.2 0.1 0.2h-3.4-0.5v-0.5-0.8-0.7c0.3 0 0.6 0 0.9-0.1 0.6 0 1.2 0.2 1.7 0.5 0.4 0.5 0.8 0.9 1.2 1.4z"/>
		<path class="st82" d="m24.2 31.4c0.1 0.3 0.1 0.5 0.1 0.8v0.2c0 0.1 0.1 0.2 0.2 0.2h0.1 1c0.1 0 0.2 0 0.3-0.1v0.2 0.6 0.3 0.5c-0.1 0-0.1 0-0.1 0.1s-0.1 0.2-0.2 0.3l-0.3 0.3c-0.3 0.3-0.6 0.6-0.8 1h-0.1v-2.9-0.3c-0.2-0.4-0.2-0.8-0.2-1.2z"/>
		<path class="st116" d="m22.7 31.7h1.3v3.7 0.3c0 0.1 0.1 0.1 0.2 0.1-0.1 0.1-0.1 0.1-0.2 0.1h-1.3c0.1-0.1 0.1-0.3 0.1-0.4-0.1-1.3-0.1-2.5-0.1-3.8zm0.9 4.1c0.2 0 0.2-0.1 0.2-0.2v-0.2-0.6c0-0.2-0.2-0.4-0.4-0.5h-0.1c-0.2 0.1-0.4 0.2-0.4 0.5v0.8c0 0.2 0 0.2 0.2 0.2h0.5zm0-2.1c0.2 0 0.2-0.1 0.2-0.2v-0.7c0-0.3-0.2-0.4-0.4-0.5h-0.1c-0.2 0-0.4 0.3-0.4 0.4v0.9c0 0.1 0.1 0.2 0.2 0.2s0.3 0 0.5-0.1z"/>
		<path class="st133" d="m25.8 34.2v-0.5-0.3 0.2 0.4c0 0.1 0.1 0.2 0.2 0.2h0.4c0.1 0 0.2-0.1 0.2-0.2v-0.2-0.6 0.3 0.4 0.7 0.8 0.5h-0.8c-0.2 0-0.2-0.1-0.2-0.2v-1c0.2-0.2 0.2-0.3 0.2-0.5z"/>
		<path class="st86" d="m25.8 34.2v0.5 1c0 0.2 0.1 0.2 0.2 0.2h0.8-0.2-0.9-0.8-0.5c-0.1 0-0.1-0.1-0.1-0.1 0.2-0.4 0.5-0.7 0.8-1l0.3-0.3c0.1-0.1 0.2-0.1 0.2-0.3h0.2z"/>
		<path class="st134" d="m22.7 31.7v3.8c0 0.1 0 0.3-0.1 0.4h-0.1c-0.1-0.1-0.1-0.2-0.1-0.3v-1.6-0.7-1.6-0.1-0.4c0-0.2 0-0.2 0.2-0.3 0.1 0.1 0.1 0.1 0.1 0.3v0.5z"/>
		<path class="st109" d="m24.2 35.9c-0.1 0-0.1-0.1-0.2-0.1v-0.3-3.7c0-0.1 0-0.3-0.1-0.4v-0.1c0-0.1 0-0.2 0.1-0.2h0.2c0.1 0 0.1 0.1 0.1 0.2s-0.1 0.1-0.1 0.2v1.3 0.3 2.8 0z"/>
		<path class="st96" d="m43.2 30.1c0.1 0 0.2 0.1 0.3 0.1h3v2.4h-2.4-0.9v-2.5zm2.4 1.2v-0.8c0-0.1 0-0.2-0.1-0.2s-0.1 0.1-0.1 0.2v1.6 0.2h0.1s0.1 0 0.1-0.1v-0.2-0.7zm-1.5 0.1v-0.8-0.2h-0.1-0.1v0.2 1.5 0.2l0.1 0.1s0.1 0 0.1-0.1v-0.2-0.7zm2-0.1v0.9c0 0.1 0 0.1 0.1 0.1 0 0 0.1 0 0.1-0.1v-1.3-0.4c0-0.1 0-0.1-0.1-0.1 0 0-0.1 0-0.1 0.1v0.8zm-1.3 0.1v-0.8c0-0.1 0-0.2-0.1-0.2s-0.1 0.1-0.1 0.2v1.3 0.3c0 0.1 0 0.1 0.1 0.1 0 0 0.1 0 0.1-0.2v-0.7zm-1.2-0.1v-0.8-0.2 0.3 1.4 0.1c0 0.1 0.1 0.1 0.1 0.1l0.1-0.1v-0.2c-0.2-0.1-0.2-0.3-0.2-0.6zm2.3 0.1v-0.7-0.2h-0.1-0.1v0.2 1.1 0.5c0 0.1 0 0.1 0.1 0.1 0 0 0.1 0 0.1-0.1v-0.9zm-1.5 0v-0.7-0.2h-0.1-0.1v0.2 1.1 0.5c0 0.1 0 0.1 0.1 0.1 0 0 0.1 0 0.1-0.1v-0.9zm0.8 0v-0.9c0-0.1-0.1-0.1-0.1-0.1l-0.1 0.1v0.1 1.6 0.1s0 0.1 0.1 0.1c0 0 0.1 0 0.1-0.1v-0.2-0.7z"/>
		<path class="st94" d="m50 29.6c0.1 0.2 0.2 0.3 0.4 0.5l0.5 0.5-0.2 0.2-0.1 0.1c-0.1 0-0.1 0-0.2 0.1l-0.9-0.9c-0.5-0.5-1.1-1-1.6-1.5 0-0.1 0-0.1 0.1-0.2 0.1-0.2 0.3-0.3 0.4-0.4h0.1 0.1c0.2 0.2 0.4 0.5 0.7 0.7l0.6 0.6c-0.1 0.2 0 0.2 0.1 0.3z"/>
		<path class="st101" d="m43.2 32.5h0.9 2.4v0.3h-3.3v-0.3z"/>
		<path class="st91" d="m49.1 32.9c-0.1 0-0.1 0 0 0-0.1 0-0.1-0.2-0.1-0.3v-1.1c0-0.4 0.1-0.7 0.2-1.1 0-0.1 0.1-0.2 0.1-0.3 0.3 0.2 0.5 0.5 0.8 0.7l0.2 0.2c-0.1 0.1-0.2 0.1-0.3 0.1h-0.6c-0.2 0-0.3 0-0.3 0.3v0.1 1.1c-0.1 0.1-0.1 0.2 0 0.3z"/>
		<path class="st135" d="m50.3 31l-0.2-0.2c-0.3-0.2-0.5-0.5-0.8-0.7-0.5-0.4-1-0.9-1.5-1.3l-0.1-0.1c-0.1-0.1-0.1-0.1 0.1-0.2 0.5 0.5 1.1 1 1.6 1.5l0.9 0.9c0.1 0.1 0 0.2 0 0.1z"/>
		<path class="st86" d="m26.5 29.3c0-0.1 0.1-0.2 0.1-0.3 0.1-0.3 0.1-0.6 0.2-0.9s0.1-0.3 0.4-0.3h0.1 0.5 0.2c0.2 0 0.2 0 0.3 0.2 0 0.1 0 0.3 0.1 0.4 0.2 0.9 0.3 1.9 0.5 2.8v0.2h-0.7-1.6v-0.4-0.3c0-0.1 0.1-0.2 0.1-0.4-0.1 0-0.1 0-0.1-0.1v-0.5-0.1c-0.1-0.1-0.1-0.2-0.1-0.3z"/>
		<path class="st105" d="m31 31.4c0.1 0.4 0.1 0.8 0 1.2h-0.3-0.5-3.1-0.3c-0.1 0-0.1 0-0.2-0.1 0-0.2-0.1-0.4-0.1-0.6v-0.4c0-0.1 0.1-0.2 0.2-0.2h0.2 1.5c0.1 0 0.2 0 0.3-0.1h0.7 0.7c0.4 0.2 0.7 0.2 0.9 0.2z"/>
		<path class="st105" d="m25.8 32.6c-0.1 0-0.2 0.1-0.3 0.1h-1-0.1c-0.1 0-0.2-0.1-0.2-0.2v-0.2-0.8h0.3c0.1 0 0.2 0 0.2-0.1h0.6 0.2c0.2 0 0.2 0.1 0.2 0.3v0.5 0.2c0.1 0 0.1 0.1 0.1 0.2z"/>
		<path class="st85" d="m26.5 31v0.4 0.6 0.1c0 0.2-0.1 0.3-0.3 0.3h-0.1c-0.2 0-0.2 0-0.3-0.2 0-0.5 0-0.9 0.1-1.4v-0.3h0.3c0.2 0 0.2 0.1 0.2 0.2 0.1 0 0.1 0.2 0.1 0.3z"/>
		<path class="st136" d="m26.5 31c-0.1-0.1 0-0.2-0.1-0.4 0-0.2-0.1-0.2-0.2-0.2h-0.3-0.1c0-0.1 0.1-0.2 0.1-0.3v-0.4c0-0.1 0-0.1 0.1-0.2 0 0.1 0.1 0.1 0.2 0.1h0.4v0.1h-0.5c-0.1 0-0.1 0.1-0.1 0.2v0.2c0 0.1 0.1 0.2 0.2 0.2h0.1c0.1 0 0.1 0 0.2-0.1v-0.2c0 0.1 0.1 0.2 0.1 0.4 0 0 0.1 0 0.1 0.1-0.1 0.1-0.1 0.2-0.1 0.4-0.1-0.1-0.1 0-0.1 0.1z"/>
		<path class="st118" d="m25.9 32.1c0.1 0.2 0.1 0.2 0.3 0.2h0.1c0.2 0 0.3 0 0.3-0.3v-0.1c0 0.2 0 0.4 0.1 0.6 0 0 0 0.1-0.1 0.1-0.1-0.1-0.2-0.1-0.3-0.1-0.3 0-0.4 0-0.5 0.3v-0.2c0-0.1-0.1-0.2 0-0.3 0 0 0-0.1 0.1-0.2z"/>
		<path class="st137" d="m26.5 29.6h-0.4c-0.1 0-0.2 0-0.2-0.1s0-0.1 0.1-0.1c0.1-0.1 0.2-0.2 0.2-0.4 0 0.1 0.1 0.1 0.1 0.1 0 0.1 0 0.2 0.2 0.3l0.1 0.1c-0.1-0.1-0.1 0-0.1 0.1z"/>
		<path class="st117" d="m22.7 30.9c-0.2 0.1-0.2 0.1-0.2 0.3v0.4h-0.2v-0.2c0-0.2 0-0.3-0.2-0.4h-0.1s-0.1 0-0.1 0.1h-0.3s-0.1 0-0.1-0.1h-0.1c-0.1 0-0.2 0.1-0.2 0.2v0.3c-0.1 0.1-0.2 0.2-0.3 0.2v-0.5c0-0.1-0.1-0.2-0.2-0.2h-0.2-3.4c-0.4 0-0.4 0-0.4 0.4v2.5c-0.2 0-0.3-0.1-0.4-0.2 0-0.1 0-0.3-0.1-0.4v-0.5c0-0.3-0.1-0.4-0.3-0.6-0.1 0-0.1-0.1-0.2 0-0.2 0.1-0.4 0.3-0.4 0.5v0.7c0 0.1 0.1 0.2 0.2 0.3 0 0.1-0.1 0.2-0.1 0.3-0.1 0-0.2 0.1-0.3 0.2v-2.5c0-0.2 0-0.3 0.1-0.5s0-0.3-0.2-0.3h-0.1c0-0.1 0.1-0.1 0.1-0.2 0.1-0.1 0.2-0.1 0.3-0.1h0.9 0.2c0.1 0 0.2 0 0.2-0.2 0-0.1 0-0.1 0.1-0.2v0.4c0 0.2 0.1 0.2 0.2 0.2h0.2 3.3 0.2c0.2 0 0.2 0 0.2-0.2h1.7c0.1 0.2 0.1 0.3 0.2 0.3zm-7 0.4v-0.1c0-0.1-0.1-0.2-0.2-0.2s-0.2 0.1-0.2 0.2v0.4s0 0.1 0.1 0.1c0.2 0.1 0.4 0 0.4-0.2-0.1-0.1-0.1-0.1-0.1-0.2zm0.6 0s0-0.1-0.1-0.2-0.2-0.1-0.3 0l-0.1 0.1v0.3c0 0.1 0.1 0.2 0.2 0.2s0.2-0.1 0.2-0.2c0.1 0 0.1-0.1 0.1-0.2z"/>
		<path class="st82" d="m24.8 31.3c-0.1 0-0.2 0.1-0.2 0.1h-0.3 0.3c0-0.1 0.1-0.1 0.2-0.1z"/>
		<path class="st82" d="m26.6 32.6s0-0.1 0.1-0.1c0 0.1 0.1 0.1 0.2 0.1h0.3 3.1 0.5 0.3c-0.1 0-0.2 0.1-0.2 0.1 0.1 0.3 0.3 0.6 0.4 0.8 0 0.1 0 0.2-0.1 0.2-0.3 0.3-0.4 0.7-0.4 1.1v0.5c0 0.1 0 0.2-0.1 0.3-0.4-0.5-0.8-0.9-1.3-1.3-0.5-0.3-1.1-0.5-1.7-0.5-0.3 0-0.6 0-0.9 0.1v-0.4-0.3c-0.2-0.2-0.2-0.4-0.2-0.6z"/>
		<path class="st138" d="m45.9 22.8c0 0.5-0.3 1-0.7 1.1-0.5 0.1-0.9 0.1-1.2-0.3-0.1-0.1-0.2-0.2-0.2-0.4-0.1-0.6 0-1 0.4-1.3l0.1-0.1c0.3-0.2 1-0.2 1.3 0.1 0.2 0.3 0.4 0.6 0.3 0.9zm-0.2 0c0-0.5-0.4-0.8-0.8-0.9-0.5 0-0.9 0.4-0.9 0.9s0.4 0.9 0.9 0.9c0.4 0 0.8-0.4 0.8-0.9z"/>
		<path class="st89" d="m46.5 29.9h-2.8-0.4c0.1 0 0.1-0.1 0.2-0.1s0.2-0.1 0.2-0.2v-0.2-1.4-0.2c0-0.1 0-0.1-0.1-0.2v-0.1h2.8s0 0.1-0.1 0.1c-0.1 0.1-0.1 0.1-0.1 0.2v1.6 0.1c0 0.1 0.1 0.1 0.2 0.1 0 0.1 0 0.2 0.1 0.3zm-1.1-1.2v0.6 0.1c0 0.2 0 0.3 0.1 0.3s0.1-0.2 0.1-0.3v-0.1-0.2-1c0-0.5 0-0.5-0.1-0.5s-0.1 0.1-0.1 0.5v0.1 0.5zm-1.3 0v-0.8c0-0.1 0-0.2-0.1-0.2s-0.1 0.1-0.1 0.2v1.6 0.1c0 0.1 0.1 0.1 0.1 0.1 0.1 0 0.1-0.1 0.1-0.1v-0.2-0.7zm0.1 0v0.8c0 0.1 0 0.2 0.1 0.2s0.1-0.1 0.1-0.2v-1.3-0.3c0-0.1 0-0.1-0.1-0.1 0 0-0.1 0-0.1 0.1v0.8zm0.6 0v-0.9c0-0.1 0-0.1-0.1-0.1 0 0-0.1 0-0.1 0.1v0.5 1.2c0 0.1 0.1 0.2 0.1 0.1 0.1 0 0.1-0.1 0.1-0.1v-0.8zm0.4 0v-0.8c0-0.1 0-0.2-0.1-0.2s-0.1 0.1-0.1 0.2v1.3 0.3c0 0.1 0 0.1 0.1 0.1 0 0 0.1 0 0.1-0.2v-0.7zm0.7 0v-0.6-0.3s0-0.1-0.1-0.1c0 0-0.1 0-0.1 0.1v0.1 1.5 0.2s0 0.1 0.1 0.1c0 0 0.1 0 0.1-0.1v-0.2-0.7z"/>
		<path class="st101" d="m46.3 27.5h-2.8-0.2c-0.1 0-0.1-0.2 0-0.2h0.2 0.5 2.1 0.3c0.1 0 0.1 0 0.1 0.1 0 0-0.1 0.1-0.2 0.1 0.1 0 0 0 0 0z"/>
		<path class="st71" d="m45.4 25.9v-0.7-0.2l0.1-0.1s0.1 0 0.1 0.1v0.2 1.5 0.2l-0.1 0.1s-0.1 0-0.1-0.1v-0.2-0.8z"/>
		<path class="st139" d="m43.8 25.9v-0.6-0.2c0-0.1 0.1-0.2 0.1-0.2 0.1 0 0.1 0.1 0.1 0.2v0.1 1.4 0.1c0 0.1-0.1 0.2-0.1 0.2-0.1 0-0.1-0.1-0.1-0.2v-0.2-0.6z"/>
		<path class="st140" d="m44.8 25.9v0.7 0.2s0 0.1-0.1 0.1c0 0-0.1 0-0.1-0.1v-0.2-1.4-0.2s0-0.1 0.1-0.1c0 0 0.1 0 0.1 0.1v0.9z"/>
		<path class="st140" d="m43.5 27.6c0.1 0 0.1 0.1 0.1 0.2v0.2 1.4 0.2c0 0.1-0.1 0.2-0.2 0.2v-1.8c0.1-0.1 0.1-0.3 0.1-0.4z"/>
		<path class="st140" d="m46.3 25.9v0.8c0 0.1 0 0.2-0.1 0.2s-0.1-0.1-0.1-0.1v-0.3-1.4c0-0.2 0-0.2 0.1-0.2s0.1 0.1 0.1 0.2v0.8z"/>
		<path class="st140" d="m46.3 29.7c-0.1 0-0.1 0-0.2-0.1v-0.1-1.6c0-0.1 0-0.2 0.1-0.2 0 0 0 0.1 0.1 0.1v0.2 1.7z"/>
		<path class="st141" d="m44.4 25.9v0.8c0 0.1 0 0.2-0.1 0.2s-0.1-0.1-0.1-0.1v-0.6-1-0.2 0.2c0.2 0.2 0.2 0.5 0.2 0.7z"/>
		<path class="st140" d="m45.2 25.9v0.9c0 0.1 0 0.2-0.1 0.1-0.1 0-0.1-0.1-0.1-0.1v-0.4-1.1-0.3l0.1-0.1h0.1v0.2 0.8z"/>
		<path class="st140" d="m43.6 25.9v0.9c0 0.1 0 0.2-0.1 0.2s-0.1-0.1-0.1-0.1v-0.4-1.1-0.2s0-0.1 0.1-0.1 0.1 0 0.1 0.1v0.2 0.5z"/>
		<path class="st141" d="m45.8 24.9l0.1 0.1v0.2 1.5 0.2h-0.1s-0.1 0-0.1-0.1v-0.1-1.6c0.1-0.1 0.1-0.1 0.1-0.2z"/>
		<path class="st89" d="m46.3 28v-0.2c0.1 0 0.1 0.1 0 0.2z"/>
		<path class="st133" d="m16.7 30.7v-0.4h3.8c0.3 0 0.4 0 0.4 0.4h-4.2z"/>
		<path class="st142" d="m50.5 30.9l0.1-0.1c0.1 0.1 0.2 0.1 0.3 0.2s0.1 0.2 0.2 0.2 0.2-0.1 0.3-0.2 0.1-0.2 0.3-0.2l0.1 0.1c0 0.1-0.1 0.1-0.1 0.2l-0.3 0.3c0.1 0.2 0.3 0.3 0.4 0.5l-0.1 0.1c-0.1 0-0.2-0.1-0.3-0.2-0.2-0.2-0.3-0.2-0.5 0l-0.1 0.1c-0.1 0-0.1 0.1-0.2 0.1l-0.1-0.1c0-0.1 0.1-0.2 0.2-0.3l0.2-0.2c0-0.1-0.1-0.2-0.2-0.3l-0.2-0.2z"/>
		<path class="st143" d="m52.1 32.9c-0.1 0.1-0.3 0.1-0.4 0.1s-0.2-0.1-0.2-0.2v-0.5l0.6 0.6z"/>
		<path class="st91" d="m45.1 20.5v-0.3l0.1-0.1s0.1 0 0.1 0.1c0.1 0.2 0.1 0.4 0 0.6l-0.1 0.1s-0.1 0-0.1-0.1v-0.3z"/>
		<path class="st120" d="m44.7 20.5v0.3h-0.1s-0.1 0-0.1-0.1v-0.6h0.1s0.1 0 0.1 0.1c-0.1 0.1-0.1 0.2 0 0.3z"/>
		<path class="st71" d="m44.1 20.5v-0.3s0-0.1 0.1-0.1c0 0 0.1 0 0.1 0.1v0.6h-0.1s-0.1 0-0.1-0.1v-0.2z"/>
		<path class="st144" d="m43.6 20.5v0.3l-0.1 0.1h-0.1v-0.6l0.1-0.1h0.1v0.3z"/>
		<path class="st144" d="m46.4 20.5v0.3h-0.1s-0.1 0-0.1-0.1v-0.6h0.1s0.1 0 0.1 0.1v0.3z"/>
		<path class="st144" d="m44 20.5c0 0.1 0 0.2-0.1 0.3v-0.6h0.1 0.1c-0.2 0.1-0.2 0.2-0.1 0.3z"/>
		<path class="st71" d="m46 20.5v0.2-0.5s0.1 0 0.1-0.1l0.1 0.1c-0.2 0.1-0.2 0.2-0.2 0.3z"/>
		<path class="st120" d="m45.6 20.1c0.1 0.2 0.1 0.4 0 0.6 0 0 0 0.1-0.1 0.1h-0.1c0.1-0.2 0.1-0.4 0.2-0.7-0.1 0.1 0 0.1 0 0z"/>
		<path class="st121" d="m44.9 20.1l0.1 0.1v0.5s0 0.1-0.1 0.1c0 0-0.1 0-0.1-0.1 0-0.2 0-0.4 0.1-0.6z"/>
		<path class="st145" d="m12.1 28.5s0.1 0 0 0c0.1 0.1 0.1 0.2 0 0.2h-0.1s0-0.1 0.1-0.2z"/>
		<path class="st128" d="m11.8 28.5s0.1 0 0 0c0.1 0 0.1 0.1 0 0 0.1 0.2 0.1 0.2 0 0.2h-0.1c0-0.1 0-0.1 0.1-0.2z"/>
		<path class="st144" d="m45.5 17.5v0.3h-0.1-0.1v-0.6h0.1 0.1v0.3z"/>
		<path class="st144" d="m45 17.4v-0.3s0-0.1 0.1-0.1c0 0 0.1 0 0.1 0.1v0.6h-0.1s-0.1 0-0.1-0.1v-0.2z"/>
		<path class="st144" d="m44.8 17.4v0.3l-0.1 0.1h-0.1v-0.6l0.1-0.1h0.1v0.3z"/>
		<path class="st71" d="m44.3 17.4v-0.3h0.1s0.1 0 0.1 0.1v0.6h-0.1s-0.1 0-0.1-0.1v-0.3z"/>
		<path class="st144" d="m45.9 17.4v0.3s0 0.1-0.1 0.1h-0.1c0-0.2-0.1-0.4 0-0.6h0.1c0.1 0.1 0.1 0.2 0.1 0.2z"/>
		<path class="st71" d="m44.1 17.4v0.3s0 0.1-0.1 0.1h-0.1c-0.1-0.2-0.1-0.4 0-0.6 0.2 0 0.2 0.1 0.2 0.2z"/>
		<path class="st128" d="m41.4 31.2v-0.3h0.2c0.1 0 0.2 0 0.2 0.2 0 0.1 0 0.2-0.2 0.2-0.1-0.1-0.2-0.1-0.2-0.1z"/>
		<path class="st146" d="m41.7 31.4v0.1c0 0.2-0.1 0.2-0.2 0.2s-0.1 0-0.1-0.1v-0.2c0.1-0.1 0.1-0.1 0.3 0z"/>
		<path class="st146" d="m41.2 30.9c0.1 0.3 0 0.3-0.2 0.3-0.1-0.1-0.1-0.2 0-0.3 0-0.1 0.1 0 0.2 0z"/>
		<path class="st147" d="m41.7 32.1h-0.1-0.2v-0.2c0.1-0.1 0.2-0.1 0.3 0v0.1 0.1z"/>
		<path class="st147" d="m41.1 31.7c-0.1 0-0.1 0-0.2-0.1v-0.3h0.3c0 0.3 0 0.3-0.1 0.4z"/>
		<path class="st148" d="m41.7 32.3c-0.1 0.1-0.2 0.1-0.4 0 0.2-0.1 0.3-0.1 0.4 0z"/>
		<path class="st109" d="m41.1 32.2c-0.1-0.1-0.1-0.2 0-0.3 0.1 0.1 0.1 0.2 0 0.3z"/>
		<path class="st90" d="m18.8 34h-0.4-0.4c-0.2 0-0.2-0.1-0.2-0.2 0-0.2 0.1-0.5 0.3-0.7s0.5-0.4 0.7-0.5h0.3c0.4 0.2 0.7 0.4 0.9 0.7 0.1 0.1 0.1 0.3 0.1 0.5 0 0.1-0.1 0.2-0.2 0.2h-1.1zm0.2-0.4v-0.1c0-0.1-0.1-0.2-0.2-0.2s-0.2 0-0.2 0.2v0.3s0 0.1 0.1 0.1c0.1 0.1 0.3 0 0.3-0.3v0z"/>
		<path class="st118" d="m21.5 35.8h-0.1c-0.1 0-0.2-0.1-0.2-0.2v-0.2-0.5c0-0.2 0.1-0.4 0.3-0.5 0.1-0.1 0.2-0.1 0.4 0s0.4 0.3 0.3 0.6v0.6c0 0.2 0 0.2-0.2 0.2v-0.3-0.3c0-0.1-0.1-0.2-0.2-0.2s-0.2 0-0.2 0.1c-0.1 0.1-0.1 0.1-0.1 0.2v0.5z"/>
		<path class="st90" d="m21.5 33.7c-0.2 0-0.2-0.1-0.2-0.2v-0.7c0-0.3 0.1-0.5 0.4-0.6h0.2c0.1 0.1 0.2 0.1 0.2 0.2 0.1 0.1 0.1 0.2 0.1 0.3v0.8c0 0.2 0 0.2-0.2 0.2v-0.2-0.4c0-0.1-0.1-0.2-0.2-0.2s-0.2 0-0.2 0.1-0.1 0.1-0.1 0.2v0.5z"/>
		<path class="st149" d="m21.5 33.7v-0.4c0-0.1 0-0.2 0.1-0.2 0-0.1 0.1-0.1 0.2-0.1s0.2 0.1 0.2 0.2v0.4 0.2c-0.2-0.1-0.4-0.1-0.5-0.1z"/>
		<path class="st150" d="m21.5 35.8c-0.1-0.1-0.1-0.3-0.1-0.4s0-0.2 0.1-0.2c0.1-0.1 0.1-0.1 0.2-0.1s0.2 0.1 0.2 0.2v0.3 0.3c-0.1-0.1-0.2-0.1-0.4-0.1z"/>
		<path class="st151" d="m21.9 31s0.1 0 0.1-0.1h0.1c0.1 0.1 0.2 0.2 0.2 0.4v0.2c-0.1 0.1-0.2 0.1-0.3 0.1s-0.1-0.1-0.2-0.2c0 0 0-0.2 0.1-0.4z"/>
		<path class="st151" d="m21.2 31.5v-0.3l0.2-0.2h0.1s0.1 0 0.1 0.1c0.1 0.1 0.1 0.3 0.1 0.5 0 0.1-0.1 0.2-0.2 0.2-0.2-0.1-0.3-0.1-0.3-0.3z"/>
		<path class="st90" d="m13.7 33.5c0-0.3 0-0.5 0.1-0.8 0-0.2 0.2-0.4 0.4-0.5h0.2c0.2 0.1 0.4 0.2 0.4 0.5v0.7c0 0.2 0 0.2-0.2 0.2v-0.4-0.2c0-0.1-0.1-0.2-0.2-0.2-0.3 0.2-0.4 0.2-0.4 0.3v0.1c0 0.1-0.1 0.2-0.2 0.2 0 0.1-0.1 0.1-0.1 0.1z"/>
		<path class="st149" d="m13.8 33.5c0.1-0.1 0.2-0.1 0.2-0.2v-0.1c0-0.1 0.1-0.1 0.2-0.1s0.2 0.1 0.2 0.2v0.2 0.4c-0.1 0-0.2 0-0.2 0.1 0-0.4-0.2-0.5-0.4-0.5z"/>
		<path class="st90" d="m14.3 33.8c0-0.1 0.1-0.1 0.2-0.1l0.1 0.1h-0.3z"/>
		<path class="st119" d="m18.8 35.1c-0.1-0.1-0.1-0.1-0.1-0.2 0.1 0 0.1 0.1 0.1 0.2z"/>
		<path class="st118" d="m15.5 33.8c-0.1-0.1-0.2-0.2-0.2-0.3v-0.7c0-0.3 0.2-0.4 0.4-0.5h0.2c0.2 0.1 0.4 0.3 0.3 0.6v0.5c0 0.1 0 0.3 0.1 0.4h-0.1c-0.1-0.1-0.2-0.2-0.2-0.3v-0.3c0-0.1-0.1-0.1-0.2-0.1s-0.2 0.1-0.2 0.1v0.2s0 0.2-0.1 0.4c0.1-0.1 0-0.1 0 0z"/>
		<path class="st149" d="m15.6 33.7v-0.4-0.2c0-0.1 0.1-0.1 0.2-0.1s0.2 0.1 0.2 0.1v0.3c0 0.1 0 0.2 0.2 0.3-0.1 0-0.2 0.1-0.3 0.1s-0.2-0.1-0.3-0.1z"/>
		<path class="st126" d="m40.7 32.8h-0.2v-0.1-0.2c0.1-0.1 0.2-0.1 0.3 0 0 0.1 0 0.2-0.1 0.3z"/>
		<path class="st15" d="m38.8 31.4v-0.3c0.1-0.1 0.2 0 0.3 0 0.1 0.1 0 0.2 0 0.3h-0.3z"/>
		<path class="st126" d="m40.7 33.3h-0.2v-0.1-0.2c0.1-0.1 0.2-0.1 0.3 0 0 0 0 0.1-0.1 0.3z"/>
		<path class="st126" d="m37 34v0.3h-0.2c-0.1 0-0.2 0-0.2-0.2 0-0.1 0-0.2 0.2-0.2 0.1 0 0.1 0.1 0.2 0.1z"/>
		<path class="st152" d="m41.5 32.7h0.3v0.2c0 0.1 0 0.2-0.2 0.2h-0.1v-0.4z"/>
		<path class="st146" d="m37 33.3h-0.3v-0.1c0-0.2 0.1-0.2 0.3-0.2v0.1 0.2z"/>
		<path class="st153" d="m40.4 33.4h0.1c0.2 0 0.2 0.1 0.2 0.3 0 0.1-0.1 0.1-0.2 0.1s-0.1 0-0.1-0.1v-0.3z"/>
		<path class="st146" d="m39.1 32.5v0.2h-0.1c-0.2 0-0.2-0.1-0.2-0.3l0.1-0.1c0.1 0.1 0.2 0.1 0.2 0.2z"/>
		<path class="st153" d="m37 33.8h-0.3c-0.1-0.1-0.1-0.2 0-0.3s0.2-0.1 0.2 0c0.1 0.1 0.1 0.2 0.1 0.3z"/>
		<path class="st38" d="m37.9 33.3h-0.2c-0.1-0.1-0.1-0.2 0-0.3s0.2-0.1 0.3 0c0 0.1 0 0.2-0.1 0.3z"/>
		<path class="st146" d="m38.1 33.3v-0.1-0.2h0.1c0.2 0 0.2 0.1 0.2 0.3h-0.1-0.2z"/>
		<path class="st128" d="m38.4 33.8h-0.3v-0.1c0-0.2 0.1-0.2 0.3-0.2l0.1 0.1c-0.1 0.1-0.1 0.1-0.1 0.2z"/>
		<path class="st152" d="m41.5 33.9v-0.2c0-0.1 0-0.1 0.1-0.1s0.2 0 0.2 0.2v0.1h-0.3z"/>
		<path class="st15" d="m38.9 31.5h0.3v0.3h-0.1c-0.3 0.1-0.3 0-0.2-0.3z"/>
		<path class="st153" d="m40.7 32.3h-0.1c-0.1 0-0.2 0-0.2-0.2 0-0.1 0-0.2 0.2-0.2 0.1 0 0.2 0 0.2 0.2-0.1 0.1-0.1 0.2-0.1 0.2z"/>
		<path class="st154" d="m39.1 32v0.2c-0.3 0.1-0.3 0.1-0.3-0.2h0.3z"/>
		<path class="st153" d="m39.6 31.1v0.3c-0.1 0.1-0.2 0.1-0.3 0s-0.1-0.2 0-0.3 0.2-0.1 0.3 0z"/>
		<path class="st147" d="m42.3 32.7v0.2c-0.1 0.1-0.2 0.1-0.3 0.1v-0.1-0.1c0.1-0.1 0.2-0.1 0.3-0.1z"/>
		<path class="st146" d="m37.9 33.5c0.1 0.1 0 0.2 0 0.3-0.1 0.1-0.2 0.1-0.3 0s-0.1-0.2 0-0.3 0.2 0 0.3 0z"/>
		<path class="st147" d="m42 33.6c0.3-0.1 0.3 0 0.3 0.3-0.1 0.1-0.2 0.1-0.3 0v-0.1-0.2z"/>
		<path class="st155" d="m37.4 33.8h-0.1c-0.2 0-0.2 0-0.2-0.2 0-0.1 0-0.1 0.1-0.1h0.2v0.1c0.1 0 0.1 0.1 0 0.2z"/>
		<path class="st156" d="m37.4 33.1v0.2h-0.1-0.2v-0.1-0.2c0.2 0 0.3 0 0.3 0.1z"/>
		<path class="st157" d="m40.1 31.1v0.3c-0.1 0.1-0.2 0.1-0.3 0s0-0.2 0-0.3h0.3z"/>
		<path class="st129" d="m39.9 32.8v-0.2s0-0.1 0.1-0.1h0.2c0.1 0 0.1 0.1 0 0.2 0 0.1-0.1 0.1-0.1 0.1h-0.2z"/>
		<path class="st129" d="m39.9 33h0.1c0.2 0 0.2 0 0.2 0.2 0 0.1 0 0.1-0.1 0.1h-0.2v-0.1-0.2z"/>
		<path class="st127" d="m39.1 33.2h-0.1c-0.1 0-0.2 0-0.2-0.1s0-0.2 0.2-0.2h0.1c0.1 0.1 0.1 0.2 0 0.3z"/>
		<path class="st127" d="m42.3 33.2v0.3h-0.2c-0.1 0-0.1-0.1-0.1-0.2s0-0.1 0.1-0.1h0.2z"/>
		<path class="st155" d="m40.2 33.6c0 0.1 0 0.2-0.2 0.2-0.1 0-0.2 0-0.2-0.2 0-0.1 0-0.2 0.2-0.2s0.2 0 0.2 0.2z"/>
		<path class="st147" d="m38.9 33.7v-0.1c0-0.1 0.1-0.2 0.2-0.2s0.1 0 0.1 0.1v0.1c-0.1 0.1-0.2 0.1-0.3 0.1z"/>
		<path class="st145" d="m36.7 32.9v-0.1c0-0.2 0.1-0.2 0.2-0.2 0 0 0.1 0 0.1 0.1v0.2h-0.3z"/>
		<path class="st147" d="m38.1 32.9v-0.1c0-0.1 0-0.2 0.2-0.2 0 0 0.1 0 0.1 0.1v0.2h-0.1-0.2z"/>
		<path class="st158" d="m37.4 34.3c-0.3 0-0.3 0-0.3-0.2v-0.1c0.3-0.1 0.4-0.1 0.3 0.3z"/>
		<path class="st129" d="m37.6 34.3v-0.3c0.1-0.1 0.2-0.1 0.3 0v0.2c0 0.1-0.1 0.1-0.3 0.1z"/>
		<path class="st155" d="m40.1 32.3c-0.1 0-0.2-0.1-0.2-0.2s0.1-0.2 0.2-0.1c0.1 0 0.2 0.1 0.2 0.2-0.1 0.1-0.1 0.1-0.2 0.1z"/>
		<path class="st126" d="m39.6 31.6v0.3c-0.3 0-0.3 0-0.2-0.3 0-0.1 0.1-0.1 0.2 0z"/>
		<path class="st145" d="m36.7 32.1h0.2c0 0.1 0.1 0.2 0 0.3-0.1 0-0.2 0.1-0.2 0-0.1-0.1-0.1-0.2 0-0.3z"/>
		<path class="st127" d="m38.1 32.1h0.2c0.1 0 0.1 0.1 0.1 0.1 0 0.2-0.1 0.2-0.3 0.2l-0.1-0.1c0.1 0 0.1-0.1 0.1-0.2z"/>
		<path class="st154" d="m41.5 33.3c0-0.1 0-0.2 0.2-0.2 0.1 0 0.2 0.1 0.1 0.2 0 0.1 0 0.2-0.2 0.2 0 0-0.1-0.1-0.1-0.2z"/>
		<path class="st154" d="m37.3 32.1c0.1 0 0.2 0 0.2 0.1s0 0.2-0.1 0.2-0.2 0-0.2-0.1c-0.1-0.2 0-0.2 0.1-0.2z"/>
		<path class="st154" d="m37.6 32.2c0-0.1 0-0.2 0.2-0.2 0.1 0 0.2 0 0.1 0.2 0 0.1-0.1 0.2-0.2 0.2 0 0-0.1 0-0.1-0.2z"/>
		<path class="st154" d="m37.9 32.7c0 0.1 0 0.2-0.1 0.2s-0.2 0-0.2-0.2c0-0.1 0-0.2 0.1-0.2 0.2 0.1 0.2 0.1 0.2 0.2z"/>
		<path class="st154" d="m37.5 32.7c0 0.1 0 0.1-0.2 0.1-0.1 0-0.1-0.1-0.1-0.2s0.1-0.2 0.2-0.1c0 0.1 0.1 0.1 0.1 0.2z"/>
		<path class="st154" d="m39.6 32.2c0 0.1 0 0.2-0.1 0.2s-0.1 0-0.1-0.1v-0.1c0-0.1 0.1-0.1 0.1-0.1 0-0.1 0.1-0.1 0.1 0.1v0z"/>
		<path class="st159" d="m39.6 32.6c0 0.1 0 0.1-0.1 0.1s-0.1 0-0.1-0.1v-0.1c0-0.1 0.1-0.1 0.1-0.1 0 0.1 0.1 0.1 0.1 0.2z"/>
		<path class="st15" d="m39.6 33.6c0 0.1-0.1 0.2-0.2 0.1-0.1 0-0.1 0-0.1-0.1v-0.1c0-0.1 0-0.2 0.1-0.2 0.2 0.1 0.2 0.1 0.2 0.3z"/>
		<path class="st104" d="m38.7 31.1v0.2c0 0.1 0 0.1-0.1 0.1h-0.2c-0.1-0.1 0-0.2 0-0.2h0.1c0-0.1 0.1-0.1 0.2-0.1zm-0.1 0.1c-0.1 0-0.1-0.1-0.1-0.1-0.1 0-0.1 0-0.1 0.1s0 0.1 0.1 0.1c0 0 0.1 0 0.1-0.1z"/>
		<path class="st132" d="m38.3 33.9c0.1 0 0.2 0.1 0.2 0.2s-0.1 0.2-0.2 0.2-0.2-0.1-0.2-0.2 0.1-0.2 0.2-0.2zm0 0.1c0 0.1-0.1 0.1-0.1 0.1 0 0.1 0 0.1 0.1 0.1s0.1 0 0.1-0.1l-0.1-0.1z"/>
		<path class="st15" d="m39.6 33.1c0 0.1 0 0.2-0.1 0.2s-0.1 0-0.1-0.1 0-0.2 0.1-0.2c0-0.1 0.1 0 0.1 0.1z"/>
		<path class="st122" d="m38.5 31.7s-0.1 0 0 0c-0.1 0-0.1-0.1-0.1-0.1v-0.1h0.2l0.1 0.1s-0.1 0.1-0.2 0.1c0.1 0 0 0 0 0z"/>
		<path class="st160" d="m41.2 33.4c0 0.1 0 0.2-0.1 0.1-0.1 0-0.1-0.1-0.1-0.1 0-0.1 0-0.1 0.1-0.1 0.1-0.1 0.1 0 0.1 0.1z"/>
		<path class="st109" d="m41.1 33c-0.1-0.2-0.1-0.2 0-0.3 0.1 0.3 0.1 0.3 0 0.3z"/>
		<path class="st161" d="m36.3 32v-0.3c0.1-0.1 0.2 0 0.3 0-0.1 0-0.1 0.1-0.2 0.1 0 0 0 0.1-0.1 0.2z"/>
		<path class="st122" d="m41.1 32.6v0c-0.1-0.1-0.1-0.2 0-0.3 0.1 0 0.1 0.1 0 0.3z"/>
		<path class="st162" d="m40.1 31.6c-0.1 0.1-0.2 0.1-0.3 0 0.1-0.1 0.1-0.1 0.3 0z"/>
		<path class="st85" d="m36.4 32.9c-0.1-0.1-0.1-0.2-0.1-0.3l0.1 0.1v0.2z"/>
		<path class="st114" d="m38.7 32.6v0.1c-0.1 0-0.1-0.1 0-0.1z"/>
		<path class="st85" d="m36.4 32.5c-0.1-0.1-0.1-0.2-0.1-0.3l0.1 0.1v0.2z"/>
		<path class="st163" d="m38.7 32.1v0.1c-0.1 0 0-0.1 0-0.1z"/>
		<path class="st164" d="m38.7 33.1s-0.1 0 0 0c-0.1 0-0.1 0 0 0-0.1-0.1 0-0.1 0 0v0z"/>
		<path class="st88" d="m38.7 33.6v-0.1 0.1z"/>
		<path class="st83" d="m39.9 33.9v0.3-0.3z"/>
		<path class="st165" d="m49.8 33.6v-0.2l0.1-0.1h0.3c0.1 0 0.1 0.1 0.1 0.1v0.6c-0.1 0.1-0.3 0.1-0.4 0.1s-0.1-0.1-0.1-0.2v-0.3z"/>
		<path class="st153" d="m35.3 33.2h0.3v0.2c0 0.1 0 0.2-0.2 0.2-0.1 0-0.2 0-0.2-0.1 0.1-0.2 0.1-0.2 0.1-0.3z"/>
		<path class="st126" d="m35.4 32.7h0.3c0.1 0.1 0.1 0.2 0 0.3-0.1 0-0.2 0.1-0.3 0s-0.1-0.2 0-0.3z"/>
		<path class="st126" d="m35.4 32.5v-0.1c0-0.2 0.1-0.2 0.2-0.2s0.1 0 0.1 0.1c0 0.2 0 0.2-0.2 0.2-0.1 0.1-0.1 0.1-0.1 0z"/>
		<path class="st146" d="m35.4 33.7c0.1 0 0.2-0.1 0.3 0v0.2c-0.1 0.1-0.2 0.1-0.3 0s-0.1-0.2 0-0.2z"/>
		<path class="st155" d="m34.9 33.5v-0.2c0-0.1 0-0.1 0.1-0.1h0.2v0.2h-0.1c-0.1 0.1-0.1 0.1-0.2 0.1z"/>
		<path class="st129" d="m34.9 32.5v-0.1c0-0.1 0.1-0.2 0.2-0.1v0.1c0.1 0.1 0 0.2-0.2 0.1v0z"/>
		<path class="st145" d="m35.4 34.6c0.3 0 0.3 0 0.3 0.3h-0.2c-0.2-0.1-0.2-0.2-0.1-0.3z"/>
		<path class="st156" d="m34.9 33.6h0.2v0.1c0 0.2 0 0.3-0.3 0.2 0 0 0-0.1 0.1-0.3z"/>
		<path class="st129" d="m34.9 32.7h0.3v0.2c0 0.1-0.1 0.1-0.2 0.1s-0.1 0-0.1-0.1v-0.2z"/>
		<path class="st145" d="m35.6 34.1c0.1 0.3 0 0.3-0.2 0.3-0.1-0.1-0.1-0.2 0-0.3h0.2z"/>
		<path class="st122" d="m35.9 31.6h0.2c0.1 0.1 0.1 0.2 0 0.3-0.1 0-0.2-0.1-0.3-0.2 0 0.1 0.1 0 0.1-0.1z"/>
		<path class="st154" d="m35.2 34.3c0 0.1-0.1 0.2-0.2 0.1-0.1 0-0.1-0.1-0.1-0.2s0-0.1 0.2-0.1c0 0 0.1 0.1 0.1 0.2z"/>
		<path class="st154" d="m35.2 34.7c0 0.1 0 0.2-0.1 0.2s-0.2 0-0.2-0.2c0-0.1 0-0.2 0.1-0.2 0.1 0.1 0.2 0.1 0.2 0.2z"/>
		<path class="st36" d="m36.1 32.9h-0.2v-0.2c0-0.1 0-0.2 0.1-0.1 0.1 0 0.1 0.1 0.1 0.2 0.1 0 0 0.1 0 0.1z"/>
		<path class="st153" d="m36.2 32.1c0 0.1 0.1 0.3-0.1 0.4-0.1 0-0.1-0.1-0.1-0.1v-0.2c0-0.1 0.1-0.1 0.2-0.1z"/>
		<path class="st38" d="m36.3 31v-0.1c0-0.1 0-0.1 0.2-0.1 0.1 0 0.2 0 0.2 0.2v0.2c-0.2-0.1-0.3-0.1-0.4-0.2z"/>
		<path class="st38" d="m36.6 31.2c0.1 0.1 0.1 0.2 0 0.3s-0.2 0-0.3 0v-0.1-0.2c0.1-0.1 0.2 0 0.3 0z"/>
		<path class="st145" d="m36.3 30.6v-0.3h0.1c0.2 0 0.2 0 0.2 0.2v0.1h-0.3z"/>
		<path class="st128" d="m36.2 31h-0.1-0.1v-0.1-0.2h0.2c0.1 0 0.1 0 0.1 0.1-0.1 0.1-0.1 0.1-0.1 0.2z"/>
		<path class="st158" d="m35.9 31.2h0.2v0.1 0.2c-0.1 0.1-0.2 0-0.2 0v-0.1-0.2z"/>
		<path class="st154" d="m35.9 30.5v-0.2c0.1-0.1 0.2 0 0.3 0v0.2c-0.2 0.1-0.2 0.1-0.3 0z"/>
		<path class="st121" d="m45.4 34.1v-0.9-0.2h0.1 0.1v0.1 0.7c0 0.3 0 0.3-0.2 0.3z"/>
		<path class="st141" d="m46 33.5v0.4s0 0.1-0.1 0.1l-0.1-0.1v-0.1-0.6-0.1s0-0.1 0.1-0.1l0.1 0.1v0.2c-0.1 0.1-0.1 0.2 0 0.2-0.1 0 0 0 0 0z"/>
		<path class="st140" d="m46.1 33.5v-0.2-0.1c0-0.1 0-0.1 0.1-0.1 0 0 0.1 0 0.1 0.1v0.1 0.6 0.1c0 0.1 0 0.1-0.1 0.1s-0.1-0.1-0.1-0.1v-0.1-0.4z"/>
		<path class="st141" d="m45 34.1v-0.8-0.2h0.1l0.1 0.1v0.1 0.7s-0.1 0.1-0.2 0.1z"/>
		<path class="st140" d="m44.8 34.1c-0.1 0-0.2-0.1-0.2-0.2v-0.8s0-0.1 0.1-0.1c0 0 0.1 0 0.1 0.1v0.1 0.2 0.7z"/>
		<path class="st141" d="m44.4 34.1c-0.1 0-0.2-0.1-0.2-0.2v-0.8s0-0.1 0.1-0.1c0 0 0.1 0 0.1 0.1v0.1 0.2 0.7z"/>
		<path class="st141" d="m43.5 34.1v-0.8-0.2h0.1l0.1 0.1v0.1 0.7c-0.1 0-0.1 0.1-0.2 0.1z"/>
		<path class="st166" d="m50.5 30.9l0.2 0.2c0.1 0.1 0.1 0.2 0.2 0.3l-0.2 0.2c-0.1 0.1-0.2 0.2-0.2 0.3l-0.2-0.2c-0.4 0.4-0.8 0.8-1.3 1.1v-0.3-1.1-0.1c0-0.2 0.1-0.3 0.3-0.3h0.6c0.1 0 0.2 0 0.3-0.1 0.1 0 0.1 0 0.1-0.1 0.1 0.2 0.2 0.1 0.2 0.1z"/>
		<path class="st123" d="m49.8 33.4v0.2c-0.1-0.1-0.1-0.1 0-0.2z"/>
		<path class="st100" d="m26.6 32.6v0.6 0.6 0.2c0 0.1-0.1 0.2-0.2 0.2h-0.4c-0.1 0-0.2-0.1-0.2-0.2v-0.4-0.2-0.6c0.1-0.3 0.1-0.3 0.5-0.3 0.1 0 0.2 0.1 0.3 0.1z"/>
		<path class="st118" d="m23.6 33.7c-0.2 0.1-0.4 0.1-0.5 0-0.1 0-0.2-0.1-0.2-0.2v-0.9c0-0.2 0.3-0.4 0.4-0.4h0.1c0.2 0.1 0.4 0.2 0.4 0.5v0.7c0 0.2 0 0.2-0.2 0.3v-0.4-0.2c0-0.1-0.1-0.2-0.2-0.2s-0.2 0.1-0.2 0.2v0.4c0 0.1 0.1 0.2 0.2 0.2h0.2z"/>
		<path class="st118" d="m23.1 35.8c-0.2 0-0.2-0.1-0.2-0.2v-0.8c0-0.2 0.1-0.4 0.4-0.5h0.1c0.2 0 0.4 0.2 0.4 0.5v0.6 0.2c0 0.2 0 0.2-0.2 0.2v-0.4-0.2c0-0.1-0.1-0.1-0.2-0.1s-0.2 0.1-0.2 0.1v0.2c-0.1 0.1-0.1 0.3-0.1 0.4z"/>
		<path class="st149" d="m23.1 35.8v-0.4-0.2c0-0.1 0.1-0.1 0.2-0.1s0.2 0.1 0.2 0.1v0.2 0.4h-0.4z"/>
		<path class="st121" d="m45.6 31.3v0.7 0.2s-0.1 0-0.1 0.1h-0.1v-0.2-1.6c0-0.2 0.1-0.2 0.1-0.2 0.1 0 0.1 0.1 0.1 0.2v0.8z"/>
		<path class="st71" d="m44.1 31.4v0.7 0.2l-0.1 0.1s-0.1 0-0.1-0.1v-0.2-1.5-0.2h0.1 0.1v0.2 0.8z"/>
		<path class="st140" d="m46.1 31.3v-0.8c0-0.1 0-0.2 0.1-0.1 0.1 0 0.1 0.1 0.1 0.1v0.4 1.3c0 0.1 0 0.2-0.1 0.1-0.1 0-0.1-0.1-0.1-0.1v-0.9z"/>
		<path class="st140" d="m44.8 31.4v0.8c0 0.1 0 0.2-0.1 0.2s-0.1-0.1-0.1-0.1v-0.3-1.3c0-0.2 0-0.2 0.1-0.2s0.1 0.1 0.1 0.2v0.7z"/>
		<path class="st140" d="m43.6 31.3v0.7 0.2s0 0.1-0.1 0.1c0 0-0.1 0-0.1-0.1v-0.1-1.4-0.3 0.2c0.2 0.2 0.2 0.5 0.2 0.7z"/>
		<path class="st141" d="m45.9 31.4v0.8c0 0.1 0 0.2-0.1 0.1-0.1 0-0.1-0.1-0.1-0.1v-0.5-1.1-0.2h0.1 0.1v0.2 0.8z"/>
		<path class="st141" d="m44.4 31.4v0.8c0 0.1 0 0.2-0.1 0.1-0.1 0-0.1-0.1-0.1-0.1v-0.5-1.1-0.2h0.1 0.1v0.2 0.8z"/>
		<path class="st140" d="m45.2 31.4v0.7 0.2l-0.1 0.1-0.1-0.1v-0.1-1.6-0.1s0-0.1 0.1-0.1c0 0 0.1 0 0.1 0.1v0.9z"/>
		<path class="st82" d="m26.6 31.9v-0.6h1.6 0.7c-0.1 0.1-0.2 0.1-0.3 0.1h-1.5-0.2c-0.1 0-0.2 0.1-0.2 0.2-0.1 0.1-0.1 0.2-0.1 0.3z"/>
		<path class="st137" d="m26 29.9c0-0.1 0-0.1 0.1-0.2h0.5v0.5c0-0.1-0.1-0.2-0.1-0.4-0.1 0-0.1 0-0.2 0.1v0.3h-0.1v-0.3h-0.2z"/>
		<path class="st167" d="m26.3 30.2v-0.3c0-0.1 0.1-0.1 0.2-0.1v0.2c-0.1 0.2-0.2 0.2-0.2 0.2z"/>
		<path class="st91" d="m26 29.9c0.1 0 0.2 0 0.2 0.1v0.3c-0.1 0-0.2 0-0.2-0.2v-0.2z"/>
		<path class="st112" d="m16.7 30.7h4.2c0 0.2-0.1 0.2-0.2 0.2h-0.2-3.3-0.2c-0.2 0-0.3 0-0.3-0.2z"/>
		<path class="st151" d="m15.7 31.3v0.1c0 0.2-0.2 0.3-0.4 0.2l-0.1-0.1v-0.4c0-0.1 0.1-0.2 0.2-0.2s0.2 0.1 0.2 0.2l0.1 0.2z"/>
		<path class="st149" d="m16.3 31.3v0.2c0 0.1-0.1 0.2-0.2 0.2s-0.2-0.1-0.2-0.2v-0.3s0-0.1 0.1-0.1c0.1-0.1 0.2-0.1 0.3 0v0.2z"/>
		<path class="st116" d="m21.3 31l-0.2 0.2c0.1-0.1 0.1-0.2 0.2-0.2z"/>
		<path class="st116" d="m21.5 31h-0.1 0.1z"/>
		<path class="st116" d="m22.1 31h-0.1 0.1z"/>
		<path class="st159" d="m45.7 22.8c0 0.5-0.4 0.8-0.8 0.9-0.5 0-0.9-0.4-0.9-0.9s0.4-0.9 0.9-0.9c0.4 0.1 0.8 0.5 0.8 0.9zm-0.6-0.4l-0.4 0.4c0 0.1 0.1 0.1 0.1 0.1s0 0.1 0.1 0.1v-0.3c0.1 0 0.2-0.1 0.2-0.3zm0.3 0.1c0.1 0 0.1 0 0 0 0.1 0 0.1 0 0 0 0.1 0 0 0 0 0zm-0.8 0.9c-0.1 0-0.1 0 0 0-0.1 0-0.1 0 0 0-0.1 0-0.1 0 0 0-0.1 0-0.1 0 0 0zm-0.3-0.2v0 0c-0.1-0.1 0 0 0 0zm1.3-0.4c-0.1 0-0.1 0 0 0-0.1 0-0.1 0.1 0 0-0.1 0.1 0 0 0 0zm-1.3-0.3zm0.6-0.3v0 0 0zm0.3 1.2zm-0.7-1.1c0.1 0 0.1 0 0 0 0.1-0.1 0-0.1 0 0v0 0zm-0.3 0.5zm1-0.6v0 0zm0.2 1z"/>
		<path class="st120" d="m45.4 28.7v-0.4-0.1c0-0.4 0-0.5 0.1-0.5s0.1 0.1 0.1 0.5v1 0.2 0.1c0 0.1 0 0.2-0.1 0.3-0.1 0-0.1-0.1-0.1-0.3v-0.1-0.7z"/>
		<path class="st120" d="m44.1 28.7v0.7 0.2c0 0.1 0 0.1-0.1 0.1s-0.1 0-0.1-0.1v-0.1-1.6c0-0.2 0-0.2 0.1-0.2s0.1 0.1 0.1 0.2v0.8z"/>
		<path class="st141" d="m44.2 28.7v-0.8c0-0.1 0-0.2 0.1-0.1 0.1 0 0.1 0.1 0.1 0.1v0.3 1.3c0 0.2 0 0.2-0.1 0.2s-0.1-0.1-0.1-0.2v-0.8z"/>
		<path class="st140" d="m44.8 28.7v0.9c0 0.1 0 0.1-0.1 0.1 0 0-0.1 0-0.1-0.1v-1.2-0.5c0-0.1 0.1-0.2 0.1-0.1 0.1 0 0.1 0.1 0.1 0.1v0.8z"/>
		<path class="st140" d="m45.2 28.7v0.9c0 0.1 0 0.2-0.1 0.2s-0.1-0.1-0.1-0.1v-0.3-1.3c0-0.2 0-0.2 0.1-0.2s0.1 0.1 0.1 0.2v0.6z"/>
		<path class="st141" d="m45.9 28.7v0.7 0.2s0 0.1-0.1 0.1c0 0-0.1 0-0.1-0.1v-0.2-1.5-0.1s0-0.1 0.1-0.1 0.1 0 0.1 0.1v0.3 0.6z"/>
		<path class="st149" d="m19 33.6v0c0 0.3-0.2 0.3-0.3 0.3l-0.1-0.1v-0.3c0-0.1 0.1-0.2 0.2-0.2s0.2 0.1 0.2 0.2v0.1z"/>
		<path class="st15" d="m38.6 31.2c-0.1 0-0.1 0.1-0.1 0.1-0.1 0-0.1 0-0.1-0.1s0-0.1 0.1-0.1 0.1 0.1 0.1 0.1z"/>
		<path class="st15" d="m38.3 34c0 0.1 0.1 0.1 0.1 0.1 0 0.1 0 0.1-0.1 0.1s-0.1 0-0.1-0.1c0 0 0-0.1 0.1-0.1z"/>
		<path class="st149" d="m23.6 33.7h-0.3c-0.1 0-0.2-0.1-0.2-0.2v-0.4c0-0.1 0.1-0.2 0.2-0.2s0.2 0.1 0.2 0.2v0.2c0.1 0.2 0.1 0.3 0.1 0.4z"/>
		<path class="st91" d="m45.1 22.4c0 0.1-0.1 0.2-0.1 0.3v0.3c-0.1 0-0.1-0.1-0.1-0.1l-0.1-0.1c0.1-0.1 0.2-0.2 0.3-0.4z"/>
		<path class="st168" d="m45.4 22.5s0.1 0 0 0c0.1 0 0.1 0 0 0 0.1 0 0.1 0 0 0z"/>
		<path class="st112" d="m44.6 23.4c-0.1 0-0.1 0 0 0-0.1 0-0.1 0 0 0-0.1 0-0.1 0 0 0-0.1 0-0.1 0 0 0z"/>
		<path class="st169" d="m44.3 23.2s-0.1-0.1 0 0v0 0z"/>
		<path class="st170" d="m45.6 22.8s-0.1 0.1 0 0c-0.1 0.1-0.1 0 0 0-0.1 0-0.1 0 0 0z"/>
		<path class="st171" d="m44.3 22.5z"/>
		<path class="st168" d="m44.9 22.2v0 0 0z"/>
		<path class="st86" d="m45.2 23.4z"/>
		<path class="st86" d="m44.5 22.3v0 0c0-0.1 0.1-0.1 0 0 0.1 0 0.1 0 0 0z"/>
		<path class="st83" d="m44.2 22.8z"/>
		<path class="st172" d="m45.2 22.2v0 0z"/>
		<path class="st173" d="m45.4 23.2z"/>
		<path class="st119" d="m9.8 36.2c0.1 0.1 0.2 0.1 0.3 0.1h3.2 0.2c0.4-0.1 0.8-0.1 1.2 0h0.3 0.4c0.4 0 0.8 0.2 1.3 0.3h1.9 5.1 0.3c0.1 0 0.2-0.1 0.2-0.1 0-0.1 0 0.3-0.1 0.2s-0.3 0.1-0.4 0c-0.1 0-0.2-0.1-0.2 0-0.2 0.1-0.3-0.2-0.5-0.3h-0.1c-0.1 0.1-0.3 0-0.4 0-0.2 0-0.3-0.1-0.5-0.1s-0.4-0.1-0.5-0.2-0.1-0.1-0.2-0.1-0.1 0-0.2-0.1h1.6 0.1 1.3c0.1 0 0.2 0 0.2-0.1v-0.1h0.1c0 0.1 0 0.1 0.1 0.1h0.5 0.7c0.3 0.1 0.6 0 0.9 0h0.2 0.5 3.4 0.8c-0.2 0.1-0.5 0.3-0.7 0.4s-0.4 0.2-0.7 0.3c-0.1 0.1-0.2-0.3-0.2-0.2s0 0.2-0.1 0.3c-0.4 0.1-0.8 0.1-1.2 0.1-6.4 0.1-12.8 0.1-19.3 0.1-0.1 0-0.4 0-0.5-0.1 0.1 0 0.1-0.1 0.2-0.1 0.1-0.1 0.3-0.1 0.4-0.2 0.1 0 0.1-0.1 0.2-0.2-0.2-0.2 0.1 0 0.2 0z"/>
		<path class="st115" d="m38.5 35.7c0.6-0.3 1.2-0.5 1.8-0.8 0.1 0 0.1 0 0.2-0.1 0.1 0.1 0.1 0.1 0.1 0.2 0.2 0.6 0.3 1.2 0.5 1.7h-3.2c0.1 0 0.2 0 0.3-0.1 0.2 0 0.2-0.1 0.2-0.2v-0.4s0-0.2 0.1-0.3z"/>
		<path class="st115" d="m31.4 35.9l0.6-0.3c0.1 0 0.2-0.1 0.3-0.1s0.2 0.2 0.2 0.3c0.1 0.5 0.2 1 0.3 1.4h-0.7-0.2c-0.7 0-1.5-0.4-2.2-0.4 0-0.1 0.1-0.2 0.1-0.3s0.1 0.2 0.2 0.2c0.2-0.1 0.5-0.2 0.7-0.3 0.3-0.3 0.5-0.4 0.7-0.5z"/>
		<path class="st90" d="m38.5 35.7c-0.1 0.1-0.1 0.3-0.1 0.4v0.4c0 0.2 0 0.2-0.2 0.2-0.1 0-0.2 0-0.3 0.1h-0.7l-0.1-0.1c-0.3-0.3-0.6-0.7-0.9-1l-0.1-0.1c0.2-0.2 0.5-0.3 0.7-0.5 0.2-0.1 0.4-0.1 0.5 0 0.2 0.2 0.5 0.3 0.7 0.5 0.3 0.1 0.4 0.1 0.5 0.1z"/>
		<path class="st90" d="m32.9 37.2c-0.1-0.5-0.2-1-0.3-1.4 0-0.1-0.1-0.2-0.2-0.3 0.1-0.1 0.1 0 0.2 0 0.2 0.1 0.3 0.1 0.5 0.2 0.1 0 0.2 0.1 0.3 0.1 0.4 0.2 0.8 0.3 1.2 0.4v0.2c0.1 0.2 0.2 0.4 0.3 0.7-0.1 0-0.3 0-0.4 0.1-0.4 0-0.8 0.1-1.1 0.1h-0.4l-0.1-0.1z"/>
		<path class="st115" d="m34.9 37c-0.1-0.2-0.2-0.4-0.3-0.7 0-0.1-0.1-0.1 0-0.2 0.4-0.1 0.8-0.3 1.2-0.4 0.1 0 0.2-0.1 0.4-0.1l0.1 0.1c0.3 0.3 0.6 0.7 0.9 1l0.1 0.1c-0.4 0-0.7 0.1-1.1 0.1s-0.9 0.1-1.3 0.1z"/>
		<path class="st115" d="m43.1 36.8l-0.3-0.6c-0.1-0.1-0.2-0.3-0.2-0.4v-0.2l1.2 0.6c0.2 0.1 0.2 0.2 0.2 0.4v0.2c-0.1 0.1-0.2 0.1-0.3 0.1-0.2-0.1-0.4-0.1-0.6-0.1z"/>
	</g>
	<ellipse class="st1" cx="32.5" cy="56.2" rx="18.7" ry="1.3"/>
				<rect class="st2" x="42.4" y="40.1" width=".4" height="3.2"/>
				<rect class="st2" x="39.3" y="40.1" width=".4" height="3.2"/>
		<path class="st20" d="m44.1 43.1h-6c-0.1 0-0.2 0.1-0.2 0.2h6.3c0-0.1 0-0.2-0.1-0.2z"/>
			<path class="st2" d="m44.4 43.3h-6.6c-0.9 0-1.6 0.7-1.6 1.6v9.1c0 0.9 0.7 1.6 1.6 1.6h6.6c0.9 0 1.6-0.7 1.6-1.6v-9.2c-0.1-0.8-0.7-1.5-1.6-1.5z"/>
			<path class="st20" d="m37.8 44.8c-0.2 0-0.4 0.2-0.4 0.4v8.4c0 0.2 0.2 0.4 0.4 0.4s0.4-0.2 0.4-0.4v-8.4c0-0.2-0.2-0.4-0.4-0.4z"/>
			<path class="st20" d="m40 44.8c-0.2 0-0.4 0.2-0.4 0.4v8.4c0 0.2 0.2 0.4 0.4 0.4s0.4-0.2 0.4-0.4v-8.4c0-0.2-0.2-0.4-0.4-0.4z"/>
			<path class="st20" d="m42.2 44.8c-0.2 0-0.4 0.2-0.4 0.4v8.4c0 0.2 0.2 0.4 0.4 0.4s0.4-0.2 0.4-0.4v-8.4c0-0.2-0.2-0.4-0.4-0.4z"/>
			<path class="st20" d="m44.4 44.8c-0.2 0-0.4 0.2-0.4 0.4v8.4c0 0.2 0.2 0.4 0.4 0.4s0.4-0.2 0.4-0.4v-8.4c0-0.2-0.2-0.4-0.4-0.4z"/>
			<path class="st174" d="m44.5 43.8h-6.9c-0.1 0-0.2 0.1-0.2 0.2s0.1 0.2 0.2 0.2h6.9c0.1 0 0.2-0.1 0.2-0.2 0.1-0.1 0-0.2-0.2-0.2z"/>
			<path class="st175" d="m37.5 53.6v-8.4c0-0.2 0.2-0.4 0.3-0.4h-0.1c-0.2 0-0.4 0.2-0.4 0.4v8.4c0 0.2 0.2 0.4 0.4 0.4h0.1c-0.2 0-0.3-0.2-0.3-0.4z"/>
			<path class="st15" d="m38 53.6v-8.4c0-0.2-0.2-0.4-0.3-0.4h0.1c0.2 0 0.4 0.2 0.4 0.4v8.4c0 0.2-0.2 0.4-0.4 0.4h-0.1c0.2 0 0.3-0.2 0.3-0.4z"/>
			<path class="st175" d="m39.7 53.6v-8.4c0-0.2 0.2-0.4 0.3-0.4h-0.1c-0.2 0-0.4 0.2-0.4 0.4v8.4c0 0.2 0.2 0.4 0.4 0.4h0.1c-0.1 0-0.3-0.2-0.3-0.4z"/>
			<path class="st15" d="m40.2 53.6v-8.4c0-0.2-0.2-0.4-0.3-0.4h0.1c0.2 0 0.4 0.2 0.4 0.4v8.4c0 0.2-0.2 0.4-0.4 0.4h-0.1c0.2 0 0.3-0.2 0.3-0.4z"/>
			<path class="st175" d="m41.9 53.6v-8.4c0-0.2 0.2-0.4 0.3-0.4h-0.1c-0.2 0-0.4 0.2-0.4 0.4v8.4c0 0.2 0.2 0.4 0.4 0.4h0.1c-0.1 0-0.3-0.2-0.3-0.4z"/>
			<path class="st15" d="m42.4 53.6v-8.4c0-0.2-0.2-0.4-0.3-0.4h0.1c0.2 0 0.4 0.2 0.4 0.4v8.4c0 0.2-0.2 0.4-0.4 0.4h-0.1c0.2 0 0.3-0.2 0.3-0.4z"/>
			<path class="st175" d="m44.1 53.6v-8.4c0-0.2 0.2-0.4 0.3-0.4h-0.1c-0.2 0-0.4 0.2-0.4 0.4v8.4c0 0.2 0.2 0.4 0.4 0.4h0.1c-0.1 0-0.3-0.2-0.3-0.4z"/>
			<path class="st15" d="m44.7 53.6v-8.4c0-0.2-0.2-0.4-0.3-0.4h0.1c0.2 0 0.4 0.2 0.4 0.4v8.4c0 0.2-0.2 0.4-0.4 0.4h-0.1c0.1 0 0.3-0.2 0.3-0.4z"/>
			<path class="st176" d="m38.3 55.6v0.3c0 0.1 0.1 0.2 0.2 0.2h0.5c0.1 0 0.2-0.1 0.2-0.2v-0.3h-0.9z"/>
			<path class="st20" d="m43.8 55.6v0.3c0 0.1-0.1 0.2-0.2 0.2h-0.5c-0.1 0-0.2-0.1-0.2-0.2v-0.3h0.9z"/>
		<path class="st20" d="m42.8 39.8h-3.5c-0.1 0-0.2 0.1-0.2 0.2s0.1 0.2 0.2 0.2h3.5c0.1 0 0.2-0.1 0.2-0.2s-0.1-0.2-0.2-0.2z"/>
		<path class="st2" d="m37.8 51.2h-3.2c-0.1 0-0.2 0.1-0.2 0.2v4.5c0 0.1 0.1 0.2 0.2 0.2h3.2c0.1 0 0.2-0.1 0.2-0.2v-4.5c0-0.1-0.1-0.2-0.2-0.2z"/>
		<rect class="st134" x="34.1" y="51.3" width="3.7" height="4.7"/>
		<path class="st175" d="m37.4 51.2h-3.2c-0.1 0-0.2 0.1-0.2 0.2v4.5c0 0.1 0.1 0.2 0.2 0.2h3.2c0.1 0 0.2-0.1 0.2-0.2v-4.5c0-0.1-0.1-0.2-0.2-0.2z"/>
			<path class="st134" d="m35.8 52.1c-0.7 0-1.2 0.5-1.2 1.2s0.5 1.2 1.2 1.2 1.2-0.5 1.2-1.2-0.6-1.2-1.2-1.2zm-1 1.3h0.3c0 0.1 0 0.3 0.1 0.4h-0.3c-0.1-0.2-0.1-0.3-0.1-0.4zm1.1-0.8v-0.4c0.1 0 0.2 0.2 0.3 0.4h-0.3zm0.4 0.2c0 0.1 0.1 0.2 0.1 0.4h-0.4v-0.4h0.3zm-0.6-0.5v0.4h-0.3c0.1-0.2 0.2-0.4 0.3-0.4zm0 0.5v0.4h-0.4c0-0.1 0-0.3 0.1-0.4h0.3zm-0.6 0.4h-0.3c0-0.1 0-0.3 0.1-0.4h0.3c-0.1 0.1-0.1 0.3-0.1 0.4zm0.2 0.2h0.4v0.4h-0.4v-0.4zm0.4 0.5v0.4c-0.1 0-0.2-0.2-0.3-0.4h0.3zm0.2 0.4v-0.4h0.3c-0.1 0.2-0.2 0.4-0.3 0.4zm0-0.5v-0.4h0.4c0 0.1 0 0.3-0.1 0.4h-0.3zm0.6-0.4h0.3c0 0.1 0 0.3-0.1 0.4h-0.3c0.1-0.2 0.1-0.3 0.1-0.4zm0-0.2c0-0.1 0-0.3-0.1-0.4h0.3c0.1 0.1 0.1 0.2 0.1 0.4h-0.3zm0.1-0.6h-0.2c0-0.1-0.1-0.2-0.1-0.3l0.3 0.3zm-1.3-0.2c-0.1 0.1-0.1 0.2-0.1 0.3h-0.2c0.1-0.2 0.2-0.3 0.3-0.3zm-0.3 1.5h0.2c0 0.1 0.1 0.2 0.1 0.3l-0.3-0.3zm1.2 0.3c0.1-0.1 0.1-0.2 0.1-0.3h0.2c0 0.1-0.1 0.2-0.3 0.3z"/>
			<rect class="st134" x="34.6" y="54.9" width="2.4" height=".3"/>
			<path class="st112" d="m39.5 52.8h-0.5c-0.1 0-0.1-0.1-0.1-0.1 0-0.1 0.1-0.1 0.1-0.1h0.5c0.1 0 0.1 0.1 0.1 0.1 0.1 0 0 0.1-0.1 0.1zm-0.5-0.3v0c-0.1 0.1-0.1 0.2 0 0.2h0.5c0.1 0 0.1 0 0.1-0.1s0-0.1-0.1-0.1h-0.5z"/>
		<path class="st177" d="m39.5 52.7h-0.4v0.4h0.4v-0.4z"/>
		<circle class="st20" cx="39.3" cy="54.8" r="1.9"/>
			<ellipse class="st129" transform="matrix(.2501 -.9682 .9682 .2501 -23.607 79.135)" cx="39.3" cy="54.8" rx="1.6" ry="1.6"/>
		<circle class="st112" cx="39.3" cy="56.2" r=".1"/>
		<circle class="st112" cx="37.9" cy="54.8" r=".1"/>
		<circle class="st112" cx="40.7" cy="54.8" r=".1"/>
			<polygon class="st20" points="40.1 54 39.1 54.6 39.5 55"/>
			<polygon class="st2" points="38.4 55.6 39.5 55 39.1 54.6"/>
		<path class="st177" d="m39.7 53.3c-0.9-0.2-1.7 0.3-1.9 1.1-0.1 0.3-0.1 0.6 0 0.9-0.1-0.2-0.1-0.5 0-0.8 0.2-0.8 1.1-1.3 1.9-1.1s1.3 1.1 1.1 1.9v-0.1c0.2-0.8-0.3-1.7-1.1-1.9z"/>
		<circle class="st112" cx="39.3" cy="53.4" r=".1"/>
		<path class="st178" d="m39.4 52.7h-0.3 0.3z"/>
		<path class="st175" d="m16.9 54.2v1.9c0 0.2 0.1 0.3 0.3 0.3h4.6c0.2 0 0.3-0.1 0.3-0.3v-1.9h-5.2z"/>
		<path class="st134" d="m21.7 53.3h-4.6c-0.2 0-0.3 0.1-0.3 0.3v0.6h5.2v-0.6c0-0.2-0.1-0.3-0.3-0.3z"/>
		<circle class="st15" cx="17.4" cy="53.7" r=".1"/>
		<circle class="st177" cx="19.4" cy="54.9" r="1.3"/>
		<circle class="st88" cx="19.4" cy="54.9" r=".9"/>
		<circle class="st175" cx="19.4" cy="54.9" r=".9"/>
		<circle class="st88" cx="19.4" cy="54.9" r=".5"/>
		<circle class="st179" cx="19.1" cy="54.6" r=".3"/>
		<rect class="st129" x="17.2" y="56" width=".7" height=".1"/>
		<rect class="st129" x="17.2" y="55.7" width=".4" height=".1"/>
		<circle class="st177" cx="20.6" cy="56" r=".1"/>
			<rect class="st112" x="18" y="53.2" width=".5" height=".2"/>
			<path class="st134" d="m18.5 53h-0.6s-0.1 0-0.1 0.1c0 0 0 0.1 0.1 0.1h0.6s0.1-0.1 0-0.2c0.1 0 0 0 0 0z"/>
		<path class="st177" d="m17.7 53.2h-0.3s-0.1 0-0.1 0.1l0.4-0.1v0z"/>
		<rect class="st177" x="20.6" y="53.5" width="1.1" height=".4"/>
		<rect class="st112" x="20.6" y="53.6" width="1" height=".3"/>
		<rect class="st178" x="20.6" y="53.6" width=".5" height=".3"/>
		<path class="st180" d="m31.8 54.6s-0.9 0.5-1.8 0.6-1.4 0.2-1.4 0.5c-0.1 0.3 0.4 0.5 2 0.4 1.7-0.1 3.4-0.1 3.5-0.2s-0.1-1.6-0.5-1.6-1.8 0.3-1.8 0.3z"/>
		<path class="st181" d="m27.9 28.6s-0.7 2.6 1 7.9 2.4 7.4 2.9 10.2c0.4 2.8 0.4 5.5 0.2 6.3-0.2 0.7-0.4 1.5-0.2 1.6s1.8-0.3 1.8-0.3-0.2-4.5 0-8c0 0 0.1-1.2-0.7-3.5s-1.6-6.9-1.7-7 0-6.1-0.1-6.4c0-0.2-1.5-1.1-1.5-1.1l-1.7 0.3z"/>
		<path class="st14" d="m30 8.3s-0.7-0.1-1.5 1.4-0.5 4.4 0 6 2.7 2.2 2.7 2.2 0.9-1.6 0.7-2.2c-0.5-0.6-1.9-7.4-1.9-7.4z"/>
		<path class="st182" d="m29.2 13.8s0.6 2.7 1.3 3.2 0.9-2.5 0.8-2.6-2.1-0.6-2.1-0.6z"/>
		<path class="st14" d="m29.6 8.8c0-0.1 0.3-0.5 0.3-0.5s0.8-0.8 2.1-0.6 3.2 1.8 3.7 4-1.1 3-1.5 4 0.1 2.2 0.1 2.2-1-0.3-1.6-0.9-1.3-0.4-1.2-1.1-1.9-7.1-1.9-7.1z"/>
		<path class="st9" d="m29.5 17.5c-0.1-0.1-0.4-0.3-0.4-0.3s-0.5-0.1-1 0.5-1.4 3.8-1.6 4.8-0.1 1.4 0.2 1.5 2.6-0.2 2.6-0.2l0.2-6.3z"/>
		<path class="st13" d="m28.9 17.6s-1 1.5-1.2 1.6c-0.1 0.2-1 1.6-1 2.1 0 0.4 1.1 0 1.1 0l1.1-3.7z"/>
		<path class="st13" d="m28.8 23.7s-0.6-0.8-1.2-1.1-1.2 0-1.2 0l0.1-0.3h0.7 1.3l0.8 1.5h-0.5z"/>
		<path class="st180" d="m30.4 17.2h-0.6-0.8s-0.5 1.2-0.9 2c-0.4 0.7-0.5 1-0.4 2.1 0.2 1.1 0.9 1.2 1.3 2.1 0.4 1 0.3 1.4 0.3 1.6s-1.5 3.6-1.5 3.6 2.6 0.8 4.5 1.1c1.9 0.2 2.1 0 2.1 0s-0.8-4.2-0.8-5.2c0-0.9 0.5-3.6 0.5-3.6l0.5-4-1.5-0.1-2.7 0.4z"/>
		<path class="st183" d="m27.8 20.1s0.4 0.5 1.1 0.7c0.8 0.2 3 0.2 3.7-0.1 0.6-0.4 1.5-2.1 1.5-2.1l-0.9 3.3s0.7 0.7 0.7 0.8-0.3 1.7-0.2 2.4 0.7 4.7 0.7 4.7-0.7 0.1-1.3 0.1c0 0 0.1-2.5-0.6-3.7s-2.3-1.5-3.2-1.4c0 0-0.1-0.8-0.2-1.1s-0.5-0.8-1-1.5-0.3-2.1-0.3-2.1z"/>
		<path class="st184" d="m32.4 21.1s-2.7 0.7-3.1 0.7 1.8 0.9 1.8 0.9 1-0.3 1.1-0.5c0-0.1 0.2-1.1 0.2-1.1z"/>
		<path class="st9" d="m34.7 17s0.7-0.2 1.2 0.5c0.6 0.8-1.9 5.3-2.6 6.1-0.6 0.8-0.7 0.8-1.1 0.9-0.4 0-4.3-2.2-4.5-2.2s-0.5 0-0.5 0 0.3-0.9 0.6-0.9 2.4 1.1 3 1.1c0.7 0 0.8-0.2 0.8-0.2s2.4-3.2 3.1-5.3z"/>
		<path class="st9" d="m30.8 14.5v1.8l-0.9 0.9s0.9 0.4 1.8 0.3 1.5-0.6 1.5-0.6l-0.9-1v-1.6l-1.5 0.2z"/>
		<path class="st9" d="m28.1 21.3h-0.2-1.1l-0.3 1h0.7s0.9-0.7 0.9-0.8 0-0.2 0-0.2z"/>
		<path class="st13" d="m31.8 22.1h1.7c0.5 0 0.5 0.7 0.4 0.7-0.1-0.1-2.6-0.4-2.6-0.4s0.3-0.1 0.5-0.3z"/>
		<path class="st13" d="m32.4 21.1s1.3-0.1 1.5 0 0 1.4 0 1.4 0.4-0.7 0.4-1.2c-0.1-0.5-1.6-0.5-1.6-0.5l-0.3 0.3z"/>
		<path class="st185" d="m29.7 30.7s0.1 0.2 0.1 0.9-0.7 2.7-0.9 2.8-0.7-0.3-0.7-0.3l0.7 2.4 1.7-6.1s-0.2 0.8-0.9 0.3z"/>
		<polygon class="st185" points="31.6 37.7 31.2 38.5 30.3 40.8 29.9 39.5 30.7 37.7 31.4 36.7"/>
		<path class="st180" d="m23.9 53.5s0 1.4-0.3 1.8c-0.3 0.3-1.3 0-1.4 0.6-0.1 0.7 1.8 0.6 2.2 0.2s0.5-1.5 1.1-1.8c0.6-0.2 0.9-0.4 0.7-0.8-0.2-0.5 0-1-0.5-0.9-0.5 0-1.8 0.9-1.8 0.9z"/>
		<polygon class="st13" points="30.8 15.9 32.3 15.2 32.3 14.3 30.8 14.7"/>
		<path class="st181" d="m34.4 29.7s0.6 0.9-0.9 3.6-2.8 4.4-2.8 4.4-1.8 3.8-1.9 4c-0.1 0.1 0.4 2-0.5 4.4-0.9 2.3-2.7 5.9-2.6 6.2s0.1 0.6 0 0.8-1.7 0.9-1.8 0.4 2.5-7.9 2.8-9.3c0.3-1.5 1.6-5.9 2.2-7.8s2-6.9 2-6.9l3.5 0.2z"/>
			<path class="st9" d="m29.8 9.7s-0.7 1.1-0.8 2.6c0 0 0 1.1 0.2 1.5s1.3 1.2 1.9 1.3c0.7 0.1 2-1.2 2.2-1.6s0-1.7 0-1.7-1-1.8-3.5-2.1z"/>
			<path class="st14" d="m31.8 11.3s0.8-0.3 0.9-0.3 0-0.2-0.1-0.2-0.8 0.2-0.8 0.5z"/>
			<path class="st14" d="m29.2 11.2h0.9c0.2 0 0.3 0.1 0.3 0.1s-0.1-0.2-0.3-0.3-0.9 0-0.9 0v0.2z"/>
				<path class="st15" d="m29.3 11.9s0.2 0.2 0.5 0.2c0.4 0 0.5-0.3 0.5-0.3s-0.2-0.2-0.3-0.2h-0.5s-0.2 0.1-0.2 0.3z"/>
				<path class="st14" d="m29.3 11.9s0-0.2 0.3-0.3 0.5 0 0.6 0l0.1 0.1s0-0.1-0.2-0.2c-0.2 0-0.8-0.1-0.8 0.4z"/>
				<circle class="st14" cx="29.8" cy="11.8" r=".2"/>
				<path class="st15" d="m31.9 11.8s0.2 0.2 0.5 0.2 0.5-0.3 0.5-0.3-0.2-0.2-0.3-0.2h-0.5s-0.2 0.2-0.2 0.3z"/>
				<path class="st14" d="m31.8 11.8s0.1-0.2 0.3-0.2h0.6l0.1 0.1s0-0.1-0.2-0.2c-0.1-0.1-0.7-0.1-0.8 0.3z"/>
					<ellipse class="st14" transform="matrix(.073513 -.9973 .9973 .073513 18.301 43.225)" cx="32.4" cy="11.8" rx=".2" ry=".2"/>
			<path class="st13" d="m30.7 13.1l0.2 0.1s0.1 0.1 0.3 0.1c0.1 0 0.1-0.1 0.2-0.1s0 0.1 0 0.1-0.1 0.2-0.3 0.2-0.2-0.1-0.2-0.1-0.2-0.2-0.2-0.3z"/>
			<path class="st186" d="m30.4 13.8h0.3s0.6-0.1 0.8 0c0.2 0 0.4 0 0.5 0.1l-0.2 0.1s-0.1 0.3-0.5 0.4-0.5 0-0.6-0.1-0.1-0.3-0.1-0.3l-0.2-0.2z"/>
</svg>
