<svg xmlns="http://www.w3.org/2000/svg" width="17" height="17" viewBox="0 0 17 17">
    <path fill="#22334F" fill-rule="nonzero" d="M8.5 0C3.825 0 0 3.825 0 8.5S3.825 17 8.5 17 17 13.175 17 8.5 13.175 0 8.5 0zm0 16.393C4.159 16.393.607 12.84.607 8.5.607 4.159 4.16.607 8.5.607c4.341 0 7.893 3.552 7.893 7.893 0 4.341-3.552 7.893-7.893 7.893zm2.671-10.11c.274 1.428-.546 2.794-1.942 3.188-.243.061-.425.304-.425.577v.425c0 .407-.608.408-.608 0v-.425c0-.546.365-1.032.88-1.153a2.154 2.154 0 0 0 1.519-2.49 2.074 2.074 0 0 0-1.64-1.639c-1.227-.234-2.58.638-2.58 2.064 0 .408-.607.407-.607 0 0-1.712 1.58-2.986 3.278-2.671a2.73 2.73 0 0 1 2.125 2.125zm-2.064 6.315a.609.609 0 0 1-.607.607.609.609 0 0 1-.607-.607c0-.334.273-.607.607-.607.334 0 .607.273.607.607z"/>
</svg>
