<svg xmlns="http://www.w3.org/2000/svg" width="30" height="30" viewBox="0 0 30 30">
    <g fill="none" fill-rule="evenodd">
        <path d="M0 0h30v30H0z"/>
        <path fill="#22334F" fill-rule="nonzero" d="M26.295 20.302a3.994 3.994 0 0 0 .611-2.124 4.058 4.058 0 0 0-4.054-4.054c-1.706 0-3.154 1.062-3.765 2.574a3.15 3.15 0 0 0-1.19-.45 3.965 3.965 0 0 0 .643-2.188 4.058 4.058 0 0 0-4.055-4.055 4.058 4.058 0 0 0-4.054 4.055c0 .804.225 1.544.644 2.188-.45.064-.837.225-1.191.45a4.033 4.033 0 0 0-3.765-2.574 4.058 4.058 0 0 0-4.054 4.054c0 .773.225 1.48.611 2.124C1.1 20.56-.09 21.975.006 23.616l.193 3.411c.064.998.836 1.802 1.834 1.867 1.351.128 2.703.16 4.086.16 1.352 0 2.735-.064 4.087-.16.032 0 .064 0 .096-.033.032 0 .065 0 .129.033 1.351.128 2.703.16 4.087.16 1.383 0 2.735-.064 4.086-.16.032 0 .064 0 .097-.033.032 0 .064 0 .096.033 1.352.128 2.703.16 4.087.16 1.383 0 2.735-.064 4.086-.16a2.03 2.03 0 0 0 1.834-1.867l.194-3.41a3.243 3.243 0 0 0-2.703-3.315zm-3.419-5.077c1.64 0 3 1.33 3 3 0 1.639-1.33 3-3 3s-3-1.33-3-3 1.361-3 3-3zm-8.357-4.149c1.67 0 3 1.33 3 3s-1.33 3-3 3-3-1.33-3-3c0-1.639 1.33-3 3-3zm-8.463 4.1c1.64 0 3 1.33 3 3 0 1.639-1.33 3-3 3s-3-1.33-3-3 1.33-3 3-3zM2.22 27.898a1.04 1.04 0 0 1-.972-.963l-.188-3.293a2.159 2.159 0 0 1 2.037-2.268l.345-.03a3.99 3.99 0 0 0 2.665 1.024c1.034 0 1.943-.404 2.664-1.025l.345.031a2.159 2.159 0 0 1 2.038 2.268l-.188 3.293c-.032.497-.44.932-.94.963-1.255.093-2.571.155-3.888.155-1.316 0-2.664-.062-3.918-.155zm9.51.081c.22-.283.346-.63.346-1.007l.189-3.338a3.092 3.092 0 0 0-2.606-3.243 3.917 3.917 0 0 0 .596-2.078c0-.19 0-.347-.031-.504a2.228 2.228 0 0 1 1.256-.504l.408-.031c.69.598 1.601.976 2.606.976 1.004 0 1.884-.378 2.606-.976l.408.031c.47.032.91.22 1.256.504-.032.157-.032.346-.032.504 0 .755.22 1.448.597 2.078-1.539.252-2.7 1.637-2.606 3.243l.188 3.338c.032.377.157.724.346 1.007-.91.063-1.821.095-2.763.095s-1.853-.032-2.763-.095zm16.116-4.366l-.189 3.293c-.031.497-.44.932-.943.963a53.093 53.093 0 0 1-3.899.155c-1.32 0-2.641-.062-3.9-.155a1.042 1.042 0 0 1-.974-.963l-.189-3.293a2.161 2.161 0 0 1 2.044-2.268l.346-.03a4.01 4.01 0 0 0 2.673 1.024c1.038 0 1.95-.404 2.673-1.025l.346.031c1.163.062 2.075 1.088 2.012 2.268z"/>
    </g>
</svg>
