<svg xmlns="http://www.w3.org/2000/svg" width="30" height="30" viewBox="0 0 30 30">
    <g fill="none" fill-rule="evenodd">
        <path d="M0 0h30v30H0z"/>
        <g opacity=".9" transform="translate(0 7)">
            <path stroke="#22334F" stroke-linecap="round" stroke-linejoin="round" d="M10.964 8.211l.908-1.856c1.274-.422 2.195-1.645 2.195-3.088 0-1.794-1.421-3.247-3.175-3.247-1.754 0-3.176 1.453-3.176 3.247 0 1.467.953 2.707 2.261 3.109l.987 1.835zM19.932 17.318l-5.82 4.412-6.95-5.194L.163 21.73l.34-8.668 6.585-4.874 7.024 4.412 5.281-4.004z"/>
            <path stroke="#22334F" stroke-linecap="round" stroke-linejoin="round" stroke-width=".75" d="M7.162 9.603v6.054M14.301 13.883v6.054"/>
            <ellipse cx="10.712" cy="12.886" fill="#22334F" fill-rule="nonzero" rx="1" ry="1"/>
            <ellipse cx="10.892" cy="3.233" fill="#22334F" fill-rule="nonzero" rx="1.397" ry="1.428"/>
        </g>
    </g>
</svg>
