<svg xmlns="http://www.w3.org/2000/svg" width="10" height="14" viewBox="0 0 10 14">
    <path fill="#000" fill-rule="nonzero" d="M4.653 5.463v6.528c0 .185.162.347.347.347a.356.356 0 0 0 .347-.347V5.463c1.343-.185 2.384-1.32 2.384-2.708C7.755 1.227 6.505 0 5 0a2.761 2.761 0 0 0-2.755 2.755 2.728 2.728 0 0 0 2.408 2.708zM2.94 2.755c0-1.135.926-2.06 2.06-2.06.139 0 .231.115.231.23A.232.232 0 0 1 5 1.158a1.6 1.6 0 0 0-1.597 1.598.232.232 0 0 1-.232.231.249.249 0 0 1-.231-.231zm7.06 9.63c0 .995-2.5 1.504-5 1.504s-5-.51-5-1.505c0-.88 1.99-1.389 4.167-1.481v.463c-2.43.115-3.704.694-3.704 1.018 0 .37 1.55 1.019 4.514 1.019 2.963 0 4.514-.672 4.514-1.019 0-.324-1.273-.903-3.704-1.018v-.463c2.222.116 4.213.602 4.213 1.481z"/>
</svg>
