<svg xmlns="http://www.w3.org/2000/svg" width="20" height="20" viewBox="0 0 20 20">
    <path fill="#E95431" fill-rule="nonzero" d="M6.485 10a3.436 3.436 0 0 0 3.432 3.432A3.436 3.436 0 0 0 13.349 10a3.436 3.436 0 0 0-3.432-3.432A3.436 3.436 0 0 0 6.485 10zm6.407 0a2.978 2.978 0 0 1-2.975 2.975A2.978 2.978 0 0 1 6.942 10a2.978 2.978 0 0 1 2.975-2.975A2.978 2.978 0 0 1 12.892 10zM10.75 2.033a.459.459 0 0 1 .52-.385c3.652.547 6.497 3.387 7.08 7.065a.458.458 0 1 1-.905.143c-.52-3.282-3.056-5.815-6.31-6.303a.457.457 0 0 1-.385-.52zM20 10.036a.458.458 0 0 1-.458.457h-3.319a.458.458 0 0 1 0-.915h3.32c.252 0 .457.205.457.458zm-1.644 1.31c-.569 3.59-3.35 6.272-7.085 6.834a.458.458 0 0 1-.136-.905c3.332-.502 5.812-2.885 6.317-6.073a.458.458 0 0 1 .904.144zM10.5 16.057v3.485a.458.458 0 0 1-.915 0v-3.485a.458.458 0 0 1 .915 0zm-1.333 1.728a.458.458 0 0 1-.527.376c-3.56-.589-6.23-3.264-6.801-6.814a.457.457 0 1 1 .903-.145c.508 3.155 2.881 5.532 6.048 6.056.249.041.418.277.377.527zm-5.223-7.292H.458a.458.458 0 0 1 0-.915h3.485a.458.458 0 0 1 0 .915zm-2.1-1.779c.58-3.696 3.247-6.462 6.796-7.047a.458.458 0 0 1 .149.903c-3.152.52-5.523 2.987-6.04 6.286a.458.458 0 1 1-.905-.142zm7.658-4.937V.457a.458.458 0 0 1 .915 0v3.32a.458.458 0 0 1-.915 0z"/>
</svg>
