<?xml version="1.0" encoding="utf-8"?>
<!-- Generator: Adobe Illustrator 22.0.1, SVG Export Plug-In . SVG Version: 6.00 Build 0)  -->
<svg version="1.1" id="Layer_1" xmlns="http://www.w3.org/2000/svg" xmlns:xlink="http://www.w3.org/1999/xlink" x="0px" y="0px"
	 viewBox="0 0 560 560" style="enable-background:new 0 0 560 560;" xml:space="preserve">
<style type="text/css">
	.st0{fill:#EBEBEE;}
	.st1{fill:#D1D1D1;}
	.st2{fill:#404041;}
	.st3{fill:#58595B;}
	.st4{fill:#231F20;}
	.st5{fill:#D0D2D3;}
	.st6{fill:#E6E7E8;}
	.st7{fill:#FFFFFF;}
	.st8{fill:#F9EC31;}
	.st9{fill:#00A69C;}
	.st10{fill:#26A9E0;}
	.st11{fill:#594A42;}
	.st12{fill:#474749;}
	.st13{fill:#757678;}
	.st14{fill:#929497;}
	.st15{fill:#C7E9F8;}
	.st16{fill:#DBC624;}
	.st17{fill:#ACAAAD;}
	.st18{fill:#245989;}
	.st19{opacity:0.75;}
	.st20{clip-path:url(#SVGID_2_);}
	.st21{fill:#BCBEC0;}
	.st22{fill:#44352E;}
	.st23{fill:#112F3A;}
	.st24{fill:#6D5A49;}
	.st25{fill:#FFB68D;}
	.st26{fill:url(#XMLID_2_);}
	.st27{fill:url(#XMLID_3_);}
	.st28{fill:#FFC351;}
	.st29{fill:url(#XMLID_4_);}
	.st30{fill:url(#XMLID_5_);}
	.st31{fill:#B5ADA5;}
	.st32{fill:url(#XMLID_6_);}
	.st33{fill:url(#XMLID_7_);}
	.st34{fill:#57585A;}
	.st35{fill:#434344;}
	.st36{fill:#FFBAAE;}
	.st37{opacity:0.75;fill:#D3D1D1;enable-background:new    ;}
	.st38{fill:#EEA855;}
	.st39{fill:#2A2A28;}
	.st40{fill:#C67F0C;}
	.st41{fill:#FEB071;}
	.st42{fill:#E7854D;}
	.st43{fill:#270801;}
	.st44{fill:#451F14;}
	.st45{fill:#585858;}
	.st46{fill:#3F3F3F;}
	.st47{fill:#F9B378;}
</style>
<g id="XMLID_367_">
	<g id="XMLID_847_">
		<path id="XMLID_850_" class="st0" d="M127.8,303.6H71.4c-2.5,0-4.5-2-4.5-4.5v-0.5c0-2.5,2-4.5,4.5-4.5h56.3c2.5,0,4.5,2,4.5,4.5
			v0.5C132.3,301.6,130.3,303.6,127.8,303.6z"/>
		<path id="XMLID_849_" class="st0" d="M236.3,303.6h-62c-2.5,0-4.5-2-4.5-4.5v-0.5c0-2.5,2-4.5,4.5-4.5h62c2.5,0,4.5,2,4.5,4.5v0.5
			C240.8,301.6,238.8,303.6,236.3,303.6z"/>
		<path id="XMLID_848_" class="st0" d="M200.7,313.1H92.6c-2.5,0-4.5-2-4.5-4.5v-0.5c0-2.5,2-4.5,4.5-4.5h108.1c2.5,0,4.5,2,4.5,4.5
			v0.5C205.1,311.1,203.1,313.1,200.7,313.1z"/>
		<g id="XMLID_1154_">
			<rect id="XMLID_842_" x="74.1" y="228.1" class="st1" width="48.3" height="68.4"/>
			<rect id="XMLID_841_" x="182.3" y="231.9" class="st1" width="48.3" height="16.2"/>
			<rect id="XMLID_840_" x="182.3" y="248.1" class="st1" width="48.3" height="16.2"/>
			<rect id="XMLID_839_" x="182.3" y="264.2" class="st1" width="48.3" height="16.2"/>
			<rect id="XMLID_838_" x="182.3" y="280.4" class="st1" width="48.3" height="16.2"/>
			<polygon id="XMLID_837_" class="st2" points="103.8,179.5 99,178 99,182.3 103.4,184 			"/>
			<circle id="XMLID_836_" class="st3" cx="105.7" cy="181" r="3.3"/>
			<g id="XMLID_1191_">
				<path id="XMLID_835_" class="st4" d="M201,168.2h-67.8c-1.8,0-3.3,1.5-3.3,3.3v36.8l0,0h3.6h70.8v-36.8
					C204.3,169.7,202.8,168.2,201,168.2z"/>
				<polygon id="XMLID_834_" class="st5" points="175.1,212.5 167.1,212.5 159.1,212.5 157.9,222.9 167.1,222.9 176.3,222.9 				"/>
				<path id="XMLID_833_" class="st6" d="M167.1,222.9h-10c-0.5,0-0.9,0.4-0.9,0.9l0,0c0,0.5,0.4,0.9,0.9,0.9h10h10
					c0.5,0,0.9-0.4,0.9-0.9l0,0c0-0.5-0.4-0.9-0.9-0.9H167.1z"/>
				<rect id="XMLID_832_" x="133.5" y="171.8" class="st0" width="67.2" height="31.7"/>
				<polygon id="XMLID_831_" class="st7" points="133.5,194.5 167.1,171.8 186.5,171.8 142.2,203.5 133.5,203.5 				"/>
				<polygon id="XMLID_830_" class="st7" points="148.9,203.5 192,171.8 198,171.8 155.1,203.5 				"/>
				<path id="XMLID_829_" class="st6" d="M129.9,208.3v3c0,1.8,1.5,3.3,3.3,3.3H201c1.8,0,3.3-1.5,3.3-3.3v-3H129.9z"/>
			</g>
			<path id="XMLID_828_" class="st2" d="M77.5,224.4h12.6c0.7,0,1.2-0.5,1.2-1.2l0,0c0-0.7-0.5-1.2-1.2-1.2H77.5
				c-0.7,0-1.2,0.5-1.2,1.2l0,0C76.3,223.9,76.8,224.4,77.5,224.4z"/>
			<circle id="XMLID_827_" class="st2" cx="81" cy="196" r="2.6"/>
			<path id="XMLID_826_" class="st3" d="M82,193.6l15.6-14.2L99,181l-15.6,14.2C83.2,194.5,82.6,193.9,82,193.6z"/>
			<circle id="XMLID_825_" class="st3" cx="98.3" cy="180.2" r="2.8"/>
			<polygon id="XMLID_824_" class="st2" points="109.7,179.6 101.6,181.8 102.2,193.4 115.5,189.6 			"/>
			<path id="XMLID_823_" class="st8" d="M111.2,190.9c0.1,0.2,0.1,0.5,0.1,0.7c0,1.5-1.2,2.7-2.7,2.7c-1.2,0-2.3-0.8-2.6-2
				L111.2,190.9z"/>
			<path id="XMLID_1182_" class="st2" d="M87.8,214.3c-1.6,0-2.9,1.3-2.9,2.9v6h5.8v-6C90.7,215.6,89.4,214.3,87.8,214.3z
				 M87.8,218.6c-0.8,0-1.4-0.6-1.4-1.4c0-0.8,0.6-1.4,1.4-1.4s1.4,0.6,1.4,1.4C89.2,218,88.6,218.6,87.8,218.6z"/>
			<path id="XMLID_820_" class="st3" d="M87.8,214.3c0.2,0,0.5,0,0.7,0.1l-5.9-16.3c-0.4,0.4-1,0.6-1.6,0.6c-0.1,0-0.3,0-0.4,0
				l5.8,16C86.8,214.4,87.3,214.3,87.8,214.3z"/>
			<g id="XMLID_1176_">
				<path id="XMLID_819_" class="st9" d="M216.6,216.1L216.6,216.1c-0.5,0-0.7-0.3-0.7-0.6v-6.7c0-0.4,0.3-0.6,0.6-0.6h0.1
					c0.4,0,0.6,0.3,0.6,0.6v6.7C217.3,215.8,217,216.1,216.6,216.1z"/>
				
					<rect id="XMLID_818_" x="210" y="206.3" transform="matrix(0.1045 -0.9945 0.9945 0.1045 -6.9053 406.9243)" class="st10" width="25" height="2"/>
				
					<rect id="XMLID_817_" x="214.1" y="210.7" transform="matrix(5.150298e-02 -0.9987 0.9987 5.150298e-02 -3.3104 419.5303)" class="st8" width="10.2" height="1.6"/>
				<polygon id="XMLID_816_" class="st11" points="223.6,224.4 215.9,224.4 214.6,212.1 224.9,212.1 				"/>
			</g>
			<g id="XMLID_1168_">
				<path id="XMLID_815_" class="st3" d="M119,224.1h-15.5c-0.7,0-1.2-0.5-1.2-1.2v-8.2c0-0.7,0.5-1.2,1.2-1.2H119
					c0.7,0,1.2,0.5,1.2,1.2v8.2C120.2,223.6,119.7,224.1,119,224.1z"/>
				<path id="XMLID_814_" class="st12" d="M118.9,213.5h-4.1v10.6h4.1c0.7,0,1.3-0.6,1.3-1.3v-8
					C120.2,214.1,119.6,213.5,118.9,213.5z"/>
				<path id="XMLID_813_" class="st13" d="M118.9,213.5h-15.3c-0.7,0-1.3,0.6-1.3,1.3v2.3h17.9v-2.3
					C120.2,214.1,119.6,213.5,118.9,213.5z"/>
				<circle id="XMLID_812_" class="st14" cx="109.2" cy="218.8" r="4.4"/>
				<circle id="XMLID_811_" class="st15" cx="109.2" cy="218.8" r="3.5"/>
				<rect id="XMLID_810_" x="114.9" y="214.2" class="st15" width="3.4" height="2.3"/>
				<rect id="XMLID_809_" x="114.2" y="212.5" class="st3" width="2.3" height="1"/>
			</g>
			<g id="XMLID_1163_">
				<polygon id="XMLID_808_" class="st8" points="197.1,176.7 197.1,168.2 186.7,168.2 186.7,179.6 194.2,179.6 				"/>
				<polygon id="XMLID_807_" class="st16" points="194.2,176.7 194.2,179.6 197.1,176.7 				"/>
				<rect id="XMLID_806_" x="188.7" y="170.2" class="st4" width="6.9" height="0.7"/>
				<rect id="XMLID_805_" x="188.7" y="171.8" class="st4" width="6.9" height="0.7"/>
			</g>
			<rect id="XMLID_804_" x="65.9" y="224.4" class="st17" width="173.7" height="7.4"/>
			<rect id="XMLID_803_" x="182.3" y="247" class="st17" width="48.3" height="1.9"/>
			<rect id="XMLID_802_" x="182.3" y="263.3" class="st17" width="48.3" height="1.9"/>
			<rect id="XMLID_801_" x="182.3" y="279.5" class="st17" width="48.3" height="1.9"/>
			<circle id="XMLID_800_" class="st18" cx="206.4" cy="240" r="1.8"/>
			<circle id="XMLID_799_" class="st17" cx="206.4" cy="256.1" r="1.8"/>
			<circle id="XMLID_798_" class="st17" cx="206.4" cy="272.3" r="1.8"/>
			<circle id="XMLID_797_" class="st17" cx="206.4" cy="288.5" r="1.8"/>
		</g>
	</g>
	<g id="XMLID_394_" class="st19">
		<g>
			<g>
				<defs>
					<circle id="SVGID_1_" cx="361.7" cy="222.3" r="98"/>
				</defs>
				<clipPath id="SVGID_2_">
					<use xlink:href="#SVGID_1_"  style="overflow:visible;"/>
				</clipPath>
				<g id="XMLID_85_" class="st20">
					<g id="XMLID_90_">
						<rect id="XMLID_257_" x="239.4" y="95.8" class="st0" width="268.1" height="224.8"/>
						<rect id="XMLID_255_" x="239.4" y="285.5" class="st1" width="268.1" height="35.1"/>
						<path id="XMLID_287_" class="st21" d="M411.9,269.5c-0.7-0.9-1.6-1.6-2.4-2.3c-3.6-3.3-5.9-7.9-9.6-10.9
							c0.3-0.2,0.8-0.3,1.2-0.1c-5.1-10.1-12-19.6-20.2-28c-0.9-0.9-1.9-1.9-3-2.5c-1-0.6-2-0.9-3-1.1c-1.2-2.6-3-4.9-4.6-7.3
							c-1.9-2.8-3.7-5.7-5.3-8.6c-1.5-2.6-2.8-5.3-4.1-8c-0.7-1.4-1.3-2.7-1.9-4.1c-0.5-1-0.7-1.4-1.1-1.4c0-0.1,0-0.2,0-0.4v-0.1
							c0-0.3,0-0.6,0.1-0.9v-0.1c0-0.3,0.1-0.5,0.1-0.8c0,0,0,0,0-0.1c0-0.3,0.1-0.6,0.1-0.9l0,0c0-0.3,0.1-0.6,0.1-0.9l0,0v-0.1
							c0.8-0.1,1.4-0.7,1.5-1.5c0-0.7-0.4-1.3-0.9-1.9c0.1-0.7,0.3-1.4,0.4-2.1l0,0c0.1-0.5,0.2-0.9,0.3-1.4c0.1-0.3,0.1-0.6,0.2-1
							l0,0c0.4-1.9,0.8-3.8,1.2-5.7l0,0c0.1-0.6,0.3-1.2,0.4-1.9l0,0c0.1-0.6,0.2-1.2,0.4-1.8c0.2,0,0.3,0.1,0.5,0.1
							c0.1,0,0.3,0.1,0.4,0.1c0.2-0.4,0.3-0.7,0.3-1.1l0,0c0.1-1.3-0.3-2.7-0.4-4c0-0.7,0.2-1.3,0.1-1.9c-0.1-1-0.8-1.9-1.6-2.6l0,0
							l0,0c-0.1-0.1-0.2-0.1-0.2-0.2l0,0c0,0-0.1,0-0.1-0.1c-0.1-0.1-0.2-0.1-0.2-0.2c0,0-0.1,0-0.1-0.1c-0.1,0-0.2-0.1-0.3-0.1
							h-0.1c-0.1-0.1-0.2-0.1-0.3-0.2l0,0c0,0,0,0-0.1,0l0,0h-0.1c-0.1,0-0.2-0.1-0.3-0.1c-0.1,0-0.1,0-0.2-0.1
							c-0.1,0-0.2-0.1-0.3-0.1c-0.1,0-0.1,0-0.2-0.1c-0.1,0-0.2,0-0.2-0.1h-0.1c-0.8-2.9-2-5.8-3.9-8.3l0,0
							c-0.1-0.1-0.1-0.2-0.2-0.2c-0.7-0.9-1.6-1.7-2.5-2.4c-1.4-1-2.9-1.8-4.5-2.4l0,0c-0.5-0.2-0.9-0.3-1.4-0.5
							c-1.7-0.5-3.5-0.7-5.2-0.7l0,0c-0.5,0-1,0-1.4,0.1c-0.5,0.1-1,0.1-1.5,0.3c-0.9,0.2-1.7,0.5-2.5,0.8c-0.2,0.1-0.5,0.2-0.7,0.3
							c-1.2,0.6-2.4,1.3-3.4,2.1c-0.2,0.2-0.5,0.4-0.7,0.6c-0.8,0.7-1.6,1.5-2.3,2.3c-0.2,0.2-0.4,0.5-0.6,0.7
							c-0.7,0.9-1.4,1.8-2,2.8c0,0,0,0.1-0.1,0.1c-0.3,0.5-0.6,1-0.8,1.5c-0.2,0.5-0.4,1.1-0.5,1.6c-0.1,0.3-0.1,0.6-0.1,0.9
							c-0.1,1,0.1,2,0.7,3c0.2,0.3,0.5,0.6,0.8,0.5c0.1-0.1,0.2-0.2,0.2-0.4c0.2-0.5,0.4-1,0.8-1.4c0.2-0.2,0.3-0.4,0.5-0.5
							c0.5-0.5,1.1-0.9,1.7-1.2c0.2,0.4,0.8,1.3,1.2,1.6c-0.1,0.1-0.3,0.3-0.4,0.5c-0.3,0.6-0.4,1.3-0.3,2.1
							c0.1,0.7,0.3,1.3,0.6,1.9c-0.1,0.2-0.2,0.3-0.2,0.5c-0.1,0.3-0.2,0.5-0.2,0.8c-0.2,1.5,1,3.1,1.8,4.6c-1.2,1-1.1,3.4-0.2,5.1
							c0.2-0.1,0.4-0.2,0.5-0.3c0.2,0.8,0.5,1.5,0.9,2.3c-0.5-0.2-1-0.4-1.6-0.6l0,0c-0.4-0.1-0.7-0.2-1.1-0.4c0,0,0,0-0.1,0
							c-0.4-0.1-0.7-0.2-1.1-0.3h-0.1c-0.3-0.1-0.7-0.2-1-0.3c-0.1,0-0.1,0-0.2,0c-0.3-0.1-0.6-0.2-0.9-0.2c-0.1,0-0.2,0-0.3-0.1
							c-0.3-0.1-0.6-0.1-0.9-0.2c-0.1,0-0.2,0-0.4-0.1c-0.3,0-0.5-0.1-0.8-0.1c-0.2,0-0.3,0-0.5-0.1c-0.2,0-0.4-0.1-0.7-0.1
							c-0.2,0-0.4,0-0.7-0.1c-0.2,0-0.3,0-0.5,0c-0.4,0-0.8-0.1-1.1-0.1c-0.5,0-1,0-1.5,0c-0.2,0-0.3,0.1-0.5,0.1
							c-0.8,0.2-1.4,0.7-1.9,1.2c-0.1,0.1-0.2,0.1-0.2,0.2c-2.3,2.1-4.4,4.3-6.4,6.7c-0.4,0.5-0.9,1.1-1.3,1.6
							c-0.2,0.3-0.4,0.5-0.6,0.8c-1.3,1.6-2.4,3.3-3.6,5c-0.3,0.4-0.5,0.8-0.8,1.2l-51.2,3.7c-4.5,0.3-7.2,4.3-6,8.9l12.6,47.2
							c1.2,4.6,5.9,8,10.4,7.7l29.2-2.1c0.1,0.1,0.1,0.2,0.2,0.4c0.2,0.4,0.6,0.8,1,0.9c0.5,0.1,0.9-0.3,1.4-0.2
							c0.5,0.1,0.9,0.5,1.4,0.7c1.2,0.4,2-1,3.1-0.8c0.7,0.1,1.3,0.7,1.9,0.7c0.8,0,1.2-0.8,2-0.9c0.5-0.1,1.1,0.2,1.6,0.2
							c1,0,1.6-0.8,1.7-1.7c0-0.1,0-0.3,0-0.4l2.6-0.2c0.3,0.1,0.6,0.2,0.9,0.2c0.4,0,0.7,0,0.9-0.3l10.6-0.8
							c4,6.8,9.8,12.8,15.5,18.7c-10.8,3-7.2,9.9-12.6,19.2c0.8,0.2,1.5,0.4,2.2,0.6c-1.2,0.8-1.7,2.3-2,3.8
							c-0.2,1.1-0.3,2.3-0.4,3.5c0.9,0.2,1.9,0.3,2.7,0.2c0.8-0.2,0.6-1.1,0.7-1.9c0.2,0.7,1.9,1.5,2.6,1.7s1.4,0.2,2.1,0.2
							c4.2-0.2,8.5-0.3,12.7-0.5c-0.2-1.4-1.8-2.5-3.2-2.8s-2.8-0.1-4.2-0.2c-1.3-0.1-3.7-0.8-4.7-2l0,0c0.6,0.2,1.3,0.4,1.9,0.6
							c9.8-9,13.2-11.3,23.6-19.6c-1-5.7-4.3-11.3-8.3-16c-2.1-2.4-4.4-4.7-6.8-6.9l0.8-0.1c4.5-0.3,7.2-4.3,6-8.9l-1.2-4.5
							c0.2,0.4,0.4,0.7,0.6,1.1c0.1,0.2,0.2,0.4,0.4,0.5c0.2,0.1,0.5,0.1,0.7,0c5.1-1.7,10.6-3.4,16.4-2.2c4.1,0.9,8,3.1,11.5,5.9
							c3.4,2.8,6.7,6.1,9.7,9.4c0.1,0,0.2-0.1,0.3-0.1c0.2,1.2,0.3,2.5,0.3,3.7c1.2,1,2.5,2.2,3.7,3.2c0.3-0.8,0.8-1.5,1.4-2.2
							c0.3,1.2,0.5,2.4,0.8,3.5c0.1,0.3,0.1,0.6,0.3,0.8c0.2,0.3,0.5,0.4,0.9,0.6c3.4,1.6,7,3.1,10.5,4.2
							C413.1,271.4,412.6,270.3,411.9,269.5z"/>
						<g id="XMLID_91_">
							<path id="XMLID_252_" class="st22" d="M347.3,301.4c1.4,0.2,2.8-0.1,4.2,0.2c1.4,0.3,2.8,1.4,2.6,2.8
								c-4.3,0.2-8.5,0.3-12.8,0.5c-0.7,0-1.4,0.1-2-0.2c-0.6-0.2-2.2-1.1-2.2-1.7c-0.2,0.9-0.1,1.8-1,1.9s-1.8,0-2.7-0.2
								c0.3-1.2,0.6-2.4,1-3.5c0.7-1.7,1.7-3.5,3.5-4.2c0.7-0.2,1.5-0.3,2.2-0.3c0.8,0,1.8,0.1,2.4,0.8c0.5,0.6,0.2,1.1,0.5,1.7
								C343.7,300.6,346,301.3,347.3,301.4z"/>
							<path id="XMLID_249_" class="st22" d="M434.8,272.3c0.4-0.9,0.1-2-0.4-2.9s-1.3-1.6-1.9-2.3c-3.3-3.8-4.7-9.1-8.8-12
								c-1.4,0.4-2.7,0.5-4,1.1c0.1,1.9,0,3.9-0.4,5.8c1,1,2.1,2.2,3.1,3.2c0.5-0.8,1.1-1.5,1.8-2.2c0,1.2,0.1,2.4,0.1,3.5
								c0,0.3,0,0.6,0.2,0.8c0.2,0.3,0.5,0.4,0.7,0.6C428.2,269.8,431.4,271.2,434.8,272.3z"/>
							<path id="XMLID_248_" class="st23" d="M385.4,280.3c0.1-5.7-2.1-11.3-5.2-16c-3.2-4.8-7.2-8.8-11.3-12.8
								c-5.7,0.7-12.2,1.6-17.7,3.2c2.2,8.7,7.9,15.9,13.3,23c-11.4,3-22.3,9.9-29.5,19.2c3.4,0.9,6.5,2,9.8,3.1
								C356.4,291,373.3,288.7,385.4,280.3z"/>
							<path id="XMLID_247_" class="st23" d="M380.5,229.6c6.8-3.3,14.4-5.1,21.9-5.2c2.2,0,4.6,0.1,6.4,1.4c1,0.7,1.7,1.6,2.5,2.5
								c6.5,8.3,11.6,17.9,14.7,28c-0.3-0.2-0.9-0.1-1.3,0.1c-1.8,0.8-3.7,1.5-5.5,2.3c-2.4-3.2-4.9-6.6-7.8-9.4
								c-2.9-2.8-6.4-5-10.3-5.9c-5.6-1.2-11.3,0.5-16.8,2.2c-0.2,0.1-0.5,0.1-0.7,0s-0.2-0.3-0.3-0.5c-1.4-3.7-2.6-7.4-3.7-11.1
								C379.3,232.6,379.3,230.2,380.5,229.6z"/>
							<path id="XMLID_246_" class="st24" d="M388.7,195.8c0.6,1.7,0.7,3.4,0.7,5.2c0.1,4.4,0.3,8.8,0.4,13.2
								c0.2,4.9,0.4,10,2.7,14.4c-9.1,4.8-19,8.2-29.1,10c-2.8-8.4-5.1-17.1-4.7-25.9c0.3-7.3,2.6-14.4,7.2-20.2
								c3.8-4.7,8.4-5,14.1-3.6C383.8,189.8,387.4,192.1,388.7,195.8z"/>
							<path id="XMLID_245_" class="st24" d="M402.9,217.3c1.3,2.7,2.9,5.4,3.4,8.5c0.2,1.5,0.2,3.1-0.7,4.4c-1.4,2-4.2,2.3-6.6,1.8
								c-1.7-0.4-3.4-1-4.8-2c-1.9-1.2-3.4-2.9-4.9-4.6c-1.8-2-3.4-4.2-5.1-6.3c-1.1-1.4-2.2-2.8-2.9-4.4c-0.7-1.6-1-3.4-1-5.1
								c-0.1-2.7,0.2-5.5,1.9-7.6c2.8-3.5,7.8-3.8,11.3-6.1c1.4-0.9,1.6-0.9,2,0.8c0.4,1.4,0.8,2.7,1.2,4.1c0.8,2.7,1.6,5.4,2.6,8
								C400.4,211.6,401.5,214.5,402.9,217.3z"/>
							<g id="XMLID_242_">
								<path id="XMLID_243_" class="st24" d="M387.4,213.8c0.1,0.2,0.2,0.5,0.4,0.7c0.2,0.2,0.5,0.3,0.7,0.5c3.3,1.5,6.6,3,10,4.4
									c2.1,0.9,4.3,1.9,6,3.4c1.8,1.5,3.1,3.7,3.1,6c0,1-0.3,2-0.7,2.9c-1.4,3-4.8,5-8.1,4.5c-2.4-0.3-4.5-1.8-6.4-3.4
									c-5.2-4.4-9.5-9.6-12.9-15.5c-0.1-0.2-0.2-0.3-0.1-0.5c0-0.1,0.1-0.2,0.2-0.3C381.5,214.9,385.3,210,387.4,213.8z"/>
							</g>
							<path id="XMLID_233_" class="st25" d="M385.5,215.1c0.2,0.3,0.3,0.6,0.3,1s-0.2,0.8-0.5,1.1c-1,1.3-2.6,2-4.1,2
								c-1.6,0-3.2-0.7-4.3-1.8c-0.3-0.3-0.6-0.7-0.8-1.2c-0.2-0.5-0.2-1-0.2-1.6c0-1.1,0-2.2,0-3.3c0-1.8,0-3.7,0.8-5.3
								c0.6-1.2,1.9-2.3,3.3-2.4c1.6-0.2,2.2,1,2.7,2.3C384.1,209,384.1,212.3,385.5,215.1z"/>
							<g id="XMLID_163_">
								
									<linearGradient id="XMLID_2_" gradientUnits="userSpaceOnUse" x1="295.491" y1="421.9411" x2="367.7805" y2="494.2305" gradientTransform="matrix(1 0 0 1 0 -230)">
									<stop  offset="0" style="stop-color:#3A4966"/>
									<stop  offset="0.3441" style="stop-color:#4F6A8D"/>
									<stop  offset="1" style="stop-color:#3A4966"/>
								</linearGradient>
								<path id="XMLID_232_" class="st26" d="M375.6,257.4l-82.5,6c-4.6,0.3-8.6-3.1-8.9-7.7l-3.4-47.2c-0.3-4.6,3.1-8.6,7.7-8.9
									l82.5-6c4.6-0.3,8.6,3.1,8.9,7.7l3.4,47.2C383.6,253.1,380.2,257.1,375.6,257.4z"/>
								<g id="XMLID_202_">
									
										<linearGradient id="XMLID_3_" gradientUnits="userSpaceOnUse" x1="278.8202" y1="479.5032" x2="297.6996" y2="498.3824" gradientTransform="matrix(0.9969 -7.900000e-02 7.900000e-02 0.9969 -24.3455 -246.9481)">
										<stop  offset="0" style="stop-color:#FFC351"/>
										<stop  offset="0.414" style="stop-color:#F0DBA2"/>
										<stop  offset="0.7419" style="stop-color:#FFC65F"/>
										<stop  offset="1" style="stop-color:#EAD598"/>
									</linearGradient>
									<path id="XMLID_229_" class="st27" d="M309.3,227.8l-12.9,1c-2.1,0.2-4-1.4-4.1-3.5l-1-12.9c-0.2-2.1,1.4-4,3.5-4.1l12.9-1
										c2.1-0.2,4,1.4,4.1,3.5l1,12.9C313,225.7,311.4,227.6,309.3,227.8z"/>
									<path id="XMLID_226_" class="st22" d="M307.7,207.5c1.9-0.2,3.6,1.3,3.8,3.2l1,12.9c0.2,1.9-1.3,3.6-3.2,3.8l-12.9,1
										c-1.9,0.2-3.6-1.3-3.8-3.2l-1-12.9c-0.2-1.9,1.3-3.6,3.2-3.8L307.7,207.5 M307.6,207.2l-12.9,1c-2.1,0.2-3.7,2-3.5,4.1
										l1,12.9c0.2,2.1,2,3.7,4.1,3.5l12.9-1c2.1-0.2,3.7-2,3.5-4.1l-1-12.9C311.6,208.6,309.7,207,307.6,207.2L307.6,207.2z"/>
									<g id="XMLID_224_">
										
											<rect id="XMLID_225_" x="298.3" y="208.3" transform="matrix(0.9969 -7.899008e-02 7.899008e-02 0.9969 -16.3115 24.2573)" class="st22" width="0.3" height="20"/>
									</g>
									<g id="XMLID_222_">
										
											<rect id="XMLID_223_" x="305.7" y="207.7" transform="matrix(0.9969 -7.904994e-02 7.904994e-02 0.9969 -16.2526 24.8594)" class="st22" width="0.3" height="20"/>
									</g>
									<g id="XMLID_209_">
										
											<rect id="XMLID_221_" x="291.4" y="214" transform="matrix(0.9969 -7.901160e-02 7.901160e-02 0.9969 -15.9993 23.9588)" class="st22" width="6.7" height="0.3"/>
									</g>
									<g id="XMLID_207_">
										
											<rect id="XMLID_208_" x="291.9" y="221.1" transform="matrix(0.9969 -7.901184e-02 7.901184e-02 0.9969 -16.5588 24.0205)" class="st22" width="6.7" height="0.3"/>
									</g>
									<g id="XMLID_205_">
										
											<rect id="XMLID_206_" x="305.5" y="212.9" transform="matrix(0.9969 -7.900918e-02 7.900918e-02 0.9969 -15.8683 25.0568)" class="st22" width="6.4" height="0.3"/>
									</g>
									<g id="XMLID_203_">
										
											<rect id="XMLID_204_" x="306.1" y="220" transform="matrix(0.9969 -7.900895e-02 7.900895e-02 0.9969 -16.4274 25.1263)" class="st22" width="6.4" height="0.3"/>
									</g>
								</g>
								
									<rect id="XMLID_201_" x="289.4" y="242.9" transform="matrix(0.9977 -6.735504e-02 6.735504e-02 0.9977 -15.6915 22.9798)" class="st7" width="87.1" height="2.6"/>
								<polygon id="XMLID_197_" class="st28" points="376.2,245.6 353.2,247.1 353.5,251.4 376.4,249.9 								"/>
								<polygon id="XMLID_196_" class="st7" points="289.3,251.4 289.6,255.7 349.1,251.7 348.8,247.4 								"/>
								<path id="XMLID_164_" class="st7" d="M367.6,212.6L367.6,212.6c-1.4-7.1-7.8-12.2-15.2-11.6c-7.3,0.6-12.9,6.6-13.2,13.8
									h-0.1c0,0.1,0,0.3,0.1,0.4c0,0.4,0,0.8,0,1.1c0.6,7.8,7.4,13.7,15.3,13.1c7.8-0.6,13.7-7.4,13.1-15.3c0-0.4-0.1-0.8-0.1-1.1
									C367.6,212.9,367.6,212.8,367.6,212.6z M354.4,227.3c-1.3,0.1-2.8-1.2-4.1-3.5c1.2,0.1,2.5,0.1,3.8,0s2.6-0.3,3.7-0.6
									C357,225.7,355.7,227.2,354.4,227.3z M354,221.8c-1.6,0.1-3.1,0.1-4.6-0.2c-0.4-1.3-0.8-2.7-1-4.4c1.6,0,3.4-0.1,5.2-0.2
									c1.8-0.1,3.6-0.3,5.2-0.6c0,1.6-0.1,3.1-0.4,4.5C357.1,221.4,355.6,221.7,354,221.8z M352.6,203.1c1.3-0.1,2.8,1.2,4.1,3.5
									c-1.2-0.1-2.5-0.1-3.8,0s-2.6,0.3-3.7,0.6C349.9,204.7,351.2,203.2,352.6,203.1z M353,208.6c1.6-0.1,3.1-0.1,4.6,0.2
									c0.6,1.6,1,3.5,1.2,5.7c-1.5,0.2-3.3,0.5-5.3,0.6c-2,0.2-3.8,0.2-5.3,0.2c-0.1-2.1,0-4.1,0.3-5.8
									C349.9,209,351.4,208.7,353,208.6z M360.8,214.1c-0.2-1.7-0.5-3.3-0.9-4.8c2.5,0.7,4.4,2,5.3,3.5
									C364.4,213.1,363,213.6,360.8,214.1z M346.1,215.2c-2.3-0.1-3.8-0.4-4.5-0.6c0.6-1.6,2.3-3.2,4.7-4.3
									C346.1,211.8,346,213.5,346.1,215.2z M344.1,217.1c0.7,0.1,1.4,0.1,2.2,0.2c0.2,1.4,0.4,2.7,0.8,3.9c-3-0.9-5.2-2.5-5.7-4.5
									C342.1,216.8,343,217,344.1,217.1z M360.9,216.1c0.8-0.2,1.5-0.3,2.2-0.5c1-0.3,1.9-0.5,2.6-0.8c-0.2,2-2.1,4-4.9,5.3
									C360.8,218.9,360.9,217.5,360.9,216.1z M363.7,208.7c-1.3-0.8-2.9-1.4-4.7-1.7c-0.5-1.3-1.2-2.4-1.9-3.3
									C359.9,204.4,362.2,206.3,363.7,208.7z M348.1,204.3c-0.6,1-1,2.2-1.4,3.6c-1.7,0.6-3.2,1.5-4.4,2.4
									C343.5,207.7,345.5,205.5,348.1,204.3z M343.2,221.7c1.3,0.8,2.9,1.4,4.7,1.7c0.5,1.3,1.2,2.4,1.9,3.3
									C347.1,226,344.7,224.1,343.2,221.7z M358.8,226.1c0.6-1,1-2.2,1.4-3.6c1.7-0.6,3.2-1.5,4.4-2.4
									C363.5,222.7,361.4,224.9,358.8,226.1z"/>
							</g>
							<path id="XMLID_160_" class="st25" d="M326.1,242.5c0.4,1.7,0.8,3.6,0,5.1c-0.4,0.8-1,1.4-1.5,2c-2.7,3.3-3.4,8-1.8,11.9
								c0.2,0.4,0.4,0.8,0.8,0.9c0.5,0.1,1-0.3,1.5-0.2c0.5,0.1,0.8,0.5,1.3,0.7c1.1,0.4,2.1-1,3.3-0.8c0.6,0.1,1.1,0.7,1.8,0.7
								c0.8,0,1.4-0.8,2.2-0.9c0.5-0.1,1.1,0.2,1.6,0.2c1,0,1.8-0.8,2-1.7s0.1-1.9,0-2.9c0.7,1.3,2.3,2.3,3.7,2.4c0.4,0,0.8,0,1-0.4
								c0.4-0.6-0.3-1.3-0.9-1.7c-1.4-1-2.4-2.5-2.7-4.2c-0.2-1.1-0.2-2.2-0.6-3.2c-0.8-1.9-2.8-2.8-4.7-3.5c-0.1-1.8,0-3.6,0.3-5.4
								C331,240.8,328.2,241.3,326.1,242.5z"/>
							<path id="XMLID_155_" class="st24" d="M377.3,184.7c-4.9-3.5-10.9-5.5-16.9-5.8c-0.7,0-1.3,0-2,0.1c-0.9,0.2-1.7,0.8-2.4,1.4
								c-9.5,7.4-17.8,16.5-23.5,27.2s-8.5,22.9-7.2,34.9c0.1,0.9,0.2,1.7,0.6,2.6c2.9,0.2,5.6,0.3,8.5,0.4c0.5-3.3,1.4-6.6,2.8-9.5
								c8-16.7,20.7-31,36.2-41c1.8-1.1,3.6-2.2,4.8-4C379.3,189.3,379,185.9,377.3,184.7z"/>
							<g id="XMLID_153_">
								<path id="XMLID_154_" class="st7" d="M358.4,179.1c-0.9,0.2-1.7,0.8-2.4,1.4c-9.5,7.4-17.8,16.5-23.5,27.2
									s-8.5,22.9-7.2,34.9c0.1,0.9,0.2,1.7,0.6,2.6c2.9,0.2,5.6,0.3,8.5,0.4c0-0.1,0-0.2,0.1-0.4c-2.4-1.4-5.1-2.2-7.8-2.4
									c-0.2-10.6,0.8-21.4,5.5-30.9c2.4-4.8,5.6-9.1,8.8-13.4c4.6-6.1,9.3-12.3,15.1-17.2c0.5-0.4,1-0.8,1.5-0.9
									c0.7-0.2,1.5,0,2.1,0.3c2.2,1,3.9,2.9,5.3,4.9c1.8,2.3,3.4,4.7,4.9,7.1c-0.9-4.2-2.6-8.2-4.9-11.8c4.1,0.8,8.2,2.1,12,3.7
									c-4.9-3.4-10.8-5.4-16.7-5.7C359.7,178.9,359,178.9,358.4,179.1z"/>
							</g>
							<g id="XMLID_96_">
								<path id="XMLID_149_" class="st25" d="M393.6,204.2c-0.2-6.9,2.4-13.6,5-20.1c1.7-4.1,3.3-8.3,5-12.4
									c-2.8-0.2-5.6-0.8-8.4-1c-3.6-0.2-7.2-0.5-10.7,0.1c-5,0.8-9.7,3.2-13.2,6.8c-0.7,3.1,0.9,6.6,3.7,8.1
									c0.1,5.1-0.1,10.1,1.7,14.8c0.4,0.9,0.8,1.9,1.6,2.5c0.7,0.6,1.5,0.9,2.4,1.2C384.9,205.5,389.8,206.2,393.6,204.2z"/>
								
									<linearGradient id="XMLID_4_" gradientUnits="userSpaceOnUse" x1="393.4365" y1="410.85" x2="399.9928" y2="410.85" gradientTransform="matrix(1 0 0 1 0 -230)">
									<stop  offset="0" style="stop-color:#FFB68D"/>
									<stop  offset="1" style="stop-color:#EA7257"/>
								</linearGradient>
								<path id="XMLID_148_" class="st29" d="M395.2,180.3c1-0.4,2.1-0.7,3.3-0.7c0.4,0,0.8,0,1.1,0.2c0.3,0.2,0.6,0.6,0.4,0.9
									c-0.1,0.4-0.6,0.6-1,0.6c-1.4,0.3-2.9-0.1-4.1,0.5c-0.3,0.1-0.5,0.3-0.8,0.3s-0.5-0.2-0.6-0.5
									C394.1,181.2,394.4,180.6,395.2,180.3z"/>
								
									<linearGradient id="XMLID_5_" gradientUnits="userSpaceOnUse" x1="377.1012" y1="410.7859" x2="388.2148" y2="410.7859" gradientTransform="matrix(1 0 0 1 0 -230)">
									<stop  offset="0" style="stop-color:#EA7257"/>
									<stop  offset="1" style="stop-color:#FFB68D"/>
								</linearGradient>
								<path id="XMLID_147_" class="st30" d="M387.3,180.7c-2.3-1.5-5.2-1.9-7.8-1.2c-0.9,0.3-1.8,0.7-2.3,1.4
									c-0.1,0.1-0.2,0.2-0.1,0.3c0,0.1,0.1,0.1,0.2,0.2c0.9,0.5,2.1,0.2,3.2,0.1c1.7-0.3,3.4-0.1,5.1,0.5c0.5,0.2,1,0.4,1.5,0.4
									C388.8,182.5,388.3,181.3,387.3,180.7z"/>
								<path id="XMLID_144_" class="st31" d="M391.2,187.7c-4.6-0.5-9.5,1.3-12.2,5.1c-1.4-3.5-2.3-7.2-2.7-10.9
									c-0.2-0.1-0.5-0.2-0.7-0.3c-0.3,1.4-0.6,2.8-0.5,4.1c0.1,5.1-0.1,10.1,1.7,14.8c0.4,0.9,0.8,1.9,1.6,2.5
									c0.7,0.6,1.5,0.9,2.4,1.2c4.2,1.4,9.1,2.1,13,0c-0.2-5.1,1.2-10.1,3-15C394.9,188.4,393.1,187.9,391.2,187.7z"/>
								
									<linearGradient id="XMLID_6_" gradientUnits="userSpaceOnUse" x1="395.4702" y1="422.3125" x2="390.2592" y2="409.586" gradientTransform="matrix(1 0 0 1 0 -230)">
									<stop  offset="0" style="stop-color:#EA7257"/>
									<stop  offset="1" style="stop-color:#FFB68D"/>
								</linearGradient>
								<path id="XMLID_143_" class="st32" d="M395.5,185.9c0.5,0.5,1.1,1,1.6,1.5c0.5,0.6,0.8,1.3,0.7,2.1
									c-0.2,0.9-1.2,1.5-2.1,1.5s-1.8-0.4-2.6-0.8c-2.7-1.6-4.9-4.4-4.7-7.5c0-0.2,0-0.5,0.2-0.7c0.1-0.2,0.3-0.3,0.4-0.4
									c0.7-0.5,2.1-2.1,2.9-2.2c1-0.2,1,0.7,1.2,1.5C393.5,182.7,394.2,184.5,395.5,185.9z"/>
								<g id="XMLID_138_">
									<path id="XMLID_139_" class="st22" d="M395.6,175.3c-1.6-0.1-3.2-0.2-4.9-0.3c-4.8-0.3-9.6-0.6-14.4-1.3
										c-1.8,1.1-3.5,2.4-5,3.9c-0.1,0.5-0.2,1-0.2,1.4c1.3,1,2.8,1.8,4.4,2.5c0.2,0.1,0.5,0.2,0.7,0.3c1.6,0.7,3.2,1.3,4.8,1.9
										c0.8,0.3,1.6,0.6,2.4,0.6c0.9,0,1.7-0.3,2.5-0.7c2.4-0.9,5.1-1.9,7.4-0.9c1.4,0.6,2.5,1.8,3.9,2.4c0.2,0.1,0.5,0.2,0.7,0.3
										c0.2-0.5,0.4-0.9,0.5-1.4c0.1-0.3,0.3-0.6,0.4-1c-0.5,0.1-1,0-1.4-0.2s-0.7-0.5-1.1-0.8c-0.9-0.9-1.7-1.9-2.2-3
										c-0.2-0.4-0.4-0.8-0.4-1.3s0.2-0.9,0.6-1.2c0.3-0.2,0.8-0.2,1.1-0.2c1.2,0,2.5,0.1,3.7,0.1c0.6,0,1.2,0,1.6,0.4
										c0.1,0.1,0.2,0.3,0.3,0.4c0.2-0.6,0.5-1.2,0.7-1.9C399.9,175.6,397.8,175.4,395.6,175.3z M387.5,181.6
										c-1.2,0.5-2.5,1-3.8,1c-1.1,0-2.2-0.4-3.1-0.9c-1.1-0.6-2.2-1.6-2.1-2.9c0-1.3,1.2-2.2,2.4-2.7c1.9-0.8,4-1,6-0.4
										c1.3,0.4,3.1,1.3,3.5,2.8C390.6,180.1,388.7,181.1,387.5,181.6z"/>
								</g>
								<ellipse id="XMLID_135_" class="st22" cx="384.5" cy="177.9" rx="0.5" ry="1"/>
								<ellipse id="XMLID_132_" class="st22" cx="396.6" cy="178.6" rx="0.5" ry="1"/>
								<path id="XMLID_129_" class="st22" d="M383.7,194.1c1.2-1.6,2.9-3.2,4.9-3.2c1.6,0,3,1,3.9,2.3c0.8,1.3,1.1,3,1,4.5
									c0,0.2,0,0.5-0.2,0.6c-0.2,0.2-0.4,0.1-0.6,0.1c-3.3-0.3-6.5-0.4-9.6,0.6c-1.4,0.5-2.3,0.5-1.7-1.2
									C381.9,196.5,382.8,195.2,383.7,194.1z"/>
								<path id="XMLID_128_" class="st7" d="M381.3,198c-0.5,1.6,0.3,1.5,1.7,1.1c3.1-1,6.4-0.9,9.6-0.6c0.2,0,0.5,0,0.6-0.1
									c0.2-0.1,0.2-0.4,0.2-0.6c0-0.4,0-0.8,0-1.3C389.4,195.9,385.1,196.5,381.3,198z"/>
								<g id="XMLID_126_">
									
										<linearGradient id="XMLID_7_" gradientUnits="userSpaceOnUse" x1="381.3163" y1="425.35" x2="391.6579" y2="425.35" gradientTransform="matrix(1 0 0 1 0 -230)">
										<stop  offset="0" style="stop-color:#EA7257"/>
										<stop  offset="1" style="stop-color:#FFB68D"/>
									</linearGradient>
									<path id="XMLID_127_" class="st33" d="M390.6,195.2c-1.6-1.4-3.7-2.2-5.9-2.4c-0.4,0.4-0.7,0.8-1.1,1.2
										c-0.9,1.2-1.8,2.4-2.3,3.8v0.1c3.3-1.4,6.8-1.9,10.3-1.7c-0.1-0.1-0.1-0.2-0.2-0.2C391.2,195.7,390.9,195.4,390.6,195.2z"
										/>
								</g>
								<path id="XMLID_123_" class="st25" d="M390.7,201.3c-0.4-0.9-1.5-1.4-2.5-1.3c-1,0.1-1.9,0.6-2.7,1.2
									C387.1,201,389.2,201.2,390.7,201.3z"/>
								<g id="XMLID_99_">
									<path id="XMLID_120_" class="st34" d="M401.4,165.9c-0.3,0-0.6-0.1-0.9-0.1s-0.6-0.1-0.9-0.1c-1.3-0.1-2.6-0.2-3.8-0.3
										c-0.3,0-0.5,0-0.8,0c-1.4-0.1-2.8-0.1-4.3-0.1c-0.3,0-0.6,0-0.8,0c-1.2,0-2.3,0.1-3.5,0.2c-0.5,0-1,0.1-1.5,0.1
										c-0.3,0-0.6,0.1-0.8,0.1c-1,0.1-2.1,0.3-3.1,0.5c-0.3,0.1-0.6,0.1-0.9,0.2c-1.1,0.2-2.1,0.5-3.2,0.8
										c-0.3,0.1-0.6,0.2-0.8,0.3c-0.9,0.3-1.8,0.7-2.7,1.1c-0.3,0.1-0.5,0.3-0.8,0.4c-0.2,0.1-0.4,0.2-0.6,0.3
										c-0.1,0.1-0.3,0.2-0.4,0.2c-0.2-0.9-0.4-1.9-0.4-2.8c0-0.7,0.3-1.5,0.7-2.1c0.1-0.2,0.3-0.3,0.4-0.5
										c-0.3-0.4-0.7-1.2-0.9-1.6c-0.6,0.3-1.3,0.7-1.9,1.2c-0.2,0.2-0.4,0.3-0.6,0.5c-0.4,0.4-0.8,0.9-1.1,1.4
										c-0.1,0.2-0.2,0.3-0.3,0.4c-0.3,0.1-0.6-0.2-0.7-0.5c-0.4-1-0.4-2-0.1-3c0.1-0.3,0.2-0.6,0.3-0.9c0.2-0.6,0.5-1.1,0.8-1.6
										s0.7-1,1.1-1.5c0,0,0-0.1,0.1-0.1c0.8-1,1.7-1.9,2.6-2.8c0.3-0.3,0.5-0.5,0.8-0.7c0.9-0.8,1.8-1.6,2.8-2.3
										c0.3-0.2,0.5-0.4,0.8-0.6c1.2-0.8,2.5-1.5,3.9-2.1c0.2-0.1,0.5-0.2,0.8-0.3c0.9-0.3,1.7-0.6,2.6-0.8c0.5-0.1,1-0.2,1.6-0.3
										c0.5-0.1,1-0.1,1.4-0.1l0,0c1.7,0,3.4,0.2,5.1,0.7c0.4,0.1,0.9,0.3,1.3,0.5l0,0c1.5,0.6,2.8,1.4,4,2.4
										c0.8,0.7,1.5,1.5,2,2.4c0.1,0.1,0.1,0.2,0.1,0.2l0,0C400.9,158,401.3,162,401.4,165.9z"/>
									<path id="XMLID_114_" class="st34" d="M405.1,166.9c-0.1,0.7-0.4,1.3-0.5,1.9c-0.2,1.3-0.1,2.8-0.4,4l0,0
										c-0.1,0.4-0.3,0.8-0.5,1.1c-0.1,0-0.3-0.1-0.4-0.1c-0.5-0.1-1-0.2-1.5-0.2c-0.3,0-0.6-0.1-0.8-0.1
										c-1.1-0.1-2.1-0.2-3.2-0.3c-0.3,0-0.5,0-0.8,0c-1.6-0.1-3.3-0.1-4.9,0c-0.3,0-0.5,0-0.8,0.1c-1.5,0.1-2.9,0.3-4.4,0.5
										c-0.3,0-0.5,0.1-0.8,0.1c-1.2,0.2-2.4,0.5-3.6,0.8c-0.3,0.1-0.5,0.1-0.8,0.2c-1.2,0.3-2.4,0.7-3.6,1.2
										c-0.3,0.1-0.5,0.2-0.8,0.3c-0.9,0.3-1.7,0.7-2.6,1.1c-0.3,0.1-0.5,0.2-0.8,0.4c-0.2,0.1-0.4,0.2-0.6,0.3
										c-0.3,0.1-0.6,0.3-0.9,0.5c-0.6,0.3-1.2,0.6-1.8,1c-0.6-1.6-0.2-4,1.2-5.1c-0.5-1.5-1.4-3.1-0.9-4.6
										c0.1-0.3,0.2-0.6,0.3-0.8c0.2-0.4,0.4-0.7,0.7-1c0.2-0.2,0.4-0.4,0.6-0.6c0.3-0.3,0.6-0.5,1-0.7s0.7-0.5,1.1-0.7
										c0.2-0.1,0.3-0.2,0.5-0.3c0.3-0.1,0.5-0.3,0.8-0.4c1-0.5,2-1,3-1.4c0.3-0.1,0.5-0.2,0.8-0.3c1-0.4,2.1-0.7,3.1-1
										c0.3-0.1,0.5-0.1,0.8-0.2c1.5-0.4,3-0.6,4.5-0.8l0,0c0.3,0,0.6-0.1,0.9-0.1c1.7-0.1,3.3-0.1,5,0c0.3,0,0.6,0,0.9,0.1
										c1.3,0.1,2.7,0.3,4,0.6c0.3,0.1,0.5,0.1,0.8,0.2c0.3,0.1,0.7,0.2,1,0.3c0.6,0.2,1.3,0.4,1.9,0.6l0,0
										c0.4,0.2,0.8,0.4,1.1,0.7C404.6,164.7,405.2,165.8,405.1,166.9z"/>
									<g id="XMLID_103_">
										<g>
											<path id="XMLID_251_" class="st35" d="M378,175.7c0,0.1,0,0.3,0,0.4c-0.3,0.1-0.5,0.2-0.8,0.3v-0.1c0-0.6,0.1-1.2,0-1.8
												c-0.1-0.8-0.5-1.1-1-1.7c-0.6-0.7-0.6-1.4-0.4-2.2c0.2-1.1,0.5-2.1,0.3-3.2c0-0.2-0.1-0.3-0.1-0.5
												c-0.1-0.4-0.1-0.5-0.5-0.7c-0.1-0.1-0.2-0.1-0.3-0.2l-0.1-0.1c-0.1-0.1-0.1-0.3-0.2-0.5c0-0.3,0.1-0.6,0.2-0.8
												c0-0.2,0-0.5,0-0.7c0-0.6,0-1.3,0-1.9c0-0.7-0.1-1.3-0.1-2s0.1-1.2-0.2-1.8c-0.7-1.4-1.4-2.3-3-2.3
												c0.3-0.3,0.5-0.5,0.8-0.7c0.8,0.1,1.4,0.4,2,1.1c0.7,0.7,1.2,1.9,1.3,2.9c0,1.5,0.1,3,0.1,4.5c0,0.5,0,1.1,0,1.6
												c0,0.3-0.1,0.3,0,0.4c0,0,0.1,0.1,0.2,0.2c0.2,0.1,0.3,0.2,0.4,0.4c0.2,0.3,0.3,0.7,0.4,1.2c0.1,0.6,0.1,1.2,0,1.6
												c-0.1,0.6-0.2,1.3-0.4,1.9c-0.1,0.6-0.3,1,0.2,1.6c0.2,0.2,0.4,0.3,0.5,0.5C378,173.6,378.1,174.7,378,175.7z"/>
											<path id="XMLID_250_" class="st35" d="M382.4,174.7c-0.3,0.1-0.5,0.1-0.8,0.2c-0.1-0.6-0.2-1.1-0.3-1.7
												c-0.2-0.6-0.4-1.2-0.8-1.7c-0.2-0.3-0.3-0.5-0.4-0.9c-0.1-1,0.1-1.9,0.1-2.9c0-0.5-0.1-1-0.2-1.4c0-0.1,0-0.1,0-0.2
												c-0.1-0.8-0.2-1-0.8-1.6c-0.1-0.2-0.3-0.3-0.4-0.5c-0.2-0.4-0.4-0.7-0.3-1.2c0.2-1.3,0.4-2.4,0.2-3.7
												c-0.1-0.6-0.1-1.2-0.2-1.9c-0.1-0.8-0.5-1.4-0.8-2.1c-0.5-1.1-1.2-2.3-2.5-2.5c0.3-0.2,0.5-0.4,0.8-0.6
												c1.7,0.7,2.6,2.7,3.2,4.4c0.4,1.1,0.5,2.6,0.5,3.7c0,0.6,0,1.1-0.1,1.7c0,0.3-0.2,0.7-0.2,1c0,0.4,0.1,0.6,0.3,0.8
												c0.1,0.1,0.2,0.2,0.3,0.3c0.6,0.6,0.8,1.3,1,2.1c0.2,1.3,0,2.7,0,3.9c0,0.7,0.3,1,0.6,1.6c0.3,0.5,0.4,1,0.5,1.5
												C382.3,173.7,382.4,174.2,382.4,174.7z"/>
											<path id="XMLID_244_" class="st35" d="M386.8,173.8c-0.3,0-0.5,0.1-0.8,0.1c0-0.8-0.1-1.6-0.5-2.3s-0.9-1.2-1-2
												c-0.1-1.1,0.1-2.4-0.2-3.5c-0.1-0.2-0.1-0.3-0.2-0.5c-0.4-0.8-1-1.4-1.2-2.3c-0.1-0.2-0.1-0.4-0.1-0.6
												c0-0.8,0.3-1.6,0.3-2.4c0-1.4,0-2.8-0.3-4.2c-0.2-1.1-0.5-2.2-0.8-3.3c-0.3-0.7-0.6-1.6-1.3-2.1
												c-0.3-0.2-0.6-0.4-0.8-0.7l0,0c0.2-0.1,0.5-0.2,0.8-0.3c0.2,0.3,0.8,0.6,1,0.9c0.4,0.5,0.6,1,0.9,1.6
												c0.5,1.2,0.7,2.3,1,3.5s0.3,2.4,0.4,3.7c0,0.7,0.1,1.4-0.1,2c-0.1,0.4-0.2,0.8-0.2,1.1c0,0.2,0,0.4,0,0.6
												c0.2,0.9,0.8,1.6,1.3,2.5c0.1,0.2,0.2,0.4,0.3,0.7c0.2,1.1,0.1,2.1,0.2,3.2c0.1,0.9,1,1.8,1.2,2.7
												C386.7,172.7,386.8,173.3,386.8,173.8z"/>
											<path id="XMLID_241_" class="st35" d="M392,173.2c-0.3,0-0.5,0-0.8,0.1c0-0.2,0-0.5,0-0.7c0-1.4-0.3-2.5-0.9-3.7
												c-0.5-1-0.4-1.9-0.4-3c0-0.2,0-0.4-0.1-0.5c-0.2-1.1-0.9-2-1.4-2.9c-0.1-0.2-0.2-0.4-0.3-0.6l0,0
												c-0.2-0.8-0.1-1.6-0.1-2.5c0-0.6-0.2-1.1-0.2-1.6c0-0.7-0.1-1.4-0.2-2.2c-0.4-2.2-0.3-6-2.8-6.9c0.5-0.1,1-0.1,1.4-0.1
												l0,0c0.4,0.4,0.7,0.8,0.9,1.4c0.5,1.3,0.8,2.5,0.9,3.9c0.1,0.8,0.3,1.7,0.4,2.5c0.1,0.6,0,1.2,0.1,1.8
												c0.2,1.2-0.1,2.5,0.3,3.6c0.1,0.2,0.1,0.3,0.3,0.5c0.6,0.9,1.3,1.9,1.4,3.1c0,0.1,0,0.1,0,0.2c0.1,0.7-0.1,1.4,0,2.1
												c0.1,0.6,0.5,1.2,0.7,1.8C391.9,170.7,392.1,171.9,392,173.2z"/>
											<path id="XMLID_240_" class="st35" d="M397.7,173.2c-0.3,0-0.5,0-0.8,0c0-0.3-0.1-0.6-0.1-0.9c-0.1-0.6-0.4-1.1-0.6-1.6
												c-0.3-0.6-0.6-1.1-1-1.7c-0.6-1-0.6-1.8-0.4-2.9c0-0.2,0.1-0.5,0.1-0.7c0.1-0.5,0.1-1-0.1-1.5s-0.5-0.9-0.7-1.4
												c-0.1-0.2-0.2-0.5-0.2-0.8c0-0.6,0.2-1.2,0.2-1.8c0-1.3,0-2.5-0.1-3.8c-0.1-1.5-0.4-2.9-1.1-4.2c-0.5-0.8-0.9-2-1.6-2.7
												c0.4,0.1,0.9,0.3,1.3,0.5l0,0c0.3,0.4,0.5,0.9,0.7,1.3c0.6,1.3,1.2,2.4,1.4,3.8c0.2,1.4,0.2,2.8,0.2,4.2
												c0,0.6,0.1,1.2,0,1.8c0,0.4-0.1,0.7-0.1,1c0,0.2,0.1,0.4,0.2,0.6c0.5,1,0.7,2,0.6,3.1c0,0.1,0,0.2,0,0.3
												c-0.1,0.9-0.4,1.5,0,2.4c0.3,0.6,0.8,1.1,1,1.7C397.3,170.9,397.6,172.1,397.7,173.2z"/>
											<path id="XMLID_239_" class="st35" d="M401.8,173.7c-0.3,0-0.6-0.1-0.8-0.1c0-0.1,0-0.1,0-0.2c-0.2-0.9-0.7-1.7-0.7-2.6
												c0-1.2,0-2.3-0.2-3.5c-0.1-0.6-0.2-1.1-0.4-1.6c-0.2-0.5-0.4-0.9-0.6-1.5s-0.2-1.3-0.1-1.9c0-0.2,0.1-0.4,0.1-0.6
												c0.2-1.2,0-2.2-0.2-3.4c-0.2-1.4-0.4-2.9-1-4.2c-0.3-0.7-1-1.3-1.1-2.1c0.8,0.7,1.5,1.5,2,2.4c0.1,0.1,0.1,0.2,0.1,0.2
												l0,0c0.5,1.3,0.6,2.6,0.8,3.9c0.2,1,0.4,1.9,0.2,3c-0.1,0.3-0.1,0.7-0.2,1c0,0.2-0.1,0.5-0.1,0.8c0,0.6,0.4,1.2,0.6,1.7
												c0.1,0.3,0.2,0.5,0.3,0.8c0.2,0.7,0.3,1.4,0.4,2.1c0.2,1.2-0.2,2.4,0.2,3.6C401.4,172.1,401.6,172.9,401.8,173.7z"/>
											<path id="XMLID_238_" class="st35" d="M404.2,172.8L404.2,172.8c-0.1,0.4-0.3,0.8-0.5,1.1c-0.1,0-0.3-0.1-0.4-0.1
												c0-0.1,0.1-0.3,0.1-0.4c0.3-1.5-0.5-2.9-0.6-4.3c-0.1-1.4,0.3-2.7,0.3-4.1c0-0.6-0.1-1.1-0.4-1.6
												c0.4,0.2,0.8,0.4,1.1,0.7c0,0.3,0.1,0.6,0.1,0.9c0.1,1.4-0.4,2.7-0.3,4.1c0.1,0.8,0.4,1.5,0.5,2.2
												C404.1,171.9,404.2,172.4,404.2,172.8z"/>
											<path id="XMLID_237_" class="st35" d="M374.5,176.5c0,0.4,0,0.7,0.1,1c-0.3,0.1-0.5,0.2-0.8,0.4c0-0.1,0-0.2,0-0.3
												c-0.1-1.1,0-2.1,0.2-3.1c0.2-0.9,0.2-1.4-0.3-2.1c-0.2-0.4-0.4-0.7-0.6-1.1c-0.1-0.4-0.2-0.8-0.3-1.3
												c-0.1-0.4-0.2-0.7-0.3-1.1c0-0.1,0-0.2-0.1-0.3c-0.1-0.4-0.1-0.7-0.1-1.1c0-0.1,0-0.2,0-0.3c0.1-0.5,0.3-0.8,0.4-1.3
												c0.2-1.1-0.7-2.2-1-3.3s0.1-2.4-1.1-3.2c-1-0.6-2-0.2-2.8,0.5c0.3-0.5,0.7-1,1.1-1.5c0.9-0.3,1.9-0.1,2.7,0.8
												c0.9,1,0.6,1.9,0.9,3.2c0.3,1.1,1.1,2.1,1.1,3.3c0,0.4-0.2,0.7-0.3,1c-0.1,0.2-0.2,0.5-0.2,0.8s0,0.7,0.1,1
												s0.2,0.6,0.3,1c0.2,0.6,0.1,1.2,0.3,1.7c0.2,0.6,0.7,1,0.9,1.6C375.2,174,374.6,175.3,374.5,176.5z"/>
											<path id="XMLID_235_" class="st35" d="M373.6,176.8c-0.1,0.5-0.3,1-0.3,1.4c-0.3,0.1-0.6,0.3-0.9,0.5
												c0-0.5,0.1-1,0.2-1.5c0.3-1,0.4-1.7,0-2.8c-0.3-0.7-0.6-1.4-0.8-2.1c-0.4-1-0.4-2.1-0.6-3.2c0.2-0.4,0.4-0.7,0.7-1
												c0,0.1,0,0.3,0.1,0.4c0.1,0.7,0.2,1.3,0.3,2c0.1,0.9,0.2,1.5,0.6,2.3C373.3,174.1,373.9,175.3,373.6,176.8z"/>
											<path id="XMLID_234_" class="st35" d="M369.7,163.7c-0.2,0.2-0.4,0.3-0.6,0.5c-0.1-0.2-0.3-0.4-0.3-0.5
												c-0.2-0.3-0.4-0.5-0.6-0.7c-0.2-0.1-1-0.7-1.2-0.5l-0.1,0.1c0.1-0.3,0.2-0.6,0.3-0.9c0.5,0,1,0.3,1.3,0.6
												c0.4,0.3,0.7,0.6,0.9,1C369.5,163.5,369.6,163.6,369.7,163.7z"/>
										</g>
									</g>
									<g id="XMLID_100_">
										<path id="XMLID_101_" class="st21" d="M402.6,168.5c0.2-0.7,0.6-1.5,0.3-2.2c-0.2-0.4-0.5-0.7-0.8-1.1
											c-0.2-0.4-0.3-0.9,0-1.2c0.6,0,1.3,0.2,1.9,0.4c-0.1-0.1-0.2-0.2-0.3-0.2c-0.9-0.7-1.9-1-3-1.3
											c-8.7-2.3-18.3-1.1-26.1,3.3c-1,0.5-1.9,1.2-2.7,2c1.6-0.9,3.2-1.6,4.9-2.4c4-1.8,8.5-3.5,12.8-2.4c1,0.3,2.2,0.9,2.3,2
											c0,0.8-0.5,1.4-1.2,1.8c-0.7,0.4-1.4,0.5-2.2,0.6c-4.9,0.8-9.5,2.8-13.5,5.7c3.6-1.5,7.4-2.6,11.2-3.1
											c0.7-0.1,1.5-0.2,2.2,0c1.4,0.3,2.4,1.6,2.8,3c3.8-0.3,7.6-0.1,11.3,0.5c0.1-0.3,0.1-0.6,0.1-0.9
											C402.7,171.4,402.2,169.9,402.6,168.5z"/>
									</g>
								</g>
								<path id="XMLID_97_" class="st36" d="M394.2,187.3c-0.3,0.2-0.5,0.5-0.4,0.8c0-0.1,2.7-0.1,2.9-0.1
									C396.5,187.1,394.8,186.9,394.2,187.3z"/>
							</g>
							<path id="XMLID_94_" class="st25" d="M375.5,215.8c-0.5,0.2-0.9,0.4-1.3,0.6c-0.5,0.2-1,0.3-1.4,0.1
								c-0.2-0.1-0.4-0.3-0.3-0.5c0-0.1,0.1-0.1,0.2-0.2c1-0.5,2-0.9,3-1.5c0.9-0.6,1.9-1.3,2.3-2.3c-1-0.1-2,0.3-2.9,0.7
								c-0.9,0.5-1.7,1-2.7,1.4c-0.3,0.1-0.6,0.2-0.8,0.1c-0.3-0.1-0.5-0.5-0.5-0.8s0.2-0.6,0.3-0.9c1.2-1.8,3.4-2.6,5.4-3.3
								c-1.8,0-3.5,0.6-5,1.5c-0.3,0.2-0.6,0.4-1,0.5s-0.8,0-1-0.3s-0.1-0.7,0.1-1s0.5-0.5,0.8-0.7c1.4-0.9,3.1-1.9,4.7-2.3
								c-0.6-0.6-1.7-0.5-2.5-0.1s-1.5,1-2.4,1.2c-0.3,0.1-0.6,0.1-0.9,0s-0.5-0.4-0.5-0.7s0.2-0.5,0.4-0.7c0.8-0.7,1.6-1.5,2.4-2.2
								c0.3-0.3,0.7-0.6,1.1-0.8c0.6-0.3,1.4-0.3,2.1-0.3c1.1,0,2.2,0,3.2,0s1.9,0,2.8,0.3c0.4,0.2,0.8,0.7,0.8,1.2s-0.1,0.9,0,1.4
								c0.2,0.7,0.9,1.1,0.9,1.8c0,0.5-0.4,0.9-0.3,1.4c0.1,0.6,0.7,0.9,0.9,1.5c0.1,0.5-0.2,1-0.2,1.5c0,0.4,0.2,0.8,0.2,1.2
								c0,0.6-0.5,1.2-1,1.6C381.5,216.1,377.1,215.3,375.5,215.8z"/>
							<g id="XMLID_92_">
								<path id="XMLID_93_" class="st7" d="M404.5,222.8c-1.8-1.5-3.9-2.5-6-3.4c-3.3-1.5-6.6-3-10-4.4c-0.3-0.1-0.5-0.2-0.7-0.5
									c-0.2-0.2-0.3-0.4-0.4-0.7c-0.4-0.8-1-1.3-1.5-1.4c0.8,1.3,1.3,2.7,1.2,4.2c-0.1,2-1.4,4-3.3,4.5c1.2,0.3,2.6,0,3.5-0.9
									s1.3-2.3,0.9-3.5c3.1,1.6,6.1,3.3,9.2,4.9c2.9,1.5,5.9,3.1,8,5.7c0.8,1,1.5,2.2,1.9,3.5c0.2-0.6,0.3-1.3,0.3-1.9
									C407.6,226.5,406.2,224.3,404.5,222.8z"/>
							</g>
						</g>
					</g>
				</g>
			</g>
		</g>
	</g>
	<g id="XMLID_82_">
		<g id="XMLID_701_">
			<ellipse id="XMLID_754_" class="st37" cx="273.3" cy="514.7" rx="65.9" ry="10.2"/>
			<g id="XMLID_702_">
				<path id="XMLID_753_" class="st38" d="M239.1,501.8c0,0-17,3.2-17.2,7.9s-0.3,4.6-0.3,4.6s37.6,1.7,37.5,0
					c0-1.7-2.5-10.9-2.5-10.9L239.1,501.8z"/>
				<path id="XMLID_752_" class="st38" d="M305.9,501.8c0,0,17,3.2,17.2,7.9c0.3,4.6,0.3,4.6,0.3,4.6s-37.6,1.7-37.5,0
					c0-1.7,2.5-10.9,2.5-10.9L305.9,501.8z"/>
				<path id="XMLID_751_" class="st39" d="M221.1,276.6c0,0,0.2,30.3,3.2,55.1s11.5,68.6,12.2,100.4c0.7,31.9,2.2,65.2,2.2,65.2
					s-7.4,4.1-3,7.4s22.6,10,25.9,7c3.3-3,2.6-10.4,2.6-10.4s-7-110.4-8.5-145.7s-1.9-47.4,1.9-47.4c3.7,0,5.7,3,6.7,4.4
					c1,1.5,13.6,49.3,16.6,101.6s6.3,89.7,5.9,95.3c-0.4,5.6,21.5-3.3,24.1-3.3s-0.4-3,0-5.9c0.4-3-11.1-115.6-8.9-124.7
					c2.2-9.1-6.7-86.8-6.7-86.8L221.1,276.6z"/>
				<path id="XMLID_750_" class="st38" d="M289.4,149.9c0,0,18.9,7,20.8,9.4c1.9,2.3,17,66.7,15.9,66s-13,10.8-13.7,9.7
					s-12.6-24.1-12.6-24.1l-0.7,27.1l-2.6,31.1l1.5,21.5c0,0-65.6,0.7-76.3-8.9s-4.1-5.9,0-20s-1.5-64.5-1.5-64.5l-4.3-2.1
					c0,0,5.6-7.5,6.4-20.3c0.7-12.8,3-13.9,6.3-17.6c3.3-3.7,15.2-6.1,14.5-5.4C242.1,152.5,289.4,149.9,289.4,149.9z"/>
				<path id="XMLID_748_" class="st40" d="M255.9,141.4c0,0-14.8,5-14.3,9.1s8.9,21.3,8.7,20s3.3-15.4,5.6-16.9
					C258.1,152.2,255.9,141.4,255.9,141.4z"/>
				<path id="XMLID_746_" class="st40" d="M268.9,153.2l5.9,17.4c0,0,17-18,16.7-21.2c-0.4-3.2-14.6-9.5-14.6-9.5L268.9,153.2z"/>
				<path id="XMLID_745_" class="st40" d="M305.6,175.7l-3.8,38.9l-3.4-4.1l-1.7,57.3l-20.5,10c0,0,14.2-7.5,16.1-12.5
					s2.2-6.9,2.2-6.9s-18.1,9.2-17,7.8c1.1-1.4,12.2-12,14.7-17.2C294.7,243.5,296.9,184.9,305.6,175.7z"/>
				<path id="XMLID_744_" class="st7" d="M251.1,159.3c0.6-0.5,1.5,5.2,11.7,5.5c10.1,0.3,13.3-2.7,13.3-2.7l-5-10.3
					c0,0-17.6,1.1-18,1.5C252.7,153.6,251.1,159.3,251.1,159.3z"/>
				<path id="XMLID_742_" class="st41" d="M253.9,130.7v20.2l8.7,11.9c0,0,17.2-15.4,18.2-16c0.9-0.6,1.3-23.1,1.3-23.1l-13.2-3.5
					L253.9,130.7z"/>
				<polygon id="XMLID_741_" class="st42" points="253.9,145.5 282,129.4 282,123.6 253.9,130.7 				"/>
				<path id="XMLID_740_" class="st40" d="M272.5,163.7c-0.3-1.7-2.6-7.5-2.6-7.5l10.8-9.5c0,0,4.3,10.5,2.6,11.5s-7.2,6.6-7.2,6.6
					L272.5,163.7z"/>
				<path id="XMLID_739_" class="st40" d="M251.5,164.8c0.3-1.3,4.4-11.1,4.4-11.1s-0.4-2.6-2-2.8c-1.7-0.2-6.7-0.6-6.4,1.1
					S251.5,164.8,251.5,164.8z"/>
				<path id="XMLID_738_" class="st43" d="M243,109.7l1.2-5.4l-0.6-7.3c0,0-1.7-8.8-1.7-11.9h0.6l-0.6-6.1h1.1l1.1-6.3
					c0,0,1.5,1.2,2.1,0c0.7-1.2,1.1-3.8,2.1-5c1.1-1.2,8.6-9.2,8.6-9.2v2c0,0,3.7-2.2,5.1-2s5.4-2.4,5.4-2.4V58
					c0,0,11.4,3.2,13.7,4.7c2.4,1.6,5.1,4.6,7.2,5s3.8,0.5,3.8,0.5l-2.1,2.6l4.1,8.2l-2,1.2c0,0,0.4,4,0.8,4.7
					c0.3,0.8-0.4,13.2-2.5,20.8s-5.9,9.9-5.9,9.9L243,109.7z"/>
				<path id="XMLID_737_" class="st41" d="M249.5,85.7c0,0-2.8,2.4-2.8,4s0,15.7,0,15.7s-3.7-2.9-4.6,0.9
					c-0.9,3.8,2.2,10.3,3.7,11.6c1.4,1.3,2.8,1.8,2.8,1.8s1.1,7,1.8,8.3s10.7,12.3,17.3,11.3c6.6-0.9,17.1-12.9,17.5-13.7
					c0.4-0.8,1.2-6.6,1.2-6.6s4-2.8,5.3-6.5s2-6.7,0.8-7.5s-3.8,0-4,1.7s-1.2,2.4-1.2,2.4s0-8.7-0.4-9.5s-0.8-0.5-1.1-1.6
					c-0.3-1.1,0-7.5,0-7.5S281.5,86,282,85c0.5-1.1,1.4-2.4,0.7-2.4s-21.7-2-24-3.7s-2.9-2.8-3.3-2.6c-0.4,0.1,0.7,3.8-1.7,3.8
					s-5.1,0.5-5,1.1C248.8,81.7,249.5,85.7,249.5,85.7z"/>
				<path id="XMLID_736_" class="st42" d="M261.5,110.7c0,0,1.3-0.7,2.2,0s1.8,1.6,4.2,1.3c2.5-0.3,2.7-1.6,3.4-1.6s1,0.4,1,0.8
					c-0.1,0.4-1.1,0.6-1.8,1.2c-0.7,0.6-1.6,1.3-3.6,1.2c-2-0.1-2.7-1.3-3.4-1.7S262,112.3,261.5,110.7z"/>
				<g id="XMLID_732_">
					<path id="XMLID_735_" class="st7" d="M274.9,101.4c0,0,1-2.2,4.3-2.1s4.2,2.1,4.2,2.1S276.8,101.8,274.9,101.4z"/>
					<path id="XMLID_734_" class="st39" d="M274.7,101.4l0.2,0.6c0,0,2.1,0.8,5,0.5s3.8-0.6,3.8-0.6s0-0.7-0.4-0.6
						C282.8,101.4,274.7,101.4,274.7,101.4z"/>
					<path id="XMLID_733_" class="st39" d="M277.1,99.6c0,0-0.7,1.5,0.4,1.9c1,0.5,3.6-0.2,3.6-0.2s0.8-0.9,0-1.8
						C280.3,98.8,277.3,99.5,277.1,99.6z"/>
				</g>
				<g id="XMLID_728_">
					<path id="XMLID_729_" class="st44" d="M257.1,101.4v1.2c1.9-0.1,3.2-0.5,3.2-0.5l0.2-0.6C260.5,101.4,258.9,101.4,257.1,101.4z
						"/>
				</g>
				<g id="XMLID_717_">
					<polygon id="XMLID_722_" class="st45" points="278.2,146.8 275.7,145.4 296,107.3 301.7,108.6 					"/>
					<path id="XMLID_721_" class="st46" d="M278.2,146.8c1.4,0,2.5,1.5,2.5,1.5l22.6-38.1l6-10.6c0,0-0.4-2.4-0.9-1.8
						s-6.7,10.8-6.7,10.8H299L278.2,146.8z"/>
					<path id="XMLID_720_" class="st46" d="M308,98.4l-1.2-0.8l3.2-4.4c0,0,2.8,1.6,2.8,2s-4.2,5.5-4.2,5.5L308,98.4z"/>
					<polygon id="XMLID_719_" class="st7" points="295.2,108.9 296.6,110.1 291.2,119.4 289.9,118.8 					"/>
					<path id="XMLID_718_" class="st41" d="M296,162c0,0-3.6-2.3-4.7-4.9c-1.1-2.7-2.3-10.4-4.3-12.2c-2-1.9-4.5-3.2-4.4-4
						s0.3-1.5,1.9-0.7s4.3,2.5,4.8,3.2s-0.4-3.1-1.9-4.7c-1.5-1.6-2.8-2.3-2.7-3.1c0.1-0.8,0.7-1.3,2.1-0.7c1.5,0.7,3.7,3.1,4.3,4.1
						c0.5,1.1,1.9,4.7,1.9,4.7s0.7-4.3-0.3-6.4c-0.9-2.1-5.7-6.8-5.2-7.6s1.9-1.7,3.3,0c1.5,1.7,4.9,5.5,5.1,6.6
						c0.1,1.2-0.1,4.5,0,5.2s1.6-5.5,1.5-7.3c-0.1-1.9-5.7-9.7-5.6-10.8c0.1-1.1,0-0.7,1.5,0s6,9.2,6.5,10.6
						c0.5,1.5,1.1,19.5,1.1,19.5l2.9,5.2L296,162z"/>
				</g>
				<path id="XMLID_716_" class="st47" d="M293,162c0,0,4.8,62.6,14.1,71s17.1,1.6,17.8-5.9c0.7-7.5-18.9-68.8-21.1-68.2
					C301.7,159.6,293,162,293,162z"/>
				<g id="XMLID_712_">
					<path id="XMLID_715_" class="st7" d="M273.6,102.3c0,0,1.6,2,5.2,1.3s4.7-2,4.7-2s0-1-2.5-1.7C278.6,99.2,274,99.7,273.6,102.3
						z"/>
					<ellipse id="XMLID_714_" class="st44" cx="277.8" cy="101.4" rx="2" ry="2"/>
					<path id="XMLID_713_" class="st44" d="M273.6,102.3c0,0,0.3-3.1,4-3.6s5.8,2.7,5.8,2.7s-1-1.6-4.9-1.8
						C274.7,99.5,273.3,102.4,273.6,102.3z"/>
				</g>
				<g id="XMLID_708_">
					<path id="XMLID_711_" class="st7" d="M252.3,102c0,0,1.5,2.1,5.1,1.7c3.6-0.4,4.8-1.6,4.8-1.6s0.1-1-2.3-1.9
						C257.5,99.2,252.8,99.4,252.3,102z"/>
					<ellipse id="XMLID_710_" class="st44" cx="256.5" cy="101.4" rx="2" ry="2"/>
					<path id="XMLID_709_" class="st44" d="M252.3,102c0,0,0.5-3,4.3-3.3c3.8-0.3,5.6,3.1,5.6,3.1s-0.9-1.7-4.7-2.1
						C253.6,99.2,252,102,252.3,102z"/>
				</g>
				<path id="XMLID_705_" class="st38" d="M202.3,233.7c0.9,21.6,11.9,54.9,12.8,55.2c0.9,0.2,3.2-0.9,8.1-5.5
					c5-4.6,6.8-13.2,6.8-13.2s2.9,1.8,9.9,3.5V153l-3.7-0.2c0,0-15.7,9.5-21.5,14C208.8,171.3,201.4,212.1,202.3,233.7z
					 M221.4,229.5c0.8-14.2,4.6-27.2,4.6-27.2s3.3,42.8,0,54.5C226.1,256.7,220.6,243.7,221.4,229.5z"/>
				<path id="XMLID_704_" class="st40" d="M226.2,182.5c-0.7-6.7-1.2-11.4-1.2-11.4s0.5,19.6-1.1,29c-1.6,9.5-2.7,30.4-2.7,30.4
					l5-25.9V182.5z"/>
				<path id="XMLID_703_" class="st41" d="M229.3,272.5c0,0,0.1,8.5-3.3,15.1c-3.4,6.6-4.7,6.9-4.7,6.9l-3.3-9.4L229.3,272.5z"/>
			</g>
		</g>
		<path id="XMLID_81_" class="st7" d="M261.5,124.4c0,0,10.3-1.8,12,0s0.7,1.3-2,0.9s-7.2,0.2-9.5,0.6
			C259.9,126.4,261.5,124.4,261.5,124.4z"/>
		<path id="XMLID_83_" class="st44" d="M262.2,93.8c-0.3,0.2-11.2,4.8-12.5,4.9c0,0,0.3-1.8,1.5-2.4s11-3.5,11-3.5V93.8z"/>
		<path id="XMLID_84_" class="st44" d="M272.3,93.8c0.3,0.2,11.2,4.8,12.5,4.9c0,0-0.3-1.8-1.5-2.4s-11-3.5-11-3.5V93.8z"/>
	</g>
</g>
</svg>
