<?xml version="1.0" encoding="utf-8"?>
<!-- Generator: Adobe Illustrator 20.0.0, SVG Export Plug-In . SVG Version: 6.00 Build 0)  -->
<svg version="1.1" id="Layer_1" xmlns="http://www.w3.org/2000/svg" xmlns:xlink="http://www.w3.org/1999/xlink" x="0px" y="0px"
	 viewBox="0 0 64 64" style="enable-background:new 0 0 64 64;" xml:space="preserve">
<style type="text/css">
	.st0{opacity:1.000000e-02;fill:none;stroke:#FFFFFF;stroke-width:0.111;stroke-miterlimit:10;}
	.st1{fill:#EBEBEE;}
	.st2{fill:#D9D9DB;}
	.st3{fill:#EAEAEA;}
	.st4{fill-rule:evenodd;clip-rule:evenodd;fill:#EFF0F0;}
	.st5{fill-rule:evenodd;clip-rule:evenodd;fill:#EAEAEA;}
	.st6{fill-rule:evenodd;clip-rule:evenodd;fill:#D9D9DB;}
	.st7{fill:#CC4444;}
	.st8{fill:#EAB498;}
	.st9{fill:#FFCEB3;}
	.st10{fill:#EF6262;}
	.st11{fill:#EEEBF2;}
	.st12{fill:#B23636;}
	.st13{fill:#EAB69B;}
	.st14{fill:#2A2A28;}
	.st15{fill:#FFFFFF;}
	.st16{fill:#B2B2B0;}
	.st17{opacity:0.3;clip-path:url(#XMLID_88_);fill:#C5C5C5;}
	.st18{fill:#00C2AE;}
	.st19{opacity:1.000000e-02;fill:none;stroke:#FFFFFF;stroke-width:0.1107;stroke-miterlimit:10;}
	.st20{fill:#BDBDC1;}
	.st21{fill:#D1CE57;}
	.st22{fill:#B1B1B2;}
	.st23{fill:#D18F42;}
	.st24{opacity:0.44;fill:#EDB264;}
	.st25{fill:#B77430;}
	.st26{fill:#EDB264;}
	.st27{opacity:0.55;fill:#CC8E44;}
	.st28{fill:#CC8E44;}
	.st29{fill:#A06127;}
	.st30{fill:#EFF0F0;}
	.st31{fill:#C4C4C4;}
	.st32{fill:#9B9B9B;}
	.st33{fill:#AAAAAA;}
	.st34{fill:#F94B58;}
	.st35{opacity:1.000000e-02;fill:none;stroke:#FFFFFF;stroke-width:0.1111;stroke-miterlimit:10;}
	.st36{fill:#F2F2F2;}
	.st37{fill:#9C9EA0;}
	.st38{fill:#E6E6E6;}
	.st39{fill:#2E325B;}
	.st40{fill:#303030;}
	.st41{fill:#7CCE9D;}
	.st42{fill:#FC6565;}
	.st43{fill:#ADADB2;}
	.st44{fill:#8F8F93;}
	.st45{fill:#343535;}
	.st46{fill:#1B1C1C;}
	.st47{fill:#6F7070;}
	.st48{fill:#ADADAD;}
	.st49{fill:#5B5B5B;}
	.st50{fill:#676868;}
	.st51{fill:#818484;}
	.st52{fill:#595B5B;}
	.st53{fill:#C4C6C6;}
	.st54{fill:#838484;}
	.st55{fill:#191919;}
	.st56{opacity:0.2;fill:#FFFFFF;}
	.st57{fill:#DD62EF;}
	.st58{fill:#E37DF4;}
	.st59{fill:#EA97FC;}
	.st60{fill:#35383D;}
	.st61{opacity:0.3;}
	.st62{opacity:0.5;fill:#FFFFFF;}
	.st63{fill:#020103;}
	.st64{fill:#060506;}
	.st65{fill:#232325;}
	.st66{fill:#040305;}
	.st67{fill:#424141;}
	.st68{fill:#0D0D0F;}
	.st69{fill:#CC3E45;}
	.st70{fill:#505050;}
	.st71{fill:#646464;}
	.st72{fill:#333333;}
	.st73{fill:#2B2B2D;}
	.st74{fill:#5F5F5F;}
	.st75{fill:#4A4A4B;}
	.st76{fill:#777676;}
	.st77{fill:#E8EBEC;}
	.st78{fill:#B0B4B4;}
	.st79{fill:#752289;}
	.st80{fill:#8F31A3;}
	.st81{opacity:0.35;}
	.st82{fill:#5A5A5A;}
	.st83{fill:#8E8E8E;}
	.st84{fill:#888888;}
	.st85{fill:#D6D6D6;}
	.st86{fill:#A3A3A3;}
	.st87{fill:#7B7B7B;}
	.st88{fill:#919191;}
	.st89{fill:#818181;}
	.st90{fill:#BCBCBC;}
	.st91{fill:#6A6A6A;}
	.st92{fill:#7C7C7C;}
	.st93{fill:#898989;}
	.st94{fill:#B8B8B8;}
	.st95{fill:#494949;}
	.st96{fill:#808080;}
	.st97{fill:#4B4B4B;}
	.st98{fill:#7D7D7D;}
	.st99{fill:#525252;}
	.st100{fill:#D7D7D7;}
	.st101{fill:#565656;}
	.st102{fill:#585858;}
	.st103{fill:#575757;}
	.st104{fill:#D4D4D4;}
	.st105{fill:#484848;}
	.st106{fill:#A4A4A4;}
	.st107{fill:#373737;}
	.st108{fill:#595959;}
	.st109{fill:#EFEFEF;}
	.st110{fill:#6B6B6B;}
	.st111{fill:#404040;}
	.st112{fill:#BDBDBD;}
	.st113{fill:#9C9C9C;}
	.st114{fill:#929292;}
	.st115{fill:#DDDDDD;}
	.st116{fill:#CACACA;}
	.st117{fill:#CBCBCB;}
	.st118{fill:#BBBBBB;}
	.st119{fill:#7E7E7E;}
	.st120{fill:#656565;}
	.st121{fill:#666666;}
	.st122{fill:#F0F0F0;}
	.st123{fill:#4A4A4A;}
	.st124{fill:#1F1F1F;}
	.st125{fill:#343434;}
	.st126{fill:#E9E9E9;}
	.st127{fill:#FAFAFA;}
	.st128{fill:#FCFCFC;}
	.st129{fill:#F5F5F5;}
	.st130{fill:#ECECEC;}
	.st131{fill:#C7C7C7;}
	.st132{fill:#D3D3D3;}
	.st133{fill:#D5D5D5;}
	.st134{fill:#EEEEEE;}
	.st135{fill:#363636;}
	.st136{fill:#BABABA;}
	.st137{fill:#D1D1D1;}
	.st138{fill:#6C6C6C;}
	.st139{fill:#686868;}
	.st140{fill:#616161;}
	.st141{fill:#626262;}
	.st142{fill:#2F2F2F;}
	.st143{fill:#848484;}
	.st144{fill:#636363;}
	.st145{fill:#FBFBFB;}
	.st146{fill:#E7E7E7;}
	.st147{fill:#F9F9F9;}
	.st148{fill:#8F8F8F;}
	.st149{fill:#949494;}
	.st150{fill:#959595;}
	.st151{fill:#969696;}
	.st152{fill:#E4E4E4;}
	.st153{fill:#E8E8E8;}
	.st154{fill:#FDFDFD;}
	.st155{fill:#E5E5E5;}
	.st156{fill:#F3F3F3;}
	.st157{fill:#F6F6F6;}
	.st158{fill:#F4F4F4;}
	.st159{fill:#FEFEFE;}
	.st160{fill:#CDCDCD;}
	.st161{fill:#D8D8D8;}
	.st162{fill:#E3E3E3;}
	.st163{fill:#939393;}
	.st164{fill:#979797;}
	.st165{fill:#828282;}
	.st166{fill:#4C4C4C;}
	.st167{fill:#777777;}
	.st168{fill:#B6B6B6;}
	.st169{fill:#B7B7B7;}
	.st170{fill:#B2B2B2;}
	.st171{fill:#B1B1B1;}
	.st172{fill:#8D8D8D;}
	.st173{fill:#9A9A9A;}
	.st174{opacity:0.35;fill:#FFFFFF;}
	.st175{fill:#A9A9AA;}
	.st176{fill:#263238;}
	.st177{fill:#E0E0E0;}
	.st178{fill:#FAFBFB;}
	.st179{opacity:0.76;fill:#F6F6F6;}
	.st180{fill:#F78494;}
	.st181{fill:#CE5B6F;}
	.st182{fill:#0F0F0F;}
	.st183{opacity:0.75;fill:#E0697E;}
	.st184{fill:#F2BCA0;}
	.st185{opacity:0.75;fill:#A83F56;}
	.st186{fill:#F44D4D;}
	.st187{opacity:1.000000e-02;fill:none;stroke:#FFFFFF;stroke-width:0.1143;stroke-miterlimit:10;}
	.st188{fill-rule:evenodd;clip-rule:evenodd;fill:#EBEBEE;}
	.st189{fill-rule:evenodd;clip-rule:evenodd;fill:#D6D6D6;}
	.st190{fill-rule:evenodd;clip-rule:evenodd;fill:#2B8977;}
	.st191{fill-rule:evenodd;clip-rule:evenodd;fill:#141413;}
	.st192{fill-rule:evenodd;clip-rule:evenodd;fill:#7B7C7C;}
	.st193{fill-rule:evenodd;clip-rule:evenodd;fill:#2A2A28;}
	.st194{fill-rule:evenodd;clip-rule:evenodd;fill:#1A436E;}
	.st195{fill-rule:evenodd;clip-rule:evenodd;fill:#FFFFFF;}
	.st196{fill-rule:evenodd;clip-rule:evenodd;fill:#2E937F;}
	.st197{fill-rule:evenodd;clip-rule:evenodd;fill:#68EAD1;}
	.st198{fill-rule:evenodd;clip-rule:evenodd;fill:#3BAD97;}
	.st199{fill-rule:evenodd;clip-rule:evenodd;fill:#A3A3A3;}
	.st200{fill-rule:evenodd;clip-rule:evenodd;fill:#2B937F;}
	.st201{fill-rule:evenodd;clip-rule:evenodd;fill:#FFCEB3;}
	.st202{fill-rule:evenodd;clip-rule:evenodd;fill:#51CEB6;}
	.st203{fill-rule:evenodd;clip-rule:evenodd;fill:#EFB69A;}
	.st204{opacity:0.25;fill-rule:evenodd;clip-rule:evenodd;fill:#2E937F;}
	.st205{fill-rule:evenodd;clip-rule:evenodd;fill:#1373AB;}
	.st206{fill-rule:evenodd;clip-rule:evenodd;fill:#4ACEB5;}
	.st207{fill-rule:evenodd;clip-rule:evenodd;fill:#FFC8AB;}
	.st208{fill-rule:evenodd;clip-rule:evenodd;fill:#4D0B0B;}
</style>
<g>
	<rect id="XMLID_1960_" class="st187" width="64" height="64"/>
	<rect id="XMLID_1003_" x="0" class="st187" width="64" height="64"/>
	<g id="XMLID_3128_">
		<g id="XMLID_2725_">
			<g id="XMLID_932_">
				<path id="XMLID_935_" class="st155" d="M22,15.8c-0.2,0-0.5,0-0.5,0.1c0,0,0,0,0,0c0-0.7-0.6-1.2-1.3-1.2
					c-0.6,0-1.2,0.5-1.2,1.1c-0.2-0.1-0.8-0.2-1-0.2c-0.6,0-1.5,0.5-1.5,1.2c0,0,0,0,0,0c0,0,0.2,0,0.1,0c-0.4,0-0.6,0.7-0.6,1.2
					c0,0.4,0.5,1.2,1,1.2c0.4,0,4.3,0,5,0c0.7,0,1.3-0.9,1.3-1.6C23.2,16.7,22.7,15.8,22,15.8z"/>
				<path id="XMLID_934_" class="st155" d="M55.9,15.8c-0.2,0-0.4,0-0.4,0.1c0,0,0,0,0,0c0-0.6-0.6-1.1-1.2-1.1
					c-0.6,0-1,0.4-1.1,0.9c-0.2-0.1-0.4-0.2-0.6-0.2c-0.6,0-1.1,0.5-1.1,1c0,0,0,0,0,0c-1,0-0.1,0-0.1,0c-0.4,0-0.7,0.3-0.7,0.7
					c0,0.4,0.3,0.7,0.7,0.7c0.3,0,3.8,0,4.4,0c0.6,0,1.1-0.5,1.1-1.1C56.9,16.3,56.5,15.8,55.9,15.8z"/>
				<path id="XMLID_933_" class="st155" d="M14,27.1c-0.2,0-0.5,0-0.5,0.1c0,0,0,0,0,0c0-0.6-0.4-1.1-1-1.1c-0.6,0-1,0.4-1,0.9
					c-0.2-0.1-0.5-0.2-0.7-0.2c-0.6,0-1.2,0.5-1.2,1c0,0,0,0,0,0c0,0,0.1,0,0,0c-0.4,0-0.6,0.2-0.6,0.6c0,0.4,0.4,0.6,0.8,0.6
					c0.3,0,3.8,0,4.4,0s1.1-0.4,1.1-1C15.1,27.4,14.6,27.1,14,27.1z"/>
			</g>
			<path id="XMLID_1039_" class="st2" d="M49.3,31.9v-3.5h-2.1l-0.1-0.3L47,28l-0.2-0.5c0.2-0.1,0.4-0.3,0.4-0.6
				c0-0.4-0.3-0.6-0.6-0.6s-0.6,0.3-0.6,0.6c0,0.3,0.2,0.5,0.4,0.6L46,28L46,28.2l-0.1,0.3h-1.1v-1.5l-1.2-0.8v2.3h-1.6V11.2h-1.5V9
				h-0.1V8.4h-0.6v2.8h-1.4v-6H38v6h-0.9V6.3h-0.3v4.9h-9.5v9.9h-8v7h-5.2v9.7v0.4v0.4h35.1h0.5v-0.8v-2.7h-0.5V34h1.3
				c0,0,0,0.2,0,0.5c0,0.3,0.3,0.3,0.3,0.3V34L49.3,31.9z M47.1,29.6h1.2v1.2h-1.2V29.6z M47.1,31.8h1.2V33h-1.2V31.8z M47.1,33.8
				h1.2v1.2h-1.2V33.8z M46.4,27.5c0,0,0.1,0,0.1,0c0,0,0.1,0,0.1,0l0.2,0.5h-0.7L46.4,27.5z M46.1,28.2h0.8l0.1,0.3H46L46.1,28.2z
				 M45.4,29.6h1.2v1.2h-1.2V29.6z M45.4,31.8h1.2V33h-1.2V31.8z M45.4,33.8h1.2v1.2h-1.2V33.8z M43.7,29.6h1.2v1.2h-1.2V29.6z
				 M43.7,31.8h1.2V33h-1.2V31.8z M43.7,33.8h1.2v1.2h-1.2V33.8z M42,29.6h1.2v1.2H42V29.6z M42,31.8h1.2V33H42V31.8z M42,33.8h1.2
				v1.2H42V33.8z M39.2,12.3h1.4v5.2h-1.4V12.3z M39.2,19h1.4v5.2h-1.4V19z M39.2,26.1h1.4v5.2h-1.4V26.1z M37.3,12.3h1.4v5.2h-1.4
				V12.3z M37.3,19h1.4v5.2h-1.4V19z M37.3,26.1h1.4v5.2h-1.4V26.1z M34.8,12.3h1.4v5.2h-1.4V12.3z M34.7,19h1.4v5.2h-1.4V19z
				 M36.2,26.1v5.2h-1.4v-5.2H36.2z M32.8,12.3h1.4v5.2h-1.4V12.3z M32.7,19h1.4v5.2h-1.4V19z M34.2,26.1v5.2h-1.4v-5.2H34.2z
				 M22.8,22.1h0.8v1.4h-0.8V22.1z M22.8,24.3h0.8v1.4h-0.8V24.3z M22.8,26.5h0.8v1.4h-0.8V26.5z M21.5,22.1h0.8v1.4h-0.8V22.1z
				 M21.5,24.3h0.8v1.4h-0.8V24.3z M21.5,26.5h0.8v1.4h-0.8V26.5z M20.3,22.1h0.8v1.4h-0.8V22.1z M20.3,24.3h0.8v1.4h-0.8V24.3z
				 M20.3,26.5h0.8v1.4h-0.8V26.5z M17.7,29.3h0.8v1.4h-0.8V29.3z M17.7,31.5h0.8v1.4h-0.8V31.5z M17.7,33.7h0.8v1.4h-0.8V33.7z
				 M16.5,29.3h0.8v1.4h-0.8V29.3z M16.5,31.5h0.8v1.4h-0.8V31.5z M16.5,33.7h0.8v1.4h-0.8V33.7z M15.2,29.3h0.8v1.4h-0.8V29.3z
				 M15.2,31.5h0.8v1.4h-0.8V31.5z M15.2,33.7h0.8v1.4h-0.8V33.7z"/>
			<g id="XMLID_2724_">
				<ellipse id="XMLID_1023_" class="st3" cx="32" cy="38.6" rx="26.5" ry="0.8"/>
				<path id="XMLID_728_" class="st152" d="M15.5,38.6c-0.2-0.3-0.6-0.2-0.6-0.2s0.1-0.3-0.2-0.5c-0.3-0.3-0.6-0.1-0.6-0.1
					s-0.1-0.4-0.6-0.4c-0.3,0-0.5,0.2-0.5,0.4c-0.1,0-0.1,0-0.2-0.1c-0.5-0.1-0.6,0.4-0.6,0.4c-0.4-0.1-0.5,0.2-0.5,0.2
					c-0.2,0-0.4,0.3-0.4,0.6h4.3C15.6,38.8,15.6,38.7,15.5,38.6z"/>
				<path id="XMLID_729_" class="st3" d="M19.8,38.5c-0.3-0.5-1-0.4-1-0.4s0.1-0.4-0.3-0.9c-0.4-0.4-1-0.1-1-0.1s-0.2-0.6-1-0.6
					c-0.6,0-0.8,0.4-0.9,0.7c-0.1,0-0.2-0.1-0.4-0.1c-0.8-0.1-1.1,0.6-1.1,0.6c-0.6-0.2-0.8,0.3-0.8,0.3c-0.4,0-0.7,0.5-0.7,0.9h7.4
					C19.9,38.7,19.9,38.6,19.8,38.5z"/>
				<path id="XMLID_955_" class="st3" d="M52.6,38.3c-0.6-0.6-1.8-0.5-1.8-0.5s0.2-0.6-0.6-1.1c-0.8-0.6-2-0.1-2-0.1s-0.4-0.8-2-0.8
					c-1.1,0-1.5,0.5-1.7,0.8c-0.2-0.1-0.4-0.1-0.7-0.1c-1.6-0.2-2.1,0.8-2.1,0.8c-1.1-0.3-1.5,0.3-1.5,0.3c-0.7,0-1.3,0.6-1.3,1.2
					h13.9C52.8,38.7,52.7,38.5,52.6,38.3z"/>
				<path id="XMLID_936_" class="st152" d="M54.6,38.5c-0.1-0.2-0.4-0.1-0.4-0.1s0-0.2-0.1-0.4c-0.2-0.2-0.4,0-0.4,0
					s-0.1-0.3-0.4-0.2c-0.2,0-0.3,0.2-0.4,0.3c0,0-0.1,0-0.2,0c-0.3-0.1-0.4,0.3-0.4,0.3C52,38.1,52,38.3,52,38.3
					c-0.2,0-0.3,0.2-0.3,0.4h3C54.6,38.6,54.6,38.5,54.6,38.5z"/>
			</g>
		</g>
		<g id="XMLID_803_">
			<g id="Woman">
				<path id="XMLID_931_" class="st188" d="M28.3,54.5c0.7,0.1,4.7,0.8,9,1.2c5.2,0.6,10.6,1.1,8.5,2.2c-2.6,1.5-12.5,0.9-20.2-0.3
					C2.9,54,17.5,52.3,28.3,54.5z"/>
				<path id="XMLID_930_" class="st189" d="M22.4,53.2c0.9-1.4,1.1-3.8,0.5-6.2c-0.8-3-2.6-5.1-4.3-5.2c-0.2,0-0.5,0-0.7,0.1
					c-1.9,0.6-2.7,3.9-1.9,7.4c0.6,2.3,1.7,4.1,2.9,4.9C20.2,54.9,21.6,54.4,22.4,53.2z"/>
				<path id="XMLID_929_" class="st190" d="M19.8,47.9c0.1,0.2,0.5,0.6,0.5,0.6s4.2-3.7,5.6-4.8c0,0-0.1-0.4-0.2-0.8
					C25.7,43,21.5,46.5,19.8,47.9z"/>
				<path id="XMLID_926_" class="st191" d="M15.4,49.4c-0.4-2,0.2-7.8,3.2-7.6c1.7,0.1,3.5,2.2,4.3,5.2c0.6,2.5,0.4,4.9-0.5,6.2
					C19.6,57.6,16.1,52.3,15.4,49.4L15.4,49.4z M23.6,47.1C22.7,43,20,40.3,17.5,41c-2.5,0.7-3.7,4.6-2.8,8.7c0.8,3.5,3,6.2,5.2,6.3
					c1.7,0.1,3.1-1.2,3.7-2.8C24.3,51.2,24,48.6,23.6,47.1z"/>
				<path id="XMLID_923_" class="st192" d="M23.3,46.9c-0.5-2.2-1.7-4.1-3.1-4.9c-1-0.6-2.5-0.5-3.4,0.1c-0.4,0.2-0.7,0.5-0.9,0.9
					l0,0c-1,1.4-1.3,3.8-0.7,6.2c0.5,2.3,1.8,4.4,3.2,5.3c1.8,1.2,3.6,0.2,4.6-1.6C23.9,51.1,23.5,48.2,23.3,46.9L23.3,46.9z
					 M17.6,42c0.8-0.3,1.7-0.2,2.4,0.3c1.2,0.8,2.3,2.5,2.8,4.8c0.4,1.5,0.8,4.9-1,6.8c-0.8,0.7-1.9,0.9-2.9,0.3
					c-1.2-0.8-2.3-2.6-2.9-4.9C15.2,46,15.9,42.8,17.6,42z"/>
				<path id="XMLID_922_" class="st193" d="M23.6,47c0.7,2.9,0.5,8.5-3.7,9c0.7,0.1,1.8-0.2,2.4-0.5c3.9-2.3,3.1-11.3-0.9-14
					c-1.3-0.9-3.5-1.2-5,0.1C20.4,39.6,22.9,43.9,23.6,47z"/>
				<path id="XMLID_921_" class="st194" d="M19.3,46.7c0.1,0,0.4-0.1,0.5-0.1c0.8,0,1.3,2,0.7,2.5c-0.1,0.1-0.4,0.2-0.5,0.3
					c-0.7,0.3-1-0.3-1.2-1c-0.1-0.3,0.4-0.5,0.4-0.8C19.3,47.2,18.9,46.8,19.3,46.7z"/>
				<path id="XMLID_920_" class="st195" d="M21.2,54c0.4-0.9,0.5-3.7,0.1-4.6c-0.1-0.3-0.6,0.1-1.3,0.6c0.4-0.3,1.3-1,0.8-2.5
					c1.4,2.6,1.2,3.3,1.6,3.3c0.3,0,0.5-2,0.6-3C23.1,50.9,22.5,53,21.2,54z"/>
				<path id="XMLID_919_" class="st195" d="M17.5,42.4c-0.8,2.1-0.2,3.5,0.1,3.7c0.2,0.1,0.8,0.5,1.3-0.1c-0.9,0.7-0.7,1.6-0.4,3
					c-0.7-1.9-1.7-4-2.1-4c-0.2,0-0.4,1.6-0.5,2.4C15.9,45,16.4,43.3,17.5,42.4z"/>
				<path id="XMLID_918_" class="st196" d="M27.8,33.6c-0.9-0.2-2.3,0.3-2.8,1.4c0,0.2,0.2,5,0.7,7.7c0.1,0.4-1.2,7.5-1,7.6
					c0.1,0.1,2.2,1.3,2.5,0.6c0.2-0.4,0.6-3.5,0.8-7.3c0.1-2.4,0.3-5,0.1-6.9C28,35.2,27.9,35.1,27.8,33.6z"/>
				<path id="XMLID_915_" class="st191" d="M26.6,53.6C26.6,53.6,26.6,53.6,26.6,53.6C26.6,53.6,26.6,53.6,26.6,53.6l0,0.1
					L26.6,53.6L26.6,53.6z M26.6,53.8C26.6,53.8,26.6,53.8,26.6,53.8l0-0.1l0-0.1c0,0-0.2,0.1-0.2,0.1c-0.1-0.1-0.2-0.2-0.4-0.3
					c-1-0.6-3.1-2.1-6.6-4.2l-0.1,0l0-2.1l0.1,0c5,0.7,7.6,0.9,7.6,0.9l0,0.2c0,0-2.5-0.2-7.4-0.9l0,1.7c3.4,2.1,5.6,3.5,6.5,4.1
					c0.2,0.1,0.3,0.2,0.4,0.3C26.7,53.7,26.8,53.8,26.6,53.8L26.6,53.8z"/>
				<path id="XMLID_914_" class="st197" d="M19.2,46.7c0.4-0.1,0.9,0.4,1.1,1.1c0.2,0.7,0,1.4-0.4,1.6c-0.4,0.1-0.9-0.4-1.1-1.1
					C18.6,47.5,18.8,46.8,19.2,46.7z"/>
				<path id="XMLID_913_" class="st189" d="M41.8,55.1c1-1.6,1.3-4.3,0.6-7.1c-0.9-3.4-2.9-5.8-4.9-5.9c-0.3,0-0.6,0-0.8,0.1
					c-2.2,0.7-3.1,4.5-2.1,8.4c0.7,2.6,1.9,4.6,3.3,5.5C39.3,57.1,41,56.5,41.8,55.1z"/>
				<path id="XMLID_912_" class="st191" d="M35,38.5c-1-1.9-2-3.7-3.1-5.3l-0.1,0.4c1,1.6,2,3.2,2.9,4.9H35z"/>
				<path id="XMLID_911_" class="st197" d="M39.3,48.5c-1.5-3.2-2.8-6.5-4.2-9.7c0.2-0.4,0.7-0.2,1.2-0.1c1.2,2.7,2.2,5.3,3.4,8
					c0.6,1.5,0.1,1.4,0.2,1.7c0.1,0.3,0.1,0.8,0.1,0.9C40,49.6,39.6,49.2,39.3,48.5z"/>
				<path id="XMLID_910_" class="st198" d="M37.6,41.5c-0.1-0.2-0.1-0.3-0.1-0.3c-0.2,0.1-0.5,0.8-0.7,1.4c0,0,0.1,0.1,0.2,0.4
					C37,42.4,37.4,41.7,37.6,41.5z"/>
				<path id="XMLID_907_" class="st191" d="M33.9,50.7c-0.5-2.3,0.2-8.9,3.6-8.6c1.9,0.1,4,2.5,4.9,5.9c0.7,2.8,0.4,5.5-0.6,7.1
					C38.7,60.1,34.7,54.1,33.9,50.7L33.9,50.7z M43.3,48.2c-1.1-4.6-4.2-7.7-7-6.9c-2.8,0.8-4.3,5.2-3.2,9.8c0.9,4,3.4,7,5.9,7.2
					c2,0.1,3.6-1.4,4.2-3.2C44,52.8,43.7,49.9,43.3,48.2z"/>
				<path id="XMLID_904_" class="st192" d="M42.8,48c-0.6-2.5-1.9-4.7-3.5-5.5c-1.2-0.6-2.8-0.6-3.9,0.2c-0.4,0.3-0.7,0.6-1,1.1l0,0
					c-1.1,1.6-1.5,4.3-0.8,7.1c0.6,2.7,2.1,5,3.6,6c2,1.4,4.1,0.2,5.2-1.8C43.6,52.7,43.2,49.5,42.8,48L42.8,48z M36.4,42.4
					c0.9-0.3,1.9-0.2,2.8,0.3c1.4,0.9,2.6,2.9,3.2,5.4c0.4,1.7,0.9,5.6-1.1,7.7c-0.9,0.8-2.2,1-3.3,0.3c-1.4-0.9-2.6-2.9-3.3-5.5
					C33.6,46.9,34.4,43.3,36.4,42.4z"/>
				<path id="XMLID_903_" class="st199" d="M33.9,50.6c0.9,4.1,5.1,9.5,8.2,4.1c-0.6,1-1.7,1.9-2.9,1.8c-2.4-0.1-4.1-4-4.6-5.9
					c-0.6-2.3-0.2-8.6,3-8.4C33.5,42.1,33.4,48.2,33.9,50.6z"/>
				<path id="XMLID_902_" class="st193" d="M43.2,48.1c0.8,3.3,0.5,9.7-4.3,10.2c0.8,0.1,2.1-0.2,2.8-0.6c4.5-2.7,3.5-12.8-1-15.9
					c-1.5-1-4-1.3-5.7,0.1C39.5,39.7,42.4,44.6,43.2,48.1z"/>
				<path id="XMLID_901_" class="st196" d="M38.3,47.7c0.1,0,0.5-0.2,0.6-0.2c0.9-0.1,1.5,2.3,0.8,2.8c-0.1,0.1-0.4,0.2-0.6,0.3
					c-0.8,0.3-1.1-0.4-1.3-1.2c-0.1-0.4,0.4-0.6,0.4-0.9C38.3,48.3,37.9,47.8,38.3,47.7z"/>
				<path id="XMLID_900_" class="st195" d="M36.1,42.9c-0.9,2.3-0.3,4,0.2,4.2c0.3,0.2,0.9,0.5,1.5-0.1c-1,0.8-0.8,1.9-0.4,3.4
					c-0.8-2.1-2-4.5-2.4-4.5c-0.3,0-0.5,1.8-0.6,2.8C34.3,45.8,34.9,43.9,36.1,42.9z"/>
				<path id="XMLID_899_" class="st195" d="M40.5,56.1c0.4-1.1,0.5-4.2,0.1-5.2c-0.2-0.4-0.7,0.1-1.5,0.7c0.5-0.4,1.5-1.2,1-2.8
					c1.6,2.9,1.3,3.8,1.8,3.8c0.3,0,0.6-2.2,0.7-3.4C42.7,52.5,42,54.9,40.5,56.1z"/>
				<path id="XMLID_898_" class="st198" d="M38.2,47.7c0.5-0.2,1,0.4,1.2,1.2c0.2,0.8,0,1.6-0.5,1.8c-0.5,0.2-1-0.4-1.2-1.2
					C37.5,48.7,37.8,47.9,38.2,47.7z"/>
				<path id="XMLID_897_" class="st197" d="M37.7,49.1c-0.6-0.7-1-1.1-1.4-2c-1.2-2.9-1.9-4.6-1.9-4.6c-0.5-1.2-1.1-2.7-1.1-2.9
					c0-0.8,0.3-0.8,1.1-0.1c0.1,0.7,0.6,1.8,0.9,2.7c1.3,2.9,2.1,5,3,6.6c0.4,0.8,0.4,1.2,0.2,1.3C38.3,50.2,38,49.8,37.7,49.1z"/>
				<path id="XMLID_896_" class="st191" d="M24,36.7c0.1-0.3,0.5-0.3,0.7-0.2c0.5,3,0.7,4.5,0.7,4.5c-0.4,0.1-0.7,0.2-0.7,0.2
					C24.3,38.3,24,36.7,24,36.7z"/>
				<path id="XMLID_895_" class="st193" d="M21.8,38.4c-0.1,0.2-0.2,0.4-0.1,0.5c0,0.3,2,0.3,2.6,0.3c1,0,2,0.4,2.8,0
					c0.4-0.2,0-0.8-0.8-1.2c-0.5-0.2-0.9-0.6-1.6-0.6C23.6,37.7,21.9,38,21.8,38.4z"/>
				<path id="XMLID_894_" class="st190" d="M19.4,48.8c-0.5-0.2-0.5-1-0.3-1.3c4.1-3.6,6.1-5.1,6.1-5.1c0.2,0.1,0.5,0.5,0.1,0.8
					c-1.1,1-3,2.7-5.1,4.4c0.1,0.3,0.2,0.5,0.2,0.5c3.9,1.5,5.1,2,4.8,1.9c0.2,0.7-0.1,0.8-0.1,0.8C20.9,49.4,20.3,49.1,19.4,48.8z"
					/>
				<path id="XMLID_893_" class="st197" d="M25.4,39.5c-0.4,0.2-1.1,0.2-1.1,0.2c-0.1-0.6,1.2,6.2,1.5,10.9c0,0,0.5-1.5,1-1.6
					C26.8,49,26.1,44.2,25.4,39.5z"/>
				<path id="XMLID_892_" class="st190" d="M25.2,40.6c-0.4,0.5,0.1,1.1,0.2,1.1c1.6-0.4,3.5-1.4,8.8-3.7c0,0-0.2-0.3-0.8-0.9
					C33.4,37.1,30.7,38.2,25.2,40.6z"/>
				<path id="XMLID_891_" class="st190" d="M26.6,48c-0.8,0.8-1.3,3.7-0.2,3.6c0,0,3.3-5.1,7.5-13.2c0.2-1-0.7-0.6-1.8,0.3
					C32.1,38.6,27.8,45.2,26.6,48z"/>
				<path id="XMLID_890_" class="st197" d="M33,37.5c-5.2,2.3-7.8,3.5-7.8,3.5c0.1,0.3,0.2,0.4,0.3,0.5c4.1-1.8,6.2-2.7,6.2-2.7
					c0.5-0.5,1-0.9,1.5-1.1C33,37.6,33,37.5,33,37.5z"/>
				<path id="XMLID_889_" class="st193" d="M31.9,38.9c-0.1,0.1-0.1,0.2-0.2,0.3c-2.1,0.9-3.4,1.5-4.4,1.9c-0.5,0.2-1.3,0.6-1.5,0.7
					c0-0.1,0-0.1,0-0.2c0.2-0.2,0.8-0.3,1.5-0.6C28.2,40.5,29.8,39.8,31.9,38.9z"/>
				<path id="XMLID_888_" class="st196" d="M24.3,40c0.2,0,0.4-0.1,0.5-0.1c0.8,5.6,1.1,8.4,1.1,8.4c0.4-0.2,0.6-0.3,0.6-0.3
					c-0.4,0.7-0.6,1.3-0.7,1.8c-0.4-2.9-0.6-4.4-0.6-4.4c-0.1-0.7-0.2-1.4-0.3-1.9c0,0,0.1-0.2,0.1-0.5c0-0.3-0.2-0.3-0.3-0.3
					C24.4,41,24.3,40,24.3,40z"/>
				<path id="XMLID_887_" class="st190" d="M25.1,40.8c5.4-2.4,8.1-3.7,8.1-3.7s-2.5,1.1-7.6,3.3c-0.2,0.1-0.3,0.1-0.3,0.1
					C25.1,40.7,25.1,40.8,25.1,40.8z"/>
				<path id="XMLID_886_" class="st198" d="M36.9,40c-0.7-0.9-1.6-0.8-1.7-1.2c0,0-0.3,0.1-0.7,0.2c-0.1,0,0,0.4,0,0.8
					c0,0-1.2-1.1-1.2,0c-0.3-0.9,0.3-2.2,0.3-2.2c1-0.2,1.4-0.3,1.4-0.3c0.5,0.5,0.8,0.9,1.1,1.2C36.4,38.8,36.9,40,36.9,40z"/>
				<path id="XMLID_885_" class="st198" d="M34.1,33.7c-0.5-0.2-1,0-1,0.2c0.2,0.9,0.6,2.4,0.6,2.4c0.4-0.2,0.8-0.3,1.1-0.3
					C34.4,35.2,34.1,33.7,34.1,33.7z"/>
				<path id="XMLID_884_" class="st197" d="M33.2,33.7c0.1,0.4,0.5,0.6,0.8,0.5c0.1,0,0.2-0.1,0.2-0.1c0.2-0.1,0.4-0.3,0.6-0.4
					c-0.2-0.5-0.5-0.9-0.5-0.9C33.5,33.5,33.2,33.7,33.2,33.7z"/>
				<path id="XMLID_883_" class="st197" d="M35.2,37.6c-0.2,0.2-0.7,0.3-1.5,0.3c-0.3-1.1-0.5-1.6-0.5-1.6c-0.1,0-0.2,0-0.2,0
					c-0.1-0.2-0.1-0.3-0.1-0.3c0.8-0.3,1.5-0.4,2.2-0.4c0,0.1,0.1,0.2,0.1,0.2c-0.1,0.1-0.2,0.1-0.2,0.1
					C35.1,37,35.2,37.6,35.2,37.6z"/>
				<path id="XMLID_882_" class="st193" d="M40.2,31.4c0,0-2.6,0.3-2.6,0.4c-0.4,0.2-0.2,0.9,0,1c0.1,0,2.7-0.2,2.8-0.2
					c0.2-0.1,0.3-0.4,0.3-0.7C40.6,31.5,40.4,31.3,40.2,31.4z"/>
				<path id="XMLID_881_" class="st191" d="M37.4,31.6c-0.2,0.1-0.4,0.4-0.3,0.8s0.3,0.6,0.5,0.5c0.2-0.1,0.4-0.4,0.3-0.8
					C37.9,31.8,37.6,31.5,37.4,31.6z"/>
				<path id="XMLID_880_" class="st197" d="M37.5,31.9c0.1,0.2,0.1,0.4,0.1,0.6c-0.5,0-1,0.1-1.5,0.3c-0.3,0.3-0.7,0.6-1.4,0.7
					c-0.2-0.3-0.3-0.5-0.1-0.7c0.4,0,0.8-0.2,1-0.5C36.1,32,36.7,31.9,37.5,31.9z"/>
				<path id="XMLID_879_" class="st198" d="M33.6,32.8c0,0.3,0.1,0.6,0.1,0.7c0,0-0.1-0.1,0.1,0c0.2,0.2,0.2,0.3,0.4,0.3
					c0.1,0,0.3,0,0.6-0.1c0.2-0.5,0.2-1-0.2-1.5c-0.2,0-0.4,0-0.8,0.1C33.8,32.4,33.8,32.5,33.6,32.8z"/>
				<path id="XMLID_878_" class="st197" d="M30.1,32.5c-0.2,0.2-0.2,0.5-0.1,0.7c0.7-0.1,1.4-0.1,2,0c0.4,0.3,1,0.4,1.8,0.4
					c0.2-0.3,0.2-0.5,0-0.8c-0.5,0.1-1,0-1.4-0.3C31.9,32.3,31.1,32.3,30.1,32.5z"/>
				<path id="XMLID_877_" class="st200" d="M22.9,32.1c0,0.2,0.5,0.7,0.3,1.3C23,34.4,22,35.5,22,36.1c0.8,0.9,2.9,0.3,4,0.2
					c0.3-0.2,0.5,0.8,0.8,0.4c0.3-0.3,0.7-1.3,0.8-1.9c0.2-1.2,0.2-2.8,0.3-3.8c-1.4,0.1-2.5,1.6-4.2,1.1
					C23.7,32.1,23,31.6,22.9,32.1z"/>
				<path id="XMLID_876_" class="st198" d="M22.1,32.9c-1.9,2.4-1.2,4.4,0,5.2c2.2,1.2,4.3,0.1,7.1,1.3c0.2,0.1-0.4,0.4-0.2,0.5
					c1.7,1.1,2.9-0.4,3-1.3c0.1-0.8-0.3-1.2-0.7-1.5c-0.5-0.3-3.2-0.7-6-1.7l0,0c-0.3,0.1-0.4,0.3-1.3-0.2c0.3-0.2,0.8-0.3,1.2-0.2
					c-0.4-0.2-0.8-0.4-1-0.6c0.6-0.1,0.9,0,1.9,0.2c0,0-0.3-2.4-2.6-3.6C22.9,31.8,22.8,32,22.1,32.9z"/>
				<path id="XMLID_875_" class="st191" d="M24.7,53.2c0,0.2,0,0.6,0,0.6c0.9,0.5,1.4,0.8,1.4,0.8c1.2-0.6,1.8-0.9,1.8-0.9
					c0-0.4,0-0.5,0-0.5c-1-0.4-1.4-0.5-1.4-0.5C25.3,53,24.7,53.2,24.7,53.2z"/>
				<path id="XMLID_874_" class="st198" d="M24.6,52.1c-0.1,0.2-0.3,0.3-0.4,0.4c0,0.5,0.5,0.8,1.5,0.9c0.2,0.1,0.6,0.6,0.8,0.7
					c0.9,0.6,1.5,0.8,2.6,0.4c0.4-0.1,0.6-0.4,0.6-0.7c-0.1-0.7-0.3-1-0.8-1c-0.3,0-0.6-0.1-1.2-0.2c-0.3-0.1-0.4-0.7-0.8-1
					c-0.4-0.3-0.4-0.3-0.6-0.5c-0.5-0.6-1-0.3-1-0.3C24.8,51.6,24.7,51.8,24.6,52.1z"/>
				<path id="XMLID_873_" class="st189" d="M25.8,54c-0.2,0.3-0.6-0.1-0.3-0.5l1.8-2.7c0.2-0.3,0.6,0,0.3,0.4L25.8,54z"/>
				<path id="XMLID_872_" class="st199" d="M26,47.9c0.9-0.3,2,0.7,2.4,2.3c0.4,1.6,0.1,3.4-1,3.5c-1,0.1-1.9-0.8-2.3-2.4
					C24.7,49.7,25.1,48.2,26,47.9z"/>
				<path id="XMLID_871_" class="st191" d="M25.8,47.9c0.9-0.3,1.9,0.8,2.3,2.4c0.4,1.6,0,3.1-0.9,3.4c-0.9,0.3-1.9-0.8-2.3-2.4
					C24.5,49.8,24.9,48.2,25.8,47.9z"/>
				<path id="XMLID_870_" class="st191" d="M30.1,32.2c0.2,0,0.5,0.3,0.5,0.6c0,0.4-0.1,0.6-0.3,0.6s-0.5-0.3-0.5-0.6
					C29.7,32.5,29.9,32.2,30.1,32.2z"/>
				<path id="XMLID_869_" class="st201" d="M31.6,24.5c-1.2-1.1-0.9-0.8-1.4,0.7c0.1,0.8,0.7,1.8,1.3,3c0.6,1.2,1.2,2.5,1.2,2.5
					c1.6,0.6,4.9,0.2,5.4,0.6c0,0.1,0.1,0.6,0.3,0.8c0,0,0.1,0,0.1,0c1.1-0.1,1.7-0.2,1.6-0.2c0,0,0-0.2,0-0.2
					c-0.2-0.3-0.8-0.8-0.8-0.9c-0.3-0.4-0.7-0.4-1.2-0.5c-1.4-0.2-2.5-0.6-4.1-0.7C33.5,27.8,32,24.8,31.6,24.5z"/>
				<path id="XMLID_868_" class="st197" d="M22.5,32.3c0.1,0.1,0.2,0.2,0.2,0.2c0.6,0.6,2.2,1.4,5.1,1.6c0,0,0.2,0.5,0.2,1
					c-0.7,0.3-1,0.5-2,0.2c-0.9-0.3-2.8-1.3-3.9-2.4C22.2,32.6,22.3,32.4,22.5,32.3z"/>
				<path id="XMLID_867_" class="st198" d="M31.6,29.1c0.5-0.2,1.8-0.3,2-1c0-0.1-1.5-4.3-1.8-4.8c-0.4-0.9-1.6,1.3-1.7,1.9
					C30.1,26.4,31.1,28.1,31.6,29.1z"/>
				<path id="XMLID_866_" class="st197" d="M24,26.6c-0.1-0.4-0.3-1.3-0.2-2.1c0-0.4,0.5-1.2,0.5-1.2c1.6-1,2.7-1.5,4-1.5
					c2.6,0,3.7,1.2,3.7,1.6c-0.2,0.3-1.1,0.9-0.8,1.7c0.9,2.6,0.1,2.3-1.1,3.7c-1.1,1.3-1.6,2-1.9,3.6c-0.2,0.8,0.5,1.1,0.2,1.8
					c-0.8,1-3.5,0.7-5-0.5c-0.7-0.6-1.5-1.8-1.2-2.4c0.1-0.1,0.1-0.2,0.2-0.2c0.1,0,0.1,0,0.2-0.1C23.9,29.7,24.5,29.7,24,26.6z"/>
				<path id="XMLID_865_" class="st202" d="M26.8,34c-1.8-0.1-3.1-0.7-3.5-1.5c1-1.4,1.6-2.9,1.7-4.6c-0.2-1.5,0.3-2,0.9-2.7
					c0.1-0.1,0.6-0.4,0.6,0.3c0,0.4-0.3,0.9-0.2,1.4c0.1,0.6,1.1,1.3,2.7,0.4c0.2-0.1-0.3,0.3-0.1,0.4c0.1,0,0.6-0.4,0.7-0.4
					c0.9,0.7,1.5,0.3,1.5,0.3c-0.4,0.6-1.3,1-1.8,1.7C28,31.3,26.9,33.9,26.8,34z"/>
				<path id="XMLID_864_" class="st198" d="M28.1,33.9c-0.5,0.3-0.6,0.5-2.1,0.4c-1.7-0.3-3.5-1.3-3.8-3.2c0,0,0,0,0.1-0.1
					c-0.5,0-0.4,0.7-0.2,1.2c0.6,1.5,2.2,2.5,4.2,2.7c1.1,0.1,1.7-0.2,2-0.8C28.2,34.1,28.1,33.9,28.1,33.9z"/>
				<path id="XMLID_863_" class="st193" d="M27.4,32.7c0,0,2.6-0.4,2.6-0.4c0.4,0.1,0.5,0.8,0.3,1c-0.1,0.1-2.7,0.6-2.8,0.6
					c-0.2,0-0.4-0.3-0.5-0.6C27,33,27.1,32.7,27.4,32.7z"/>
				<path id="XMLID_862_" class="st203" d="M28.8,31.9c0.1,0.3,0.5,0.7,0.8,0.8c-0.1-0.1-0.3-0.3,0-0.4C29.3,32.2,29.2,32,28.8,31.9
					z"/>
				<path id="XMLID_861_" class="st201" d="M22.8,31c1.4,1.2,4.4,1.1,4.9,1.5c0.1,0.1,0.2,0.5,0.4,0.7c0.1,0,0.2,0.1,0.3,0
					c0.9-0.1,1.3-0.4,1.3-0.4c-0.1-0.2-0.8-0.6-0.8-0.7c-0.3-0.5-3.5-1.5-4.3-1.8c0.2-0.7,0.5-2.8,0.7-3.7c0-0.1,0.2-0.3,0.3-0.4
					c0.4-1.7-0.2-2.5-1.3-2.1C23.2,24.6,22.9,30.4,22.8,31z"/>
				<path id="XMLID_860_" class="st203" d="M29.7,32.8c-0.1,0.1-0.2,0.1-0.3,0c-0.1,0-0.1,0.1-0.2,0.1c-0.1,0-0.2,0-0.3,0
					c-0.1,0-0.1,0.1-0.2,0.1c-0.2,0-0.3,0-0.4,0.1c-0.1,0.1-0.3-0.1-0.3,0c0.1,0.6,0.1,0.9,0.2,1c0,0.1,0.3,0,0.3-0.1
					c0.1,0,0.1,0.1,0.2,0.1c0.1,0,0.2-0.1,0.3-0.1c0.3,0.1,0.3-0.1,0.4-0.1c0.3,0,0.5-0.1,0.4-0.4C29.8,33,29.7,32.8,29.7,32.8z"/>
				<path id="XMLID_859_" class="st203" d="M29.7,19.9c-1.2,0.2-1.5-0.9-2.5-1.5c0,0,0,0.4,0.1,1c0,0.4,0.1,2.4-0.3,2.8
					c0,0.4,1,1.3,1.7,1.4c0.4,0.1,0.8-0.2,0.8-0.5l0-1.8C29.4,20.4,29.7,19.9,29.7,19.9z"/>
				<path id="XMLID_858_" class="st198" d="M22.9,28.6c0.7-3.3,0.6-4.4,1.4-5.3c1.8-0.7,2.3,2.3,1.5,3c-0.4-0.1-0.4,0-0.4,0.4
					c0,0.2-0.3,2.1-0.4,2.3C23.5,29.2,23.3,28.7,22.9,28.6z"/>
				<path id="XMLID_857_" class="st198" d="M29.5,21.9c0.1,0,0.1,0,0.3,0.1c0.5,0.2,0.5,2.4-1,2.2c-0.9-0.1-2.3-1.2-2.2-2.1
					c0-0.2,0.3-0.1,0.6-0.2c0,0.6,1.2,1.8,2,1.6C29.5,23.4,29.5,22.6,29.5,21.9z"/>
				<path id="XMLID_856_" class="st191" d="M31.2,26.6c-0.1-0.4-0.4-0.5-0.7-0.8C31.3,25.9,31.4,26.3,31.2,26.6z"/>
				<path id="XMLID_855_" class="st191" d="M30.4,24.6c0.4-0.6,0.8-1,1.1-1c-0.7,1-0.9,1.8,0.1,2.2C30.8,26.4,29.9,25.5,30.4,24.6z"
					/>
				<path id="XMLID_854_" class="st193" d="M29.5,22c0-0.1,0-0.4,0-0.7c0-0.1-0.1-0.3,0-0.3c0.2-0.7,0.8-0.9,1.3-0.7
					c2,2.2,1.2,2.8-0.2,4.4c-0.5,0.6-0.5,1.1,0.2,1.4c-1.1-0.3-1.4-0.9-0.7-1.9C30.7,23.4,30,22.5,29.5,22z"/>
				<path id="XMLID_853_" class="st190" d="M31.6,32.4c0.2,0.2,0.2,0.7,0.2,0.8c-0.8,0.1-0.9,0.1-0.9,0.1c0-0.3,0-0.7-0.1-0.9
					c0-0.1,0-0.1,0.2-0.1c0.3,0,0.4,0,0.5,0C31.5,32.3,31.5,32.3,31.6,32.4z"/>
				<path id="XMLID_852_" class="st190" d="M31.9,33.1c0.1,0.3,0.1,0.6,0,0.8c-0.3,0.4-1.4,0.4-1.8,0.2l0-0.3
					c-1-0.1-1.9-0.2-2.3,0.2c0.1,0.3-0.2,0.3-0.2,0.2c-0.2-0.2-0.2-0.4,0-0.6c0.1-0.1,1.4-0.5,2.6-0.6C30.9,33,31.8,32.9,31.9,33.1z
					"/>
				<path id="XMLID_851_" class="st190" d="M37.3,31.9c0.2,0.2,0.1,0.7,0.1,0.9c-0.8,0.1-0.8,0.1-0.8,0.1c0-0.3,0-0.7-0.1-0.9
					c0-0.1,0-0.1,0.2-0.1c0.3,0,0.4,0,0.5,0C37.2,31.8,37.2,31.8,37.3,31.9z"/>
				<path id="XMLID_850_" class="st203" d="M40,31.8c-0.1,0.1-0.2,0.1-0.3,0c-0.1,0-0.1,0.1-0.2,0.1c-0.1,0-0.2,0-0.3,0
					c-0.1,0-0.1,0.1-0.2,0.1c-0.2,0-0.3,0-0.4,0.1c-0.1,0.1-0.3-0.1-0.3,0c0.1,0.6,0.1,0.9,0.2,1c0,0.1,0.3,0,0.3-0.1
					c0.1,0,0.1,0.1,0.2,0.1c0.1,0,0.2-0.1,0.3-0.1c0.3,0.1,0.3-0.1,0.4-0.1c0.3,0,0.5-0.1,0.4-0.4c0-0.2-0.1-0.3-0.1-0.5
					C40.1,31.9,40,31.8,40,31.8z"/>
				<path id="XMLID_849_" class="st203" d="M38.4,32.3c-0.1,0-0.1,0-0.1,0c-0.2-0.3-0.4-0.5-0.6-0.6c0-0.1,0-0.2,0.1-0.3
					c0.1-0.1,0.2,0,0.4-0.3c0.1,0.1,0.1,0.4,0.2,0.6C38.3,32,38.4,32.2,38.4,32.3z"/>
				<path id="XMLID_848_" class="st190" d="M36.4,32.7c-0.1,0.3-0.1,0.6,0,0.7c0.3,0.3,1.4,0.1,1.8-0.2l0-0.3c1-0.3,1.9-0.6,2.2-0.3
					c-0.1,0.3,0.2,0.2,0.3,0.2c0.2-0.3,0.1-0.4-0.1-0.5c-0.3-0.3-1.9-0.2-3,0C36.9,32.4,36.5,32.4,36.4,32.7z"/>
				<path id="XMLID_847_" class="st191" d="M35.1,36.1c0,0.1,0,0.1-0.1,0.1c0-0.2-0.1-0.3-0.1-0.3c0.1-0.8,0.2-1.3,0.4-1.8
					c0.3-0.5,0.7-0.9,1.1-1.1c0.1,0,0.1,0,0.2,0.1c0,0.1,0,0.1-0.1,0.2c-0.4,0.2-0.7,0.5-1,1C35.3,34.6,35.2,35.3,35.1,36.1z"/>
				<path id="XMLID_846_" class="st193" d="M24.7,42.2c0,0.2,0,0.1,0,0.3l-5.4,4.7c0,0,0-0.2,0.1-0.3L24.7,42.2z"/>
				<path id="XMLID_845_" class="st199" d="M26.3,49.8c0.3-0.1,0.7,0.3,0.8,0.9s0,1.1-0.3,1.2c-0.3,0.1-0.7-0.3-0.8-0.9
					C25.8,50.4,25.9,49.9,26.3,49.8z"/>
				<path id="XMLID_844_" class="st189" d="M26.7,51.1c-0.1,0.3-0.6,0-0.4-0.5l1.4-2.9c0.2-0.3,0.6-0.1,0.4,0.4L26.7,51.1z"/>
				<path id="XMLID_843_" class="st199" d="M25,48.1c0,0.3,0,0.7,0,0.7c1,0.6,1.6,0.9,1.6,0.9c1.3-0.6,2-1,2-1c0-0.4,0-0.6,0-0.6
					c-1-0.4-1.6-0.6-1.6-0.6C25.7,47.9,25,48.1,25,48.1z"/>
				<path id="XMLID_842_" class="st198" d="M24.8,46.8c-0.2,0.2-0.3,0.3-0.4,0.4c-0.1,0.5,0.4,0.8,1.4,0.9c0.2,0.1,0.5,0.6,0.7,0.8
					c0.8,0.7,1.4,0.9,2.6,0.5c0.4-0.1,0.7-0.3,0.7-0.6c0-0.7-0.2-1-0.7-1c-0.3,0-0.6-0.1-1.1-0.3c-0.3-0.1-0.3-0.7-0.7-1
					c-0.4-0.3-0.3-0.3-0.6-0.5c-0.4-0.7-1-0.4-1-0.4C25,46.3,24.9,46.5,24.8,46.8z"/>
				<path id="XMLID_841_" class="st195" d="M26.3,46.8c0.1-0.3,0.3-0.5,0.7-0.4c0,0,0.1-0.2,0.3-0.9c0,0-0.3-0.1-0.8-0.4
					c-0.3,0.4-0.9,0.7-1,1.1C25.6,46.6,25.9,46.8,26.3,46.8z"/>
				<path id="XMLID_840_" class="st198" d="M37.1,46.2c-0.5-0.4-1-0.5-1.5-0.5c0,0,0,0-1-2.4c0.9,0.2,1.6,0.8,2,1.7
					C37.3,46.5,37.1,46,37.1,46.2z"/>
				<path id="XMLID_839_" class="st198" d="M35.7,43c0.1,0.3,0.2,0.4,0.2,0.4c-0.5-0.4-1-0.7-1.6-0.9c-0.1-0.2-0.1-0.3-0.1-0.3
					C34.8,42.4,35.3,42.7,35.7,43z"/>
				<path id="XMLID_838_" class="st197" d="M29.4,48.7c0.1,0,0.2,0.1,0.2,0.2c-0.3,0.4-1,0.6-1.4,0.6c-1,0.1-1.9-0.7-2.5-1.6
					c-0.7,0-1.1-0.2-1.3-0.7c0,0,0.1-0.1,0.4-0.3c0.4,0.4,0.8,0.6,1.1,0.6C27,49,28.2,49.4,29.4,48.7z"/>
				<path id="XMLID_837_" class="st197" d="M19.5,47.3c0.3,0,0.6,0.3,0.6,0.7c0,0.4-0.2,0.7-0.5,0.7c-0.3,0-0.6-0.3-0.6-0.7
					C19,47.6,19.2,47.3,19.5,47.3z"/>
				<path id="XMLID_836_" class="st198" d="M22.6,33.6c0.6,0.3,1.1,0.9,1,1.2c0,0-0.6,0.2-0.5,0.5c0.1,0.2,0.5,0.7,1.1,0.6
					c0,1.4,3.7,1.3,5.7,2.1c0.3,0.1,1.2,1.9,1.9,1c0.1-0.1,0.2-0.1,0.1,0.1c0,0.2-0.2,0.4-0.4,0.8c-0.5,1.1-2.4,4-3.3,6.5
					c-0.1,0.7-0.8,0.8-1.3,0.6c-0.6-0.3-1.1-1.2-1.3-1.4c1.1-1.6,1.3-4.9,3.1-5.6c0.1,0-0.2-0.2-0.1-0.3c0-0.1,0.2-0.2,0.3-0.2
					c-1.8-0.8-4.6-0.4-6.1-1.1c0.5,0.1,1.6,0.1,2.8,0.2c-1.2-0.2-1.8-0.4-1.8-0.4C21,37.5,20.9,35.5,22.6,33.6z"/>
				<path id="XMLID_835_" class="st197" d="M34.3,38.9c0.3-0.1,0.5-0.1,0.7-0.2c0-0.2,0.1-0.5,0.2-0.8c-0.3,0.1-0.8,0.2-1.5,0.3
					C34,38.4,34.2,38.7,34.3,38.9z"/>
				<path id="XMLID_834_" class="st197" d="M34.2,33.8c0.1,0.1,0.3,0,0.7,0c0.1-0.2,0.1-0.5,0.1-0.7c0,0-0.2,0-0.6,0.1
					C34.3,33.3,34.3,33.6,34.2,33.8z"/>
				<path id="XMLID_833_" class="st198" d="M37.4,44.1c0.3,0.7,0.5,1.3,0.7,1.7c0.1-0.7,0.4-1.1,0.7-1.3c-0.5-1.3-0.8-2-0.8-2
					C37.5,42.9,37.3,43.5,37.4,44.1z"/>
				<path id="XMLID_832_" class="st197" d="M24.9,43.6c-2.1,1.8-3.1,2.7-3.1,2.7c0.2-0.9,0.6-1.6,1.1-2.1c1.3-1,1.9-1.5,1.9-1.5
					C25.1,42.6,25.2,42.9,24.9,43.6z"/>
				<path id="XMLID_829_" class="st193" d="M25.4,41.7c0.5-0.2,0.9-0.4,1.4-0.6c-0.5,0-0.8-0.3-0.9-0.8l-0.7,0.3
					C24.8,41,25,41.4,25.4,41.7L25.4,41.7z M27.1,41c-0.6,0.1-0.9-0.2-0.9-0.8c0,0,0,0,0,0l0.5-0.2c0.2,0.5,0.6,0.7,1.2,0.7
					C27.6,40.7,27.3,40.9,27.1,41z"/>
				<path id="XMLID_828_" class="st198" d="M25.4,39.5c0.1,0.5,0.1,0.7,0.1,0.7c-0.4,0-0.8,0.1-1.1,0.4c-0.1-0.5-0.1-0.8-0.1-0.8
					C24.6,39.6,25,39.5,25.4,39.5z"/>
				<path id="XMLID_827_" class="st204" d="M25.7,45.3c0.2-0.3,0.4-0.4,0.4-0.4s-0.1-0.8-0.4-2.3c0-0.1-0.2-0.2-0.4-0.3
					C25.3,42.2,25.4,43.3,25.7,45.3z"/>
				<path id="XMLID_826_" class="st205" d="M26,43.8c0,0.2,0,0.2,0,0.2c-0.4,0.2-0.7,0.6-0.9,1.2c0-0.2-0.1-0.3-0.1-0.3
					C25.3,44.3,25.7,43.9,26,43.8z"/>
				<path id="XMLID_825_" class="st206" d="M25.8,18c0.6-0.8,2.4-1.4,4.3-1c-1.3,1.2-1.3,2.2-2.3,2.7c-0.2,0-0.3-0.2-0.7,0.1
					c-0.6,0.4-1.7,0.6-2.4,0.3c-0.9-0.3-0.8-0.7-0.4-0.9C24.7,18.9,25.4,18.4,25.8,18z"/>
				<path id="XMLID_824_" class="st191" d="M31.3,19c-0.6-1.8-0.5-2.6,0.3-2.6C32,17.6,31.9,18.4,31.3,19z"/>
				<path id="XMLID_823_" class="st201" d="M26.5,17.9c0.2-2.8,1.2-2.5,3.5-3c0.3,1.1,1.1,1.8,1,2.1c0,0-0.1,0.3,0,0.7
					c0.1,0.2,0.3,0.5,0.3,0.8c0,0.5-0.1,0.9-0.3,1.3c-0.2,0.4-0.3,0.9-0.4,1.2c-0.1,0.3-0.1,0.3-0.4,0.4c-0.7,0.2-1.2-0.2-1.8-0.4
					c-0.6-0.2-1.1-1.2-1.3-2C27,18.6,26.5,18.1,26.5,17.9z"/>
				<path id="XMLID_822_" class="st193" d="M29.6,17.4c-0.1-1.1-0.9-0.8-1.8,0C28.6,17,29.4,16.8,29.6,17.4z"/>
				<path id="XMLID_821_" class="st191" d="M31.1,16.9c0-0.2-0.1-0.3-0.1-0.3c-0.4,0-0.6,0.3-0.7,0.7C30.5,17,30.6,17,31.1,16.9z"/>
				<path id="XMLID_820_" class="st193" d="M27.3,20.7c0-0.3,0.1-1,0.1-1.1c0-0.1-0.1-0.1-0.1-0.2c-0.2-0.4-0.8-0.7-1.1-0.7
					C26.4,19.8,26.8,20.5,27.3,20.7z"/>
				<path id="XMLID_819_" class="st207" d="M28.6,18.6C28.5,18.6,28.5,18.6,28.6,18.6C28.5,18.6,28.5,18.7,28.6,18.6
					C28.6,18.7,28.7,18.7,28.6,18.6C28.7,18.6,28.6,18.6,28.6,18.6z"/>
				<path id="XMLID_818_" class="st193" d="M26.2,17.1c1.2-0.4,1.2-1,1.3-0.6c-0.2,0.1-0.5,1.5-0.6,2.2c-0.3-1-0.9-0.2-1-0.3
					C25.9,18.3,26,17.5,26.2,17.1z"/>
				<path id="XMLID_817_" class="st193" d="M31.8,18.3c0.4-1,0-2.3-0.8-2.6c-0.7-0.3-3.5-0.9-3.6-0.1C27.3,17.1,31.7,16.3,31.8,18.3
					z"/>
				<path id="XMLID_816_" class="st193" d="M28,15.8c0.3,0.4,1.1,0.7,1.8,1.1c0.7,0.3,1.4,0.7,1.8,1.1c0.3,0.4,0.3,0.8-0.3,1.3
					l0-0.1c0.6-0.5,0.6-0.8,0.3-1.2c-0.3-0.4-1-0.7-1.7-1C29.1,16.6,28.3,16.3,28,15.8L28,15.8z"/>
				<path id="XMLID_815_" class="st208" d="M30.3,15.7c0.3-0.6,0-0.7-0.1-1.4c-0.6-0.4-1.3-0.5-2.1-0.4c-0.7,0.2-1.8,0.5-2.1,1
					c0.2,0.2-0.2,0.5-0.2,0.6C27.4,15.6,30.2,15.8,30.3,15.7z"/>
				<path id="XMLID_814_" class="st197" d="M25.6,15.5c0.3,1.6,0.2,2.5,0.2,2.5c2.1-1.8,2.2-2.4,5.4-2.2c-0.1-1.1-0.6-1.8-0.8-2.2
					c-1-0.2-1.8-0.2-2.7,0.1C26.3,14.2,26,14.7,25.6,15.5z"/>
				<path id="XMLID_813_" class="st193" d="M28.8,15.5c0.6,0,1.1-0.1,1.5-0.2C30,14.1,28.7,14.2,28.8,15.5z"/>
				<path id="XMLID_812_" class="st206" d="M30.4,15.2c0.1,0.1,0.1,0.3,0.2,0.4c-0.3,0.1-0.9,0.2-1.8,0.2c-0.3,0-0.5-0.3-0.2-0.5
					C29.4,15.4,30,15.3,30.4,15.2z"/>
				
					<ellipse id="XMLID_811_" transform="matrix(0.9951 -9.869109e-02 9.869109e-02 0.9951 -1.4062 2.9243)" class="st197" cx="28.9" cy="15.7" rx="0.1" ry="0.1"/>
				
					<ellipse id="XMLID_810_" transform="matrix(0.9951 -9.877477e-02 9.877477e-02 0.9951 -1.3973 2.9836)" class="st197" cx="29.4" cy="15.6" rx="0.1" ry="0.1"/>
				
					<ellipse id="XMLID_809_" transform="matrix(0.9951 -9.871836e-02 9.871836e-02 0.9951 -1.3867 3.0458)" class="st197" cx="30.1" cy="15.5" rx="0.1" ry="0.1"/>
				<path id="XMLID_808_" class="st201" d="M27,18.7c0.2,0.5,0.2,0.7,0.2,0.7c-0.6,0.3-1.4-0.7-1.3-1.3C26,17.9,26.6,17.5,27,18.7z"
					/>
			</g>
			<path id="XMLID_807_" class="st203" d="M30.7,18.7c-0.1-0.3-0.6-0.9-0.4-1.7c-0.2,0.3-0.2,0.8,0.3,1.6c0.1,0.2-0.1,0.2-0.2,0.2
				c-0.1,0-0.3-0.1-0.3-0.1c-0.1,0-0.2,0-0.3,0.2c0.1,0.2,0.3,0.2,0.5,0.2c0,0,0.2,0,0.2,0C30.6,19,30.8,18.8,30.7,18.7z"/>
			<ellipse id="XMLID_806_" class="st193" cx="29.1" cy="17.9" rx="0.2" ry="0.3"/>
			<ellipse id="XMLID_805_" class="st193" cx="30.8" cy="17.9" rx="0.2" ry="0.2"/>
			<path id="XMLID_804_" class="st195" d="M30.2,19.9c0,0-1,0-1.3,0c-0.3-0.1-0.3-0.1-0.3-0.1s0.3,0.4,0.6,0.5c0.3,0.1,0.8,0,0.8,0
				C30.2,20.3,30.2,19.9,30.2,19.9z"/>
		</g>
	</g>
</g>
</svg>
