<svg xmlns="http://www.w3.org/2000/svg" width="18" height="17" viewBox="0 0 18 17">
    <path fill="#22334F" fill-rule="evenodd" d="M4.122.31c.781.962 1.559 1.928 2.342 2.89.24.426.254.665.188.85-.065.184-.252.361-.508.578-.992.842-1.355 1.762-1.268 2.62.086.856.596 1.633 1.257 2.24l1.828 1.733c.642.626 1.462 1.109 2.365 1.19.906.082 1.877-.261 2.765-1.201.23-.242.416-.42.612-.482.194-.061.446-.05.897.179 1.015.742 2.034 1.479 3.05 2.219.348.329.373.567.28.85-.093.282-.355.6-.645.882-1.886 1.786-3.551 2.39-5.285 2.105-1.734-.284-3.581-1.498-5.685-3.49l-2.56-2.425C1.654 9.055.372 7.304.072 5.662-.23 4.02.408 2.442 2.293.655c.299-.275.633-.523.932-.611.298-.088.55-.064.897.265z"/>
</svg>
