<svg xmlns="http://www.w3.org/2000/svg" width="72" height="35" viewBox="0 0 72 35">
    <path fill="#4E5B72" fill-rule="nonzero" d="M14.912 23.182c-.904.53-1.709.994-2.415 1.392a32.05 32.05 0 0 1-1.892.994c-.546.265-1.035.464-1.468.597a3.91 3.91 0 0 1-1.158.199 2.948 2.948 0 0 1-1.893-.654c-.546-.435-1.002-1.06-1.37-1.875-.367-.824-.644-1.818-.833-2.983-.179-1.165-.268-2.476-.268-3.934 0-.569.024-1.175.07-1.819.048-.643.114-1.283.198-1.917a16.684 16.684 0 0 1-.663-.1 5.704 5.704 0 0 0-.495-.099 8.54 8.54 0 0 0-.663-.114 40.26 40.26 0 0 0-1.158-.142c-.226-.028-.4-.08-.523-.156a.843.843 0 0 1-.268-.284.937.937 0 0 1-.099-.341A4.205 4.205 0 0 1 0 11.634c0-.19.094-.332.282-.427.18-.104.415-.18.706-.227.283-.047.594-.07.933-.07.348-.01.677-.01.988 0 .32.009.603.018.847.027.254 0 .429-.009.523-.028.254-1.278.574-2.514.96-3.707.395-1.203.833-2.268 1.313-3.196.49-.938 1.022-1.686 1.596-2.245C8.722 1.193 9.325.91 9.956.91c.404 0 .772.114 1.101.341.339.227.626.53.861.91.236.378.415.823.537 1.334.132.502.198 1.028.198 1.577 0 .464-.066.956-.198 1.477-.132.512-.31 1.037-.537 1.577-.226.53-.494 1.07-.804 1.62-.302.549-.622 1.093-.96 1.633.084.01.225.019.423.028.198 0 .424.005.678.014.263.01.546.024.847.043a419.247 419.247 0 0 1 1.666.057c.245.01.447.019.608.028.188.01.324.104.41.284.084.18.126.408.126.682 0 .332-.094.602-.282.81-.189.208-.396.312-.622.312H8.586a49.5 49.5 0 0 1-.833 1.123c-.273.36-.528.686-.763.98-.038.587-.07 1.164-.099 1.733-.01.246-.019.502-.028.767l-.028.767-.029.738v.654c0 .511.048.942.142 1.292.094.35.23.64.41.867.178.218.395.379.649.483.263.094.555.142.875.142.198 0 .443-.048.735-.142.3-.095.626-.223.974-.384.358-.17.73-.37 1.116-.596a14.955 14.955 0 0 0 2.259-1.591c.348-.303.664-.611.946-.924v3.637zM10.393 5.199c0-.104-.01-.218-.028-.341a1.175 1.175 0 0 0-.085-.37.66.66 0 0 0-.226-.283c-.094-.076-.23-.114-.41-.114-.244 0-.493.218-.748.653-.244.436-.484.995-.72 1.676a31.09 31.09 0 0 0-.65 2.23c-.197.815-.38 1.606-.55 2.373l.424.057c.14.009.287.023.437.042.283-.483.575-1.004.876-1.562.31-.569.588-1.123.833-1.662.245-.55.447-1.06.607-1.534.16-.474.24-.862.24-1.165zM23.16 15.724c.273.55.475 1.132.607 1.748.141.606.212 1.188.212 1.747 0 .558-.061 1.122-.184 1.69a8.424 8.424 0 0 1-.536 1.648 7.512 7.512 0 0 1-.847 1.491c-.33.464-.711.867-1.144 1.208-.424.34-.89.61-1.398.81a4.419 4.419 0 0 1-1.624.298c-.829 0-1.54-.18-2.133-.54a4.641 4.641 0 0 1-1.44-1.435 6.474 6.474 0 0 1-.833-1.988 10.005 10.005 0 0 1-.254-2.245c0-1.041.155-2.012.466-2.912.31-.909.753-1.695 1.327-2.358a6.127 6.127 0 0 1 2.132-1.576c.838-.389 1.78-.583 2.825-.583a7.3 7.3 0 0 1 2.513.426 9.038 9.038 0 0 1 2.19 1.123c.686.464 1.322.999 1.906 1.605a23.503 23.503 0 0 1 1.652 1.875l-.269 2.003a8.237 8.237 0 0 0-1.03-1.108 21.442 21.442 0 0 0-1.384-1.165 32.71 32.71 0 0 0-1.427-1.066c-.47-.34-.875-.625-1.214-.852l-.113.156zm-4.363 7.912c.32 0 .63-.16.931-.483.302-.331.565-.743.791-1.235a8.442 8.442 0 0 0 .537-1.648 7.644 7.644 0 0 0 .212-1.733c0-.436-.033-.838-.1-1.207a3.753 3.753 0 0 0-.296-.98 1.79 1.79 0 0 0-.508-.654 1.183 1.183 0 0 0-.748-.241c-.386 0-.754.165-1.102.497-.348.331-.654.757-.918 1.278a7.585 7.585 0 0 0-.621 1.705 7.696 7.696 0 0 0-.226 1.804c0 .397.038.771.113 1.122.075.35.193.658.353.923.16.256.372.464.635.625.264.152.58.227.947.227zm7.187 3.267c0-.047.01-.336.029-.866.028-.53.075-1.236.14-2.117.067-.88.156-1.894.269-3.04.113-1.155.259-2.371.438-3.65.188-1.288.405-2.604.65-3.949.254-1.354.55-2.67.889-3.949a35.16 35.16 0 0 1 1.186-3.608c.443-1.136.937-2.126 1.483-2.968.555-.853 1.172-1.525 1.85-2.017A3.713 3.713 0 0 1 35.148 0c.32 0 .654.057 1.003.17.357.114.682.299.974.554.292.256.532.597.72 1.023.198.417.297.933.297 1.548 0 .56-.09 1.203-.269 1.932-.169.72-.414 1.492-.734 2.316-.31.823-.682 1.68-1.115 2.57-.424.89-.89 1.781-1.398 2.671a54.131 54.131 0 0 1-1.61 2.614 34.697 34.697 0 0 1-1.709 2.4l-.028.228c.188-.095.33-.157.423-.185.095-.029.193-.043.297-.043.122 0 .221.015.297.043a.967.967 0 0 1 .197.07c.066.03.132.058.198.086a.88.88 0 0 0 .24.029c.932 0 1.756-.11 2.471-.327.716-.227 1.318-.478 1.808-.753a6.649 6.649 0 0 0 1.497-1.094l-.311 3.452a9.169 9.169 0 0 1-1.949.795c-.678.19-1.304.332-1.878.427-.668.104-1.332.17-1.991.198.339.625.645 1.274.918 1.946.235.578.447 1.227.635 1.946.198.71.297 1.43.297 2.16 0 .085-.014.265-.043.54-.018.274-.056.61-.112 1.008a19.29 19.29 0 0 1-.24 1.32c-.104.484-.24.972-.41 1.464-.16.492-.358.966-.593 1.42a5.462 5.462 0 0 1-.833 1.222c-.311.36-.673.649-1.088.866a2.876 2.876 0 0 1-1.384.327c-.517 0-.97-.118-1.355-.355a3.207 3.207 0 0 1-.989-.966 5.917 5.917 0 0 1-.692-1.406c-.179-.53-.32-1.094-.423-1.69a19.092 19.092 0 0 1-.226-1.833 29.34 29.34 0 0 1-.057-1.79zm3.77-6.818c-.037 0-.08.11-.126.327-.048.208-.095.483-.142.824a59.802 59.802 0 0 0-.212 2.358c-.028.397-.051.772-.07 1.122-.019.34-.028.61-.028.81 0 1.392.023 2.5.07 3.323.057.824.123 1.45.198 1.875.085.427.174.701.268.824.104.133.207.2.311.2.32 0 .574-.148.763-.441.197-.294.343-.668.437-1.122a8.49 8.49 0 0 0 .198-1.478c.038-.53.056-1.041.056-1.534 0-.331-.028-.738-.084-1.221a18.657 18.657 0 0 0-.212-1.506 22.216 22.216 0 0 0-.31-1.577c-.114-.52-.236-.985-.368-1.392a5.844 5.844 0 0 0-.381-1.008c-.132-.256-.254-.384-.367-.384zm3.432-15.497A42.782 42.782 0 0 0 31.9 8.196a30.008 30.008 0 0 0-.706 2.756c-.16.805-.273 1.515-.339 2.13-.066.606-.132 1.17-.198 1.69.575-1.088 1.154-2.158 1.737-3.21.584-1.06 1.111-2.04 1.582-2.94.47-.909.852-1.71 1.144-2.4.301-.692.452-1.217.452-1.577 0-.502-.071-.867-.212-1.094-.141-.237-.334-.355-.58-.355-.432 0-.762.118-.988.355-.226.227-.428.573-.607 1.037zm3.022 22.315c0-.047.01-.336.028-.866.029-.53.076-1.236.142-2.117.065-.88.155-1.894.268-3.04.113-1.155.259-2.371.438-3.65.188-1.288.404-2.604.65-3.949.253-1.354.55-2.67.889-3.949a35.16 35.16 0 0 1 1.186-3.608c.443-1.136.937-2.126 1.483-2.968.555-.853 1.172-1.525 1.85-2.017A3.713 3.713 0 0 1 45.37 0c.321 0 .655.057 1.003.17.358.114.683.299.975.554.292.256.532.597.72 1.023.198.417.296.933.296 1.548 0 .56-.089 1.203-.267 1.932-.17.72-.415 1.492-.735 2.316a30.42 30.42 0 0 1-1.116 2.57c-.423.89-.89 1.781-1.398 2.671a54.13 54.13 0 0 1-1.61 2.614 34.697 34.697 0 0 1-1.708 2.4l-.028.228c.188-.095.33-.157.423-.185.094-.029.193-.043.297-.043.122 0 .221.015.296.043a.967.967 0 0 1 .198.07c.066.03.132.058.198.086a.88.88 0 0 0 .24.029c.932 0 1.756-.11 2.471-.327.716-.227 1.318-.478 1.808-.753a6.642 6.642 0 0 0 1.496-1.094l-.31 3.452a9.17 9.17 0 0 1-1.95.795c-.677.19-1.303.332-1.877.427-.669.104-1.332.17-1.991.198.339.625.645 1.274.918 1.946.235.578.447 1.227.635 1.946.198.71.297 1.43.297 2.16 0 .085-.014.265-.043.54-.019.274-.056.61-.113 1.008a19.29 19.29 0 0 1-.24 1.32c-.103.484-.24.972-.41 1.464-.16.492-.357.966-.592 1.42a5.462 5.462 0 0 1-.833 1.222c-.311.36-.674.649-1.088.866a2.876 2.876 0 0 1-1.384.327c-.518 0-.97-.118-1.355-.355a3.207 3.207 0 0 1-.989-.966 5.917 5.917 0 0 1-.692-1.406c-.179-.53-.32-1.094-.423-1.69a19.092 19.092 0 0 1-.226-1.833 29.34 29.34 0 0 1-.057-1.79zm3.77-6.818c-.037 0-.08.11-.127.327-.047.208-.094.483-.14.824a59.803 59.803 0 0 0-.212 2.358c-.029.397-.052.772-.071 1.122-.02.34-.028.61-.028.81 0 1.392.023 2.5.07 3.323.057.824.123 1.45.198 1.875.085.427.174.701.268.824.104.133.207.2.31.2.32 0 .575-.148.763-.441.198-.294.344-.668.438-1.122a8.49 8.49 0 0 0 .198-1.478c.037-.53.056-1.041.056-1.534 0-.331-.028-.738-.084-1.221a18.657 18.657 0 0 0-.212-1.506 22.216 22.216 0 0 0-.31-1.577c-.114-.52-.236-.985-.368-1.392a5.844 5.844 0 0 0-.381-1.008c-.132-.256-.254-.384-.367-.384zM43.41 4.588a42.782 42.782 0 0 0-1.285 3.608 30.008 30.008 0 0 0-.706 2.756c-.16.805-.273 1.515-.339 2.13-.066.606-.132 1.17-.198 1.69.575-1.088 1.154-2.158 1.737-3.21.584-1.06 1.111-2.04 1.582-2.94.47-.909.852-1.71 1.144-2.4.3-.692.452-1.217.452-1.577 0-.502-.071-.867-.212-1.094-.142-.237-.335-.355-.58-.355-.432 0-.762.118-.988.355-.226.227-.428.573-.607 1.037zm8.642 21.776c-.885 0-1.662-.161-2.33-.483a4.867 4.867 0 0 1-1.652-1.293 5.768 5.768 0 0 1-1.003-1.89 7.8 7.8 0 0 1-.324-2.258c0-.53.051-1.089.155-1.676.103-.596.259-1.179.466-1.747a9.265 9.265 0 0 1 .805-1.62c.32-.52.692-.975 1.115-1.363.434-.398.914-.71 1.44-.937a4.362 4.362 0 0 1 1.78-.356c.527 0 1.017.086 1.469.256.452.17.842.412 1.172.725.339.303.603.672.79 1.108.189.435.283.923.283 1.463 0 .587-.146 1.174-.437 1.761a6.287 6.287 0 0 1-1.187 1.662 8.346 8.346 0 0 1-1.822 1.392 9.533 9.533 0 0 1-2.273.952c.14.255.278.468.41.639.14.17.282.303.423.398.141.094.287.16.438.198.16.038.33.057.508.057.565 0 1.158-.113 1.78-.34.63-.228 1.242-.512 1.835-.853.593-.34 1.154-.71 1.68-1.108.528-.407.975-.79 1.342-1.15l1.822 1.903a18.667 18.667 0 0 1-2.641 2.287c-.404.284-.842.563-1.313.838-.462.275-.951.52-1.469.739a10.84 10.84 0 0 1-1.595.511 7.55 7.55 0 0 1-1.667.185zm-1.878-6.677c.339 0 .706-.085 1.102-.255.405-.18.776-.407 1.115-.682.348-.275.64-.573.876-.895.235-.322.353-.634.353-.937 0-.427-.08-.777-.24-1.052-.15-.274-.34-.411-.565-.411-.405 0-.753.075-1.045.227a2.32 2.32 0 0 0-.72.596 3.155 3.155 0 0 0-.466.824c-.113.303-.203.611-.269.924a7.923 7.923 0 0 0-.113.909c-.019.293-.028.544-.028.753zm13.006 6.677c-.885 0-1.662-.161-2.33-.483a4.867 4.867 0 0 1-1.652-1.293 5.768 5.768 0 0 1-1.003-1.89 7.8 7.8 0 0 1-.325-2.258c0-.53.052-1.089.155-1.676.104-.596.26-1.179.467-1.747a9.231 9.231 0 0 1 .805-1.62c.32-.52.691-.975 1.115-1.363a5.1 5.1 0 0 1 1.44-.937 4.36 4.36 0 0 1 1.78-.356c.527 0 1.016.086 1.468.256.452.17.843.412 1.172.725.34.303.603.672.791 1.108.189.435.283.923.283 1.463 0 .587-.146 1.174-.438 1.761a6.283 6.283 0 0 1-1.186 1.662 8.37 8.37 0 0 1-1.822 1.392 9.525 9.525 0 0 1-2.273.952c.141.255.277.468.409.639.141.17.282.303.424.398.14.094.287.16.438.198.16.038.33.057.508.057.564 0 1.158-.113 1.78-.34a11.49 11.49 0 0 0 1.835-.853c.593-.34 1.153-.71 1.68-1.108.528-.407.975-.79 1.342-1.15l1.821 1.903a18.69 18.69 0 0 1-2.64 2.287c-.405.284-.843.563-1.314.838-.461.275-.95.52-1.468.739a10.84 10.84 0 0 1-1.596.511 7.555 7.555 0 0 1-1.666.185zM61.3 19.687c.339 0 .706-.085 1.101-.255.405-.18.777-.407 1.116-.682.348-.275.64-.573.875-.895.236-.322.353-.634.353-.937 0-.427-.08-.777-.24-1.052-.15-.274-.339-.411-.565-.411-.404 0-.753.075-1.044.227-.283.151-.523.35-.72.596a3.169 3.169 0 0 0-.467.824 6.46 6.46 0 0 0-.268.924 7.923 7.923 0 0 0-.113.909c-.019.293-.028.544-.028.753z"/>
</svg>
