<svg xmlns="http://www.w3.org/2000/svg" width="80" height="39" viewBox="0 0 80 39">
    <path fill="#EB5757" fill-rule="nonzero" d="M16.569 25.831c-1.004.591-1.898 1.108-2.683 1.551-.785.443-1.485.813-2.103 1.108a11.53 11.53 0 0 1-1.631.665c-.471.148-.9.222-1.287.222a3.27 3.27 0 0 1-2.102-.728c-.607-.486-1.114-1.182-1.522-2.09-.408-.918-.717-2.026-.926-3.324-.199-1.297-.298-2.759-.298-4.384 0-.633.026-1.308.078-2.026.052-.717.126-1.43.22-2.137-.314-.042-.56-.079-.738-.11a6.322 6.322 0 0 0-.549-.111 9.464 9.464 0 0 0-.737-.127 44.612 44.612 0 0 0-1.287-.158c-.25-.032-.444-.09-.58-.174a.939.939 0 0 1-.298-.317 1.046 1.046 0 0 1-.11-.38A4.7 4.7 0 0 1 0 12.963c0-.211.105-.37.314-.475.199-.116.46-.2.784-.253.314-.053.66-.08 1.036-.08.387-.01.753-.01 1.098 0 .356.011.67.022.942.033.282 0 .476-.011.58-.032a36.683 36.683 0 0 1 1.067-4.131c.44-1.34.926-2.527 1.46-3.562.543-1.044 1.134-1.878 1.772-2.5.638-.633 1.308-.95 2.009-.95.45 0 .857.127 1.224.38.376.253.695.59.957 1.013.261.422.46.918.596 1.488.146.559.22 1.145.22 1.757 0 .517-.074 1.065-.22 1.646a12.92 12.92 0 0 1-.596 1.757c-.251.59-.55 1.192-.895 1.804-.334.612-.69 1.219-1.067 1.82.094.01.251.021.471.032.22 0 .47.005.753.016.293.01.607.026.942.047a464.496 464.496 0 0 1 1.851.063c.272.011.497.022.675.032.209.01.36.116.455.317.094.2.141.453.141.76 0 .369-.105.67-.314.902-.209.232-.44.348-.69.348H9.54c-.304.422-.612.839-.926 1.25-.303.401-.586.765-.847 1.092-.042.655-.079 1.298-.11 1.931l-.031.855-.032.855c-.01.285-.02.559-.031.823v.728c0 .57.052 1.05.157 1.44.104.39.256.712.455.966.198.242.439.422.721.538.293.105.618.158.973.158.22 0 .492-.053.816-.158a9.11 9.11 0 0 0 1.083-.427c.397-.19.81-.412 1.24-.665.439-.254.868-.528 1.286-.823.429-.306.837-.623 1.224-.95.387-.338.737-.68 1.051-1.029v4.052zm-5.02-20.038c0-.116-.011-.243-.032-.38a1.313 1.313 0 0 0-.094-.411.736.736 0 0 0-.251-.317c-.105-.084-.257-.127-.455-.127-.272 0-.55.243-.832.729-.272.485-.539 1.107-.8 1.867a34.72 34.72 0 0 0-.722 2.485c-.22.908-.424 1.789-.612 2.643l.47.064c.158.01.32.026.487.047.314-.538.638-1.118.973-1.74.345-.634.654-1.251.926-1.853.272-.612.497-1.181.674-1.71.178-.527.267-.96.267-1.297zm14.183 11.729c.304.612.528 1.26.675 1.946.157.676.235 1.325.235 1.947 0 .623-.068 1.25-.204 1.884a9.405 9.405 0 0 1-.596 1.836 8.377 8.377 0 0 1-.941 1.662c-.366.517-.79.965-1.271 1.345-.471.38-.989.68-1.554.902a4.897 4.897 0 0 1-1.804.333c-.92 0-1.71-.2-2.37-.602a5.164 5.164 0 0 1-1.6-1.598 7.225 7.225 0 0 1-.925-2.216 11.179 11.179 0 0 1-.283-2.501c0-1.16.173-2.242.518-3.245.345-1.013.837-1.889 1.475-2.627a6.81 6.81 0 0 1 2.37-1.757c.93-.433 1.976-.65 3.137-.65a8.09 8.09 0 0 1 2.793.476c.868.306 1.679.722 2.432 1.25.764.517 1.47 1.113 2.118 1.789.66.675 1.271 1.371 1.836 2.089l-.298 2.232a9.168 9.168 0 0 0-1.146-1.235 23.841 23.841 0 0 0-1.537-1.298 36.353 36.353 0 0 0-1.585-1.187c-.523-.38-.973-.696-1.35-.95l-.125.175zm-4.848 8.816c.356 0 .7-.18 1.035-.538.335-.37.628-.829.88-1.377.25-.56.449-1.172.595-1.837a8.54 8.54 0 0 0 .236-1.93c0-.486-.037-.934-.11-1.346a4.191 4.191 0 0 0-.33-1.092 1.994 1.994 0 0 0-.564-.728 1.312 1.312 0 0 0-.832-.27c-.429 0-.837.185-1.224.555-.387.37-.727.844-1.02 1.424a8.467 8.467 0 0 0-.69 1.9 8.6 8.6 0 0 0-.251 2.01c0 .443.042.86.125 1.25.084.39.215.734.393 1.029.177.285.413.517.706.696.293.17.643.254 1.05.254zm7.986 3.64c0-.053.01-.375.032-.965.031-.591.083-1.377.157-2.359.073-.981.172-2.11.298-3.387.125-1.287.287-2.643.486-4.068.21-1.435.45-2.902.722-4.4.282-1.509.612-2.976.988-4.4a39.257 39.257 0 0 1 1.318-4.02c.492-1.267 1.041-2.37 1.648-3.308.617-.95 1.302-1.7 2.055-2.248.753-.549 1.58-.823 2.48-.823.355 0 .726.063 1.113.19a3.01 3.01 0 0 1 1.083.617c.324.285.591.665.8 1.14.22.464.33 1.04.33 1.725 0 .623-.1 1.34-.298 2.153-.189.802-.46 1.662-.816 2.58a34.018 34.018 0 0 1-1.24 2.864 45.04 45.04 0 0 1-1.553 2.976 60.348 60.348 0 0 1-1.789 2.912c-.617.95-1.25 1.842-1.898 2.675l-.032.254c.21-.106.366-.174.47-.206.106-.032.215-.048.33-.048a.95.95 0 0 1 .33.048c.084.021.157.047.22.079l.22.095a.975.975 0 0 0 .266.032c1.036 0 1.95-.122 2.746-.364.795-.254 1.464-.533 2.008-.84a7.389 7.389 0 0 0 1.663-1.218l-.345 3.846c-.69.38-1.412.675-2.165.887a19.71 19.71 0 0 1-2.087.474c-.743.116-1.48.19-2.212.222.376.696.716 1.42 1.02 2.168.261.644.496 1.367.706 2.169.22.791.33 1.593.33 2.406 0 .095-.017.295-.048.601-.02.306-.063.68-.125 1.124a21.55 21.55 0 0 1-.267 1.472 14.123 14.123 0 0 1-.455 1.63 10.498 10.498 0 0 1-.66 1.583c-.26.517-.57.97-.925 1.361a4.111 4.111 0 0 1-1.208.966c-.45.242-.962.364-1.538.364-.575 0-1.077-.132-1.506-.396a3.568 3.568 0 0 1-1.098-1.076 6.6 6.6 0 0 1-.77-1.567 12.696 12.696 0 0 1-.47-1.884 21.332 21.332 0 0 1-.25-2.042 32.787 32.787 0 0 1-.064-1.994zm4.19-7.597c-.042 0-.09.121-.142.364-.052.232-.104.538-.156.918a66.824 66.824 0 0 0-.235 2.627c-.032.443-.058.86-.08 1.25-.02.38-.03.681-.03.903 0 1.55.025 2.785.078 3.704.063.918.136 1.614.22 2.089.094.475.193.78.298.918.115.148.23.221.345.221.355 0 .638-.163.847-.49.22-.327.382-.744.486-1.25a9.486 9.486 0 0 0 .22-1.647 24.2 24.2 0 0 0 .063-1.71c0-.368-.032-.822-.094-1.36a20.845 20.845 0 0 0-.236-1.678c-.094-.591-.209-1.177-.345-1.757a16.308 16.308 0 0 0-.408-1.551 6.524 6.524 0 0 0-.423-1.124c-.147-.285-.283-.427-.408-.427zm3.812-17.269c-.606 1.52-1.082 2.86-1.427 4.02a33.515 33.515 0 0 0-.785 3.071 27.323 27.323 0 0 0-.377 2.374c-.073.676-.146 1.304-.22 1.884a188.145 188.145 0 0 1 1.93-3.577 178.113 178.113 0 0 0 1.758-3.276 38.59 38.59 0 0 0 1.271-2.675c.335-.77.502-1.356.502-1.757 0-.56-.078-.966-.235-1.219-.157-.264-.372-.396-.644-.396-.48 0-.847.132-1.098.396-.251.253-.476.638-.675 1.155zm3.358 24.866c0-.053.01-.375.032-.965.03-.591.083-1.377.156-2.359.074-.981.173-2.11.299-3.387.125-1.287.287-2.643.486-4.068.21-1.435.45-2.902.722-4.4.282-1.509.612-2.976.988-4.4a39.257 39.257 0 0 1 1.318-4.02c.492-1.267 1.041-2.37 1.648-3.308.617-.95 1.302-1.7 2.055-2.248.753-.549 1.58-.823 2.48-.823.355 0 .726.063 1.113.19a3.01 3.01 0 0 1 1.083.617c.324.285.59.665.8 1.14.22.464.33 1.04.33 1.725 0 .623-.1 1.34-.298 2.153-.19.802-.46 1.662-.817 2.58a33.947 33.947 0 0 1-1.239 2.864 45.04 45.04 0 0 1-1.553 2.976 60.348 60.348 0 0 1-1.79 2.912c-.616.95-1.25 1.842-1.898 2.675l-.031.254c.21-.106.366-.174.47-.206.105-.032.215-.048.33-.048a.95.95 0 0 1 .33.048c.083.021.157.047.22.079l.22.095a.975.975 0 0 0 .266.032c1.035 0 1.95-.122 2.746-.364.795-.254 1.464-.533 2.008-.84a7.38 7.38 0 0 0 1.663-1.218l-.345 3.846c-.69.38-1.412.675-2.165.887-.753.21-1.45.369-2.087.474-.743.116-1.48.19-2.212.222.376.696.716 1.42 1.02 2.168.26.644.496 1.367.705 2.169.22.791.33 1.593.33 2.406 0 .095-.016.295-.047.601-.021.306-.063.68-.126 1.124a21.55 21.55 0 0 1-.266 1.472 14.123 14.123 0 0 1-.455 1.63 10.498 10.498 0 0 1-.66 1.583c-.26.517-.57.97-.925 1.361a4.111 4.111 0 0 1-1.208.966c-.45.242-.963.364-1.538.364-.575 0-1.077-.132-1.506-.396a3.568 3.568 0 0 1-1.099-1.076 6.6 6.6 0 0 1-.768-1.567 12.696 12.696 0 0 1-.471-1.884 21.332 21.332 0 0 1-.251-2.042 32.787 32.787 0 0 1-.063-1.994zm4.19-7.597c-.042 0-.09.121-.142.364-.052.232-.104.538-.157.918a66.823 66.823 0 0 0-.235 2.627c-.031.443-.058.86-.078 1.25-.021.38-.032.681-.032.903 0 1.55.026 2.785.079 3.704.062.918.136 1.614.22 2.089.093.475.193.78.297.918.115.148.23.221.346.221.355 0 .638-.163.847-.49.22-.327.382-.744.486-1.25a9.486 9.486 0 0 0 .22-1.647 24.2 24.2 0 0 0 .063-1.71c0-.368-.032-.822-.094-1.36a20.845 20.845 0 0 0-.236-1.678c-.094-.591-.209-1.177-.345-1.757a16.308 16.308 0 0 0-.408-1.551 6.524 6.524 0 0 0-.424-1.124c-.146-.285-.282-.427-.408-.427zm3.812-17.269c-.606 1.52-1.082 2.86-1.428 4.02a33.515 33.515 0 0 0-.784 3.071 27.323 27.323 0 0 0-.377 2.374c-.073.676-.146 1.304-.22 1.884a188.145 188.145 0 0 1 1.93-3.577 178.114 178.114 0 0 0 1.758-3.276 38.59 38.59 0 0 0 1.27-2.675c.336-.77.503-1.356.503-1.757 0-.56-.079-.966-.235-1.219-.157-.264-.372-.396-.644-.396-.48 0-.847.132-1.098.396-.251.253-.476.638-.675 1.155zm9.603 24.265c-.984 0-1.847-.18-2.59-.539a5.41 5.41 0 0 1-1.835-1.44 6.433 6.433 0 0 1-1.114-2.105 8.714 8.714 0 0 1-.36-2.517c0-.59.057-1.213.172-1.867.115-.665.287-1.314.517-1.947.241-.633.539-1.235.895-1.805a7.056 7.056 0 0 1 1.24-1.519 5.675 5.675 0 0 1 1.6-1.045 4.834 4.834 0 0 1 1.977-.395c.586 0 1.13.095 1.632.285.502.19.936.459 1.302.807.376.337.67.749.878 1.234.21.486.314 1.03.314 1.63 0 .655-.162 1.31-.486 1.963a7.005 7.005 0 0 1-1.318 1.852 9.276 9.276 0 0 1-2.024 1.551c-.774.454-1.616.807-2.526 1.06.156.286.309.523.455.713.157.19.313.338.47.443.157.106.32.18.487.222.178.042.366.063.565.063.628 0 1.286-.127 1.977-.38.7-.253 1.38-.57 2.04-.95.659-.38 1.281-.79 1.867-1.234a16.917 16.917 0 0 0 1.49-1.282l2.024 2.12c-.92.961-1.898 1.81-2.934 2.55-.45.316-.936.627-1.46.933-.512.306-1.056.58-1.63.823-.566.232-1.157.422-1.774.57a8.367 8.367 0 0 1-1.851.206zm-2.087-7.44c.376 0 .785-.094 1.224-.284.45-.2.863-.454 1.24-.76.386-.306.71-.639.972-.997.262-.36.392-.707.392-1.045 0-.475-.089-.865-.266-1.171-.168-.306-.377-.46-.628-.46-.45 0-.837.085-1.161.254a2.58 2.58 0 0 0-.8.665c-.21.264-.382.57-.518.918-.125.337-.225.68-.298 1.029a8.852 8.852 0 0 0-.126 1.013c-.02.327-.031.606-.031.838zm14.45 7.44c-.983 0-1.846-.18-2.588-.539a5.41 5.41 0 0 1-1.836-1.44 6.433 6.433 0 0 1-1.114-2.105 8.714 8.714 0 0 1-.361-2.517c0-.59.058-1.213.173-1.867.115-.665.287-1.314.518-1.947.24-.633.538-1.235.894-1.805a7.043 7.043 0 0 1 1.24-1.519 5.665 5.665 0 0 1 1.6-1.045 4.832 4.832 0 0 1 1.977-.395c.586 0 1.13.095 1.631.285.502.19.937.459 1.303.807.376.337.67.749.878 1.234.21.486.314 1.03.314 1.63 0 .655-.162 1.31-.486 1.963a7.001 7.001 0 0 1-1.318 1.852A9.303 9.303 0 0 1 71 23.52c-.774.454-1.616.807-2.526 1.06.157.286.309.523.455.713.157.19.314.338.47.443.157.106.32.18.487.222.178.042.366.063.565.063.627 0 1.286-.127 1.977-.38.7-.253 1.38-.57 2.04-.95.659-.38 1.281-.79 1.867-1.234a16.844 16.844 0 0 0 1.49-1.282l2.024 2.12c-.92.961-1.898 1.81-2.934 2.55-.45.316-.936.627-1.46.933-.512.306-1.056.58-1.63.823-.566.232-1.157.422-1.774.57a8.371 8.371 0 0 1-1.852.206zm-2.086-7.44c.376 0 .785-.094 1.224-.284.45-.2.862-.454 1.24-.76.386-.306.71-.639.972-.997.262-.36.392-.707.392-1.045 0-.475-.089-.865-.266-1.171-.168-.306-.377-.46-.628-.46-.45 0-.837.085-1.16.254a2.57 2.57 0 0 0-.801.665c-.21.264-.382.57-.518.918-.126.337-.225.68-.298 1.029a8.852 8.852 0 0 0-.126 1.013c-.02.327-.031.606-.031.838z"/>
</svg>
