<svg xmlns="http://www.w3.org/2000/svg" width="50" height="24" viewBox="0 0 50 24">
    <path fill="#FFF" fill-rule="nonzero" d="M10.27 15.757c-.622.36-1.176.676-1.663.947-.486.27-.92.495-1.303.675-.376.18-.713.316-1.011.406-.292.09-.558.135-.798.135-.493 0-.927-.148-1.303-.444-.376-.296-.69-.72-.944-1.274-.252-.56-.444-1.236-.573-2.028a17.507 17.507 0 0 1-.185-2.675c0-.386.016-.798.048-1.235.033-.438.078-.873.137-1.304a11.632 11.632 0 0 1-.458-.068 3.974 3.974 0 0 0-.34-.067 5.953 5.953 0 0 0-.457-.077 28.079 28.079 0 0 0-.798-.097.916.916 0 0 1-.36-.106.576.576 0 0 1-.184-.193.63.63 0 0 1-.068-.232A2.821 2.821 0 0 1 0 7.908c0-.13.065-.226.195-.29.123-.07.285-.122.486-.155.194-.032.408-.048.642-.048.24-.006.467-.006.68 0 .22.007.415.013.584.02.175 0 .295-.007.36-.02a22.09 22.09 0 0 1 .661-2.52c.273-.817.574-1.541.905-2.172.337-.637.703-1.146 1.099-1.526.395-.386.81-.58 1.245-.58.278 0 .531.078.758.233.234.154.431.36.594.618.162.257.285.56.37.907a4.048 4.048 0 0 1 0 2.076c-.092.348-.215.705-.37 1.072-.156.36-.34.727-.555 1.1-.207.374-.428.744-.661 1.11.058.007.155.014.292.02a22.006 22.006 0 0 1 1.05.039 292.512 292.512 0 0 1 1.148.038c.168.007.308.013.418.02.13.006.223.07.282.193.058.122.087.277.087.463a.783.783 0 0 1-.194.55c-.13.142-.272.213-.428.213H5.913c-.188.258-.38.512-.574.763a31.8 31.8 0 0 1-.525.666 80.7 80.7 0 0 0-.068 1.178l-.02.521-.019.522-.02.502v.444c0 .348.033.64.098.879.065.238.159.434.282.589.123.148.272.257.448.328.181.064.382.096.602.096.137 0 .305-.032.506-.096.208-.065.431-.151.671-.26.247-.117.503-.252.769-.406a10.32 10.32 0 0 0 1.556-1.082 7.55 7.55 0 0 0 .651-.627v2.471zM7.158 3.534c0-.071-.006-.148-.02-.232a.79.79 0 0 0-.058-.25.445.445 0 0 0-.438-.27c-.168-.001-.34.147-.515.443a7.028 7.028 0 0 0-.496 1.14c-.155.456-.305.961-.447 1.515a79.288 79.288 0 0 0-.38 1.612l.292.04c.098.006.198.015.302.028.194-.328.395-.682.603-1.062.214-.386.405-.763.574-1.13.168-.373.308-.72.418-1.042.11-.322.165-.586.165-.792zm8.792 7.154c.188.374.328.77.418 1.188.098.412.146.808.146 1.188 0 .38-.042.762-.126 1.149-.084.386-.208.76-.37 1.12a5.09 5.09 0 0 1-.583 1.013 3.964 3.964 0 0 1-1.75 1.371c-.351.136-.724.203-1.12.203-.57 0-1.06-.122-1.468-.367a3.176 3.176 0 0 1-.992-.975c-.26-.399-.45-.85-.574-1.352a6.716 6.716 0 0 1-.175-1.525c0-.708.107-1.368.321-1.98a4.759 4.759 0 0 1 .914-1.602 4.217 4.217 0 0 1 1.469-1.072c.577-.264 1.225-.396 1.945-.396.616 0 1.193.097 1.731.29.538.186 1.04.44 1.508.763.473.315.91.679 1.313 1.09.408.413.787.837 1.138 1.275l-.185 1.361a5.628 5.628 0 0 0-.71-.753c-.298-.27-.616-.534-.953-.791a22.51 22.51 0 0 0-.983-.725 29.002 29.002 0 0 0-.836-.579l-.078.106zm-3.005 5.378c.22 0 .434-.11.642-.328.207-.225.389-.505.544-.84.156-.341.28-.714.37-1.12.097-.412.146-.805.146-1.178 0-.296-.023-.57-.068-.82a2.527 2.527 0 0 0-.204-.667 1.22 1.22 0 0 0-.35-.444.822.822 0 0 0-.516-.164c-.266 0-.519.113-.759.338-.24.225-.45.515-.632.869a5.113 5.113 0 0 0-.428 1.158 5.167 5.167 0 0 0-.155 1.227c0 .27.026.524.078.762.051.239.132.448.243.628.11.174.256.315.437.425a1.3 1.3 0 0 0 .652.154zm4.95 2.221c0-.032.007-.228.02-.589.02-.36.052-.84.097-1.439.045-.598.107-1.287.185-2.066.078-.785.178-1.612.301-2.481.13-.876.28-1.77.448-2.684.175-.92.379-1.816.612-2.685.24-.868.513-1.686.817-2.452.305-.772.646-1.445 1.022-2.018.382-.58.807-1.036 1.274-1.37A2.58 2.58 0 0 1 24.207 0c.22 0 .451.039.69.116.247.077.47.203.672.376.2.174.366.406.496.696.136.283.204.634.204 1.052 0 .38-.061.817-.185 1.313-.116.49-.285 1.014-.505 1.574a20.58 20.58 0 0 1-.769 1.748c-.291.605-.612 1.21-.963 1.815-.35.598-.72 1.19-1.108 1.776a23.59 23.59 0 0 1-1.177 1.632l-.02.155c.13-.065.227-.107.292-.126a.712.712 0 0 1 .204-.029c.085 0 .153.01.205.029a.672.672 0 0 1 .136.048l.136.058c.045.013.1.02.165.02.642 0 1.21-.074 1.702-.223a6.77 6.77 0 0 0 1.245-.511c.396-.213.74-.46 1.031-.744l-.214 2.347a6.362 6.362 0 0 1-1.342.54c-.467.129-.898.225-1.293.29-.46.07-.918.116-1.372.135.234.425.444.866.632 1.323.163.392.308.833.438 1.323.136.482.204.972.204 1.467 0 .058-.01.18-.029.367a9.64 9.64 0 0 1-.078.686c-.039.27-.094.57-.165.898-.071.328-.165.66-.282.994-.11.335-.246.657-.409.966a3.71 3.71 0 0 1-.573.83c-.214.245-.464.44-.75.589a2.002 2.002 0 0 1-.952.222c-.357 0-.668-.08-.934-.241a2.196 2.196 0 0 1-.68-.657 4 4 0 0 1-.477-.956 7.644 7.644 0 0 1-.292-1.149c-.071-.405-.123-.82-.156-1.245a19.684 19.684 0 0 1-.039-1.217zm2.597-4.634c-.026 0-.055.074-.087.222a6.894 6.894 0 0 0-.098.56 40.129 40.129 0 0 0-.195 2.366c-.012.23-.019.414-.019.55 0 .946.017 1.699.049 2.259.039.56.084.985.136 1.274.059.29.12.477.185.56.071.09.143.136.214.136.22 0 .395-.1.525-.3.136-.2.237-.454.302-.763a5.7 5.7 0 0 0 .136-1.004c.026-.36.039-.708.039-1.043 0-.225-.02-.502-.059-.83-.032-.328-.08-.67-.146-1.023-.058-.36-.13-.718-.214-1.072a9.821 9.821 0 0 0-.252-.946 3.94 3.94 0 0 0-.263-.686c-.09-.174-.175-.26-.253-.26zm2.363-10.534a28.83 28.83 0 0 0-.885 2.452 20.18 20.18 0 0 0-.486 1.873c-.11.547-.188 1.03-.233 1.448-.046.412-.091.795-.136 1.15.395-.74.794-1.468 1.196-2.183.402-.72.765-1.387 1.09-1.998.323-.618.586-1.162.787-1.632.207-.47.311-.827.311-1.072 0-.34-.049-.589-.146-.743-.097-.161-.23-.242-.399-.242-.298 0-.525.08-.68.242-.156.154-.295.39-.419.705zm2.082 15.168c0-.032.006-.228.02-.589.019-.36.051-.84.096-1.439.046-.598.107-1.287.185-2.066.078-.785.179-1.612.302-2.481.13-.876.279-1.77.447-2.684.175-.92.38-1.816.613-2.685.24-.868.512-1.686.817-2.452.305-.772.645-1.445 1.021-2.018.383-.58.807-1.036 1.274-1.37A2.58 2.58 0 0 1 31.25 0c.22 0 .45.039.69.116.247.077.47.203.671.376.201.174.367.406.496.696.136.283.205.634.205 1.052 0 .38-.062.817-.185 1.313-.117.49-.285 1.014-.506 1.574-.214.56-.47 1.142-.768 1.748-.292.605-.613 1.21-.963 1.815-.35.598-.72 1.19-1.109 1.776a23.59 23.59 0 0 1-1.177 1.632l-.02.155c.13-.065.228-.107.293-.126a.712.712 0 0 1 .204-.029c.084 0 .152.01.204.029a.672.672 0 0 1 .136.048l.137.058c.045.013.1.02.165.02.642 0 1.209-.074 1.702-.223a6.777 6.777 0 0 0 1.245-.511c.395-.213.739-.46 1.03-.744l-.213 2.347a6.363 6.363 0 0 1-1.343.54 12.38 12.38 0 0 1-1.293.29c-.46.07-.917.116-1.371.135.233.425.444.866.632 1.323.162.392.308.833.437 1.323.137.482.205.972.205 1.467 0 .058-.01.18-.03.367a9.64 9.64 0 0 1-.077.686c-.04.27-.094.57-.166.898-.07.328-.165.66-.282.994-.11.335-.246.657-.408.966a3.71 3.71 0 0 1-.574.83c-.214.245-.464.44-.749.589a2.002 2.002 0 0 1-.953.222c-.357 0-.668-.08-.934-.241a2.196 2.196 0 0 1-.68-.657 4 4 0 0 1-.477-.956 7.644 7.644 0 0 1-.292-1.149c-.071-.405-.123-.82-.155-1.245a19.684 19.684 0 0 1-.04-1.217zm2.597-4.634c-.026 0-.056.074-.088.222a6.894 6.894 0 0 0-.097.56 40.129 40.129 0 0 0-.195 2.366c-.013.23-.02.414-.02.55 0 .946.017 1.699.05 2.259.038.56.084.985.136 1.274.058.29.12.477.184.56.072.09.143.136.214.136.22 0 .396-.1.526-.3.136-.2.236-.454.301-.763a5.7 5.7 0 0 0 .136-1.004c.026-.36.04-.708.04-1.043 0-.225-.02-.502-.06-.83-.032-.328-.08-.67-.145-1.023-.059-.36-.13-.718-.214-1.072a9.821 9.821 0 0 0-.253-.946 3.94 3.94 0 0 0-.263-.686c-.09-.174-.175-.26-.252-.26zm2.363-10.534a28.83 28.83 0 0 0-.885 2.452 20.18 20.18 0 0 0-.486 1.873c-.11.547-.188 1.03-.234 1.448-.045.412-.09.795-.136 1.15.395-.74.794-1.468 1.196-2.183.402-.72.765-1.387 1.09-1.998.324-.618.586-1.162.787-1.632.208-.47.312-.827.312-1.072 0-.34-.05-.589-.146-.743-.098-.161-.23-.242-.4-.242-.297 0-.524.08-.68.242-.156.154-.295.39-.418.705zm5.952 14.801c-.61 0-1.144-.11-1.605-.328a3.346 3.346 0 0 1-1.138-.879 3.904 3.904 0 0 1-.69-1.284c-.15-.49-.224-1-.224-1.535 0-.36.036-.74.107-1.14.071-.405.178-.8.32-1.187.15-.386.335-.753.556-1.1a4.32 4.32 0 0 1 .768-.928c.298-.27.629-.482.992-.637.37-.16.778-.241 1.225-.241.363 0 .7.058 1.012.174.311.115.58.28.807.492.233.206.415.457.545.753.13.296.194.628.194.995 0 .399-.1.798-.301 1.197-.195.399-.467.775-.817 1.13a5.74 5.74 0 0 1-1.255.946 6.613 6.613 0 0 1-1.566.647c.097.173.192.318.282.434.098.116.195.206.292.27.097.065.198.11.301.136.11.025.228.038.35.038.39 0 .798-.077 1.226-.231a7.978 7.978 0 0 0 1.265-.58c.408-.232.794-.483 1.157-.753.363-.277.67-.537.924-.782l1.254 1.294a12.81 12.81 0 0 1-1.819 1.554c-.278.193-.58.383-.904.57a8.204 8.204 0 0 1-1.011.502c-.35.142-.717.258-1.1.348a5.266 5.266 0 0 1-1.147.125zm-1.294-4.538c.234 0 .487-.058.76-.174a3.43 3.43 0 0 0 .768-.463c.24-.187.44-.39.602-.608.163-.22.244-.432.244-.638 0-.29-.056-.527-.166-.714-.103-.187-.233-.28-.389-.28-.279 0-.519.051-.72.154-.194.103-.36.239-.495.406-.13.16-.237.348-.321.56-.078.206-.14.415-.185.628a5.318 5.318 0 0 0-.078.617c-.013.2-.02.37-.02.512zm8.958 4.538c-.61 0-1.145-.11-1.605-.328a3.346 3.346 0 0 1-1.138-.879 3.904 3.904 0 0 1-.69-1.284c-.15-.49-.224-1-.224-1.535 0-.36.036-.74.107-1.14a6.82 6.82 0 0 1 .321-1.187c.15-.386.334-.753.554-1.1.22-.355.477-.664.769-.928.298-.27.628-.482.992-.637.37-.16.778-.241 1.225-.241.363 0 .7.058 1.011.174.312.115.58.28.808.492.233.206.415.457.544.753.13.296.195.628.195.995 0 .399-.1.798-.302 1.197-.194.399-.466.775-.816 1.13-.35.354-.769.669-1.255.946a6.608 6.608 0 0 1-1.566.647c.097.173.191.318.282.434.097.116.195.206.292.27.097.065.198.11.302.136.11.025.226.038.35.038.388 0 .797-.077 1.225-.231a7.962 7.962 0 0 0 1.264-.58c.409-.232.795-.483 1.158-.753.363-.277.67-.537.924-.782l1.254 1.294a12.825 12.825 0 0 1-1.818 1.554c-.28.193-.58.383-.905.57a8.204 8.204 0 0 1-1.012.502c-.35.142-.716.258-1.098.348a5.27 5.27 0 0 1-1.148.125zm-1.294-4.538c.234 0 .487-.058.76-.174.278-.122.534-.276.767-.463.24-.187.441-.39.603-.608.162-.22.243-.432.243-.638 0-.29-.055-.527-.165-.714-.104-.187-.233-.28-.389-.28a1.56 1.56 0 0 0-.72.154c-.194.103-.36.239-.496.406-.13.16-.236.348-.32.56-.079.206-.14.415-.185.628a5.318 5.318 0 0 0-.078.617c-.013.2-.02.37-.02.512z"/>
</svg>
